<mxfile host="65bd71144e">
    <diagram id="FkTJciFPJiQdJkoDnYnF" name="Page-1">
        <mxGraphModel dx="887" dy="324" grid="1" gridSize="10" guides="1" tooltips="1" connect="1" arrows="1" fold="1" page="1" pageScale="1" pageWidth="850" pageHeight="1100" math="0" shadow="0">
            <root>
                <mxCell id="0"/>
                <mxCell id="1" parent="0"/>
                <mxCell id="3" value="" style="shape=image;verticalLabelPosition=bottom;labelBackgroundColor=default;verticalAlign=top;aspect=fixed;imageAspect=0;image=data:image/png,iVBORw0KGgoAAAANSUhEUgAAAgAAAAIACAYAAAD0eNT6AAAAAXNSR0IArs4c6QAAADhlWElmTU0AKgAAAAgAAYdpAAQAAAABAAAAGgAAAAAAAqACAAQAAAABAAACAKADAAQAAAABAAACAAAAAAAoMJe/AAAAHGlET1QAAAACAAAAAAAAAQAAAAAoAAABAAAAAQAAANRNHfiEWQAAQABJREFUeAHs3QdcF9a5N/A0SZMmTbPTtEnb26S5TRPjRtl7770EBBwIKCqIiiCKigORjSCKLBH070JRXChuEBAn7r234J783t/5a3rbe997b/t527xJ+vDJCVP48wU9z3nOc57z0kvyJAIiIAIiIAIiIAIiIAIiIAIiIAIiIAIiIAIiIAIiIAIiIAIiIAIiIAIiIAIiIAIiIAIiIAIiIAIiIAIiIAIiIAIiIAIiIAIiIAIiIAIiIAIiIAIiIAIiIAIiIAIiIAIiIAIiIAIiIAIiIAIiIAIiIAIiIAIiIAIiIAIiIAIiIAIiIAIiIAIiIAIiIAIiIAIiIAIiIAIiIAIiIAIiIAIiIAIiIAIiIAIiIAIiIAIiIAIiIAIiIAIiIAIiIAIiIAIiIAIiIAIiIAIiIAIiIAIiIAIiIAIiIAIiIAIiIAIiIAIiIAIiIAIiIAIiIAIiIAIiIAIiIAIiIAIiIAIiIAIiIAIiIAIiIAIiIAIiIAIiIAIiIAIiIAIiIAIiIAIiIAIiIAIiIAIiIAIiIAIiIAIiIAIiIAIiIAIiIAIiIAIiIAIiIAIiIAIiIAIiIAIiIAIiIAIiIAIiIAIiIAIiIAIiIAIiIAIiIAIiIAIiIAIiIAIiIAIiIAIiIAIiIAIiIAIiIAIiIAIiIAIiIAIiIAIiIAIiIAIiIAIiIAIiIAIiIAIiIAIiIAIiIAIiIAIiIAIiIAIiIAIiIAIiIAIiIAIiIAIiIAIiIAIiIAIiIAIiIAIiIAIiIAIiIAIiIAIiIAIiIAIiIAIiIAIiIAIiIAIiIAIiIAIiIAIiIAIiIAIiIAIiIAIiIAIiIAIiIAIiIAIiIAIiIAIiIAIiIAIiIAIiIAIiIAIiIAIiIAIiIAIiIAIiIAIiIAIiIAIiIAIiIAIiIAIiIAIiIAIiIAIiIAIiIAIiIAIiIAIiIAIiIAIiIAIiIAIiIAIiIAIiIAIiIAIiIAIiIAIiIAIiIAIiIAIiIAIiIAIiIAIiIAIiIAIiIAIiIAIiIAIiIAIiIAIiIAIiIAIiIAIiIAIiIAIiIAIiIAIiIAIiIAIiIAIiIAIiIAIiIAIiIAIiIAIiIAIiIAIiIAIiIAIiIAIiIAIiIAIiIAIiIAIiIAIiIAIiIAIiIAIiIAIiIAIiIAIiIAIiIAIiIAIiIAIiIAIiIAIiIAIiIAIiIAIiIAIiIAIiIAIiIAIiIAIiIAIiIAIiIAIiIAIiIAIiIAIiIAIiIAIiIAIiIAIiIAIiIAIiIAIiIAIiIAIiIAIiIAIiIAIiIAIiIAIiIAIiIAIiIAIiIAIiIAIiIAIiIAIiIAIiIAIiIAIiIAIiIAIiIAIiIAIiIAIiIAIiIAIiIAIiIAIiIAIiIAIiIAIiIAIiIAIiIAIiIAIiIAIiIAIiIAIiIAIiIAIiIAIiIAIiIAIiIAIiIAIiIAIiIAIiIAIiIAIiIAIiIAIiIAIiIAIiIAIiIAIiIAIiIAIiIAIiIAIiIAIiIAIiIAIiIAIiIAIiIAIiIAIiIAIiIAIiIAIiIAIiIAIiIAIiIAIiIAIiIAIiIAIiIAIiIAIiIAIiIAIiIAIiIAIiIAIiIAIiIAIiIAIiIAIiIAIiIAIiIAIiIAIiIAIiIAIiIAIiIAIiIAIiIAIiIAIiIAIiIAIiIAIiIAIiIAIiIAIiIAIiIAIiIAIiIAIiIAIiIAIiIAIiIAIiIAIiIAIiIAIiIAIiIAIiIAIiIAIiIAIiIAIiIAIiIAIiIAIiIAIiIAIiIAIiIAIiIAIiIAIiIAIiIAIiIAIiIAIiIAIiIAIiIAIiIAIiIAIiIAIiIAIiIAIiIAIiIAIiIAIiIAIiIAIiIAIiIAIiIAIiIAIiIAIiIAIiIAIiIAIiIAIiIAIiIAIiIAIiIAIiIAIiIAIiIAIiIAIiIAIiIAIiIAIiIAIiIAIiIAIiIAIiIAIiIAIiIAIiIAIiIAIiIAIiIAIiIAIiIAIiIAIiIAIiIAIiIAIiIAIiIAIiIAIiIAIiIAIiIAIiIAIiIAIiIAIiIAIiIAIiIAIiIAIiIAIiIAIiIAIiIAIiIAIiIAIiIAIiIAIiIAIiIAIiIAIiIAIiIAIiIAIiIAIiIAIiIAIiIAIiIAIiIAIiIAIiIAIiIAIiIAIiIAIiIAIiIAIiIAIiIAIiIAIiIAIiIAIiIAIiIAIiIAIiIAIiIAIiIAIiIAIiIAIiIAIiIAIiIAIiIAIiIAIiIAIiIAIiIAIiIAIiIAIiIAIiIAIiIAIiIAIiIAIiIAIiIAIiIAIiIAIiIAIiIAIiIAIiIAIiIAIiIAIiIAIiIAIiIAIiIAIiIAIiIAIiIAIiIAIiIAIiIAIiIAIiIAIiIAIiIAIiIAIiIAIiIAIiIAIiIAIiIAIiIAIiIAIiIAIiIAIiIAIiIAIiIAIiIAIiIAIiIAIiIAIiIAIiIAIiIAIiIAIiIAIiIAIiIAIiIAIiIAIiIAIiIAIiIAIiIAIiIAIiIAIiIAIiIAIiIAIiIAIiIAIiIAIiIAIiIAIiIAIiIAIiIAIiIAIiIAIiIAIiIAIiIAIiIAIiIAIiIAIiIAIiIAIiIAIiIAIiIAIiIAIiIAIiIAIiIAIiIAIiIAIiIAIi8F0KaDSaVwoKmn+q0bS+ll1T87oaBc3NPy0oKPgpgJ98l4/lu/xaeOmlVzl+y/HGd/l15WuJgAiIgAiIwD9VgJP3y62tra81Nze/WVy87N3U/LJfZsxb8uv8ymW/H5tV/O8jphT/aXjKnK8S0+Z1HTm9qEd0ylyd8OT83lEc0cmzdOImFnaPnZz/zYgpBX8akzb7jzlzVnyWnF/6aXzmnI/TCzXva+rq3mpuBgMHvPJP/Ub+SZ+cE/8rEgD8k3Dl04qACIiACHx3As9X8gU/zc7Ofj0sqeDNpNT8XxbOW/5F8YLVvabNmu86LrNsYHJeRUx2cdW0hIySOTFT5swfMnHWkmGTC2sGJeZtGDA2Z1P/+OwtfL45ImnmRr5v3dDk2VXDJhVUjkotKppRuDg9Mad8VEJGUVhCZrF32dLVRgULav6QOWf5x9Hpmjeiovh1wwoYEGh+kAHBd/eTkq8kAiIgAiIgAv8Agbq6ule50n9r5dq6b/Irq9zTihZHTMgqyw4fn7s8cHRGg0/0jGNuUdOuO0ZOvWsfPvW+1cDJD2wjpj+0i5j+yD4y9bHD4NQnjlFpT5yGpj9xHprBka59Wb3NYUj6Y4chMx7ZD059ZDNo2kP7iOkPnIbMuOs+NO2Wb2zmmeC4rPqwcTNXjkktyZmUVzI4e57GUVO1qrPKDiQlJb38D/j25FP8qwpoNN6v1NWZvcrnr9XU2L/+7VCvA0kvAy/9aPen/lV/5vJ9i4AI/M8CTO2/Us20/vwlq/4to3Ch4ZgZxW6RE2YO6p+YndZ3TOaCgNGZa/qMzmrxHpF+0jMm/YpnTMYdj+GZTz1iMuERkwX36Gx4xubBa2Q+vEfPgk/cLPiOmQ0/Dv8xc/h8jvZ1n7gC+Iwu0H6M16h8uI+YCY/YmfyzMzu8RuY+84rNve89MueK76jcU31Gz2wJGJOzJjg+b17YuIIZQ5LywiZkFtmm55f2LtVoPlX1BPyu5N/r//lH+6/3Xo3mpVeaC3r+tC7p9z9rru75ZqvG7K2Gcvu3T9WZvVtbofvxBo3+pxvmW/zbZo3JZ7XzjT5fy+frNVa/W6Ux+1Vddc8Pdy8ze1dT0POdtWVdfr5Do/+GRtPpNSS99DL3duSX7V/v10m+YxH4UQqo1XQSV/ozNZq3kmZqfjUpY8FXKTMrvcZllE2JSi5YEJyQtdNr+IwbjkNSnthHpsAucgach2XALSYHXqPy0Cd+NgLHFaFvUgn6TSxD/+QKDJhSgYHTKhE2bQHHQu0YlKJB2IsxkG8bOGUBBkxewI+vROik+Qjmnw1MKoX/uGJ4x82B+8hZcInJg+OwbDgOzYRrdOZDn5HZ1/rH5+yMnVY4OzG9ZGxSbpFTUpbmd0nphe9XV1e/+WMuLPxR/vL9s74ptYKvrbD8uLbc+Otti0yN65YYe23RmEZsW2w6cvtSs2n1yyxnbl1qWrR9qUk537Zw+xKzBTuWmlc0VJmX1i+1mL19qWnWlmWmU7ZqTGPq5hv71VWY2W0uNelezaBBBQT/rMctn1cEREAEvkuBAo3mndwFS/+YXby4X8y0gnn9x2bvcBk89Y7VwCkdNuEpcIhKh8eIXPgnzEHQ+CJO2PMwaGolwjmZR6YuRlT6MgzLXI7h2dWIyV2F2LzVGJm/FqNmrcOoglqMnr3hz0O9PmpWLd+/HiPy1yFm5lqONRiWuxpDs1ZicEY1ItOrED5jGQZNX8wgYhFCpyxE8IQK9EkshVfcXLhE5/MxZcFxSMZT7+j0a0Mm5q9Jzi2fVLl8tQuDgA+lTuC7/O35nnwttdrfXGXy282LTGy2LzINrV9qmtawwrKqscp8W/NSi9bdSyzPHVjjcO3gJuebx5rd247sdL1zcLvTnf2b7O62bra7d6ze+d6JRtd7p1rc7p7Z637n9D7326f3erQdbXC+tWed7cXmVVYnG5ab7+JYvmOZeQGDhgmbF5oEr68wMlpbof+nmnLdt2Xb4HvyyyAPQwRE4H8U2LFjxxs1Wxq+Ti9eFMkU/2yvmJTtjoOnXeWe/V3u1T/0HpnXETC2ECFc1Q+cPB8R0xdhKCfmaE7SI/PWYMzsjUicuxlJJdswsbwekyobMXlBM6Zp9mD64r1IXbL/xTiA1KXPx/QlB5DCMW3xAUxdvB+TF+5FcuUeTKrYjaT5zRhXthMJJfUYU7Qdowo3I7ZgI2LyaxkcrMPgzBqEp69AGAOD/tOWIDh5AbMF5fAeU9zhNiL/vnt0TptndOa5sITcFWOnzx42I6fItqamgf8m/3iPGv6PP+B/hXcmMR3frLF6Z4fG4tOmMoNv6jWGLo1LTMc0LTPP3rXCcvWuKov9LUsszrUssmw7sNTm0eENTh3Hdrji1B5PnGxxx/GdLjhS74gTjc44u8cd5/d74uIhL1w67I1LRzgOeeP0Hjcc3uLweH+t7b2W1dZXm2ssWxurLbY0rrBYUr/YJGvrYpNhDDoCdiwyMdiwwOAPNZruH1Vzu+FfwV++RxEQgR+UwE/SNZo38kurP502a2nXhIz5QTyeVxDM6nzP6LTzTlFpHa5qD39kHoKYhldp/IjpGgzNWIbonFUYPWs94uds5KS/lZN2A6YubEbKoj1IW7YP6VUHkbHiMLJXHkVOzXGOE8jVjpPIXX0SORzZNSeRpcaqE8hceRzpK45iRtVhpC47hGlLDmLKwn0MJPYgqaIF4+Y1Ip7BQByDgZFzNiF61kYGAusRlbUGkZkrMXD6cvSbuoRBQAU8xxTBY2QBPEfMfBwSP6t1cFLB3OjkgrgxU/IN00s1n6aWlUnG9gf1a/q/PFiwgO9Y9hevbynq/tG2+YYOOyqMxzQtMKvkONayxPLB3uVWOFBtg4OLrXG4whpHy21xaoUzLu70wuX9PrhyxAcXObFf2O2Oi/s8cPOkH9ouBKD9YgDaLvb587h10Q83T/vgXKs7Tu52wdEGBxzaYocDdbbYW2uD3ast0VRtfqd+ufmFbRrTzXUVJhkbKo1DlpeZ6ahtAgYor6og5X/5duTdIiACIvDPFPgJ9/lfTZo58630Ak3n6YWLRsWllc7ziUk/bxee8tRpaAY8WYgXzNX+IO7ND56xhCv9FRhdsB6JRZsxad4OpGhaOMkfQNbKw8hbcxJzNp5B0aYLKNlyGfN2XMW8+usob7iBisY2VDbfwoJd7ahUo7kdFWo0taOc75u3sw1lDW0oqb+Fku03Ubj1OuZsuYZZdVeQV3sJOWvPI3P1WWRUn0ZK1XFMXXoEkzQHGBTswdh5uzCmZCdGFm5BdH4dhs3cgCEMCMLTV6J/yjL0TV4I9zElrE3IhXdMdnv4+JmbUwvmD80sqtRVQYBsDfwzf8W+w8+9NVdPd3uWbmhDjuHiptkmF1oKTe/snWv+qLXI9NnRBVY4zon/1BJO+svscb7WGZd3uuHqAU9c4YR/udENl+pccGmjC67vcEfbfm/cvRyI+9fVCMC9awG4e6UP3+aPO5d8GRhwnPPBrTM+uH7KG5ePeuDCQXec2ePKDIITWrfYdezdYN2xa7XF0x3LzR9uW2J6adNC413ryoxSqst0japL9T/9DmnkS4mACIjAXwk0HDv2dnbxIuOxmaWjfaKn77SPSLlhP3j6I1bed/QdX6otxhuctgwxOTVImFuHCWXbMX3RbuSsPISCdSdRtPk85tdfg6blJpbsbceK1ruoOfwAa449wtpTj1F76gk2nFHj6fNx9hlqX4z1p59hDcfqU09Rc+IJVh57jOqjj1DFP7/s0AMsOXAfi/ffx8Ld91C5+w7mN99G2c52FNe3oXDLDczedB15G64ic80FpK86g+lVJ5G85DCSFuxD4vwWxBU3YsScrRjOgCAqZz3CM1YxM1CFwAkaeIwqeuoRnXWPGY6muNSCnAVLVuhpNHVv/RWOvPLDEKhLMvtZbbzux9tG69jXj+6dtjOud1VTgt6xXZMMHu5JMeo4kGGKw9mmODbHEidKrHC6wgYXVjri8hZXXN/ljustnrjOQOB6PUeDG27t9kA7U/13z/jh4Y1APLwViAe3AvDgBgcDgfvX++D+NQYCalztgzsc7ZeZHbjghxtnfXH1pA8DAQ+c3OXMzIAjDmyyQ8s6a+xcZflw23Lza7ULjXfWzDPKXFFqELm4xLBTAU8j/DCk5VGKgAj8GAS44n2juHrtn+Kmzw3pl5Cb5T86s84rOvOqZ2zuE3UML2RCOYZw4o9lAV480+zJFTuRUbUfM1cf4er+DCp3XsaS3ddRfaANa4/dw8ZTD7Dp7ENsPf8EOy49Rf3lZ6i/wnGtg0M9f4btfH3r5afYzPfXXXyCunOPsP70Q6zjn11z/B5qjtzBysO3UX2oHctb21C1vw3L9t3C4j23oNl9Ewt33WTW4CYzBjeZUbiJsvqbKN7OLMFmZgk2XsHM9Ze0GYLpK05i6rJjmKBpZSCwG2NKm5gZqGcgsAkRWeswMG0Vgictgv/YUgQmFF4NGVvQHJk0M2tCdrHzrHLN16wNkMzsD+WXnJP/qzsSun7aFKdjtn14z+LGyF7nmgf1etQ8sBd2D+qNfdH6OJRoiKOTTXF8hilOZpvjbLENLq9ywvWtrri1ywNt9e64uZUTP1f9tw944QFX9g84qT/kpP+4LRCP2l8M9XJbwIvBwKAt6D/GLb7McY8Bw+1rgbh13g+XmBE4d8AVJ5qdcWi7HfbW2aBxjRU2V5lh7QKT89XzjTZp5hhEaPL1Py3mccQfirk8ThEQgR+mgEp1p8xd/ouphZovJhcsGhA+YdY6nxGZ5x1Zze85qoBH7soRzqI+teIfy0K+5IpGpHMff07tKVQ0XMLiluvaSXrjyQec7B+jgRP6rhsd2NsG7G8HDtwBmATAgRdj750O7G5/hl1tT9F4g8HBFQYJF+8xWLiLDafasO7oDaw5fA2rDlzBir0XsHz3OSzbdRbLms5gSePzsZjPFzeexaLGc9A0noem6SIWNl7GgsYrDESuoXznDQYDN1C844Y2GMjbcBk56y5qswLTuFUwedEhJFXuQ3xpM2ILt7NmYAuismsxILUaARMWwGv03KcBcTmXR6XOnT1lZumgzDkVH0dFRb0uDYW+57/jag+9NrrX51vCdEbt6N+zeadnt6dNjt3QZN0VjQbfoMWqK/Z59cDBgbo4PMwAx+KNcGKCCc5kWuBSuR2u1zihbYcb2hs8cJtZgLss7HvMVf6Te0F4cpfjNgcn/ye3/2Lw9cf/l/GIWYKHDBC+zRbcu9kHty/7MRDwwbWTHjh7wA3Hdznh4A57NG+wxuZqc6xfbNKxfJ5Be0WhfmZ5ob6lZAK+579w8vBE4AcsoCb/usbGX6XOWTA8esrsSoeIqfcdojI7vONmc+KvQFRGFYv5ajGO1fupS/a+mPQvYwVn9o1cqTddeYo9N5/hECf3Ew+AM4+Ac0+A80+fD/XymScdOPXwGY7ef4rW24+x+8YD1F9sx9YzN7Hh6GXU7D2D5U1HsWTbAVRuaMa8mu0oXbEFRUtrMWfhGsyuXIXZFSsxa/4KFGhHNd+2EnMWrEbhonX8uA0o5seX1dRj3tomlG/Yi4pNh1Cx5Tgqtp1GRf15lO+4grId11DMGoJZm5gZYP1A5przmL78JCZqDmFcxX5uDzRjxOztrBVgViBjLQOBhdoGRQGjcq5MyppbWFi6uPuyZcve/QH/uH/cD73OzOzVhgDd32z361ZQ79l1X6NT14eNZp3RqNcJTb07odmoM3bbd8Ve9x7Y798TB0N641CELo4M18fJ8aa4WGaLG+td0M6J//ZuT9w56oO7p/248vfHfY4H1/zxkKn+hzdUJuD5eNT2PCugnqvx+NvB9z9Sg5O++tgHatzk57nux7oBX9xmvcCNM57MCLjjVKsrDjU6oJHZgC1rLFGz2BSLVBBQrL96Tp7u8MLCTu9LceCP+3dXvjsR+K4Fqtdv+12hZrkje+1r3IalnWGznru+8XM7BkzRcOKv1p6/T57fhJk1R1G8+SyWM/2++cwD7Lr6BIdvPwOz+7jMCf4aJ/ubHcCtZ3z+rIMvd+DKE/X+pzhx7zEO3rqPpgtt2HbiCmr3n0HVDk70a3agrGojCucvR17BfGRlz0V6ah6mTUzD5ITJmDR6AsaPGIvxw+OQOHQkxg6J5RiJxKhRHKMxjm8fPyIRSaPHY2L8JEwZPx0pU7OQOiMPGbklyJm7EPnzqlDAAKKoajNKVjehdN1elNUd4ziNks3nuG1xEQV1l5CrCglrziJl2XFMWHiAxYMtGFW0E8PyNvEY4SqEJGue+Y6e1RYal7Zp5JSZo1at39xZCgS/69/Wv+Hr1Zl1eqveo5vhdveutQ3OXS/ttOWq3+QbNOl9g2Y1TBkA2DEAcGUA4N0TrX174dAgBgDD9HFivAkusvr/xgYGADz2177XE21HvNB2whu3z/qgneP2eV/cYaX/3UucxK/4cyJnUHCd4ybrANREz6Em/ccvhpr8tQHAi/c9ZACgPv4+/9ydq8wEnPNmbYAHzh92xbHdzmjZZod6ZgLWrzBF1QIjLCzTby2erVdYUKCnW1Dw+Tuqd8HfwCAfIgIiIAL/rYDaz1Y36SXNLLcZlVaWEJows8UtOvuee2y+dtU/lMfm4nhuf2L5Tm1hX8WOi1i+9wY2n76PfUzZH2MK/xwn/+uc+Ns48bdzMMsPZvVx82kHrj1+hnP3H+HorXs4cLUdjaevou7AadTsPIilaoVftQGzS5Zi5qz5yEjLx7QJMzA5PhkTOKEnRsViTNhQjO4XidjgMMQE9kN0n1AM9wvRjmj/UO3rIwL78/2DMIofF8ePTxg8AuNiEjAhLgnJSSmYnpKDtMw5yJxVhrzSZZitWYvCZZtQsrIZJetaUbLhGIoZCBTVnUNB7XnkrTuHjFWnkLL0KCaqIKC8BSPnNmBIzgYMTF2JgMSSZ8HxuSfZVrhkanZJQGXluk9etBT+b53lHd+hgIbXKW4z/PLLbZbfzGqw7Hx7pyVX/lz9N5l0xi6zrmix6IY9DAh2W3fDPqduDAB6oDW4Nw6H6+FotAFOJpvhosYO11jxf3O3Gy7z2N/Znc44tcMZJ7c64XSDM87vcsHlfW64ctgNN0544tZpLwYFzBKogICp/Xuc1LUBASf5h2qoiZ/bB/8x+DozCA9YKHjvmh+LBH1x8zyDgFOeOM3PebDFEbsbbLG11gI1y82wuNIIZUV6dwsKdCqzsnoazZjR80OSSlvh7/D3Sr6UCPxYBLQtfJOSXpvDG/OScufFhMTnrHEZmtruMjyXbXV5hj91GUby7H5yRRPP5x9C6dbzrN6/jeYrj3GIs/slpvdvcbJnth+c//H4xeCbcY9vv/noKS7cfYTjN++h5cwNbNp3GqsbDmLh6i2YO48Tfl4J0jkxJ4+ZgHFDRiB+QCRG+AVjmJs3Bju4Y5CVE/qbWSPE2ALBRmYI0jdFHz1j+OsZwU9XDWP04fMAvh7It/c1NOXHmSPE1AoDTO0wyNYZEY7uGObhj+jAUIzqH4GEITEYP2Y8pk6egdS0XGQWzONWQjXmLFbbBg0ord2PkroTDAZ4TLHuPPLXn2PvgdNIXa6yAfsRX9bMQKCeJwY2IGhiJfomzLk9MCH7QEHpokHl5Ut+I0HA9+RvxxbL7l9vM+syoMHsm2sN1l2eNdp0RbNdN+x24aTv+vz5HgcGAW7dsd9P53n6v78uDrEW4MhQfZyaZoazGhvsX2SFjSUmyBvbHQkDvkRs0B8wqu/nyIjtjMUZemhYZIHjdQ4MDJxwptEFF/fzlMBRT9w8wWzBaWYLtFkC37/IEjw/FaBOBty7yiODHHfUuMI+Ajw6eEttBTAIuHSavQMOuuDwHic077DDpvUWWFVtAo3GEHOLdR/l5vWszsjqNiajuNu7sh3wPfmlk4chAj8ggYrltR/PKFxokpBeXOY6NP26+4jcx/5jSzoiZizVpvvHl25HZvUhbSHd+qN3tal+Zvy1qX01wTPbDz7TDi72wa193H36DLc48Z9rf4h9525ie+sZrK7fD34tFMwpR1ZaHqZwwk8MH47RXLVHu/shwsYZ/Uys0dfAHP69jeDRUw+uPXrDuXsv2HPYdusFaw7L7r1h/pejhy7M+XFqWPDtlt10+XG9YcfhxD/nyve783N59zJAoK4JQowsMMDcFpEqKPAOxIi+AxDPDEPS2ImYOi0D6bmFmFm6FIUMBopW7EDJ2n0MBHiMkZmBOQwIctcwEGDjocnsKzCWxYIxBVswKK26I2h82ZPgUZmXZsyqGLd8Va31D+hX4Mf5UNVlO1vMOrttM++cXm/R+WED0/xNjl2xS038nj2wh0V/ez043Hp0HODkr1b+B/vpojWkl7YY8BBPBRzmscAN2YYoSOiOEcF/hJvZr2Hc7X3odnoXehyOhh8jwuv3SB3xDTaWmmD/GjYM4lG+k2z2c77FFZdY0HflsGoS9DwQaD/7PBhQe/13LqkeAX892lUDIb7tFk8X3ORWwOXTHjhzxAXHWp2wZ5c9tm22xrq15lhWZYLScj3uk/U+kTFTZ+Xk9K4+Y3J7f5DEkw4/zp+mfFciIAL/SAG1X11Ztfa3QybkhPYfm5MeHJ/f6jN61uPA8WXsn7+Effc3Yiob9+TUHMGiXVew/cx9tN54jPP3O7RpfbXCZ7YfatLn9j6e8n8Pudffrlb87fdx/Eobmo6exbrtu7G4eiOKSxcjO20mpowah/GDYxAb0A+Dnb0QZuOEYK7w/QxM4d7LEC46BnDQ0YMtJ20rDoue+jDj28x6G8C0tyFMudo30Q5jGHPFb8yVv3bwbcbq7Qwe1MeZccJXf9aSn8Oaw54vu+jow4Nv92HWINDYHP0s7RFm54oorz6IDQnDGGYgkrhdMDUlE5n5ZcgtXoKCRQwEVjWjeO0BFNceRWHtKTYxOs6g6CimLNqPsWWNiJlVh/C0FQhNnPswauKsujEphWnLVq3qRuPX/pE/M/lcf4dAc8+XfrrVpNPY7WbfrGuw6YJGZ67+3btjNyf+3Sz22+fH4at93qEm/1ZO/ge5+t8fpIMDLALcP0ofjZlGSBn6NXysP8WXv/sF3nnzFbz15ut46+dv4t1f/ALvvfkavvzNW7DT+xi5cV2xpdwEe6stcWCdDY5ttccpbheca+HWQasbrvGo3/Xj3CJgIyDVEOjWOdUciIP9ANTzW+fU/r86DeDPyZ8BAD/mCjMA54+x7fBhZxzc64CdO+1Qt8kSq1abooJZgIJiXWQX9LqWktG9IiGlu050Uqf3SSTbAX/H74l8qAj8qwmoiamgouLD7JLljsFjMqt9YtNPukTnIpS98aMyqxE3p4699ltQtOUslu65jsaLD3HuHlf9nPFVml+t+L99Ui+ztg/3+b+2B09wru0e9py8hG37jmHZuu0oKl6IrNRcTOHEOnbAEEQzFT/Y3g2hJlbw54TtwUnZubsubLhat+Bzsx56MOmlD0NdQxhygjfUN4MBU/+GJuYwUsPMEkamHOZqWD1/nW8z5NvUMOBWgQG3AAwMTaGvbwoDBgjqc5lw4jdVAQEzArbMFDhzeDIw8GWwEMxgYKCNIyJdvTGctQWjhwzHxMRJmDo1Q1svkF+xirUCW1FSsxtlG1j8uIFdDNezLfHKY5i2aJ/2DoLRc7chjNslIQmzHoYl5h6cU7FoOJ1/1dzcLL1bvuu/YHVmL73aZNX58x2Wnarrrb+50uDIAMCVAYBXd7T4MQAI1MHevjode4N1OvaF9OrYH6aLff16YV8w386eAAdSjbEt3RApwzrhy9++hbd+9gpe/slLeOfnr8PCxBABvt4YGhmOzl/9Ee+98zZe/+nL6P3Vu8gZ3QVrZhlgzzIL7F7BQIAZgcMqI8C7As62OOPCXldcYQfAa8wKXOMWwfVjnrjBoOD58OKWAYODk97ajMFN1hNcPs5Wwxxnjrri6EEn7N3NgsAGa2yoYxZgpQlKKvUxq0QXqfk9HyWldZ+fkNrVPTpd/43v2lu+ngiIwA9HYO6C6q5pRQuH9hmVedwjNu+R95i5vDmvCiMLNrA/fzP77fP43d6baLr8GMdZ3Hebszzn+L96Uqt+LvjxiO+49fAJzqrivvPXsaGJ1fxLalDIVH/quCkYFzYEI30CMdjOBSGGZvDpaQB3puntu+kwXd8LppyQjdSEr8/JnhO9kYkFJ3UrmFrawszKFha2drCys4eNvYN22No74vlw4HMHWNs5aN9vaWsPNSys7WDOYWptCxNLGwYJ1jDk5zNgcKDHiV6fj0FfzxSGnPhNmGmw6KkeSy94MPjwZaZB1RgMtHJAlHcfxIQMRHzMaExmrUBaDrcGShZj7pI6lK3ZjXm1B1HKrYGCNceQteIgpi5im+GSBgzmZUMDJ8171j8u7erseZphy5ev7vLD+c34kTxSTadOr82z+KrHNquvt9bbdLq3zf4bBgBd0OzBLQDfbtgV1AMtwT07WkJ1OlrYCKgljCO8F3YN6Y3myQbYnKmPksRusOn9Ed5+42W8/upL+PnrL+PXH72DmOFDUDx3NrZv2YI+Pp748vPP8KoKDt54FUEOv8GMGB4vXGCGnQvN0LTYAi3LLbF/nS2ObrbDie0OONPsggtsAazqBC4fZHthFQxwXH8xbh52x60jHDwKeJVFgBcOu+DsIRYeHnLCgb3sDdDMgsAdVlhVa4bKKkMULdRH5txeSM7qcTdxRrdlI5K7BScldZLU04/kd1m+DRH4RwkU19X9bGr+/JD+Y2cucB+WfskrruDJQB7vG5a5imf6t2sn/sqmy9hw8i5O8Ehfm1rxc5Lnf9on9VwNFvXjIf93m+n+szfvopmp/vXbd0GzdDXysmZh2kge1ePEP8zVB/3NbdBH34R7+mqi5R49J3wzrryNOQEbcZVuwgnfjFsAFja2sOFEb+fgAAcnRzg7O3E4w8XFGa4uTnBx5ctq8GVnvt/JyQGOjg6wt+efsbODrS3/PD+HNSd+KysbWHKYfzsYCGgDCgsbGDMgMGKBoIGpBfQZcOjzMRgw02DKIERtF9h31+NjVYGAGYsPbTDY1QPRDATGDIvFhPHJmM5TBKpGYI5mHeat3oWKjSyMrD2C2asP80KjvUgqq2ftxHqETS57GhaffioxZVbatm3b9Orq6mR79h/1i/y/fZ7sL754fYppZ/0qq847qm263K+y64J1Tl2wya0r6r27oTGwG5oZADSH6HQ09ddB00AdNEb0ws6Y3tiZaog1M3SRO6Izev3pXfzi9VfxBlf4b7/xCn794TuIDB+A3OwMrF2zGn6ervjyD7/HawwAfvbKy3A1+RXGD/oSO+eboqGCQwUBS8yxd6U1Dtba4gizAafqHXB2l6s2G3CZNQJXDzEAUONFIHCDAcDNFwHAtRcBwDlO/qcOOeLgPnu0tNhie701Vm80w8JqY5QuNkBuqS6mzOyB8Rndm0ZO6zp1SMqXn5jxEqH/zUneLwIi8OMX4Jz9iqau7q3UORVdhqfMTQsck9vkEZvzqM+4Ut6MtxJj2MJXNfSZt/0C1h5ux56rj8D/tJO/2uf/9klN/ioToCb/Ww8e4yLT/ftPXULtjt1YtIwNePKKkTJmIhJCwxHjHYABlnas1jdhEZ4+HDj5qyI9U6b8TTj5G3PyNeUkbG5pDUsbTuBq4uek78RJ3s3NFR7urvD0cIOnpxu8+NzL050vc3i4w8PNDe78GFdXF22Q4OjkBAdHRwYCzBSojIE1AwBO+uYW1hxW2mHKyd+MX8uYr6utA5UV0GdWQJ9bBnoMAgxZF6C2CVQQ4MRtCG/WI6jApT+/h8EevogJZY3A8JGYNHE6MvKKtNmAEvYSmM8+AuXMBhSvP4zc6lZMXbAL44q3IiptMcISsm+PnJy3LL+4st/KlSvfI520Dv4O/rq9zJN/v3DW13eKtjJojrU2eBBjrYfJtjqY7dAdy7gVsNmnC3b0YTDAQGB7cDdsDe2BzVE62JTQG5uyDFCW2B1j+v47fvfRm3jvrTfw7ls/w/tv/wwfvvMGTAx04O3uhKjIMBj06o7f/fpDBggv4bWXfwKDzu8jwvszbCkxQv08EzSUq0DADC1LzLCPtQGtq61YJGiL09wSuMAiwSsHuMrn5K8d2gDAk4EAtwaOeOAGhwoELh9ksNDKDMABRxzZb489e2zR0MxtgK0WqFpngsqVRpi9QA/T5+pgwsweD0andTs+bGLnPqFjvviI1lIP8B38wsmXEIHvqwAnnZ/s3Lnzg1kV1frjsuaVuMdk3VEd/UImLcDw3HWYyON9Gazy1+y6pk35n2FpP7P+/+VJu/Ln7M9tflzjsb6D566iYf9xLF3J8/tZhUhNmITEgUMwnPvo/bi/34cTqqu2cl+HFfq6MOYK24iFfmrFb8pVuJr07R24sucqX03mXpzwfb084MesaoC/N4IC/BAU2Ad9+wZwBCE4OPjPIyioLwICg+AXEAAfP394evvC3cMbzq6usLN3hrUNtwK4+jczt4CxmdmLYQ4TM3N+bTUsYMJAwJgBghGHATMCegxG1BaBHh+jMSd/Kz5me24LeDB46cu3DbCyR6S7N2L6h2Ps6EQkJ6fy+GApihYzE8Bug5Ub9mHehkPIr96LjMXNmFCyGVGpvBUxadatqPiUplkl5ZasCXhH/Ty+r78rP4rHZWRk9Ds9UyNnY0uz9ZYOdu22TBe5uTnDh6OvG6M5V3OkuvZElW9XbAjsirqQbqgd2gNr43piTXIvbMxidX3MN4jy+D0+ef9N/ObjD/C7Tz7i+BAfv/sWPv7gF9wKeJcT/wf45Xs/x/u/eJ3ZgVfx+ssvQ58BQKTPZ2iqNMXuRabYw+59e9Tkv9wch9da49hGTv7bHDj5u+Aqrwe+wRqAm6d8/mrc4AVBN06xCPA0iwNZMHjjpDuusBDwNLMAR5kB2M8AoKnFBpsaLFC9md0B1xmjaJkhMucxCzCnJ8Zmd304dFrnhqipX1kNnvKnD34UP1T5JkRABP5uAU44r2zYsePTxMySSZETZ61jH/9HQePLETFjBUYVbEIKV/3l9RfZY78dx9i95y4neHWs7z8/qf1+teq/cf8xTl+/jYbWE1hWvZ79SCqQzmK5xH6DeJTPBwN5vM6HE6Zj116w6arDgj5O/Ko6n/vuJizUs2B63p4rfZXe9+Ck7+fjjoA+PgjmJD9wYD9ERAxCZGQEIiIjERYejn79+2sn/UC+P5DBQECAP/z9fOHn560dvr4+8Pb2hHrux0DAPyAQvv4B8PbrAw9ffzi7ecHawYU1AQ7awkG10tc1NOGK3wQGJlz1c9JXRYXG2mLC51mB57UC3Brg6t+Qj92cdQIurFnwYX1AX31ThFk7IsovCCMGRCBxzDikpucjr1iD0iXrsbC2RRsIlPHoYM7SZkws2YTo9EUdAxPz7o2bklubX1hueO3atV/83T9I+QN/k8DLPfX1/6RnYhJsZG5WaGVvc8bOxfmhg5trh5une4e3r4osvdAvwAvDfG0xK0gXi/p3x4Zh3bBmdA+sHq+Dmmm9sTFbHwUju2C49+f49ftvcKL/CH/43a/xx99/it/96j1uA7zNIICBACf/j959U5sVeI9BwOsvvwJLvV+yA9WXOMwb/Y5ywj+qnjP1f2qLPRsIcdXPW/8uc+//BgsAb53yQjur/W9f8Ec7LwRq154C4BFAPr95ls85bvPWQNUZ8NoZHgc87sJCQAYA+2zRvNsGmxvZGGiLGbtomaCs2hA5zAKkFOtgXF6PpyNmdL00eHKXMeFJ3cz+Jjn5IBEQgR+VgLq7flLOnM/i0gsj+yXO2hgYX3DGN6EIkTyuFle4WVu0VrL1HDadvIP91x6xYc9/nOn/NgBQRX6c9/GA/7t65wGOXbiKnfuPYnn1OszOLkD6uMkYGzoIQ5w80I/75b6cMB2/3ednql8d0zM1Ndem4q2ZmlcTvxdT+H4+XggO4hZBvxAMHNAPYWH9GQAMQL9+oQgN4Uq/byBC+gY+7hsUcD84qM+tgD5+lxkonAnw9zkVFOBzMrCP10l/P4/T3l7u5ziu+ni53fbxcn3AbYNnrq4v6gUYYKiMgJObBxxc3GHj6AozFgeq9L8eTxPoclWvDQaMWAOgThdwO0AFA4b/qT7AiKcILBkEOHJrwINZjL7cugizc9ZuC8QOjMQ49g+YPiMXM+dWspvhRixY24yKdbtRxBMD6Qt3YPzsGgyfXv50WFL22dTc4pGVi6qMf1S/aN+Tb+aVTp06va+rqxtqZGKiMTM3v2rv5NDh4u7S4erhph0eTC35BQei76CBCOrfFxMGWmHWEH2sHdcNq6f0Qk1KL6xJ08WmPG4B8G1j+n6B3374Jn77q4/w77//Db758jMGAZ/g3z75AJ/+8l18/P5b+BWzAb96/xf4JTMDb7zyCjztfoPUsV1xZbcLLjU54lKzEy7vdsU1HgO8ydV+Gyd91RToLrv9ae8RUB0A2RXw3ovrgm9fDkCbui74Ep9z3NG+zozARU+cO83WwEcccKDVDrv28JKgJgus3mqGqjpTlK82Qv4SPcyY1xsTZ/fEyIxuGDK168pBkzqPDkv65E3+jCTt9D35RZWHIQL/bAFNa+trSRlFn4+YVOAWMTF/i/eo/Ns+8XMRkb4c8TyuNn3pfhRuOosNJ+7iJIv9brJ9n0rx/+cnnuxjyr8D15nyP3T2CrY178eyFeswKz0Xyao9b1B/RNo6IYAV/KpxjwNT/uZMmxvrGrDAj5M/J1QrFuc5ODjCnfv1vt4eCAny58TfF+HhgxA1ZDAiB0d2DIoI6+jXv9+jwED/u/5+3u2+3m7X/L08TnPB1hoc4NMY4Oe91t/bbVmgj7smJMinsl8fn0pfT+fFHu72y3283Tb4ejm3eLk5HHZxtLxgb216w8HW/LajvdV9FxfHp+4MONw9veDq4QM7BgNW9i48HWCP3sxK6DBA0eEEr8s6BX1tRkAFAhYMAlgboIYJTw4wa6COI6q+Aqo3gTo62FcVCDLbMZhZj9hBg5EYl4hp0zNQUKpBxYrN0KzdiQUbdmPOip1Iq9yMcQUrEZ6Yg0npc1blFBTHVVdXy7/J/8i/BD179vy1rr7uMANTw9OmVuaPrO1stcUkjqwYtba3ha6+Prr17MFjI7YI6d8PseMSMTo2FFNGu6JqOtP+eZz4Cw2wtdQYu5my38HivdIUHeh2fg8f8rz/v/36V+j29RfoyvHNHz/DV1/8G6v/f6Mdn/3mV/j0o/fx/luvI2lkZ6xfaoFnbPl7V030XME/YGe/R5zkH/HK4Ee8BfAxbw78djxqD9JeGay9GIgtgu8xILjD+wRu88+0a5sE+aGNbYWvn/PE2VM8CnjCEfuPMAA4wAzALgus2WGG5dwGqFhvhILlPA2wkNsAJb0QP7M7hqZ2eRA5pfOuoLFdPV4EAf9IcvlcIiAC30MBlfbf0rCrS3jSzGTv4SmH3WJmPus/WYOhWTUYV9qA3HXHsWTPDTSwh+915vv/MuWvgoBvh+rod4sX95xvu49dR3gz3yq2yZ1VjPSxkzA2eAAi2GJXddXz5IrfrltPFvj1gjFX/aqy35SrbAsW4jmwSt/DzQX+vl5c2Qdi2NAoxIyIxfCYEQgbNAj+TP/7+3o87uPr3hYa5NsUExVZmjB6xNSJiYkhedmpVssXL+6+d+/ez2praz9ISUn5RWxs7M/T09PfSI+OfkO9zDbGb9fU1Hy0bdvGL5csKe81LXmC69SpE6JHxQ7LCusftMLD2f6ElanBQ3MjHvczN9HWG7h6eMHF0xd2Lp4wZiCgZ2yJbkzv9+DqvpeeoXbCN2LWQmUEtH0F+Fx7fJAZAwPWNZgzAHBlkaA6MhhqaI5wZ3YUDAzW9g5ITk5BXmE5ShZWY+n6eiyqbUbpKpprGATMXIYhY9MfD0tI2c1TAS4vgoDv4W/QD+whcc/fTN/EKM7AzOi8qZXZE0sbSx4n4V4Tj4lY2nJfx9QYnTp3xud/+AN/uAbw9vfF2EnJGDt2KFInBGLdHFNW6VviEFP1qnnP6WZnXFE38W2zR1Zyd/zpM67w3/sFV/wf4Osvfo8uKhDo9O/a8eVnrBP44EP88p234MEjgFt47v867wJ4ysn++SVAzyf9J5zon9zuqx2PeEWwCgQetvFjeEGQugxI3RGgbhVUWYF7V/x4uRC3Bjjxt5/xwo3TnrjCOoDTx5xw5LA99h1kDcB+a2zazQxAAzMA2xgAbDTCnJX6yFmii5SK3khkLUB0ZreOyOldbveb0GlbSFIXvT5xnd/7gf1o5eGKgAj8HQINDQ1vV9VutYqYWFDTJ6HgtHdc4eNwNqeJm7MFyZUtmLuFKf9T93CE5/vUET/+9+enbyd+bcqfK/+rdx5i77Fz2NywBxXlS5CdNAWTIoZhpFcA+ptaa1vrurD9rhVX/ca9ueI3MIExV88WPLuvjue5c+IP5L+1ESyWHjZ8KKJjYjjph6FvoD+C+vjc6x8StHf08Ki5E8bFj5wxI8Vt1PDIr4YNG/ZxRETEe0lJkW9xcv+ZaqKjjs+p+wrIoLKY/2XwG3hZfQwDn9fS06PfUEFBdHT0++Hh4Z9OTByjP27M6EExUYOnBfl6brG2Mmm3MDV6amFmoj1u6MitAXtnD5jZuHBuMIcOtzC6M93fm1kBAxP2JHgRCKi6AH1uE+gZs7mQnimzAfqwYSDgxeOCwQZmGMgag0hPH8SED8HEpGSkZ+aidGEVlq7dikVr6zF/1Q5kV9YiPq0Escm57YmTZ6yrqlrVubW19a2/48crH/qfBF7u3bv3B3rGhuH6JsYlxhamD8ytLTqsOOmrAMDOkZWgNqqwwxhdunbFH7/6E5tMmMAvMAAJExnFMgCYMSkIdfNYoFdnq23fe5rNei4ecGUzHt7Gx+crKozhZPUJOn3xPj758D3WAnyCP33+O3zFo39fff57fPHbT/H5px+hyx8/wFie/z/EPX51G+ATTvBqkleT/WOOJ1z1Pw8AuOJXwYGa/Lnif8ArhB/wKmDtZUEqAODkf5cXCN25yFsGufffxslfWwR4nEWAR3gKQAUArbZofBEA1GgDABMGAIaYs4oBwFJdTGcAMK5IByNyuiNqRtdH/SZ+cyIosZNfn7g/fv6f/ORVERCBH4mARrP+newizdfJWfNjQ8fNag0cW3g7MGk+huWsw6RKNvdZdQTLuPLfd43H9x50gO38/+pJBQAqIHj4VHX0e4yTl29ga+NeVK+qxZyMfEzh9btx/sEYzJ79fdhT34VH+uzYzEdb6MctAFXdb86jd6o5jzqq14fFegO4pz9k6BBEDYtC1NCoZ9znbwsJCjgRHOjXGBYaNDd+9IiorLTpDosrKjqVl5e//WKi/3/+ifDb+IkKCpZXVn6Sl51uOiEhLqBfoH+anY3pdhtL4+PWFiY3bawtO2x5CsGWtQFWHEbmdqwJMEfP3kYMBJgJYECj+gR8mwXQ5/enZ2zGt/NUAY8xWjAD4MIgQF1EFMq6gTAWGw4NCkFCbBymJE/D7OJyaKprsXjNFmhWb8dsNhCalLcQ8dMLH4xMmtZaVL7AacOGDZ/+P3+z/6Kf4OUvvvjibX0jfW+u8BuNzU3umFmZw9rWmp2hvh027BDFM6DWbA1pykpUU1O4ebljYOQgxCYkIn7MIGRO9UdLjS0utrrg2gmexVcTLkf7BS/26Wff/gveWL7AGNERX0KXdwB8+iH3/N97hwWA73Dv/x38/pO3YWf2CRJjv+GlPe54xIm+40HwiwlfTfovRhvT/ir9ryZ/Du31v5z471/z5Yr/xWBdwF11R4Ba+fOaYW3LYD6mK0fYNEg1AjrIAIBFgAcYALSoAGCPOVbv5BXB240xv44BwGp95C7XQ5pGF0mlOhiV35MNPrpjwJQujwISv14UkPCVu7e3XB38L/r3Rb7tH7GAun2usLLaclxWeYJfbOYl79Fznvafsggj8jYgeUELirddQPXBNhxue6Y94vd/W/lz0Y97zPtfuX0fR85fQe2WnZhXNA8zp6UhKWwwhrLQL9TYCj5slGOvTfk/P9OvPc/PlL81m/A48iy+L/+NHTSwP4Yy3T8qbgwGD4162q9fyKMgf+8bgwaErGZ6f3hORoZ9XXX1h/+oCf9v+NH+RG0dMCNgPDhiwMhAf+9l5oY6t4wNej8xNTF6ZsfJ287FA5bsVmhkZocerAlQgUAvlQngpK9OC6hAQA3tcUHVTZCnBFRdgBNPOvjyeQgDgzAeQYwKDMHIyKGYyiCgsHQ+Fi6rwfK1W7CoZivyF6zBtAJux4xNeTRzbllx4bx5jmrL5m94/PIhfylgaWn5sbGxsSX3/JtNLU3vmlubd6jJ3tbBlhGdaiphx9W/Jff/GZHydUdWhnqw8jQgtC8GRIQjNHwwRo4IQHaKJ1rZne/aCR7J48Sv0vfqEp5bvImv/aI3J2cfPLjqi3Ps2Led/f1zUnUQN/xrjBj8J4zlBUBlsw3QtMUBbRf98OxxMJ7d74tn9/ri6V2V7ld7/c8zAN+m/B8w5f/gBlf6XO2ra4JVMeDtF+n+2+eep/zb+BhUseCtkwxGjvAyoUMsKGQAcJ7tgE8dc8ZhFgLu5jbAlj0WWLnTGIu3G6KszgBz1ughdwUDAG4DTCjn4+Q2QAxrAcLTunaETOp8M2BC51zfxE69JAj4y98keVkEftgCGs2ONyqXr3EMTche7zsq+5JvQknHEHb2iy/axmN+vIGv6Sp2cb//zJ1neKyW+X/xpF5VE7/a77/9+BlOXb2Fxr2HsbJmA1f9MzGV3e8SgvohnK1x/dSKl6t+G6b8TXtwr58ToDHPzavmOo7MtnrzDH8Ii6xjYmMRO2o0hg4fzkr+gKehwf4HoodEFKZNm9aXk/CnnPDeUKtzqn/nhckMOF7l9sAbk+OH/zorY0ZQoI/Hagcbs5M63TvzmKIZCwTZZtjVExZ2bjwpYAkdfo8qENDTnhTgkUEGANpjgtrtAN5RYMDtgN76sGMmQPULCObrKgiIZF+C2MgoTJ86HbMLSxgEVGPF+k1YsHIjChfWICmzuCMuKeXa1BlZ6dzm6CxBwN/xd7CTd6fX9Iy5m29kkGRkZnyJk/9TS1vu+ztwsndixakzO0q5sEc0J39rvs1GGwA4awMAf54nDR4QylMAYUgY7c0GFi440uTAPXau/s+wCQ/33NXk38aVvwoA7lz2wcMbapL2wSX27N+1wxF13OevXWWFzQwIWvfwPD9v+HvCif7ZgxcT/x1O/hwq9a9W/dqU/80XK3+1+in4R68AAEAASURBVGfa/3kAwEJBpvvVzYBtLBi8xVW/6v+vGgDdYFOgG4d4gRBPD1w84ITzvA3wLG8FPHXUCYcPO2APA4Ctey2xsvF5AFCykUcXGQDkVOtixtLemDCfAcBcBgD5PRCR0RWhk7s8CpzQeZ13Yuch3kmd1L7Td/6X7+/4EcuHioAI/A0CZUuX/nI6z5ZHJM0q6BOfdzogce6DsNQqJHDyT6tqRcm2c9h6+j7OcfJvf1Hpryb9vxyPuOl/5yF7+V9rw849B7Fy5XqU5Bdh+oh4jPILQqSDq7Yjnpr81SU6qgjOmCl/1cXPgpO/6sDnz73+AQO46h82DMOjozFkcOSDyPCwy2EDQ9dHhoUmjBox3G1WdvbXLNh7nV/+/+u/Perrq3qB8qKir4cMCA7jyYJ0RxuLfcaGeo9MTU209whYO7rxyKCzdlugNyf13mo7gJkAdULgr4oDGRgYMktgwZoAdUzQnw2EQtlhUAUBqjAwcWQc0lMzUFRajqpVa7Gsppbt29cgvXAh4ibNeDgxJWMltz76MSD62d/w45YPocBPelv2/oCTf5iBscEmY3PTJxY2FpzsrWHnxM5SruwPzYY/LjwDql625dtsne15FpTdptgHwIdHUPqEBiMgJASTEt0xb5YjjvGa3QvH2XHvlCeucvV9i5N9u9qDV+OSD+5xlf7ohh86bvdhep8p/vsqzR/EWzCCGT5zPO7LszKc/BkEPH2R8n98S1X3s9CPE/8Dtdevhpr81eDbVLX/XR79u8Nq/7ZLPOt/1o/Nf3zYBZDdAdkn4Mo+V1zluLyXFwjtccK5vU5sBOSME6od8CG2A9ZmAJ4HAIu2G6B4oy7y1+giq7o3UlUAUKGDMUU9EVvQA0OyuqJ/Slf0Te5yynfcNxrvsV0+6xnWU26okr9OIvADFlAr/7TZlQYJmaXxPjGZl/wTS570m7qYgf9mzFh+EGX1F1B74g7O3H/e0ldN+urpLyd/tfJve/gYF27dxq6DbO5TxVvveL4/dSRPSfkFY6CFHY/4cb+fe/1WrPI3Y4Gc9gpeFsdZssrfnsV+Pt5ebOATjhFc+Y+Kj+8YPCTyQf9+QScHhAZuiB85fHBOTs5n39eK97Vr1/4yI3WK/vAhA7PNDXqfM9TVeWBgoM9MgDPnDS/WBniwhsxaGwCongGqMNCYWYBvgwDVT0CPRwKNWAegggA3ng4I4PZBCD8mnAWGMQMGYsKYBGRlZmPRkiWorlnHQGAd5i6owviUHCSnZh3OycsrXMpAjj8aaRP8v/195HG/n+ob67tx8l9kaGb0lOl/7ttYc/XPlb8rL4jwcIGLlxvcfNgz2s8HHn5efO4Fbx43Uen/kEED0J+dpvpxjyptoiM0s624BWCFk/tdcE613VVp9zPcAmA6Xh2/a2d6vp0rdLVKv8PVukrbq/17Vbn/uD2AK/3/2OdXK35t4R8nebXP/1Ct9DnRq9W+Guq8v5r87/P53avquF8f7VG/NjYBus6uf9eOe7FJkCsu7XLERfYQuNDoiPNNbCDUzJMJLfY4vscOrfvtsHufNer3WGFDC08ANBhjwVYDFK7vzXu7eyF9eS+m/XphQqUO4lkHMJJZgKEzu2JQejeETuuCgImdb3jGfznSKfqPUnzyv/2yyftF4HsqoPb881lENnBcbplXTEZbn3FlHUOz1yCheDvb+rLY78At7LryCPxPO+FrZ/4X/1MBgEr7q+2AW+zre/D0RWzftR8L5i9CzvjJmMhLfEa4+/KInzncub/twMnfnGl/IxbG8cCVtqOfNc/2e7q7sZlPIPf545AwLgnDuPLvFxr8IHxA4JbJExMDy8uLO39P+f7Lw6ouKHhz8oT4KE8n2/X6Pbs+6qHTgycD7GDDEwL2br4w5RaI6gmgy2DIyFS1Fn7eNOh510B1w6DKBJjAiscgPRgk+fNURCiDgEHcTogO7c9MwGgU5OejqmoZalbX8CbXGuTOnY/kGdlP4sdPOrNq1SonZgHe/S8PTN7wVwIv9zTr+SEL/woMTIwOGvMoB8/8M1pjmt/JXrvyd/XhJRF+nvDy5/nSvn0QxIYTfQeEIISdpvqFh2HA4AiEsflECLtPTYu3w7w0U7RUm+Hgdnuc5AmA80y5Xz7Gm/lUIKD24pnev/VtIKCq89XgUb27alJX+/m3VKU/V/scar//+RE/Tv5qxa8+hgHDPZXmZ41AO3sCtKtUP7v/tZ153v73Bq//vcx0v+oOeGkPi/1anNgmmKt+Plcvn2t2wGlmKE4yADjMAGA3GwDtaLHAxiZTLK83ROVmPZRy9T9rrQ6yVupgRpUOpi7uiaTKngwAemBkUQ8Mm9UN4Vnd0H9GF/Sd0uWx7/hv9nuN7uzqHd1VgoC/+vWSV0Tg+y+g0ax5f66myj0gNr3BPy7/etCE8mfROeuRvHA3ctcexyq29T3OlP8tHvB/+pczP19Wk796270nT3nM7x52HzmFlezqV15YhnQ2s4nr0xcR7HIXyJS3C8/3W7Gpjxn3ttV+v4n2iJ+1tpVvAPv0j4gdiTEJiRg5egz6h/Z9OKh/3x2xQyOmJMXHfjN69Oh3uN/+g7qRlI/37alJcVYjh0emmBn2vtm7V89nega8E8CJRwXd/ZkNcOf9AbbakwAqA2DMVL8xq//1GQxoMwHcDjDi6QhbBgEuDAICWDugbkIM522Cw4JDmXFORAlvkV2yeAEvkluFBUuWISt/Tse4SdNuF86dW8ynP/FHI1mA/+6vIDv9vdZDv8cXekZ6KwxMDM+rAMDM+nkAYMsAwNmd10b6cuXPdr8+Ab4IUF3/2GoyhD2mQ8MHcuU/SBsADBwciWD2mJ400g5F00zRtNQErXV2OLaTaXY1CXPv/Qpb9V47oc7gsyhQVeRz4m67wCwAMwJ3VLW+KuBTXfxUil+t9tVevzrax6FN87/Y5/9zAMDJX7vPz8zCTfb3v869/mtHOfEfcsfFfbzyV0367Bp4niv/87sYBHBcbHH8iwDADod2swXwHkts3WWGtdz7X7pdH/MYAMzd2Bsz1/RE5sqeSK3qiSkvAoAxDABGqQCgoDsicrphQHpXBE/r+tR/wjeXuRUQ5Znwjc5/Zy1vFwER+P4JqHP++WVLv0nKKE3yHZl9NnBs0cOB05dq9/yzVh/BvIYLqL/wgCt/HvNTs/1/elIrf3XM7/rd+zhx6Rq21O9CZUklClIyMTE8CsO44u3HSc2HE5i9WvkzpW3CfW1V6W/GS3Ps1BE/Tw8M4r+no7nyH5Mw9tmImJg7A0KCDgzuF1yQMCLKv7Cw8P0falHb3Ll5XyYnJwS72lns1Nftcae3bq8OM2teN8wsgNoSsGS/gG9PBBipAICnHwxe3CqojggaMlCy5IkABwZNvj0NEcKbBsPsnTDYtw+LxkegIDebmZZSrF1djSXLq5A/pwiTU9LuZ+fkrGcAoMemRz///v3WfU8eUWejzu/p6+u76xnrn2T1/2Me/WOahkf/mAGw0wYALnDz9YBXAC+G6MtmE/3YUzqsH0J4fW+/CAYA/KUdwCBgYGQ4AvsPxKghTsgaa47tZYZoWWmFgxvtcJy39J1mG9/z3H+/yGzAFW4LqEDg+kkGAqo+4NtgQK3oVTaAXfueZwSY6leT/ou0/13VzEe9n/v7aqgMgHbVz89zlQHGxb3ccuAkf7aRQQevBz69jdcEc6jnp+uZ9m904OTviDO7HLj6Z3DCyX8/+//X7zbHhmYTVDcYoHKrLoo26KBgHSf/1T1Y9NMD05b2wKRFPZBY0R1xpd2ZAeiO4XO6YzBPA4QxCxA6g7UAk7vAL+mbdV4JncZ6J730g4rSvye/ivIwROA7F9DwSt8VNVtMp+YtHOM7MvNa4LiyZ5Hp1Uz7b2PwfwwrWlnEd+khbnKJryb6v3z6Nu3/kC9cab+HAyfPYuO2nTzFxM5+oxMxgRfbRPEoXB+uWl256rfh5G/Gyf/Plf68Oc+JxdUBbOIzZMgQJCVPxYgRsU+HREa0DwwOqE+bOjlkbl7el985yj/hC86cOfMtFggG2lkYtujrdL3Xowe7HDIr4uDuBxfvIFiwA6J2C4B1ECac/NXdAgYqC8AMiZ7aItE3hiX7BLixKDCAtQEh3DoYyD8/LKgvpjALMCsrAyurFmF1zQpULKhEbn5Bx8TkSW3z5s0LY2Ogr/8J39KP41N2N+j+b7qGulP0jQ1uGfJcv4k5W07amGkr/e1Y6OfM/f8/BwDB3wYAoQwAVPqfe/8RAxgAhGHg4EHoG8ZAYIAHEobbYvVMAzRqeHsfr+vdz8r+o5sdcKLBCafYEfDMHq7OuS9/kTf3qVT9NZ4EuMZiQXVc8NZpbg8wla8m9jYGBm2qbkCl9zluad/PoEEd51Mv833q42+oAOCwO87z9MCZnQ44tdUWpzZz8IpgNU5vtuHbbBgI8PV6O5xs4uTPAODIXjvs5/7/Nnb/W9vE1X+9Pko39UJBbU+m/XogY2V3TKvqjslLuyFJ0w1j53fD6BcBwDAGAFH5z7MAA3kiIGR6V/SZ1PmOX1LnHZ5x3a30o3/zxo/jN0S+CxH4cQpwYnjt0KHjPSMmzloWFJ93xn9saUd07noW+zYjd80JrDp2G6eY9m9j2v/bhb96/u1QxX732Nj/ws3b2LHnAFYsX40iFvul8H77EZ7+GMQb7nx0DLW9/FXa35RpbCOmtE3NLGBpZQ1XV2cW+kUgLn6sdvKP5CIqMqzf3qHh/UvS01N6z0xKUp37fjTpa40m6bXJiaPCBgT5l/fs+hWPAjITwuuAHT384OYXzP4yzjC1sGEgwCCAmRGVCVA9AvRZJGioggBuoVizDsCTQZRqFBTC4CDMxQ2jeMPh5IQxmFdcgLUrF2PliiWo+D/sfQd4lOeVdZLdTXY3m022Jbsb548Lrkga9d67kJCEeu+9915GvffeEKiCkJBQFwhE79U007uNDXZcMf3+534jYezgJ4nb2nj0PO8zYpBGo/f74J73nHPP7e+hvPy8h62trV1gTvyfzjv4G/itlLWUX1bTVOsCAPhoAQDoCwAA1NRSTJoSAMAyCQMAAODhixnSgZAAgjFhCiCAAQAX/+AomAAjWAZwpphQS+or1qCd3bq0f8iADo0a09ENoNvnltCpbZbzQMCaLmOgz9UjOLkDCLx1EtQ9wMDboPBvnHEQzHsCS8CSAbMFDBLgI3ibtX1Q/Ne5nQ+tfUz5v4PHt6D3XwK4uLATp3sU/XObUfQBAi5um2cAdoIN2I3iv8eMTu8zozcOmtEJAIDDAADb0Ps/BQAwuFODlm9Wpsb1ilQ7pUDlo/JUNCxPeYPylL1antJ7GADIgwGQJwEANCtQWL08BaMjwK9CnjyLZO+75S6+4Ji5OMdR/Ox/64t/wn250g/pDkh34Hu2A3Cq/7Khe2BRSlWn2DOz9YRHVufHIRjnm92zT9D81xy8QUdu3qU/wdUH5l/4WCj8/Hj/Ibf53aHrf/qADp08B81/klY0tFIFRtmmumEaHwxu7gixseFYX5j+uK9dR1Myxc/U3JxsbG3JH/NTktPSKTk1jeITE+/ExUYejo8OzUuJi3Dsamr67dNU/Bcuf21FrkJ0mF+gtbnhMUUF+btq2BNDCxjMXXzICiZJThDUNTACAIAUgMWTBDUBCDQBAHgegiHaA9kL4AwJxVtDj/xNLSjGw5MyEJDUVF1OY0O9NDk6QGsH+6myspRqa6u3NTfXF7IMgMv2f9oqubAH36tHTPqTAwMwp6mr+am2voQBEDwAS9AFAABghexpW3gAHNwwK9rbhdzgAfAM8CaveRDALEBgRDCFxIRhRZIrhlP4+dpQdYoGbW7Tpl09urQbQ4AOjhjTEaQDHp0xpxObzen0tiWQBsAI7EEf/gEbAQxcgVfgKrT7NzEzgKWCNxEUxOstYeE5xAhfw9dcObSULoPqZ12faf9rWJcPItYXfoPz28E0IIL47CY+9QMAoPBf2g36H87/Szj5n99vhmhhU1D/ZnT4MOJ/XzdF+p8+TQAADAAAtM8pU+2MAlVOiqhknQinfxHlrhFR9ioRpfaIKGmliBI6AQDaFSgCACC0EQCgFmbAannyRlugR4HsR05ZMlvsxK8qWogX/ev36mJL34x0B6Q78BPW0jv7h58tbOiy80qrOeKeteIWt/qx27928iytOXSDdr95m94F7f+44W8BALAUcAuGv6vvvk/Hz1+i6fVztLymiSqSMijDCwN9kGHvrCKh/U044AfFXxeFThdOdyNjU7KD3u+N8bypKP7ZeYXc6vdpoL/flayMxOqmpgqF/fs3/PppvUzYur8rF6e+khob1q4qv/g9RUWFBzw4yNrRi+xc/cjG0QMeNAth8JEABJgFAGPCrYJazJ7AD2AOAMABQe4AAcwChGAaYSxa0EuzM2iwu40mhwEC1q2i1uZaqi4vvlJZVrhmy5Ytf/iheii+1XtBWUNZVV1T/ayGruY9CQBAF4AJpzcBAFgi7Q+9/twFYO9qT44ezuTsBRCAIu/h9xkT4B8eCAYghEIBAmycnZAQaE6+Dgo0wmOAW7Vo+wod2tmjB0lAX2AEDo8a0ZEpEzo2g9CfWWYGLOgUkv9Oo3ifQSjQOXgGzu2xxGndEgCBQQIv/Hk3FrT9c+guOLsVQ4Zw0ud1disKO5IHeZ3D52fnTOncJhO6uMOcLkMSuIqe/6tHARoQ/HP+OHr+Ufj3HTKiHQdZ+9ejsb3aNLhLk3qh/7dtUqGaaUUqn5CnwmE5yh0Sgf4XUWY/AECviBIBAOIFACBPUTAChrMM0AgvAEAAswDekALc82U/dcp8rcAh/RXNb/XiSV9cugPSHfibdoBPgTgN/ja5tD06OLvhgENy6/0ITPRLX7mTqidxkj/1ER177x4h3fcR7Y/v+TPa//LN92nH3kM4+c9QW0UNFQgDfdzQ428KilpNMPtxjz+b/bjNj2l/Y/T4s9kvPjGJsnLyKQvF39/b416In9fGzISYGJz4fxRhYhzQMzrYt9jZ1myrrqbKTVkZGdKFXOLoEYRDZihYZ1eYI00fMQHMAmghG0ATCYksoRhhjLAVTIEOAAJeYAT8MCgpxGYZpUJCaa8ppZHeNpod7aOB3g6qLC14UFqY+/r6qSnppMAn/UtRVlfWAgPwHiSABwsMAAMAI0QAc+LfEltLsnGwoWVOduj/tyd79P47AQi4AAi4+qAlEGyAd5CvYAxkk6AmUp+431NTTYYq4lVouEydtrcyG6BF2zq1aXsXwEC/PlgBAALIA/tHDOkA2IHD4yZgCEzo9WlTOrbejI5vwGJwsBELRsI3NoG234g1aypZG0zojRkjyVpvTKc3oujzyZ8BAQMArAs7wADsAQNwGMa/E5AHTloJoT88+Gc7iv/sXl0age7ft1WNVkD7b92kjLGeijj9y1PpuIjyh2UpZ0iOsgfkAADkAADkHgGAGEEGkKfIFnmAALQENsgLhkB/oStA7oFbvuwbrnly6W7pmn/8ifgnT42O96R7SPqcdAd+CDuAOv4zHoGbXbOyyD+ndbdTWvvtqJppyl11iOpmoPmfkmj+H3yJ4e/Og4f03ie36cLbN+H03099nd3UXFROuYHhMPvZwp1uJMy1F4b5QO/XhU6tg5OrAfRsK6ul5O7uTqmZ2ZSBoWnJaWn3g/283xZnJpcU5GSZcLsc9vDHQlH/dGys5Z87Gmp9HG2WjKspyN5XVAZoQleAg0cAuftHYOrsMmECoi6AE8sBWjAGcj6ANroC9DT0yBTGSmvssQuWN4CBv4k5Rbq6Uml6EnU3VtDU4AqaXNtFjTXFVFWWf7Wnq7OIOyl+CPfpd/oe1RC3BADwIRiAh08CABa2S8jG3kYIAeIsAG4HdAAIcERLoDM8Aa7wBHj4e5E7GIGl9takoqFGcgoiUlGRp6xQFerJV6O5ZnXa3KxJW9q1aOtybdrGIKBPj3av0qM9YAX2DhnS/mEGAkZ0eAxgYGIBDEhYghNgCiTLBI/GdFJYGDU8LVlvTAMAABAIAACF/yz0/3Mw/p3bCS8AAMD5w2AHcPo/i8E/b2Dwz+GjoP3369M0Mv+HdqDnH8W/fZMSNc0qUg3ofz79F4+KKI8BwOCTAICIYpaLIAOIKLJVRBEAAKEAAMFoCwyshiGwTO6hZ6HsO265Mk0umXI6Ui/Ad3pLS3+YdAeeuAOcnNe5alQlprBtyE/ccdFT3EPJbVupcvwUrdyBVr+rn9I7EPzZ1f/FD6b9P+J0v5t/oqOnz9ME0uf45F+RnE6pLpiFghOrCwo+9/kb8ckfjnUdmNa4gJmZW5CTkwva/EIpKzcfICDzTkJiws3QAJ/NpQVir8bqkqfC6f/ETf+SJ8EC/P3k2gE9H2e7ZkMt1ZsieYWHxgBR7AXwCo4ha5goTc2twJxI/ADcHsiGQC0GAPACGOPkbwkWwAlSgKemHvkBZIXZO1B+Qgy1VxfR2Oo2mhnuoraGMqqtLHyno6VueUdHx//iMkoPY49fExVNFV01LfV76roaMFtoo/0CRhVjmC3M5qOArSWRv9ZsBkQaoA3SALkrwBZgwI6zAbyA2uAPYLOgqoYqycnLAQDIg67RI29HHSqP06CJChWarVGj2Xp1mm3UoDkM+5kDENjSqUNbIQ9sh09gFwOCfgYEyBAY4hwBPYACeAeGYSIEODgMpuD1dYZ0FF0Fx8aN6PgEiv+UZDEAODOL5EEU//Mo/Oe3AgTg9H9mlymd2gPwAM3/GGj/I0fM6MARU5j+DGhijxYN7VTHwB8latkoj5O/HFVNyaH4y6H4y1LhiCzlAgCIAQCyHmMAkrrlKGGlHMV1AgQAAES3AQQgFCi8SUQhbAgECPDnrgD2AxTKHnbJka20Ff+G06h+LOj+8dtL+rl0B74XO8Apf1Vtq14tal3T5JjY8KFvXj8lNM9R6chJGsA4362Xb9E7dz/f6sc4gNeC5n8JJ/+9R47TOPLnOyprqTAsGsXfk/x1TcgOtP8SkTIZQfPXxelUhwuVAf4PxQh1PvnHIuAnF0NsUjMyH4QE+V8KC/SZ6O7sNB8YqPzRdgtha3+enhTpHhbkMSO7+OW7aqD3ja3syTssHgfKMNQUF9IzMkNnAAyB3BrIAABSgC4kFUOAKzMArmXcFgiw5Q1QEGBhSYn+vlQlTqXVHTU0O7yC+vHYXl/6SW154d6xtWtF6PxgmUX6sbADKhoaegAASGLShNECepU+AACigHnqn0QGwCRAaPpCJDAMgdZ2NrgwNkBoDAYABPBojHHB6CQgWTlZXCAtQTpw8nQjZw9HjHA0peZ0NVpfqUQz1So0Xa1KM7UAAw1qtLFJgza1ABC0ARB0aNFmSATbVmrTjh4wBL0wDzIggFRwYA3aCYf0AQIM6NioIR0fN6STk4Z0CgzA6Q1GkuIP6v/CTsT7otf/ApL+zu63oJMw/B3dZ0qH9hnT7gPIJsCpfw6a/zQH/uzUoFXbVWH6U6C6DfJUPSNHlVOyVDKO4g8AkM8AYK0MidfIAgDIUsYqWUrrk6XkblnIALISANAhoigAgKhWSAECCJCnMEQEh9RgToDQGij7qVeRzGmXLNEytxTZf1vYc+mjdAekO/Dd7kDvyJRZVl1XPiJ+bwWVDj1Mad9KpeuO06oD79Hr0Pwx2O9zmj+KEz2E0/8uaH8++Z+/fpPmtu+iwf411FZaSfnBURQJmppn1i9Dix/T/oZKasLJX1sX/3/iRLpkiRX5+vpC6y+iDGj+mOZ3L8TX62xlUW7EyGC/GoOS73YXvn8/rQ9JfYUZqYH6mkp/UlJWfKgOycTBC+mykSnwAwShE81WYgg0BBOA7gAeHKTLsgoAljFO/jZgAZwxUdEDoMsHgCscLEBOVBi1luXQ9GAbDfc0UndLxYPygoybQwM9zmAenv3+7cL/4Tv6IgDALABoLpI0QENMA2QzoNlSM8x1BgiAHMAjgC2RDigsfM5MAeYIkKKqIjKdoeMgO8DB1REtggHkHexP0eH2VBhvSCNFyjRVjgU2YBIgYKpaTQAC65kVYCAAiYCZgc0dmrS1E8bBLm20EerQ7j5d2ieAAAkAOIHT/xs4+Z+CDHB61oTObDSB49+EznPvP4r/RWT+X4Dp7wxo/+OI+T2CoJ99+w1p6z59mgXlP7VLG7q/Jq3erk7dW1Wh+ytS3Xp5qprG6X9SlooFACADACBDOQIAkBEAQCYAQHq/LKX0yFJSlyyMgHIUCwAgsADtAAAsBcyDgNB6EQWhK8CvQu6Bd4nsTbf8xRUeeS+/LBYvlgYE/R/e69If/ePbAXZ+z83tfia5vKMgPL9to3tG58OE5k1UOPQ6tW+9SlsufUrXbqHIz9v9hVM/Cj8Xf271++DWbdD+79G+I8do7eoh6qioo/L4VEp2dCc/fVNyhiHNErS/IRgAgfbHSZRP/tY2Ngj48aSElDTKFKP4Jyd/FBYaciY62Ke0tiJffffu2d/9+K7Gn//GY2N9/1men67raG12UEVF4ZaSmhpZ2rtTQFQaeQZFwXvmTgaYjsgsgAQAAAggLEgfAABz68kKp39HAABXPPrguSB4LVIxmbY6O5lGexpotK8JLEA1VRakfzjQtzJubGyt6M/fxY/4GRUNFTAAamAAIAHg9M4AgNMA9UwwkxmJgEZmEjOgKUYCcy6AOSQBDggytTQDS2Ao0P5KKooIdVAkEzABzjAI+sAUGB4XScGx0RQa4Ufx4TbUna1GYyUSEDBeDhBQCRBQpSowAtOQB9bXq9GGBnWBFWAgsAWMwLYVaCMECNgLr8B+eAWYATgxieK/AZS/YPiD438LFjoCmPI/z/n+mPB3Do7/U0ctQfsj5x8AYCdO/7O7dWkChX/tTjUh7W/lFmX0/CtR8yYF6P7yOP3LURkDgDFmAAAA1snMMwAyMAHKUuZqAACAgJReCQuQAAAQt0JEsewFABBgKSCiWSQYAsPYFIiugECAAKQE3vEqkt3vWfCKmW/hov/6Ed9q0l9dugPf6Q7gEP9T7vfvGpwyC8pu3Oab1fZ+SMUoTH+HqWXzZRo9iXz/jzF0FBz/guy/AAC4+H967x5deecmHT11lsbGpwXNvzw+hTI8fCkIE/0cEfKzVF4NtL8qDH/Q/FH8dVH8TaH5e3j7UER0HOWDLUhOTb8TERp82sfVfqAoN1OpRSz+5+90I77HPwzX6O8q89N/nxQX0qOppnRDXkGBDCxsyDciBbkySRg2F4oatASstAkOppJhQRwUpAcWwBCSgTm8APaYGOgCJsBbQ5d8Tc0o1s2FCuIjaE17BY0DAAyuQDtgYdqn/SvaK9f29el9j7fju39rEgCgfl9NRx0AQBMAQCID6EIG0DNGVjXmAjAIMEYugImlqcAI6AIgqEM2kJeXJ3lF1vs1yQyTA509nckXxT8QbYGhsREUnRxHoXFRFBwZQAUxhjSQh8Jfokjjxco0DjAwUYpVpkyTYAUkYABAoE7iE2BpYHO7Ju0ECNgLf8B+ZAkcHtGnYwAAb+DEfxbxvud3g+pHj/9ppPud3ImWQoT8HD+A6X44/R9G8d8H3X/XIRMY/qD54+Q/iFN/7xYV6gDt3zQrovoNclS9XgT6X0QVDAAmGADIUBEAQAEAQN4wWIAhyACDspQNKUCQAZgFAAhIghQQv2LeCwAQwExAJIMAyAHhYAK4K+CRKRBRwR6FMo0u+TLO3/0Vlv5E6Q78OHfg+vUjv2xftVYmJLN6o2dG+4f+RWuQ8neQWre9STOo/Kc+RMgPU/1Y/MGPD+ZP/rdR/N9870+0Y99BGhubovaKaiqOiKUknPwlrX7qAu3Phj8dnD651U8fFLW5hQV5oSc9M6eQxAWlFB0Tcz8qLPBQQkxwakND5aKnMdzn695dYGn+ZXig19NUX/MNNWV5UsVeuvpFUGB0KoXEpiEgyJEM0OonyQUAAwBjpT6WIZgAM4QtWaP426MbgHMBvHUNKRTsSypyajorc8AC1NNwdy01VeTc7WiqHOtsqXPEZZb6sRYumqqWqo6qpton8AE8xERAtFoABOhpAwjowA8AKcAIegsAgAGofl1jXVLWVEXRVyARjH7KaspAZrgIYAQ4LMgZQUGe6AhgBiAAICAsLhwAAExATDgFhzohH1uXurJR7EsUaLRYCYwALwYBeA6MwDRkgS8CAG4d3AkZgNsG2RR4CPr/0fXoBsDJ/w0U/zf2WtAJOP0PwfC3b6ch7d0NvX8vpvvtQ+HfYwjaX58mcfof3K5BPfPFv2GDCKd+GarCqpyWofLpxVQ2tZhKJxZDAsAaW0xFAAAFAAALICB7UCIFMAgQpIDH/AAsB3BXgMQUyHKABAQIIUGQAwIEJkDuslep3IhLkUjBUSoFLNx+0kfpDnxrO1CzYo1RQWNvvWtyw4eRNRMPM7t3U9PcZdp48VM688ED+ni+8qPmg/KfL/4PHtBHn0IWuPku7dx/iAZ7VwuGPy7+sTYOCJ4xEYqNMNQHfei6apqC4c8AFLWNDVoB/fxIXFhGiUj3i42L/TAmKmBLYZ54SX5+/h+DgoJ+9Jr/ky72/v37/+Hwnj0veTjbTCwx039HhDkBVpgP4AcWICatEC3nAZhNg44A+Cq4JVAP4UD6MAUawhRoBiZgKVgAO4AAFxgCuSPAHyOHo50dqSY7kYaXl9O6ripENOfcb64qPNxaVx757rvvSgPaFi4ENBdttO69r6ap/lCdAQCzAHqQAgACJIZAIFtIAcwIsESggB5/Lv4MAvA98AAYCwZBW2dbcgQD4OaLbAB/T/IN9hPCgTghMDg6jPyCPSgnxogakBC4rlCB1hUp0egCAIAkIDAAghSgThvgCdjIDAD8AFvgB9jRp0O7VuvSHgCAA6MGdBCu/8Nw/B9H0M8xxPu+vhvu/l0mtGs7jH47DWjrbkPajLV+tz40f4z43alNq7fC8c+9/hsVqJZP/gIAWEwVKP4CAJj8AgBgFgA+APYCsBmQAQAbAhcAQNq8HyARfoAFOeBRV0CbvCAHsBQQDCYgsAZ+gCr5D3wqRHtcche7+VTJ/0YszQZYuAWlj9Id+IZ3gH7K/f45NX2+CSWd015Zy+8mt81hqNfr1LP3HTpw4y69ibF+fPrnj8cBwO27d+md9z+g05cu0/oNc9TV2Er10PCzfZDwZ2pJbnCfWyvwSF92+2tisA8n/BmQufkScnVzp/DIGMrOL6aEhKSPYqIjT4ParqusLF68bt26X33Dv+RT83Ls0zh//vzvgn3du+1tlpyVE4kwKdCFfMISKTajCPUkDJKzDQ6bCAdaAAAAAUYAAeboCliKa2ALFsYZAMADngw/yAURCFwqT4migZYSGl5RQZ31uQ8aK3PPtDeWJb/11lv/hcsuZQH4DlJUU1RXVVe9Ah/AfXUtDRJYAPYCAAQIuQAo/OwJUIXBTyQvIlmRrBD0w39mdsDUypwsbCxB01gjxtEGQUGO5OTpAu3GA+FA3uQb6kt+4QHkGYi5Af42FBdqRO3Z8rQGIGAIcsAwGIBRSADjMAZOojtgBj6A9TAEbkBnwOxyGANXaNFcrzZtXoWWQbQHbh/Rox3j+rRrxoD2zRnTPgz52bvNhLZthc6/GQ7/OR2a2KxNo1u0aXgraP+tWtQ3p46gHzUUfyXi0z8X/wqc/Ln4CwAAp/9yAIAyrJJ5FqAIUsCCFyCPQQDYADHLAWvYEyAjAIFUgIDkeTlAaA1kTwDaA6OZDYAcENki8QRweyCDAP9KuQ99SmU2uxctVnEsfv6pjft8av5nkv4iP8gdqJ2c/MXAyIxDREHLkEty/b2Y+mk4/k/Q8u1v0rard+gGhvvcFko/F/+H9ABO//tYdzHS9waK/7HTZ2nD3Fbqam4Ha5lOuQEhFG5mhcE+mtD8VYWpfnroP9fWQp8/ir8pTpwemEoXm5hK2Tj9R8fG3I+LCtmTEhdWs2XLjDSC9q+8i4pzM9NCA31mRHKL4UGzJFf/SIpKL0LEfAoi6R3JkCOCGQCgwBsaQZbGMocUYIXrYIOWQM4EcAco84YZMBAjlsWQnntqc2moo5T6mooe1pdl/qm1rrgS459fY9DxV76tp/vLlNSVFFU0VferaKjeUWUzILcECkyAFuQASAF6OqSkrixo/XIiOeER0cFo99N+JA8YmcMfgNRA7gBYykAAeQF2iA7mjAAXpAW6+bojOtgbCYIu5OJpQ6FBmlSaoUDN+fK0sliRVgEADIL+X1urTiON6jSK0/9YO1anJo2t0KTJbi2aBgiYXqVNM2t1aRogYHpMj9ZP69HsLNZGhPrM4aQ/q0WDsxq0elaNemdVaeUsjH6Y7NeG1bxBAb3+3O4nAu0vKfyPAACzAAABggwwzwSUTsigJVDiByhckAMWOgMABARPwLwxcIENSOpCRoDgC5CXBAV1IC4YbIDgCcDMgKA6EflWim75lsqt9CoUWTkOOEpvwqf7n5f0t/uOd+DMmTO/mJzd+lp4Tv36wJzl10NKhqgIjv++AzdB/d+ia+j1Z8P/o1M/KP/79+/T7Tt36N0PPqCDx0/S9PR66m7toBqM9E1x9aIwC2tyQmGxRI+/CU7/ejhparPhDy1ppmYw/KH4p+cWIuAnB7R//J3YiKB9hXkZdv39/c9KNf+//gboWdnmkBAbUaeqrAC22ZDs3PwoLFFMMemFyJrxJjMrsACQAfQwT8EAywRAwBxBQZbInLEGC+CA6+IGL4An5i74GxtTkqcHtRalUl9DPq1uLaaGopS7LZU5XVNjw/poB5QOauNLo6ysLIM44EllddVbnOKniuIu5AJoa6K9T1PIB1BQguaP0z8DAEU4/gUAoAPXK48OBgugb2xABugIMEHLIHcISOKDbWkZAoPs3RyE1EAXT1e0BzqTvQu8Au76FB2tSFmpIioVI4SnSIE6YAZcWYXkQHQD9Dep4YKp02qAgAGAgMGVGjTUrUFr+7RoeLUWrR3CGsEJfx1a+iaxpvH5em1aNa1OfTMw+s2o0cr16PHHSN8WOPwbUPRr0edfg1a/qmnZRyd/AQDMSCSABQDAIKAMLEAZAwCsYgYB82wAGwNZEmBfwAIbkLkabEC/jJARkNIjh5wAxAUDCMQBCAhsAIMA9gRADghFRkBAjfx9/wq5Y75lMvne5bJKjo4/kYKAv/7/COlXSnfgS3eAad3OgYH/rlkxEOSXUXc6tLj/Vgqo/8aNF2jDuY/pyLv3CNK/YPTjk7/Q6ofifwe0/wcff0xnL12ijZu20EBXHyJ+yxDxG0ERHPGL2fM81c8Mxd8Ap0wh4hdFhw1/Dk5OFBWXRClZuWj1S/kwKjL8ZFpSVHpVSd6rKDLS0JkvvVp//hdDvb0GKXFR2fq6Gnc1tCG1OHlSUFwGJWaVkqt3IFrQHXDoZABgJgxVMsVIZQswAksQBWyFDgB7XBtXlgHQkeGDToEYtKPXixOouyaHBtqKqb4w6QEAwODY8GpbaQbD/P6LVEUvKakpdeKU/5GKugoAgCqWGkAAlqbaQxU11TvyCvL3RSK5h/IAAYpqSgJIEFgCGAa1wRDowCyoZ4DkKx4iBDbAFB0BHCHMbMBSzBGwcQQYcLIHIHDA53ZksQz/cLyVyTdSlmJSX6OsbBEVQxKogCegrlqZWupVqQ0goL1FnZa3q1NnJyj8FejbBwjo6cdajbVGg7rX4rkRrFHo++P4ugk16pzEmsb3TqtS0zRCfqZESPiD2W9+LZz6mQUQ1gIAYBbgsbXABpSAEShmWQDGQKFDgNkALMEcOA8EsiELcE5AGhbLAkKXANIC4yEJCImBkAQkcgCnBYrQHijHGQGbvYpFcWbiZ/5dOivgz/8zkD4j3YG/dQdQcP+xor1fIRvuP6/M9o+ja8epZPgorTr0Lh157z69CdFfcvqXFP8HOP3fg9ufi/+1d95BWNhBWtO3mtrKq9Drn0wJ9i7kpWNIDmgzs5BXIgPk1QvFX0vi+Ofi7x8cTJlw+yPp725UVPip6FD/3q62tlc7Ozv/8W99/z/2r98wMSGbkZwYutTC6CN1Da2HPBvALzyZknMrySsoEnH0bjhsmgnLCIOVTLEswAQsgQzDMoAdTv+uikgGxPXyAkMTgcC6irQo6ijHlMD2IqorSKSWytypwdU9frW1tb/4se+38PvLqck9o6KmkqqorvSespoKCSAAkb6QBUhZQ/UjBRWlQ3LyonMiBdH73PKnoKpASnD/KzNYAGPAbAG3AXL7oC4DAW4dBBvAKYKmaBs0eyw/gJmBJbZWWNZkvEyHTD3lySr0ZXKLe5WCU2UoKgvFE7JAVpkC5VUpUVGNEpU2qlBFiwpVtWFK33JVqluB1Y3Vh7VKherWKFPdoBLVrlWimmH09I/C5DemSA0TABOTyPafRLb/pIyg7/MpfwEAVKDw86r8wuLnBCDAvoCFBWDAgOBxfwCzAl9kBFgWyERmgJAXMN8lwLIA5wXELGQFwBcQAiYgqFbuNjwB573KZN1cxS/9p/RmlO6AdAe+3g7M7T6gXtyyOsklofx2TO0YFQ4epuU7r9Oud+7TTej+qP+SNj8Ufqb97+Lk/9Enn9AZGP72HjpMQ2uGQBmXUgn691OcPYST/zKk+y1Byp8BTv86cJvroPdcD/3o1nD8RyemUWp2AcUnpz3wdLY7FeDhJK6vr3hJSvt/tet4/fr13+bnZy11d3W8oKahfs94CcKUAqIAAKrIPyIR0wL9wTRboDXdnIxMzCC/mJO1ORZYARuYAW1x8ncGAHBDd4aHhhYFWlpQQWwQNeYn0urmAgCAOGqtztkx0LciXQrQ5q+RkpLSr5U0lSyR5HcWTMAdyAFCcUc+wD18flRBQcETyxoAoEhOQW4PWID7IiURyUOnYSDA6X9q2hrEswS4c4ANg7qGCBECENBD9wC3DxqYG5EhFmcJcICQudUSMl5qRPqOKqTn8zIZh7xI1lEvk0PcK+SZ9hoFi+UoMh+n52J5SqlQoPRaRcpsUKScZkXKa1ek/OVKVLACAKFbkYr6FKl4lSKVrJankkGstVgjmOa3Dr39YwoY9CEv5PuzwY+L+MIp/3OFf/1iqppflY99XsUsAQMEfsRi8CB0DOB1Sh8HBJAJBFZg3iyYDY9AFqQBAQiwURDSQALGCDMbwAZBZgPCmkQPg+tEdwKq5Y4FVMm5BtfIv/jV/tlIv0u6Az/uHWDq/8aNG7/KrlpeFlfcvssvbyUVrD5AK3Zeo1no/nzy/xQmPw73uQ+jH5/6WfPn4n/hyhWa27qdhodGcPKvpOLIOEpC8Q80MqdlKCYW0P2NUfw56EcbtL8haGcra1uKiEmk+NQsFP+UO+EhfmeQZufZUlf+ipRa/ur34pUrV/4pPT1ZMzjAZ5emlvptQzNLxAKHUmJOFQXHpZMbugGMMCDIAIXfyAwAAMXfBvn/NgADtugIsFXTEQCAK0Cbm6oG+ZiYUFaID1VlRENazqH6gnhqLs883NVSU9nSIg1jEq6UnJzcL7kTQFFV6TDo/Y8AAoTCrqSuchun/L3wCJjga2REiiKPxfKyLbIimZMAAu/JK8nfUlKBHKAuSAUwDsIYKLQPSroHdAwBADBUSA9BQhwmJEkVBAgQJAILMrI0Ij17FdL2fJn0Al8g87CXaGnUK+SU+Cp5ZchQIEBAWIE8RZeKKLFSgZJrFCitEUCgBd6BdiUSdypR7goAgh4Agj4FKlglosI1WBjeUzgsR0Uj8BeMiagMY33LMOBnAQCUzRfxLwMA1RsABrCER4CB6scAAYODBebgERCYlwgKIREUrFv8KEJYkAXmZwjwGOGkbpEAAmIYBCx0CDSKHqBD4AZGCOd4lctaOFY+w4NBpO0pX/3/EOl3/gh3ANT/30/P7VwUW9jSH1HQfi6iYoiqJ07SmsM3aPd1mPvA+9/l4g8QcO+e5OT/ya1bdPO99+jYqVOY7DdFfSu7hXY/sX8wRVnbk6e2ocTxj+JviBOlMNmP2/2Q7+/k6obCn0kx8cn3o6Jjb8ZEBI2vaKrTmhsbkzJ5X+P+w6Cen6ekxKuEhQRs1tLW+FQAAJ7BFC+uQp5MBkbPh+MQuXQeAFgIUxZtcD3s0B1gZ2BCtmgB5FZAzgNgAOBtZETpgV5UlhJJK2vEAgBoKk0/uryhoq6sLOGXX+OtPlXf+jMZGZnfKagqr1FUUbqkpKqEXH8lUlZRfhfFf0ZZU1MGLME/PKv/7D++JHrp96/KyfjLiGTXyirIHYE58BNAh9tgC+4iE+A+fAEPOStAU1cSJKSjpyswAswKCPHCaClkZkDfBElOlnqk7aBEGh4vk5bP86QbtIgMQ18ki+iXySb+VXJMWUxumTLkkytHwcU4MZeBRq9Gmx2c9AmYvJeMU3QqaPV0FNQMnK6zekWUjdM2x/Zycl8eevd5oh9P9itFvn/pPAPAAIBP8gsnfS70n1uzi6nmS1Y1nhcWgwQGB/PsQAUzAvNAoAhsALcPcutgDjwC2ZwhwN0C/XIkAQKPGwQxSEiQBOTOBdWKBiLqlGT1xc+ydigFAU/VPzHpL/Nt7QCf/gcGNvx65eBYhG96/Vm/7A7K69tDvfvfoR3XbtMV9PvdZa1fOPnPF/9PPqZ3btyg0+fO08zGTdTT1kEtxaVUFB6JAT+25And31ZRMuDHALqyHlrMdPXQ8oyTp4uHF4XHJlJSZi4F+vu+G+LruXl6fMQYbWU/2ql+39S1ZekkLS1BJi42dkRXV+sTjgC28wig2KxyCk/KIe/QWLSd24BNtsRB0hImTEuyRfa/PVr+7OENsNXUQzyzhgACXNkHoKdHSQinK4wPps6qTKrPj6PagqRTtcWZHS3Fxb/me+ebeu8/6Nd59tln/xHFPE5BRWELu/zxyGa/C6D4+0D//y9+uUdO9UWLFv1CRkXmD4tVFqvge0KUlJWaVFRVpgACjqKV8B2YB+8xG6CBQCHNeUaA5wtI0gV1kS0AVgDMgK6NKmk5y5C61wuk4f0C6fi/ACZgERkABJgBBFhBDrBNepWcshaTe64MeRXIkl8pgnWqAAbQUx8JHT0akbvxAAEJAAHJMN3xtL7MVXDog37nCF826rFrn/X6YhRopu355C5o/yjgDAKEkz4X/I2vCasWj4/WJnyOVfeExV9fzQvfW8WLX28eELB3oASJgkVgBQpZFsBiUJIFj4AgC/BAIUwU5PfNCYLoEniAOQLvBjeIxiNrlVVDG6WTA3/Q/6Ckb/4724Ht29/4VWvvhHx0bt3OsKKujxMax6l180Xacu1T5Pzfp48ep/1v36YPP/yA3rp+nY6dPAnqfxv1dXVDIy6k0th4ikPkrAfMYzxilql/AwWc/HGq1EE0rQFCaDx8/CmSBwFl5pOvl/uDjNS4+prKAidmIL6zX/gp/0GpqfGvJCbG9RoZ6X9sisJu5+pDkZllFJGUS35h8WRuswxx9FboOLMkC5z+l1nbkCMeHZHFYAd/hiPYGmYBXNkHAMkmFl1o4kh/ailNoToAgKrc+HOlucm99fWp/yH1aszfTHzCl1eWX6KopNijqKz4iUgZbn9VxRMAAm3I++dZ9j97/L7T0ND4J3zPfy5WXSxSUVExRySwp6qqahzaA0vABHTDEzCsrqu5HqmCmyRLa6OWjvaUhr7WqJaR1pT2ErX9mk5yn6i7v/xA3fN50gAI0PJ9gbT9F5F+8CIyDn+JzBkExAMEwBPAIMA1R4a8C2XJt0yOAqvkMGxHjiKa5Ci6Fe127ZL+e57Ul94H/Z1BAJL7FgAAn8i/CACEEzyKdg1O8zWzkuLPRb2O10LBn8PnX7YYHOBrF1Y1XoNX1YbXBCDATIOEFXiMEQAbkIWOAQYBqWwShDeA5wkwCIhuF92ObJE/G9okXxDcIGceuVyBBwdJEerjN570c+kOfGEHegfHXqxpH/D0S6+6HF87fC+/fwetPvSO4Pq/fvsh3QYAuHf/Hn16+xZ9/PFHBK8AnTp9hnbs2kXr1o1SZ209VSQmk9g/kIJx4uR+fyvQ/iYI/NFHupwO3OWc8W9la0ehMfEUlZBM0XEJt2MiQnfnZia7dDRWv/yFtyT949fYgYyMjJdTU5O6jI0NPjK3tEQbOQBAegkYAACA8ASEztkLMoAJpAALS2uyQ+6/kxVyGpDEaI8AIAcwAE5gb1zgA3DX0qFIp2WUEeqNDIAkqs2NoaqcuHMl4sS+crH4Px0dpTksC5fqZyjoL4hURLkw912C3v9AXkVxP1aVvr7+X6SkLSwsfqFtqf1vGvoaizAa2EhNR81eQ1cjWF1PPQqP0WAEopAw6KdhoOGmYaHsp+kgW6zm/uI5Nc8XPlH3fE5gAbR8AAD8FgksAEsBJpEAATGvkDVYALuMxeQoliHXfDABRQAB5bJCK11IvSxFNssCBMii5x4FFbG8qb1cYDmoRxLhywyAAADQyscFmRkAPqk/DgBqUbgXCrlQ/FH06zdjPf7In39hPQIKDAawBBZBAAESeUAwDTIbgJ9bBEagAEBESBQEG5ApsAFyGC8Mj0OXCEAA4UHtogcRrQonwpvlSiOa5LU8y373y5+QFAQs3KTSR+kOPL4DnOZWv6LfqLCpu84rtfp2dudGapw+QRsufExXMOL3g/tI9wP9f+eu5OR/892bdPHyZdq974Cg+/d0rqDG3Hz0+wdTgoOzcPrnmF8zFH8DGAB10VuuB93fBNP9XL19KT49Bz3/CfeCAv2vV5WIC+vL8//4+PuRfv71dwCn8pfSM9M6TUyMP7KwsiIHDwCAtGJBAmAAsMTWEUPpbIRoYAvINfboxnCzxbLE10KmeRwAuGloU5i9LaUEelJNbhxV58RQhTj2fFFW3CopAHjCtQILYCKnJGqC4/+2SEl+E/6c/YQv+9pPyXn+7pcqbs9lqLi/sFPV/QVSYxYAMoCWzyLSFViAF8kILIApTIFLwAJYIytgWQaYgBwwAYUy5FkiSz4VAAE1sgS6nMJbkCfQwdP5AAIwpY978bMQ17sgA3CSH/fyPwIAOPkLRr956v9xmv9RkQcAaHgMANTNvQo2AGvTk1ctnq/dKFk1eGRWQZAHwDAw4JCYBmXwHuBLGIdREQbFAnQr5Ayj7XFAAdHCCgADCkgSBBDokL8R2SzaHtqoYBHUoiSNDP7ad5z0BZ62HWD9lvPjk4sb0yJyas5HlPQ8qJs4SoOH3qbj79+nD+89oNsw/N2+g5Cf99+n62+9SRcuXKADh47Q6Ng49XR0UhN0/+KIaMH056uPVjIUfnO0/BniBCm4/kEpm/LJ0tkNeSXZFBoZTdFR4WfTEsK6p6eH/gfv4ZE0+rTt7//V7yMBAJmdFhamHy3F6d7F04/CUwooFImAPgAAlnYuZLp0GQbQ2ZIlujGclsGwaWdHntZgAZDMyJkNTgpgAADkXNAKGLJsKSX6uVNFVjRWJJVlRZ0vzo7tlwKAJ1xhOU2538LhbwQQcBoswBQ0/qwnfNk38dTPdH1f+IOq5wtJqh4vHFH1eO6+ujdAALMAvmABgl4UDIHGES+TBViApWABbFJfJfvsxeScJ0PuYAG8y8AEVMlSEFgABgFRbRIWgIfzcBAPJ/SxDMCDfLhF73EAwKf/BQDAJ/9Hp/5HJ/xXwQBIViOAQPPWxdSyXYbadspS+y4Rdez+bLXvkqP2nXLUukOWmrfLUtM2GWrcvJjq8H01YAWqAQbYK1C7SQY/Rxavi2TCzcgpwGTChs3q+Dp1eAjUqWK9GoCBGhgCVcoYULmf0qP0cWy74pH4TtXI5G4NzW9i06WvId2Bp2UHcPr/ef/IjHNMQcOwb2r1vZyVszRw4CptvfwRXb/zgD65e58+wVS/Dz54n966doVOnzlNhw4foZmZDdS9fAU04XKB+k9EuIyXnjEKB0f9KpEhigcP+dGCF0APMbPOHn4UEIZJgMmZD4P9vd8TmXyVAABAAElEQVSKDQ+qWbmySXVOqvt/K7dSqlj8SlpaWq+VleXHy+ztESEfQBHJ+RSCLgDvkFgBAJjb2mMAnT3Z4NHN2Zm87R3IC2DAGQOC+Do+AgDqmhSI7JlYHxcqRiBQcVoolWVHn6koSFlZKY79d6kH4AuXcLH+4n+RU5aTkVWQnQAA6ETwT8wXvuQb+6OW38u/UnV90VXV/cW1qu7Pf6ruxQDgebAAMAMGvEgGyAYwjpB4ASyTAAIYAGQCAMAQ6AovALMAAgCoBQBogBQwLwMkwlzHXoCMrwAAuGgzA9C45TVq2orCv30xCr4sde6Ro5X75anroIi6DytSz5H5xZ8fUqTugwrUdUCeVuyTp869ImoHQGgBWBDAwFYZFHsZvJ6ImrfJU8sORbwmYop3q+NRk1p3aeHrtPA1WlS1ETMSJjVgXFQDK6DyIGml0o2kFSotKSvUgsQ9as+I534iNRt9Y3eg9IV+yDtQ1tX1y6YVa+Jj8hu2+GfWU+maHTR+7G3a/9YtepeL/230+X/0Eb138wZdvHiBjh49Rrt276WREej+Tc1UD+q/CCf6KBs7TPjTR88/p/0h8AfasS4H/iBYxhg5/96BYRQanUhR0Qn3I0L8dyXGhsXOzMz8QVo8vp27Bx6AV1PTMlbbWFt97ODoSD7+QRSRki/kAHiHxpCVgwuZ2zqQJU7+NvaO5O7iQr4O+DoAABcAAEeAN/YAOIPNccaoZn/rJRTt7UxFqRFYIVSaFX26qiits0os/o20C+AJ1/CZZ575J3QCmMvKyzrKKcoZPuFLvrGnNN1e/aOmx4v2Kp7Pn4cf4C4bAjUBAHTgBdANfJH0AQJMYQZkGcAKLIBt+mdeAPdimAIhAwQAAAQDAESwF4BlAPYCQAZgHwAb7lgGeBIDwO5/bvdj+r92nt5n3b8Jxbpjj0go6KuPKtHwaVUaPadO4xc1aPKyJk1d0aKpq/OLP59f4xcxuOiiFo1ewLyCs5hd8AZmGRxXo77DqtR1SBmvpwKgoEr9hzXxvB6t4XVCn1YfM6R+rN7XDWnlIUOwC/oABHoAAzp43+r4PZQ/TulVPpbWr5mcPqL7h9gBjX+S+gK+sVtQ+kI/wB3g0/fYxp2/T8yvHI3Oa7waU9ZNHZveoD1XP6BzH96mj+4i3hfF/5133qZLF8/TiZMnaPuOHTQ1NUUrOpZTY2ExlcDQl+aGseUIkLFD0bdC8TeG818PRUNXSweZ80Zk7+pJEfFpFJ2Q+sDfx/3dqvLiyM7OFtkf4Jb9IN4yg6q0NLFcUnrGhL293S03d3cKDI2g6NQCCo5NBwMQg/kAboiSdyIrO0eyc8Tp39WV/AEUfOEFcAUAcIJx0xH+DUcAACdkAfgjdC7aw4nyk8MoLykQs2diTjRU5DQ3NIh5ToPUZP0ld8Y/cGcADIB84vz2Nkn8k5/JLfvdb9XcXihT91h0Td1T0hLILIBOADoCFliAWICABHQEgAWwgwzglIeMgCIAAJgBA6ohAwAEhDcBAEAGYADALXbpGNCz4ANgI2AxTHgLHgDBAAi3vsT9/yq0/sXUihM7n/IHT3DB16CJS1q0/k0d2vDW/LqOx4WF59YLz2t/9vdv6eI5yZp5E5MKsWau6QEs6NHERT0av6BHY+cxsfC8PpYejZw3oOFzhjRyxogGTxnRmjeMaeCEMfUfNaGew8a04oARJAd9+Ah00FKo+SB7tcqfMlept4kHNB3aZq1/JwUBX3LnSp9+6ndgfNu2f+tds87OP7HwUnRR6/3CrmkaOXKVTr37MV3/5Da9//En9Pbbb0HzP0fHTxynnXv2YHDYGPV09VBTZSVVJCRSurcfhS6xhmlMG9S/Cgb9qJA+Wse02fiHUBkL6MyhMckUHBZF4eGR7+RlpS4vKSl5RjpG9tu7vQZ27vyn1NxcjciEpO1OLo63ffx8KRLtmTEZRRQKIOYTFk02Lh5k5ehKNk4YLufiSn6eGBgEFiBgmR25QrJxhAfAEfq/I66po5oG+QIARHg4kjghmMQxPlSRk3Cwu62+dGCgUprb8FdeyicBAH5uYf2VL/PkL1Na+r//jDbAZWqez+2EDPC+OsyAmljanAvA4UBsBgQLYIFcAOvkV2kZZADH3MXkAjOgV5kM+VV+ZgZ85AMAAOBMgMcBALvwHwcA3K5Xs3Ex6H5ZWr5XASd1jCQ+iVHE5zF++DLGD1/VRhHnAo9HXtcfW/xn/J3k7xdAwmcAgIu/ZBkABBjgtbAuG9LUJUMAC0MwBQZgCgwAAgAAzhrSEIOA0wwCjGgVg4BjxmAEAALACLTu0qf6LbpIMtS6n79W44h4rXpb5qCaX9mo7nORk4ukAy2efFtJn32Kd6CtZ+iZ2o7+NN/EgpsJFV0P69buoE1n3qaL739CN1D8byDh79KlC/TGGyfo4KEDNLtpjvp6+6mjqYXq8vIpPyyc4nF69EWhXwa6eAmKhTDmF6dHHvNram6FqaUeFB6XSiGhIR+FhwUdaKgu9eroKPnVU7yt/+e/Gkyav8krKzMOjY4/6ubpdjcgOIhiElIpIauIwgEA/AAAlrl5AwS40zIXNyGRMcjbm0LBAgTZ2QMAQAIAAHAAAHDANXUAAPABAAhzd6TM2ADKBAAoz0nYuXplW6Z0FsBff7m/VQDwE4zDNfR66fcIBFqh5vX8G5AChI4AbeQCcDCQHlgAE8wJMI+VmAGXCS2BAABoCfSEDMAAIADdACwDCD6A5bLEPoC/BADYoV8/JwvKXYEGjqvTujOg8y/qoFijkF9Dcec1X+T5cYY/R+GfWVh/BgB08He6kvUmHnH657X+TX28lgGtv2pE668Y0TTW5CWDz0DABQkIWHvGkNacMqQBgIDVJ4yoH6vvqDF1gQ3oBBvQvFMPQUZalL9O87J4UH2ycETToWRI7ZlKlgSkH9Id+JHsAJ/Ai+tbF+dVt/T7p5R+nNk4QCtnD9P+q+/SmwwA3v+Qrr15VSj+h48cEvr9h9eto47mNmpA1n9lWjqlefpQqMVSckHIjzWof277M0J4jC5myuui7W8pKGbPgDAk/iVReGjg+ahQ//5Du3Y9KzX+fbs32eHDh39fVFFtHxQRfcXHz+d+WGQUJaSJKTkbACAhnfzDY8kR187W1ZscIN+4eXhSiI8PhUMqCIYR0O0RAEDxB6PjoA4AsHQJhSIMKDXaj9IjvahcnLBx3UBvxOSkdBrg17maC6f/J4GDr/S66u4vOKt6PN+o5vE8cUcAewG0/ZgF4JbAl8ECvEKWkAGEboCs18gZLYHu8zKAH2SAYHQDRMy3AyagHTCVOwE4FnhIVpIG+DkGgJ39CrRijyoNndChsXNM0+vidK5LU5d1oOtrCwzANEAAF36h+M8XfJYFBGmA5YFHEoEumAJmAFDwsWYgD8zg74QlgAA9fK0hzb5phGUMEGAIlsGAxi/pAwhAEsAauaAPScCAhk4bQhIAGDhpCDYA6zjAABiBHjACnQcMqRH+gLJprXtZA2rnc4Y0MvPGdE2/0oZLv0m6Az/AHTh48OB/FVY3WYWn5l9AB8C9ij7Q/3vP0OkbH9Cb771P195+m944eZwOHtxP27Zvo8npaVq+fDk1VFQgBCaHChD3G2GNtjFdI1oGxz9P+jOCZqwH97g2t/0hZY5nz4fh9O/n70cFueKGFa1NTj/ArfrBveXhifXyOcXlkV5BoZ+GRUU+TEjJoIzcEsrIL8PgpQwKg2/D3TeInLx8yRlAwMPLhyL8/CjK3QP9/khxZACgBAYAp397AAB7dS10ByyhYHcHSo70oVQBAMQPz0yOOOzfv/8ffnAb9DS/YW2v5/+fmvtzDuoeL5wBCLjHuQCaYAEkMwJeIhO0BDILYMMyADIBHMXwAbAMUIpuAJgBg+rgA2AjYLskD4A7ATKRBSCGCVCIAxYAwGtCP379nDyt3KsJQ54OrT2pB6OfLnR/XRRjXZzOGQAwE4DFAEBYKObX5gs/Cv2ssPTwuLD0aSM+3/iW5JGfnwELMM0L3zd9bYER0Mfz+nhtfXgD9GnyimSNAwCMAQAwCBiBR2DtOayz+jR0ygCMgAGtOmkARsCQ+o4ZAQgYAggYoH1Q917+OvXrWQOquzL61WNLJi3QJSCENj3Nt4n0d/uR70DfwJh2bnl9mm9sxt3s2pXUOb6NNh29SBfe/YAuXr1GZ86cof379tC2HdtpYmqSevv6qLa6mqrEOVQC7T/ZzYt8DWEWg9nPWsSnf0T+ovjr4fSvh8Q/ByTPeQdFUEhU/N2EuKijxcUFFlu3buVUTunHt7wD/f1D1vnFFRVuvsEPE1LTKSu/hPLK6yi3pBpjl3MpLjkNLEAUeQSEkKdfIPn5+lNMcDDFMABAV4AbOjfYAGiPa2oHALAMQUCeNkspCBJAQqgXZAC/2+V5Ccu3z23QlrI53/LF/FtfXt9H/jcarov01N2e24xugE8FL8BjAIBbAs1iXqalya/QsvTXyIEBQMFiAACZJwMAdAIwAMjmSGCYAItGkciHMKDKGbTkbVam7v3atOqILnR/CQBYtwAAIAMwAJgCAJiCD0ACAj4PAPi0vwHFXgIA8Hgdhf+6AW3CI6/Z62AC8LhekAIWQIAeXgsL/oBpGAMnH1vjl2EQvIQFo+AIDIMjYCSGAQDWntEDG2AAb4ABrRYYAbABYAR6jhhS2259jDfWvFMwon4la43K8qzVGmbiIZXnK3dKJYG/9d6Tfv0PZwc6uvutxWW1Fd7R6Q/zW/qpd2YnbT95mS7efJ/OXrwE098J2oniv2nzHK0dAfWPtL/qsjIqz8igwugYiuPEP21DskdkrBX6/k1EHPkL57+mLhlgoIyrbzD5BkdRcHjMrYzUxInq6nIVtItJZbbv4BZZvrLPI7eoos0dY39Ts/Iop6SKCquaqLCihrLQtpmclkHB0bHkExRGPgHBFBAYRAkhIRTrwQAA7ZzaTwYAgQAAcSGelBXv/3FVXnLj7m2blKRmzm/mgvKMgG9MBtBwfOb3aq6LUtQ9nr2p7vWckAvA8wHYB2AQhpbAmJfIMhHTAjEfwJ7nA6AbwLMEEwPRDRDInQDMAKATIA6dACkMAFZjOiAidxcAQBlS+GrWK1Dbdi0AAD0Y//TQkqdLa0/pwownYQHGL+gILMCkIAVIgIDABgAQCJQ+ij9r/RuEE78ebQIQ2HzdkObeNqTNbxt9tvg5LP579gEwEzCFNSkAC0gNYAWEBc/BBHcKXEGnAEDAKAAAr3ULYOAswMAZfZgE9cEG8PoMDKw8qE/NO3Tx+6nfS+lV3Zzap5okHtaUnzcHfmPX5Zu5VaSvIt2Br78D5U0d8enFNaP+sZlU3T1CI9sO0L6z1+j8m2/T4deP0u7du2nT3CZaNzpGnRjxW1VdQ2U5uVQAN3kGesqDzJcKYTEc+ct9/4L2Dy+AHiQBi6V2OGHGU0Bo9IOAoJC3uleuDFi7du1vv/67lr7CX9oB7skvrG3MSskv3eiLa5BTVkel9W1U2dRJVQ0tVFxWTuL8fIpLSaWgqFh0Z0RQREgYJYcCALh5UKj1MuQ5YBgQrqu9CKd/PC7T1SOPZUvJHxJATKDbw9zksGs1RRm5586d+3/SHIe/dEX+ur//RosMdwSoev5BWc39hf3oCPiAg4EkPgDJlECTqJfQDfCypBsAMoDEB7AYqYAyghEwDK2AkZwICCMgA4AMDN3Jgg+Ap/ExA1AxJaLaWRVq364LCUCXug/oUv/rutDb50EASwHnIQVc0EXfP+SAy1hXJGsKhZpP8Ezt81qPk7wEBBjMAwBj2vL2/HoHj++YfLbw/CYwBPz1U5AUGAgwqODXlDAN+BysA/8sBgH8s/k9jOJxBC2Dw5AFhudlAUEaACBYI8gD7BGAJAAwUzqpeS+zX+VKdIvibEqP6rLYdo1//+suofSrpDvw/d8BLhDvvffer5OyCltj0nJPhKfmUcvAFE3teZ0OX7hGx8+cBe2/jTbMrqexiUla2d1DdXUNVFyASX84/WcH4bTo7ILUP0NB+18Kmtgc5j990P+6GPhjZGxOjh6+5IuwmcjYpDfT09ImkRvwrFQr/vbvDT6Nnzhx4n+i0wsHIlJyr0Sl51NZSzfVLO8nzHqgdp7Z0NQEMFcNWSCfouM5mCmGYmESTAsLo2hnVwrGYCAXtHCy+W8ZgJ0tPzIAsLMWAECkn9P94qy4A9VFmWHHjx/nDADpx/dtB/T1f/L3Sl7/+//UPF5Yh/kAV9kMKHQDBL2AMcGYEogBQRbIBOBoYFvIADwbwK1QIgNwHkDoFwAAT91jI6AEAMhQxaQi1W1Qp7atujAASgBA3+sI5IEMsPYNUO+nsHDiZip+HKfwCRTjz4MALuASKp8BAK9ZnPC5uM9dN6atb5sIaxuK/+cWnt+Mv9/0lqHwPSwrSBgBZgEkLMMCAJgA6BifX2MwJTIIGAUYYCAggAHIAwwCmBEYPA15AECg/7g+2gV1qWJa45OsNcqXYtuVu6JaFZdFNqu99n27xtL3I92Br7IDAAB/t/fo0T9EJmUOhydmvhUvLqHlwzO0YR8AwPnLdPDIEbT7zdL45DgNrV1LDc2tVIa434IsMRUnJ1OqN3rKER3roqFHtij+kt5/AAA1LdLXNYD5bykx9Qz6/2FMQsre4uLivLnhYWla3Fe5WH/j90xOTv5i2679amFJuZtDEnM/SCmup8oVg9TUu5ba+wepZ9UqWt6J2Q3NzVRUXk7xKWkUFxdPidHRlIGWzii0dAagddNZVZvs+PSP62uLcCcbfX3ywDAgPzAAkX4O96oK0tY3VRW5416SGgD/xmv0nX25lvV//gozAmpVPZ8/ygCAxwTrBr6AUKBFZMQTAgEArBANbJv2KjkgFIgBAMsA/gwAMBOAWwFjwADwZMA0DAViH0DuCKbxjYqobEKZamY0qWWzDi3fo0MrD+hABgCtfgJa+0lo7qDYWXvnsB4O7ZGAAFD0KMi8WLfnYB828c1ck6z1eNwAin/uLSPa8hYAwHVTFP8nr60ABnPwBkxfZ4MgmwPnl8AGSOSBCTABC2scMsQ4QMACEFjH/gCsYZYHAFTWCktiGFwNaaBjH0DAes2HSSuU3o9sUe4IaVAM9KnCOGexECH8jbI139kNIf1BP+4dwMmfT4gDc3P/0jM0qh4Ym7QjODb5VkZhFXWNbaSN+1+nQzj9b9+5Eyf/cRocGqTu3l4qLaugfJ70h7a/ghho/wiOCUKR4Kx4Nv9ZoEiYwDCmr65NhsamZAlw4BsWR34h4Q9AM69r7+x0q62t/VexeO7vxWL63Dj0H/cF+eZ/e762I9ObvAISc94ISMx/mFffQw39k9QxOEF9a0dpGF6O/tX91Nm1giprayklPZOSE5MoNTaWMkNDKdLeifxNMcpZRQsAAKd/MAA2ygAABgbk4SABABG+DncaKvJ7ljdVWH3zv4H0Fb+xHVjs+JOfq3s8767u/twYZIAHmswCIBRIF5kAhvABmCEUSGgHTOHhQK+RWz4AAPIAeC4AjwcWWgEBADgNMA1pgJkDizFxDxIAJu+VjqtQ1bQmNc7pUAe085VgAXoP6dOq1wECjuFEDRAwdAogABQ7F9hRBgEotswESNgAAABo9QwAHgcBDAZY598EEMAn/a1vm9L2d8ywAATwubDmQQGDADYKcmqghAnglsN5FgCP7BFYWAtAgB+ZFVgAAswIrHskDwAQQB4YFpgB7hrQp4at2pTao/wwsknxsn+VQqF/ucIffcTP8lhn6Yd0B35QO7AT6XBDc3PPLO8f0UwtripBHOzVwKgEyq9qoIGZOZrds592HT6Mk/8ErV6DTIBuUMf1DZQF1382in9eYiJlB4dQKKbHeaFNzBatf1YiJSH5z0gF7X+g/y2slgnu/5DoFPILjLgbHJm4NSmvStzaO2LWOzT0PACIVE77lu4anMZ/Wt3W97ui2vauoLTSGxE5dVSzaj11jMzR6slNND4zSxs3bsAEx1FaNTBADS0tlCHOpQxc2+z5axuGa+uDaY4OAHS2AADWoP+tEAhkY2pCnk7LyN8DDICv/a3Olrrs4eFe1W/pV5G+7DeyA4gHVnJ96RVVj0XFGh4vvKnh/dxDLeQBLEQDm0VDBsBsgKUAANwO6AwjIOcB+CAQKBitgDwTIAatgJwFwGFAbATkLICCYQUqXqdK5eOaVLtBi1q2AgSANu8+oI92QACAo6DToaevQcvdEDMBAAIjAAJjYAPG0Z43gVa9SV7o35/CmkYLHyf8zTAbsLAYCGBtfAuSwFsSSYCL//a3zQRJgIs/ewMYJMzia9hUuAACJN4AiT9gAQA8epxnBQRGgFkBBgMsDczLAwIjAAAgAAGAlkGwGK17tKl8RvN+/HKlG4G1Cn0B1YoeEXUm/yuNEP5G7lLpi3wLO8DGrLlDh36zamhWpXnlqE1WVVd6RG5jt3dq7SaH2PKTlr7x77sHht0Pi0ugktpmGpjeQBObt9AMTH/dvT3U2tFOtY0NMIsVUirMYpkoEDk4JSZ5epMvNH4XOP1tUCCscPo3QwKgEdz/+noYBOTojqlzoRQenUyOvhFk6ZN429hP/CfrsPzLTtElO32TqtZlV60oaehe4969ZkQTLWTPcOH6FrbgR/eSu48e/V3nwDqToNTiM7FF7XeyGgapdWw39U5to4m5HbR91y7ajjyH6Q0zNLRuhBrb2ig3Fx0CaWmUl5BA6WgFZGbHAx0Ay9DRwad/K9D/SzS1yMbcjDycbCnQy/FBYpjnjZ7lDc5zU8PP/ug2+Qf2C/9Ux+PV/1FzX5SKcKDT6t7PPWAZgLsB9IORCsg+AMQC83AgbgdkIyDnAfhwFgA6AdgIuJAFwAAgYx4A5A0pUBFG7ZaNzQOALRIWoHs/AABYgNWvAwBgKM+aE3gECBgEpT5yBpG9COcZP28AAIDwngsGAgAQQAAAwNQVCRB4HAAwG8CSwEbo/QwCtlxnWcDskUFwMwyBm69zIBAABADAZ4Wfi/+XAACwAhNYjwMAQRqYBwHr2CPAsgCKv7Dwec/rOkgP1MJIZNX7sR1Ke8KblQoD6lQNbcXP/sYR6Ys/sHtC+naf0h3gol/bM/mvBS3d/5Nav+qlhKI2/eTSFaEJJZ25oTktq/wy6ve6pdRfcIit+MDCK5Y8MZ0vEgCgtK6J1kyup9ENszSKfv+Ozg6qb2qkchjF0rNzKDkpmTLi40kcFU1xru7kZWCKbHhtskHrnyV0YjMUCSMExRjpo/ff1Zu8AsMpNCqJHPxiyNI3lcwC8skqtOCOXWTRm65xZcdDxY3jcYXNFYmlrZHple1LI8XNr5U2NPx3S0vLr6WO8q9+c66dmH2pqWvIxy+56HpiZe/9/OWT1D61H+zOdtqwbRft2bePdu7cQes3bMA8h3XU3NpGeXl5grSTF58geDsCQf+7a+oJ2j/LO5aY6bBEU4dslliQh6MNBXk53k2L9b/Y3d5gPjc38d9f/d1Kv/M72YHFjot/ruz2nKe6+/OzyAS49wgAYEKgMWYDcB6AIAOgHZCNgK4F3AooQ4GIBA6DDyAKPgChFRBpgOkMAAax1ihQ/qAqFY9oUBUidZs26VD7Vj2YAfUhA8BIdwTtdUcRxTsPAgYBAoZhsBs5awQWwIgmLhhjIcYX0b2TDAYEJgD5/kj1E7L+52UBiTzARkH2CHACoEQaYAOgZCEnAM9xRsDUEwGA9iMJ4BEDMC8LfF4S+MwfwGyAIAmwR4CBANYoFssCPTA5Fk2oYUSyytXQBsWp4BoVI7dG2X9zHJCCgO/kZpb+kCftwE85iIXz2Ovr1/5H2fLVxrn1vVHJZe2tfum1BxwSKt+3ia28ZxVVRbZx9eSQ1EzOyU1k6x/PGj3y4ROoHABgFQb8rB4eoe7+XqqqqaHC0hLKQnGISUymxNg4SkfxzwwJpQgOidExIHvQwtag/y3g/jdFDoAxGAELsyXk6Y+e8og4CopMIPvgVLKLLCD7OPzs6HKyDCsh8+AiMvLPI7OgfLKNKH7fI6nyVLi4fnVWVUd4eVOX2cq1s/8BEPCP3/rwtCft5A/4ObAoP6tt71ta2NDZ451afSe3c4bqRvbQyo2HaHLbbtp98BCdOHGc9u3bC4PnJhoZHaWmllYqwjyHAjAA+cgEiHd2Jx/MdHABuBNO/wAAFpgCaKGjTzbWSwEAllKwt8OHxZnxmwa6O17Gz5TOT/kh3DNIBTRVcX2uFWbA25wKqOWLEcGYEGgQyrMBJCyADWQANgI652EuQClaAWEEZB9AJCKBY3ksMNIAJTMBkAewSoFyVqlQ/oA6VYAFaMC43VYM2VmxU5969gEEHMRY3sPI4X8dC0CAx/RKQIAR5gQY0ehZY0gBDAKwLgIQAARMYKgP5/pP8aAfBgRgBKYEZgDdA/AKCAumwc99zn9G+98kcgAmuQPgz5aEBVh4/osgYOHPEl/APCvwmFGQ/QFC1wADgXlAMHhKj9r2aD0oGlO/Fd6kdDikSsUnqFJDOtb0h/AP4Sl7j0ydb9i//9crhqeMyttXhUUXtg05xldctomp/MA6tvq2XWLTfbeMDvLO6aLgkjUUVT1O0TXjFFG2hlxCEigAvd+x8XFUXlNH3YODtLwH7X44+YtR+JMyMik2ORVUfgwlYaWGh1Oyrx/5w+HvBLPfMkVVCQBAj7gpkgBN4f63sQZFHBKN038yeYXGk11wBtlFFJIjAIBTXCU5x1eTc0INOSfWkl1cDVlHVz20CCt7aBpcfMcqtORDh6jyi9G5TYPFDd3BTSsHVOFo/1dcMqk88BfuWy7++/e//kpicVNJUFb129GVqx9Wjuyjtg3HaPXmQ7Tn0Ot08tQbdO7cGcQ6H6C5zZuFbIeGxiYqyyugEkg8+eERFGVrRx44/TtC0rEBuFuCa2umoUXmhgZkZ2MDAGBFYb7O17raasvr6wv/4y+8Lelff192QNn9BS0l1+cLMR9gPhVw0SMfgHHEi0I3gHXKK2SHQCCnHAAA+AD84QMImfcBcBZAEjoBFmYCZPYpUHafCuWuVqfSdZpUNwOKfJMede4woK69BtSDnP0+AIBVDAKOYiF2d/VxSAFI4FuLSX0jZwAAzplADsAjGIFxgIBxSAITAAA84Y8Zgc8WewU45peLPQMASZaAUPi5+M+f6L/O4+fYgHkAwCbBhcWMAEsDzARwsuCqYzpID9R6kDesdhNtgv0hdcpJQbWaL+iLhZHP35fLLn0fT+kOIKL3Fw3L+/9QWN+hEZHbHBKQ1dDum9k47ZnWdNYltfmWa3rbA4/sleRfuIoiKtZRbO0kpbVtooK+3VTQu5Oy2ibJIxQAAIa+GOj6ZTjxd/T0CppwCXL+kzOzKSoxhcJiEygEITGJOP2nICUuAeNifU0syAGT/mxRHKwhAZijWJiB/jdn+h/JgEER8RQSk0ruwfG0NDCDoP2TXUwZOcVUkAsAgCsAgGtSLUBAHTnE19Ky2Bqyjakmm+jqB8uiqz8BQDjrnlA16Z1cWRmaVhPQ1juApLkNv0aRk0ptX3I/iwcGft7Ru9Y9tqB5rV9W/a2MjvVUP3EEp//jNLbtIB07dZrOnj8HAHCWDh8+RBvn5gQJoKGhkSrgAShGF0A20gBDAO5cAO7s5sGdOaQdUxg7zY2Myd7OhvzcbB9EB7mdHlq1Mqynp5bBmfTjh7ADaq4vyym7LopRdX/2Y8mEwEWCD0APPgDDcHQDIBVwadLLZDc/F8AD7YB+8z6AcPYBdHwGANgH8P/Z+wrwqtIs2zfvfTPfmzfWPf2m5/W8ft1AeVGNFJAgcVfi7u5CQtw9IcTdXQkR3AqHAAnuUrgXHggECOut/ySXppkan5pGQtX+zrWce+695969/rXXXju2ZQbiW2YjsXUu0nvmIX+NAko3KaF2pyrq9qihcYAWuwdotXtQgxbBDIKAtmP04Zc0AWro4ZS+vnOaHBwkgACTP0HASgIAEasEEyBKAwQDUkhgQACAcRBAALCa4j0p3mjz+48AgDVv7EfWLih0AbK2QRkA6JOMjcZLAuxsqN6jQHOkubdDauW2exTIWzsWf/kLlbE2wffhtJg4xvfsHUhkC11n55a/jC2s/yQmt9YoMqsi2T22pN98Uf6QyaJCWERUwTmlFT7Z3Uz6qxFVsxlJTbuR0T6Agr6jqN16ATWbTqGgawecOQ3OgyNigxYFgZbxKKmuRg7bwoQ5jKD9vegQ5+FLG18vH4T5B2CxuweCrCnwI0VsOns+jAgADCkSE0lCZ54i9JgkbO0c4RMUBu9FMbD0CIOeezwMvVNhEpAJS5YAbELzYLs4H3YRBbCPKIJ9ZDHsIkthG1UGi7ASgoEi6PnlQtd3CUyDcq67RBZsTy1qjswobZmVltf0K1Hm4Ec2wQi8cd4KzUQ1OytSCmtLA9Orj3uk1iGzaxAVG4+jdftxbB04jEtXr+DqtSu4cPF7HKbHw8bN32F5Tw+Ki+gRkExnx2CWeBxc4KqmBctZ8ykApPKf4E6b9L82mR1dbR1Y0gTIy9FiZLGv8+CWLes02M0xYen8xufwTl+cbzv5t/J2vzGfYzf5urz9pJfCGlh0AwgAIJUBKAbUDxW2wGwHjGM7ILsBnLPHywAcDSwsgUPZCRDOMoAwBIpumY6YplmIbZRHiigDrFiAwnUsA2wlANitjvo96mQCOHVvvyZBAINjeNtYDmihOFAAgQ4O4+k5rYkVZ7Wx6hzjey1qAzTYKsjyAIWCKwkAZGBgjBVg9wCn/Qmf/9UimJxFyIR8PwoImNRFYpeS+4+xBG/c/yYAEPuSmQfJAICsQ0BqGSQLIKyFV7CLQTgNNh5QRP6m+SMBlbPPuefLOTovmfHZO30yTBzce/kOdHIF3Lll3/9p7FnnwFX/Kquw/EuGgfkwDa9k0m+Dd3YPQks3IK5uJ9LaB5G74hiqNl/AssFrWHXkFradu4fjPwxjL61+e6kIF/V/D093usD5IzkzE1m5uUhIS+OQmEjW8AM5xIce8R7e8HD3RJi3F0KcnKUpcVas/5uKFjGq/wUA0JWfC31lGgLp68HJ2Z1jfyPhHRIHC88oGPuS/g/Mhg3pf6eIfLhGFcI9phBesQWvwzOmAG4xRXCOLoFTdBnsYyphGVkJo9BS6PL1GfjnwC26cG9IamlV07IelXEQ8F5+hj/FQa9atePnDctXmjhH5V70yWh6EV39HQrXn0bT5qNY2X8Mp85fwL0H9/HD7Vu4OA4A1q5fj46OThTl5iEvLh5JohRkYgE7uv+ZUtMhxH86/Hw15ilAS00d+np6sDbVJxB0PZ8SFdh88uTJX4iyw0/xeib2+RO8AyrOk34213qSvJzt5IPUAwzPdZjMEcFToEg/ANENoEEWQIdiwIViOuB4N4Aj/QAECyC1AwodAMsAi+kHEEU/gKim6Yis/xZRdXJIaCELsHw+OwIUKAZUQc12dZYCBAjQoDeAJlr3axMEMA5pofmQmjR8p4UiQWG7231KE31ntLCaIGD199pYSVZA6AP6zqmRbh8P6gPEdD8x6ncl6/B/EOOrdNlqXQYIxHbMcIjbN1b3ry/LGITx7Zt/J/tbCQRw/7IygBAHCkthaa4AAUAvj0dcFuOHO+l8WLpd4fnixtkn/MrnpDsvnT9nQhj4E5zIH+EuudL6s7Wbtk+Lya+P90uu6LJYXHjbPLJi2D6+6aVn5nKEFK5n0t/FpL8fxWvPoqX/KlZICf8+Dt54iHN3hnD57hBuPXiAoeGnOHfhItZs2Mjk7gkXVyZ1Px/EkVpITE9HWAwHxJDud+CEOFsXd9gzoXu6uSOE1r+Bdg7wYI+4OWvExqSIjZj8FzL06f63UE0D5sZUiHv5wi80Bl6hCbD0joN1UAYcQpfCLTIfPnGFCEwqwaKUUoSllyEivRSR6SWISCtCeEohFiXmIzBBPK4IbrGlcIoth110pSRaNAwuHKGI8aF1SO7JrIrW1MqWLu1NmzaJGvRHzQZcv379f6VXNMqHZpavc02qeRJaugZLeg6jfOMprNxzDHuOncbd+/cxNPQQtwkA6NuPwYP70btyFZoaqfdYko0sof5na6eXlj4sCexEa6c+Q3PWXKgqkv7X1oaJ8UK6AOoiIymiq66yIGAi+b9nP0RaDtP+Yp7dlN/NsZ2ykwBgaK79OABwoyugF10BRRmApkCiHdCY3QBiPLB9BlmAHHYDjA8GEo6AAgBEtggAMA2RdTMRWTMb8U3y7AiYRy3AApRsVEH1NjWWAggA+jUIAjQpCtRG66A22gkCWg6yNHBQDU2HyARQHNh1QoPlAJYCzowxAQIA9FEf0HeWyV+AgO8Z58cBgAABTLgSGBBbCQyM9fC/TtJM6CsZsiT+dpng3woAxH5l4EJ6DgEAhBhwvEVQAABxHKJDoOGA0qvkXvk7Ec1ynV6Fco6O6V/+YqJF8D37orxDhysc+/Lqen6WUtr5RVJpq1NAWk2He0LlQYuI8ld28Y3wzOpGSPF6JDTsRm7PEZStP4O2vdew7uRd7LrwEEduDOHC/Se4+fAxfng0hPsPH2D46VN8f+E8Vq1bDycmdhdXJ/j4enFaXDxiExKxiO1+7qz523E8rLWzG+ycXQkA3LDI3R3+bP9zp0e8+VxFyRteBgAMWP83Uady3NQE3j7+EgDwDI2HlW8s7ILS4RK2FF7RIrkXIzS9HBFZlYhdWo2EnCokLK1EQnY54jJLEZVejPDUIgQnFMI3vgiecSVwjStneaCC3QslWBhcOGoekv+Q/e29kVk1YTFLKxQaGhp+Id6nd+hj+y89lMbGzsnxOdUWvinlx7wy255H1WxF7srjLPMcx6b9J3H4zHk8GhqSAMCtWzckDcDefQPoYbdHY109itIzkB4YjDCq/91J/5vT2ElidWj+I3wdVAX9r6MDUwIAZyuDl5kp0aVtzbVW/6UvcuLJ/uPvgIWFxf+YZvrpr+fYfdIuZzf5jjwBwDy6AiqyDCCzBtaiKZDeYs4GoBjQbNwWWBoMxG4AX5YBAscHA0VwMFAEAUB47UyEVc5CtMQCEAQsoxZgtTLFgKoEAeqo3aGBun5NNO5l4h/QQfsBHbQe1CJlroZ6GgY1EQi0HRYiQQ30ntQiENDm/ABNlgYICigU7GG3gGgbFGxAL8sCfQxRHlhBILCChkLCWVCI8gQtL1bmb4YYACQlbtlWlshp+iNb2UslhDdvl11+YysBALGP8dX/WAmAIIDPLUIAAekyj0NsmzgMaen6BfdDa+UGPYpm61rkTv1bWgdPUGX/8VP4o9pDItv6GhvX/zK1vMMwKq8+zy6q+Kr54tLnVlE18MruRXjVFiS17ENO3zHUbb+C1cfvYvuFRzhx7xmuPR7BveFnGGKyfzL8BI8fD+HRo4d4QBr4MZPBSQrClnO6n72LMxyduKpnGWBReLiU/D0Dgpj8PWHh5AJLe2fYOjjD09kFgc7O8LG0ghNNYswkAeCc1wzAwvkKsOAq0cHKAgHUDfiHxUkMgK1fDFxC0uAdmY0gruzDuOJPyK1BWnEjcqs7kV/XhfzaZcir7UB2eTMySxqQXlDDyXUliEkrQHhyvvR3XvHFcImrZGmgCiaLK6EfUACL0IIrHjGF64qqO4yr6HxH/4CPzo9etH5mlzV4RWXXtggNRVTVVmR0HUIJ6f/OrYdw9Nwl3Lj9A0ZGRvCQ4O/m9es4d/Ystu3YiQ7OA6jhLIACAr84sjz++kYS/W/M2r8uQ5PCThWWA9QI7Az0dWFjtnA00MPqblFuusuhQ4c+/6i+jB/Ki51q8eu/nWszJYtCwKsCAMhmAyi6j7EAohtATAcUswFMqAMQroD2mWMsgBdZgNeugGQBIugJEF43HaGVBAFVcxBTL49ElgKyehVQvI5jdb9TQ9VWgoCdmmQCtNG4h8l/QBdtBAFN1AXUDwgQoEoQQEaAnQKt1Ad0HtOge6AGOwUEK8AgEOg9TRAgugbOEASQFRBugr105hPWwrLo+14kZEHNj7XsiSQt1exF0v6RkMCBSOpvJPrXYEHc/tbfyPYl0wH0cv+vAQBX/mL0sXQstBAWcw/ajiu/Ku9XHA6tn7PXp1RO3zVrwT98KOfQxOv46d+Bvr6df9XWu04xKK2ywSGy+JhZaMkz+7imV/65qxFWvgWpbftRuuF7tA/cxMazj3D0zgiuP36Oe0+fY/j5CJ4+e4anT4cxzOQvVn8PHjzE/fsPcPfuHW5ZFjhyFM0dXVzdO8HB0Q5u7i7w5yAYb64EHVnzt3B0homNM+18HWBj7wh3Jyf4cUa8J2fEO2pyNUj/f1OuEGVT4oyUlGBjoAdXBxsEUQDouzgeHhwvbM82Q89FCQiIykRoEmfQZ5dhaWUzSpu60NZHI5pNO9H7XT96Nu9Bx4Z+1K3YhoquTciv78OSsmak5VUjKbME0UkEAvFjJQTXeDICsbUwi6gcXRjC9yW84FLMkvKU/LLaj8qTXnSB9A8cXOAeW7jFKbb0vn/+SqQtO4yC1UdRv+kIdh85jdv8zId5LjwfeUYAcB/Xrl3F8ZOnsJ7ln6bqWlQsyUF2cKhU+xfWv2bfjvk6aLG8oy43j0OdVKDH2r+pEb0dLAyGM5MjVxXmJM+cmOj40/8G/CTPMMtiyt/I2U8Oow7gAssAEgAQOgAxG0BZlAFEOyC7AYQY0Dj2K1gl0xaY3QAyMaA0HpimQEIMKDwBwuunIbRqBkLLZyGyVk4SBKZ2zWdHAOvhG9RQsUUdVds0CAK00bBbBy17dakH0EXTgBbqKBCsZbtgw6A6mtgt0EImoO2o5hsgQBPLCQSWs1ughyCgm9FzWggHaShER0ExX6DnLKl3KZQ4dIiJmMn4NRggIFhBYCDGEUuAYBwcSCzBeIJ/DQTGk750nY8T29cgQvyduC72Mx5j9L+YKCgS/1j0cCsGH4lSgJh/0HJE+WXOhnk3o1rm5gSWzbFclDtPKGY/6nrlT3JSf0A7ZV31T1JKGr+KymkwCE6rKXaKqzrmGF933ym5BQH5a5DQ2I/s7iOo3XYRq7ji7788hNN3nuHWkxd49IzJf+Q5nvHH/tmzp1Lyf/LkMX/4HzLx38WtW7dw6dIlnGMNeMu27aioqSUAcISdvQ2Few7w5BQ4VwrBbF08YGLrBGNrB5ja2MPK1h5ujg7wsbWFG3vE7TS0/xAAMFmYKivB3sgA3i72CA4JlwCAe3AMbD0COWs+CgERyQhNXEKavwi55Y2oJADoW/cdtuwexE4OH9p98AS2HTrJUcTH0LvzMJrX7UH5MgEEViCrtB1JOdWISivG4qRCBCRQH8CygD21Aex4eGUZUfbEPrxwl2d0UUVFw3LVnTt3/tWHXp8Wyb+xc+Vvkosbk1ziK865pjSNRNRsY+3/KCrXH0X3zqM4fekaHg0PY+TFC+l8uP/gHi5evoyDh49iBQ2AaotLUUwDoGRPH/jocHKj5Pwnx6mOs6Euav/UdaioqGOhIacCmhmMutka3SnKSUuuLi7+rThPP6Cv3cfzUqZa/N1fytl97jTHevJpmgJB3mGsDKAgugE8ORyIOgAtyRSIACDqS1iIMgCHAwkxoBuHA/mwDCANBxo3BQojEAitnI7gklkIr5ZDlGAB2tkR0KeMorWqFKKoo3KLBkWB2qjbqYPGfgKAfXpo2qsjlQaq+1UJAqgVGNSgJkCD5QF2CxxhyyCZgM7jmrQRJhvAkIDASXVu1QgIRKjSS4BT+xjLT3OKH6PnzDgYEImYib9XhEjOgh2QgIAiEzhjHAiI7R+UDHh91QXqB0S89TiJXWCyl7bSvgXYGHuescTPy2eV0E0w0i2Og2Ckm0Cg6ZAy0lbMOxzRPLdycZHS5AmPgI/nu/ZveaWijUtQ2MUN3b8IW1Lh7p9aXuEYU3bbOrZ21C1zGUJKNiC1dQCl68+hqf8avjv/CCfvcdX/5CWGno/ixcsX0ipvhJT/U4n2H8bQ48d4QNpXJP8rV69Kif/AwYPYvn07J8EtQ1Z2LuxJ/9vZWUssgLOHFxxI/Vs6uMLIygELWRM24Vx4Sxtbruzt4W1tDRcjY9ioa8GELYCmVIibMlmIMbGWqipwYY+4v5szFoXROyA0Fm4BEbBypiOgXyj8KQoMiUlBdGoulpZUo7KxHas2bsbgocPsTz+L0xcvMWFdx5HzVzFw5jI2HbmAzu0sbazZh+LOLciu7EFKXj3isyoQTjYggBoBr4RyOCXUwCKylv4BNBYKLbiWWd6aV9bY/Y3wDPiQ7YTX79r1y5KWPlWfpJJ9bsmNT3zp85DaeQj5qw6jdctRbDl4Ene4+n/2/DleEAA8JRAQ7M/Z789h9969aG9r4+p/KXIjohFJkOespM7Jf1z98/PUpv+/Kks8KgQE6pzqaGZkCCcrk2d+LlZnO+sr9Ht66n72bzm3Jx77Dr0Dk5wn/U85m0/U5thOHmCMUAsAeccpmM/ZAGI4kGgH1GA7oLAGNgyjKRA9AYQ1sMQCUAzoSVMgMSJYaAGEGFAMCAqtmYbAghkIKZ2D8Ep5xDWyI6BLgS1IyiwFqLEUoIGqLVrUBGijniCgqV+P5QBdAgBtVO5kmaBfHTVsGawnEGg6wLZBqWVQc9w7YAwMdEilAfWx4UJiwBBbCKX5AmLGACcOjgWH9lCJL8BA9xkmY0aPCCZmEb2MvvGtAAYSUyC2jBXjW3FZCiZ36f43trKV/ptb2b5lTIRI/gKQjIESlilYDmgmCCjfoXh9Ue2cfO+y+b+cGB70Dn0h3pFD6eOqtbaz9+u08tZCy8VF103Y/uac0sGWvu+Q1LwPeStPsXx2GzuvPMHxe89xl0l/5NVLvBh9gZcvnjP5j3CVJ2h/UfMfxsNHj/ADE//Va9dw9NgxbKbpSx9XfVXVNUin6CsiKho+AQGwc3SEtY01wwZ2rPlbsd5vYuMAAwtbGJhbw9jCGhYEAa6k/70IAJwMFsJKRYMAYN7vAQDHxFprqsPDyhSLfN0QFhlLD4AoOHoHw4hDgRycPeHhEwR/tgYuikpAYkYecooq0bG8F7v27CUlfRIXL13GtRs3pXr19Tt3cPnOPRy5Rk3D2Vvo238FNeuPIa9tG7Loa5+U14TotEKEJuTBPzYfbglVsI1rgEVULUyC859HZ1cvzyqpt9uxY9XP+fF+cCtVAH+6pKLFIo51Eovw0ufBJesR37wXS3vp8bB+EFsOncLlm7cICl/iJeMFQcBTloJukgE6xNLP2vUbUF9egbyoWK7+fbn6N4A1SzpGLOnoEgCozpoHpflKHOqkBn0DfVgZ68DX1fZMakxIXWlp6c/5/B/ce/qO/Az89Icxa9Z/+1M5xy8/n201ZfVs6ym3CQIgb08AQGtgqQzg/Rm7AT7ngKAvoMcBQUZRX8OczoA21AIIMaBnwTSyANMQUDlNsgYOrf8GobXfwD9/OgKLvpVAQHTdXJoDzacYRZEgQIWrFnWUfaeJcoKAqm1c+e/WpV0wt7u0UcFuAQkE7FIjIGAI7wAaCDXtH2cDaCIk7ISFUFASC0q2wnQXZPdAuzAVorNgB8cOdx5nnFBG50mCAMZyEQQDIroZPUzKr4NJuleEAAMECNJ2/HIfr4uQ3S4AgwQa3nqcdD/3IVgHCXBw/9J2/DkFEOk6RXZCXGc5oOOo8svKnUq34lsUghZXyU/76T/piWd4H94B/pj+943btn0VlVUV7BFbtN4ivPy+a2rnS7+c1Yir380V3Wk077kh1flP33+JuyOjeCJ+1Jn4xcruOX/cRxgi+Q8z8Yt6/60ffsCpM2fQz5Xe6rVrUVtXh4yMTMREx8LPxw8OdvawtraFlbUNbB3tYWltySTPsLGHCWl/QyZ/PVMrKRaaWcDMwhLOTP7Opmaw12VCYGIQAMCMDIAZE4YpAYC9pgZ8bSwQ4e+JiMhYeAaFw8bVF+qklo1MrKgjcIaboJoD6DUfSdFZciYKy6o4l34ltlOQJkDKpctXmKRu4wcCgHtcvd6hVuHK3Yc4cfsBtp69i47+S6hha1te+26klq9A3NJGtg6WwD8ml74CBEyxVbCKbYDZ4tInzhEF/RHJeVmdnSv/7xYK5d6Hc+Ffc4yiHbS4ocPVL62yzza67Ilf7gokNO1F1rKDKFu1H1sPncb567ckDcjo6KgEAMQ5IoSfp86dw1aWfjpa2lCelolkdx8sNrWWbH9NmPz12PanMVMeyuzwUCbI09DSYVunIVxsjEYW+7u1NTfUGnyMQst/zefy/jyGU+s4FfDXs6wnd8y2nnxJBgCk2QCiDEA/ADVfAQA+l6yBjaJoCkQAYE0A4MjZAB4EAN4EAP4V4wCg7huEEAAEFBIUFHyL4OLZbAuUR0LzPFJSCsjuU2JfshrKNmqQCdBExVZtdgawHLBDR9IFlG0lQ7CdIGCHGqolEEAmYK8wEKIwkELBFgKAFpYGRAhbYQkIEASI9sE2jhtuH49OGQggEFgm4jUrwDIBL0vBZCyBgfHELa3emdhfr+LF5TeDyV92n0j4ssu/f8xbAEDsn88lwMfvWQk+NzUL4ngaBlWeZa9eUJ7Zq2BYuEd+wkLz/fnW/CRHKn5Ml69b96u04lZL/9SqCqeY8tMUt436UegXUblNqvU37ryGtSfuY/+tZ7jx9BWG+aP+giv/l6T8BQAQyf8pV/8i+T9gj//t27dx9vx57OLI11WrV6OpqQnZ2dkIp8Lfjz7+DuzjNyGNL/z6TSjos3awg4WlSPIWMCUoMKbLn6G5zTgAsIQEAMwt4GhlBWc+3o4AwFJZ/R8BAAdtTfjbWyAqyAuRAgAEhkn0v5KKFnT12DZoYQNHFzfOCAhAAJmAsKhEOg8WoKm1HesoSNvHCXXf87iv37iB2wQw4rXcZ/zw8BEu33+Mg9cfYu2x2+jccwVlK49iSeMWJJf0IDqrji2DwlComL4B5XCIr4dpWAWdBUsu+sUX9qbkVWq0tKz6OYHWe98mWFEx+KfFLct/G5tbu9QzqeqAXVwNF1zfIaVtADk9B9G48RAOnr2EW3cfjK/+xwCA6AC4x/fy8PHj2MDVf0t1HYriEhFj74IAfRNYy3Gio5jmOIPUP2v/YvUvlP86ujqwMNZ/5e1ieTN6kXfumr6umR9zu+VP8iPwR9jpn0xz+Pu/oAaggHFgNnUAnA2AuWQARBlA2ZOugN6fQ50gQJQBJFOg2KmSJ4AdRwS75EyjJ8A0+JVPozXwGAgIIQgIKPkGvrnT4Z83E4sr5Lh6mccWpQVIIwjIYymgZK06RYEatArWojCQ5YAt2lKUbSY7sIUggECgkuZB1TQPqqGLoGAC6vZpUizIGGSQERBCwWZ2DAgfgTa2D7Zy4mCr8BJgtB8W44fFSptMAGMZAYEEBAgGuk7IYiwxdzNBCyDQfYpJXazcx4GBpCM4LW4bv13c90bIGITXt43/nYxpkFgHCXjweV4/J597/Bj4PK9qB1XuV/UrV5XtUFFJ7Jz6Z3+Ez3/iKd+Bd4D16T8raGz8TXF9l49rfMkRu9jKh3aJLVhUsgmp7QdQuOY0lh28g8GbI7jIOv/D0Vd49WoUo1z9v2TifzP5C8r/HlfLZ78XBi8HafCyEuWlZchMS0N0GBX57N+3t7SEOQe56GpqQVFBEYpKqlCjmt/C2gompqZcpZvAyNySyd8K+lz96xpZQNfYHIYME1Nz2BEgOFEAaPsjAMCco2KddDUR5GiF+EU+iI6Jg4dfCMzYRfDtzNmYP5dOcqJzwNQSTk5ucHX3g5dvMELCY5CdW4C6xmaClbUcUHOALnVsW2MpQLweAQIesZQhtAx3nwzj5N0n2HN1CD18X6o2nENe136k1W5CdE4TOwSK4BudRxBQTF1AE0SrJDsnhsMyylZnlbSorlmz/e/egY/9330IIIBpXr7m1wXVLUE2EYXXHJMaXvrlr+ZC9v8ZZwAAE/VJREFUaz+WLh9E1doD2E7V/91HQ2SFXoAnC8+RlwSIL/CY58dlAqvN23ags7kV5VnZSPMiENM3hrOiuuTmqCtW/9RyKLP2r6Q8pvw3MdKHran2SEpcSE9eVqz5h8Sk/Ls/iA/lD2dZToqaZTVp3WzrSZCzIwBwIABw5nRAAoDX1sAUA4p2QGPqAMxpCmTNCYFOS38HN+EJUEoAUDWdzoACBFADUPk1vAkOfLJnIrhgjAWIbRAgYD4ylyuxFKBKOlOdwkBN9qhqEghosCygQbtKNRRtVOMkwTEQUEHvAFEWqCArUEswUEd9gOQmyI6BBrICDSwPSDMG9gsgoCqFBAIOsvXukAoHDzEEEJDFOCAQoKDzmDJBwVh0cbtcBMsGsuh+47KUzN++LsoK4yHKDF28Xwru5/VlkfjFdcFC8LIAIRI7QUDSwZIFgckrHtuV5kMqK9tPaH1Td0FF+JpP/PvI3oHEvCrzoLSKXJuI0h/s4ppeei9dQc/+HcjpPYk21vo3nB3C949GMfSSP+Rc9TPzS3SuVNOVVv5c9ZP2Fw5vlyjw66exS1fXctRwtntmUhKigoMRQPMeFytrmOrrQ1NVDUoKSpgjPxczqNqX43Q3ZTr3mZibw1gkf2NjGBibQY9WsCLxa/OyNhO+HsPIxAw2fJwTH2OjowdzggcTJn1B/5uTOhbiMRc9bYQ4WyMxzBeJ8fE0EgrGQnNbfP75F/hs8ieYOW0mVAVzwHKAPVeeLuw08PD0Z8dABJJS0lFMwNLTt4Jjagdx+vQpdizcJANwfwwAkL4W3Qz3nzzF9aGnOHxnGKvJijTvuoaS1aeR0bQD0QXLEJpROwYChKUwV8f2cc2cNlj8PDKrui+3oiGMSfTPGe9l/bp/cPDbpdXLfG3D8684Jja/DChYi7iGPcjoGEAD6/7r9p3ATZZNXhIojjL5vxRMEc+TJ0+f4va9e9h/+Ai62jpRtTQfS0MjEEow5qigCnOu+PXp9682Ux5KHP+ryNvU2OVhbKgPG1PDl16O5lcbqkrMd+7c+JuP7Cv6Yb9ctgP6zLaa3C4BANu3AIDEAoyJAfUJAIzoCihMgQQAcFzyO7hwQqBXyXQEEAAE1xIE0AsgqOpreOVSI5DN8kAuOwLK5RFdO5cOgfM5LVABWd3K/HFTQf5KdRSu1UDROib/depsF1RFAYWCRWwZLCMIkLEB5UIbQBBQQxBQ2y/cBGkoxNJAw141KRrpIdA0wImDgwQB9BIQ0UpjoTYBBESQERCsgIhOggEJABylRkCwA9wuE2CAMZasx7YCELx5/R9dfjPhv/nY8f2MgQsCAO6/S8ZAiNLEeEhaBT5/+2HVx62HVM4wIltOaH7WecViYqDGh/11k16dWEH19Gz5WV5Dh4ZbXEkdVf4DHNH73DdvFaLrd2FpHwe37L2JXRcf4wT7+u8/f0Wh39iPuVj5C1HXc5H8Sek+pqjrBuvlJ1nr371nD7o6l6GU0/yWcKhLZGAgvCnas2PN3khbD2oqKliwQBHzFihgHme6K1PZraG7EHpGZjA24yqfzIC+Ia8vNOHKn4l/oSm0xkPPyAQLjU1gJer/BADW3J8ZAYAxAYA5NQAWM+VeA4BQFxukhvshKSGeLYVjAsAvvvgCUyZPwtdffInZ39JcRl0bZmbWHBjkTCbAF95+ZALCopCQnIryylqsWbsW/f27cf77c/iBpQDhWSBYgCdPaGb0lGUOJrQrQ8+w79owSyP30LL7GgccHUNq3WbEFvchKKUa3rFFcGc5wCmulkxALVsGK84FpFT0tHZ2a+a+Z8NrBOW+bvv2XyWWtC0OzqpfZhtT8cQnd9WriMqtSGndh6KefVg/SLe/81fw5NmIlPxf1/5fPMcd+j98f/kqNm/ZhqaKKhTFJyGJ77uPNrUcbPMzIhjUIpBTpghQaZ4Sa/9q0CNgNDPSZtnH8F5CuH9fU035dNFa+RF8RT+elzjH4hOrORZTSmdbkQGwph+AEAI6i06Az+gKSBaAIEDdn66AYV/BMHoqjKkDsErmiOCsaVIZwLNoBoWABAA1VP8TAARXTYVX3lS4Z3N8cNZM1qbkEFk1F7EsBSQ0sxTQoUihijKVqiosCaghd5Uqclcrc3aACnLXKBMEqKBEBgI2jwGBsi2qZAPoI0A3wdrdwlFQMAJCKDgWjXsJAETIgMAge+8ZrQcYojzAEKyAAAQd3I4FQYAABYcFGCAIGI8ukcT/pZAl/X/icWJf0j6PyPY7BjbGwAefn8l/jJmgcPGI6rPWw6p7qWUwaTupMwn48NTKH8+36V9+peKHvLpz3d+W1PXMSCptKbWPKr1hE13FstlKJDYP0D3zDJr23KTK/ykuP3mFB4LFFf9xJSfR/uPJX4j9HjMZ3r57F0dPnOQP+1a0tbahIDOLq+8whPv6wpOqfjOat2irqkORiV9u7nzIc/W/gD3dmrrGMLV1hKWjqxRGTOx6hobQMTCAtoExk7/J6+SvRc9/bYY+9QIWBAl2BABW2rowVVIjAJhHACBHADAHVnPmwlVPC+EEABmR/kgjAPDhlEFTSztMnfo1AcD/w2dTCAK+/ApyFAzq6hjCnCDAmSyAmweHEbFDwC84DPHJGaiuqUd3dy/2Dw7iKnvW7xAECB8D8ZqFsdFT+hs84ntwcWgEAzeGsebUQ9Rtu4o8eiOkN+5CRF43/BPL4BVDC+GYMjgltsIyohyOUaXX8itbcsX4ZCGk+5c/sT/+I8Q5U1PT91fVbT3q3imVG10Sq245JbfTAXI7pzvuRXbnAJo3DeLYxWu4zUQv/r1O/tSIPKUh1KXrN3Hw6HEsX7YcFelZyPRfhDAyM04KKjBh8tdj8lfl6l9RXhFKimpc/bPFk5a/VibaL9zsTc60N5SHUKvyN3/8d2PiCP5T34EZ5p+qzDCfkvCt1aTROSwDSLbAYjAQAYAMBKhSB6AT+iUMIr9mGYA6gKRvYJs5DQ5Lp8GNbX9+5WLlP4NlAFEKYOIv/IoA4Cu4prIjIG82FhMERNWQBSAISG5dwNqmAtI7lZCxXJmhhPRuXu5RxJIVSshZRRBA3wABAkpZEijbxO0mdhBsViEroMIJgxQJCkaAYsEajhuu2c2Jg/0qZAYortujSqthOgruZcvdPsYAgYCIcUDQRkAgQEC7FMpjW7bmdTAEEFj2o6H0B/dJgIGJvVMk97cfz9s6eNvrkO2boEP6OwlwMPkLRoK3iZCAidAuHFLZ3nFQNb1zUONvJkDAf+op/s7sTNDOR48e/fuMsjbXyKX1KwUt7ZHZjUWlm6iROczz+RrWnH6Ew3df4AHZ/pdM/FL6Z/KXVv2y5E/B3z0mw0vXrmPX3n1obWlFWX4+smJjEe3jA0/W6W24elNXVIa83FzMlp8PuQVKUGWblxlpd0fWfQPDE7CI/fhewZGwcfFm0jeAFsVeIjR0DaBpYMQwlrZaAhCw7U+PYUyGwIphoTUOALhiNOfqXwAAawIAN10tRLjaYklUIFmIePgGhMDcxhEzZkzHtK8/w/Spn7MM8BVmTP0Kc2bPhpKSMkwJAlw8/OHuHcyRwyHwpG4gLCoOqZlL0Nrain17+8kEnMWdOz9QBzAkCR2fcpDRyNNnXO1SFPlkBMdoe7zmzBDqd1xH8ZpzSGM7XHjhCgSkNcAzZlwYmNQitQlaLcp+XFrdGtXZ2TPrnTk5/pkDKWts/GV8ToWqTWjGHuuoqsdOKSL5b0Mik3/usr2oXzdA34QreMyVv3TGCLaI54oIYf7zA0HBngOHsHrNOlTn8DwJCEY4BZ5uKhzlzM9OtPxp8PNTpAhQgcyQBvUhBqT+LY104O9udzY62Kvh5s2bv+TJOGFj/s98Tu/lXfIWn379reVkD5YC7s+ynjQqWgHnkQFQcPsMCvQDkCYE+lAIyFZA/fCvsTBmKkwTfwebDAIA0vwu+TPgXUbRX+UMsgCCCZgO3+Kv4JHzJVH3VxxSMpPeALNpWyo3VgponC+JAlPbFZFBECCAQBojdZkCMrrJDvQqcpywCkGACr0DVNk6SF3AegKC9WQGGGUbGZvJCJAVEOOGq7fTQGiHCs2FCAJ2MQgGGhiNBAQimhjNIggKWggKWgkI2kUMEgCwVNC+nwn7AOPgWHSOb39/XYn3Mw4SCDDE7eIxbz9OgAjpb8aTvrje/jr4PGK/4+yDLPlLAECUKQQQOKD6tP2A6un2QdX4lYMq/ztxYmbAe/l9+qcOuo6z63MrW6dGZFdXuiZWHrKOqRn246o/gb39OStY799/B/tujODy41Hwf7Hml1b9YuUv1fvHf8xFLfcqKf89+/ezj3s9PdwrsDQhEQmBQQhmL7+NHpM3E78ia/vyHN+qrKlHQZ8t7D186cIXz6SfjKDIRKrzQ2FFMCDq/Wqa2lBRZc1XSwvqnPWuxtW9OksD6vSE12BoMrS4Xx19AwkAmPOyKf/GWJQA3gIALpqaCHeyQVZkAPLS4xEcvBg2pPmnz5iBT6b8lqv/TzBn5lQozp0JpbmzoDxPTipNmBAEOLBd0DuQ44ODIuHlH0Y2IAJxSSlobGzC5u++w8kTJyQTGyEGHCYAeEYAMMKk94SlkLtPRyRfhLWnh/j9viOBgFSCgKjy9QjMbmd3QAnc42vgklAPu7iGUd/YovPx2ZXpAwMDNAt6NwcICQOj5ctX/zY8qyLQO7F0u3VE5bB3zopXIWWbkNjQj5xlu7CMPv8Dpy9iiEBolOJQceZIq3+eN8L85/7QYxw5dRYrelagoaySdf9I1v2t4aaqBUuyN3qi7k8GQIn6DQWyAepM/oYGeiz1GFL4pzWSlrg4vbO1Wmci+f9T3+z3/HY5hy8mz7KeYjvLcvJ1igFfyo0DgAUEAAvcPpVAgAq7AbQWfQldAgBRBjBNIABIJwBgGcCZAEDoAPwrZiComkwAw6eUACDvCzgkfgn39OnwoxYgtGwOoqppDkRBYELTArasKCK9nQCgYwwApBAApNEvQICA7D5l5LEsUERdQAl1AQIIiJkCxevYRSBAwKaxIUMVBABVAgQQANQIELBDmZ4CBAG7lek0OBZN3DbtGYuWvcoEAcoEAcoUWI2FBAQIBjoEEGB0jm8lUEBg0LmfSX+Qwa10WTxG3C5Aw5sh/u4t8CCSfjsf08b72nhZhHTb21s+pl2wE/tV77TvV23v2rtgdssOBWFeMvHvA3gHdu++8uc5Jb3/LzijxMY/rWara3LdDceUVoRVbGUp7Diqt17COor9zjx8iTus9z/nr61s5S9+zGU1f6Hyv3PvPo7TMW/9+o3okCj/TCQFLUKIE/vr2Z5nqKoB5fmKUJjPOq66jtTLb+/GvvtFEVgUncyVf5x02cHNC8amFtDW0YWysjJXfgpQ1dAgCNCGKvu+1ckCqHPanwABmtzKAMBCA0OY6unDhADAiCUAIwIAM4kBkCMDQBEgE0iYozUBgD/yM+IREhrGIUKumDFzFqZM+s2rzz6ZRCbgc8ybM50A4Fu6zAkAoESbWRPYOLhRNBgK36BojiEOhw89BEIiY1BUVILunh4yAXslD3vRFfCYIECYHY0w8T0jAHjEuPjoBbZfGsaK4w9RvfkylnQdQULtdoSRCfBNqoZHYhVcE2tB8RzcYkoehqVXttY0d5oQALxz1twi+RcWNv91WlGtdmBqeYlbYvl5x4Sm0aCi9Yis3obUlt2oWrUHGwZP4ezV23hOgCjOGRkAeP6SwlG+P9fv3MXugQPoaGhGRVYOUtl+6cd2TPsFKpziKMeWv9lQEYY/FP4pKavyfNCB8UI9DvwxeOFub3QpLyPOfdvG1b/7AL6GEy/hx94BBdvf/XyO5RQNMgBHZllNHplDADCXDIBI/qIbYIHLp1ChKZBmEAHA4q9ZBhA6gG9gmToNNiwDOOfNoCsgV/3lXOlXzZRKAX5lU2kU9CXsEj/ll42CwAzBAsxBCAWBohQQVzef9JUCB5kw+QsQQAYghWWBFLYKCiYgnSBgCUsCOfQOyF85BgYKCAhEFK0VroIEAhuUx4GAMt0FlfkjqowaRt12xg4lOg0qoWEXQYAAA4ymfiU0Ewy0MFoJCFoJBloFGGC0iRhgkicoeDs6pdvFfSIUx7e8LEABYwxAcMv7ZWBC2jLpt0v3K0n7biPIEPH6MdL9b12XblN5xn0V8Rg1J9oDf+yMfb9u20LBX9fa7dNSSttd7MMKjtvE1D73yu5DdM1OdsSckVr8tlx4gsvDwDP+fo++8SMuKbglAEDTH/6YXxMObsdPoLe3FxUU+uUkJiLe2xserN+bM/GqM+nLyVHEpaoNHUNzOHsGYnFsGqJSshlL6MBHUx57evtTza+tpQ4tda74lOe/UlogNyovN3tUgXS8kpo6VFj/VaXITwIBuobQ0DOkZkCUCPShxzAiaDDi8xlRzW/ExGE2U54lALoAEgA4qmsg1M4SmWF+KFmSgKiISLgSbMyl/uDTTyYP/+bX/zD863/41bMvPp00qiA/A5rKHDmrpQw9TXYU0JfA1t4VvsGx8F+cwFHCbCMMXMzJhGwTzMtH57JOHD50EDdvXGdr4H0JAAgthHA/FCY3Q6S7zxIE7GPLZPeh+7Qfv4Ts5cekEcmLCnrhQxDgmVAJz9QmDhGqg1di5ZWYjOIVPWu+++T48ePvjB5ASv7NzX9d3tA5LyC5dKNTXMUNGzocBhZuQGzNLqQ27UZxz06a/ZzBhZt38IxtfrLELwCjYAKG2fZ39Yc7OHjiFLqXdaM0jXX/oMUIZlun3TylMep/OgEYPzeFeWPtoBpkgMyMRN1fb9TBUu9e3pK0wtLSvCnv1zfu90f7/wEAAP//ZMCjsAAAQABJREFU7H0HeFXXmW3KzJv3MiUzk2QSJ8ZINIkuUO8SCNR77w0JdQmEJNR7772i3nsvSCB6sXG3cS+AjQsY0zust/aVRIjtmTgTOxV9Xt7nnHslzj333Puvvf71//sHP3jy83uvgI6Ozj/I2UrJbbRfMq5gL3VTyWUJVDyWQs1rGcdlUPVcBu3ty7ElVBaGu1bBZPdqmMevgW3qOjhkrINbnhy8i9fDr2IDgmrkECxQvQb+ZavglrEM9tHL4Za0GtuzNyC0RBERlcrYXauCxEY1JLWoI7VNA+kdWkjt0ERyuzpSOtSR3q2BzD5NZBE5A1rIH9BG4YgWika1UDyqidIxLZSOa6NsUgcV09qo2qeD6v06qD2gjbpZbdQf0EIj0XBIG82HtdB8RAstR7XQuoBjWmgTOD6HDo4CnSfmcVILXfPo5PhbaHKbeJbHFiD2iQ4+73fAxzvmn7NwvJ3PEZDsSx7X5u8S4nkcO07qoP0Ex+d0r3Q8q9vW85yeefUp+X/8vW/ikyf8RV6Bd955559OvvCCaljWnh6vxJp3nBJaHuysmEZq5wsom34fw29dxZuXH+DzO8B9iJ+HePhwDvcfPMC9+/dx++5dXLp6DaffeRezBw+hs60dJWkZSAkMRoSLG1y2GmCzsgY0lDSgpq4LE0s7+IZEIDw+DUm5pYhOzkRg2C64uXvAytIM5kZbYaq/CQabtbBFRxWmhpu/sLc2f8fSwuxNdS3tm8rqmtDU3QztrYbQ1TfGJgMTbDYkOOpxf6u+IcwEtujDTFcPZqqasNqoAls5JTgqqMBdRxc7HKyRtmM7anKTkBAfD1+/IGhoat91dnIY99++rdrXy7N4g9za08uXSt+UWcHvG0U5mBjowsLUEFZWlnBx90VgeBJCozMRsjsNfjuiERGbgMzcPAwODuDVV17GubNncO3aNdy6dQu379zBXV6ne/fu4fKdezh3/R6OfnwH3ae+RO2+c8jvP42ExqPYWTCI4Mw2+CXVwS+zE16JDQ88YsoultY0ZtTVtS3+S7mJOgYHFyWXNJgGJlccsYuuvuGR1vUwtHgKMfWHkdl2GFVDJ3Dgpbfx+dXruH1v7s55wPtFQNw3d+4/wEcXLuG5F1/D0OAYqrPzkLY9EFG2jnBT14HFBkXor1eA7gZlaPH909LahM2bt8LCwgz25vrwcDQ/H7zNabKzs3bl+Pj4P/2lXJcn5/H9XIEfrbFcvFLBTrpF3l762iMCwOCv4rYUqu5LoeW7DHohMtAPXwXjKEEA1sI2hQQgfR1cc+XgRQKwnQQgsJokoFoQgHUIKF8Nj+wVsI9ZAqc4WXjy+cGF8thZroSIKmXE7FFFQoMakls0kNquSWggqVUdSW1q/IJUR4YgAT0ayCJySQLyBkkEhkgCRjRIBDRRMk4iMKmFiiktVE5roWpGCzX7tFBH7NmvJSEBDSQBjwgASUAr0UYS0HZUU0IA2kkCBDoEBAF4DF3c7pIQAgZ4jl3HNQkNPocQxxeIwQnxOAkAj/0O5gO9eO7C8XZut/PvSjB//NHfEvvzj3Wc0LnfcUL75Y7juhWtJzavapjV+b/fz1v/5K9+X1dgZGT25zWdw4pRuU253smNpz1T2q4EFU0gjcG/ct/76Hv5Il78/C4u3H6Im+I7fD7wCwLw4MFDSfC/wcB26epVvP3++9g3ewDdDP5VDIKpYTsQbO8IdyNTGKhrQUtNC3pbjWBu6wy/sChEJWYiNiUHUQkp8A8MgbuHO+zsrGBmpAejrdqEzl0SgU8sTQwOO9la1Plt80gK9tteo66p9Ym8kgrUtXWgvcWABMCIBMBYEvwlI/e3kHAY6xvAdCsJwCY9mPLftpInAdigBAeOblraCLGxQHLQNlTnJiA1ORFBwaHQ1tW75+HhPhUa4Lc7NChIX0NVebeywoZeJfn1J5Q2rrukrrTxgZ6uBkyMDWHr6AKvgF3wD09EaFwugqJSEBadjNjkdOypb8Chw4fw+unXcPGLi7hx8yZu376NO4IA3L2HmyQBl0gCTn95D5Nv30DbiQson/iA1/0lRFXNYEfREALTmxCU2Q7f1GaSgLpbu9NKZ8tqW7acOHHil9/X/fBt/m5SUtKPSurrf7EzvczLP6miwj2++rx7asf9wIIRRFXPIqXxIGpHTmLoyKt4+/znuMnXKQK+uGfEKAn+fP1fXLuBV958B3v37kNrTT3yI6MRaecCf31T2CmowVBOEXoM/tqKqtDU0MZmvS0wNOR1tzKFq43x7UAvh32pcTsi+puafsY780ff5tyfPOev+Aqss10sLe+0OFfBXvqykhMZuetSqLiTALhw5LaG9zJsFgRg50oYzRMAawZ0OxIA5xw5eBauh0/ZBvhVkgRUyiGoSg6BFeuwLV8WdjHSEhXAJXYV/HM3IKREATvKFflhJAmoV0F8k1ACSAKoBCQ2qxGqEhKQ3qGBjE4SgC4NZPdrkgRokgRoomBQg2rAHAkoHtPkh1sTlRMkACQD1SQCtTOaZP2aqCMJaJjVRBPRfEATLYc10Uq0HdZA2xGCJKCD6FwASUCnBDx2TAT7OUgCvtg/piFBJ8dOPvb78VtC0cHnC7Tz7wi0iZHBfk55mHtMQkL470sIyXGqAMe1b3Ye036H5+TWd0jzqdlZnX/4K77F/q5O/dixY/+vsqlbKae6a4dHbOUHrsltd3zyhqhwPc/gfwaDr3J29ultXLwH8L+5HxH4JV/kIvg/wC0GtAtffon3z57DgSNH0bKnEWUZWUhn8A+zc4Tt5i2S4K+mqIZNW4xg4+QJ/50xSMkrQ3J2IWIYLLcHBsHRzhrW5sYwN97Cmb/ufUM9rWsmBpvOOdhaT/n7eEcl7d6tNzk0tKyvo8NeU1Pz9Q3yCg+VNUgq9LZCh8F+E4P+ZqEESEYjEg0DGJAAGG+hkkACYEICYMnAb00CYL9RGS783UBzU8Rvd6cCEI+cjCSE7wqHnoHJfScnx5Ne7q6+zc25/5yWlvabbZ6e9pampslKG9cfX7tK9qKK4sY7ept0YM6ZqANVAM+ACITF5yMsIR+hsRnYGZuCnIICDA4N4ejRozh77gyuUgW4Oa8CCAIgVIBbnBV/evs+Tpy/g+HXrlAJ/AQFQ28iqfkEdlfvQ2huN0KzWhCU1YbtGa0PfWIKruaWNUWMjEyo/rlu1G7gx0mtrf8WkVKg6RNfOuAeV/G+fXwDgorGEFm9H0lNR1DQeQgjx17HqbfP4dqdu9SLBG8UhHEu+N/lfXPt1m28/8mn2HfgMDoaW1GWnIEED2/4bTWGi5oOzOQUsHm9ErQVVKHO2b+2ziYYGRnB0swEjtYmD7a72ZyL3umfy5n/hu7u7h//ua7Hk3/3T3gFVttK/Urefom/vIPURaoAUHCQhqKjNJScl0CZBECdaQCdQBno7ZCFQeQqmMWtgWXSOggS4JCxHm4F65kG2IDtggRUkABQBQiqWge/4tVwSloCm6glsA5fBs/kdfDP24DgYnnsKFNEJElAdJ0q4kU6oFmDMp0at1WR2KSC5FY1pDElkE41IJNqgFACsnuFGqDBlIAGP9AkAcMaKBvVQMW4BkmABkmAJmr2aqB2WgN1Mxpo2KeBxlkNNB3QQPNBDbQSbQKH1NF+SAMdJAOdJANzUEfXkXkc5SgBg/5Rgcf2+fyvHZM8Z+54J7e/ig4ea/8qjggCwnOYRzv320lQOggxSnBE627XMe03u4/q2PQd3fQXI1H+CW/Nv7p/qrq6+h+7BieMwtJrGpx3l110Te54GFlzkGmtl7Dn0Mc4cPYW3r76AFceLAR+8S2O+eA/J/vf5Jf7p5e+xMkXX8bk3hnUV1Qhf3c0Yr28sd3UHMb84tag3K7O4Gtkbo2gyHgk5hQjp3wP4tNysd0vAK4uTrC1MIa1mb4I/DDU07xva2l0Lmi7V2VsZLhveXn+ooUv+Ne7u//PCydPrjfcuvWghobGdTlFSsOU93X0SACYCtgslADK/gK6VAa2EgYkCEYkAEaUlM04k7SUVyYBUIKzmga2Gxki0sMJFenRKMlNRUpSPOxd3KGhpnrPwty0ua2tTXd2NklCaAsKCv5fSkr8Wr9tXpm6WurH16ySuaOsqgYjMyvYOnvBd0ccdqWWISK1FLuS8pnSSEdlbR16+/vx0ksv4rPPPsVVqiRCBVhIA4jUyc0H9/HBjQc4ThIw+No1qoMfIbvvdU4uTjENOYOwvC6E53djZ34PPONqEJtdeTKnuCKX78afRfI+cuSFX9e0Derb78x81iay4oZzQjO/Jyf5/XhQMvMXwX/0+Ks4c/FLBn/mjPizIPtLCADvocs3b+HMZxew/+hJycy/OC4ZSV6+8NMzhD2JojnTNHokAJp8vzR472gx+OsbGsHOygyOViawN9t0syAjMbm5ukz5r+6D9+SE//dXQM5C6t+VHJYYb7SXfm+jnfSdjbZS2GgnBQWqAUqCADAdoL19BdMAJADCBxCzBuYJa2GRtBZWSWskXgCX7PXwyJeDb+l6BMynAoQK4JHFNEDsEliEScMuQgae9A5sz2aaoHAjwkoVsatSiaxchekAVcTVqSCWiKMykNhAEtCsgpQWFaS3qyKrUw3ZXWrI6VFHXr86CgbUUTSojpIBNZSNqKNiVB1V4+qomVBH7ZQ66oiGaTU0TqujaUadKoA6WmfV0cZRoP2AGjoOqqFT4JAqugQOq6JbAjX0HP5ddHN/AZLHjnD/a1DnsTkIMtE5jw6Oj6Nd7AsCsoDD3F8AyUmHhKCI8yRxOKR5t/Ow5kz3Mc3k7lN6PwV+8MP//Tv95De/zytQRsm0rKbFziOu/IR7Qv3FbZm9D6Lrj6Fo8j20nPwMx87fxme3weAkifmP8v1zEu5D3OHM9TLl27OcwR06ehydTa2ozS9CdthOhNrYw0lPH/rK6sz3M0CaWsHJczti0wuQWVKDxKwChEfFwtPdHU52lrC3ZErAeBNn6loP7SyNTgf6ejTm5+eY5OenLaLU/C8LwV9cD1B6PnPmzH+42ts3GOsbvr1qzTqoaelCe7M+dEkABAlYgCAAejyPrSQABiQABpokAEoLBEAZzjw/b6oDIfY2KIjfgfK8VORmpmB7QCjUqQ4YGRq8HOy/rTAyMvJf59+LH/r6+v5jWFjYv3u6umo729lFa6urvaGkrHpLXXszLJ23wT8iHTtTShGVU4PIlAJk5BWjsqYOM/tm8PY7b+PTzz7DtRs35tIAVADukwAIXL73AO9evY8jJAGdz1+mZ+hD5PS/gfjmk9hVMYnI0iFEF/VhR0EvAhLKboYmFT174MABQ6HgfJ/3yeN/W7wPh46f2hhX2pbok1z9vE1U9S3v7L6HwcXjDP4HkNE0iz0jz2Lq2Tfw8aUrknuEk/5Hs36J7H//Ib68cRuvvvM+Dh49gZa6BuRHxCDW1Wte9leFMWX/Lcz9azEFoEHZX5cET9/AEHbW5rxXDODuYPZZalxkXUVF4ZKGhoYnKcfH36S/9e3Vtr/4lw12i7SoALzG4H9jo81ibLRdTAJAFcB1CdRoCtT2XYFNQbLYKnwAJABmcSQA9AIIAmCXshaOGWvhmrMe20pIAKrmDIFBlevhlSsDh3gSgB2LYbljGVwTV8ObqYMAKgGhVAJ2StIBDPx75oJ/bK0yBBIblJHUqCwhAWmtKsjsUJOQgJxuEoBeEoA+EgABEoDSIXUJCagkCagWBEBg8isEYJ86WkgAJCSAY/ssCQBJwP9EAHoZ9B/H/0QKBDnoYRDvnkcXx85vgAj07YQI8o8g9heey+Od84+1HRREhYrCYY03ug6pt5IMrOvuXv1//tbvx7/G19cwMPDvKVUt6yOy9qS7x1Wf9U7vuB3EGVx698toOPYxRk5fxhuX74Px6JHsLwK/RMLleI9f4kK+/fjzC3j1rbcxOjyGuqJSFMYlIY4SrqchZXxNXWxigN28aSsc3X0QsDMaafmVSM0vxW7m+wODguHCwGtrYSRm/g+sTfWuW5rove3qYNEZHhIQOjo6upIB52vBjZPJH54/f/4n2708Ci3NzU7JrFoDFQZ2LRrDfpcA0BdA858wjG0h9DdtgT6fZ6KkDgumAUQKwElZDR4kBoHWVsjZHYKKnFQUZqcjiEZEHZ63vr7Bh052tr15eXmLhVry+HsdFxcnHRQUZKanrdWloqLygZqm9jUDS3t4BsYghKmAqOxaRKWXIjmnCEVURUbGx/Dqa6/i3Mcf44pQATgzFikAEfwfEDcoiZ+jweJ55loGX6UKsP8jpg/foQrwPHPq+7G7fBwxpYOIKhmEf2Llg+Ckkrc7uweCeJ3+Q1yTx8/t+9gWr7+jY++vM6q73IPSGzo84ms/cUpoehjAnH84zaJJ9QdQ2nMU/QdexnNvnZXM8O+L6M8fMeu/RwjD34079/DRxcs4+tyLGBmdZOqlAGl+wdhpZQcvbT1YMj2jTwKwiXl/DRVh+tNlKmcrTEyMYM+8v4uNyTUfV+uXS/IzwtraKv4kr/37uJ5P/ub/8gqstv3B/5Fzeno5FYCZjTZSn20gAdhAAiDPNIAi0wCqJAAaXsuh7UcSECYL491rJCqAaewaWIh0QCKrApLXwDF9jcQP4E8vQFD1RlYErIdv8So4pS6D+a7FMPJfDJtdMnCOXY1taSQKuevnlAD6AqKqlCTYzXF3lSLVACUk1CuRBChRAlNCRqsystpUkN2hirxOVeR3Ed2qKOxVQfGAKkoHVVExrIqqMaoAVAIEAaifUkXDXlU0Es3TqmjZp4ZWom2fKgmAKjqIznl0z6pAggNzYw/HXgEqA72HFkaxTVAl6PkGiOPi8R6i+5AauqguPAL3BdkQqkPHAf7bJB9ChZAoESQj4nnd88+XkBKhUPB4+/65sfOA2sfdhzXy+07JP5U0+4MnfoD/5b3+ffya+CIv3dNpGJ1Xn2oXUXp5W0bPg11VB5DZ+yqajn2KIx/dwltXKEvzi3vu61vyHf5I9r/LYHX9zl18eP5TnDz1AoYHh1Gbx5luSBiiKJ27MHDqMcDq8st7yxZDePuHSRz+WWV7kJ5fweC6A54ersz3i9mcEUwNdO6ZGep+6epoeYzyu29ubu6ab/O6czJS/bd5enQuX74CSuoa0GQgFwRAV3gBJCqAAdMC+tCh/2DzZj1s5eP6dP0b8bzMKDHbzhMANwYYHxMTJAVvR3l2MsryMxEXnwgre2ee/9Z7uloaZ/NychybqJh89byEGpCRkSRrbWFSunWL3nF5ZY17RtZucA+OwU6mAuIKGhCfXYb0gjI0tbXhyInjeIsqwGcXPpMYAkUaYEEBuM80wBWqAGcouRw8ewftz15C9b7z9BS9gbim5xBDeT2mahJJNWOsDmhBYGrN1ZSc4v3Nnf0rz5079zWi9NVz/WP2xT1T29r3dEl9z3aXiKLXbSMrrtnFNiGkcEziUxDBv6jjIMZOvI7Xz36KK0xxiJ8F2V/M/O/SLHrt9j18cvkaTr5yGt2dPagpLEF6QAhCTazhoUkFRU4ZW+XkocP7R0uZ76m2CP40cDLnb29tBjvzLQ+CfFxOxO4KzhcqEP+JJ6a/P+aN/Sv93R8qG/7nv8nZLK5h8H9jgzUJAEmAvP1iKDpJSQiAOssCNX2WQ8dfBlvCVklSAcaRq2FBEmCduBY2hB1z/G4M6j5lG+FftVFSFuhfuhbuTANYxyzGVr/fwDRAGtahy+Easxpe9BD4Za3nTS+HHSXyCC+Vxy4JNmJ3pQJiaxSRUKtINUARqY2KSGtSRGaLEnLalJHbrkwioIyCLiUU9iijuE8FZYMqqBxWQ82oGurG1LBnQg0NkyQAJALNUyponVZBG9E+o4KOfQSDfuessgRdHAW6DxAcezhKCMBBBn+i75tAYtAvgTL6xfMEYeDYI8AgL0jEArq438X9BXRKSMAcEZAoEZLHSRw4LqBLkJP9c+fbulf5Ac/9Qud+tZ1UBNb/ld5nf3On3U25uHt00tg7sWLWJa76gnf2wMO4ppMoGnsbbc99jpOf38OFu8CtxyK/mMQJiC/zOwz+V+hkf49mv6mZfTRuNaMiLRMpPn7MpbMsiyVaupzBbeJo7+CO0KhE5FU3IaO4CnFpWfDx9YEry+5o4IKtyPcb6MDH0+Vw+I6gosLCQjkG/38W7vJvc+G7u9u1gwP9EzZsWH9/g4KyJA2wmXl/ASH9i9m/hABw5q/L4L9JdzO26myGPvPJRlQmrEgARCmgK/e9mCKI9HRDUVosKgozkZubA5/AnTCxsGFJoOZNVh7sjd8drvjBBx98TW6WuOGzs58O8/c3tLe3m9yooHZziymVgOBYxOTVI7GwHqnFdSiqrMXo3r049eKLOHP2LC5duYKbDJS3qQIIH8ADEoA7vMZXOEt+jeWWY2/dRNuzX6J4/AOkdL2KuOZnEb3nMJL3TCO2Ygjhua3wici82kYVYHZ29luRpm9zXb/pOdUtfcZxhY1pDhFFn9jsrrvnmdaFsOIJ7K7ZT9l/Pyr6jmD6hTdx/struEFzo7h9JLl+vh4x8xfB/4rE8Pc5nn35NHoY/MuSMpAREIYQE0s4k5RZ8P3QZ85fh2WaGqpa0CQx28z3UJSD2jPn72hpeG+bq/U7KfE7Xfr7m1bwn/jeVY9vuhZPjv0FXIFfm/76J3LWi9PkrBY/R/yWADhKsSJAGAGXQ4MEQNtPBpuCV2LrzlUwjGBJIAmAJYO/Nf0AtoRT5lp4Fclhe/lcGsC/nD6AHFnYMg1gEPQ0DPyegUnAEtiFy8ItjumAlDUSEhBKI2Fo4QaEFW3ATiKqXB7RFfKIq5JHYp0CUusVkNaggHQSgawWReS0KiKvTQn5HSQAJAFFPUoo7VdGJUlADZWAulFV7BmnAjChgsZJFTQTbXsZTEkAOmcY9ImufUoSdO9XgkDPV9A7q8Sgroy+efQfUKIcJ8CAL3BQGQMHlTDAbQFxTPJcEoteAQbvXpIJ8TcEqVggF93750jHgvogxi4+X5CDBcLQLciCOCaIyrQyz10JLVNKt9v3Kg13TKt6de/b9JsnfoA/7wdn5uTJn9V1jyiFpVdXeSTUn/VK77gTUXMQhaNvcbb5KWY/YD7/Bsv8mPOXVPrxG5ai/6Pc/x0GqotXruKDj8/jyPETzPm3oIJO/7RgfolbUcqn5C8Mf1uYC3ekIS6EZr8kuvwzi6oRGZ+E4LAweLg5wIGzfhuzrfetTbdccXOyPRjo77Nzd0SEgZhhf9vgL67k2NjYirDgAA9dTfXP1m3Y+EBFXYslgIZ08LMKQBAAMfsXJIAKgI5QBzZthh6NZFuZUzZU0WAagASAcGHw8eTjIY4OyI2LRCnTAEWFBdgRGQMHF0/2EzC6Z2Fq9OGuXaHbGxpq5L7pXRwZGfkJKxSW+Hh4BOjqbH5us4HFF6b2XghLKkR8YQNSS5toeqxDNysCDgkV4L13cfHSpbmyQKoAcwRgLljeJAEQKsABqgADr11j35CPkdX/JhLbX0Jsw3FOMA4guXYSMcW98N2df7uksr62oaXdgG/Xd6q0iQBbXT3yk7zqdg2fxPJKt9jyow7RNbc90joRJEr9qtgjomE/v7tOYJClfm+e+5xpIfY4IJl5+HDO6S+Z+fP1XKPsf+bzizj18usYH5tCTX4x0uiziHRwhSdlf1GaaSiII0mAFt8bbRLITSRuJibGknI/JxvTO+72Zp/EhAeWVJZkbjh1avqn3/Q+PDn2d3IFlhn+4J/krKUD11su3idnJYUN1lKQpxlQwUEKyuwHoOZBAuBNAkAvgE4AVQBhCGRZoBkbA0kIgFABSADsGdCFCuBdLCfxAvhVrIdn3io4pCyDyY5F2LL9aej7PgPL4OVwipSBO8sDt9FHEMCmQoE0Egbxd8NoJowoWo/dpRsQXbkRidXySKqVR0qdPEmAPDJJBLKbFZErSEC7Igo6FFHYqYiSbkVUDiijelAZtcPKqB9TJgFQRiPRTLRNKqN9L4MvA2rXNIO/wAwD/z7Fx8Cgz/2+eQgSMMDgPcBxcFaRUJgfxbY49hhIDgYZ3AeIPgmU0MfHBSRkgmOPgCAcghAQC8rDwtjDYwKPHt8nzlcJHSQArZOKD9snFb/omFCqax9T3jI+vuzP4lj+O/lI/I8vUzT5aRuYks+r693hGl3+EWX/eyFleykvv4bWkxdw4IObNKA9xC1J0Of/5kdBAES5nyj1u0rX9jtnzuLZF15CT3s3ytIykBoUgh229rDT0sFWmuv01LVhZeOEXQnpSGPgz6tskpT4+fpug5uLPZxtzcBc/z1LY70vbMwMX05Jit1VWloq/frrr//BXpFTp079NHJniC7zwi+sXbPujqKKGoO/IbZSidjE1MPjBECbAV6Hs39dEoDNGjxXzjDNGHTsONsURkB37U3ws7RE6s4QFKQmoLy0CHEsSdvGGaqptQN/TwvBwQFNBQXZ3v9dsxnOwv+htrb2aRdHxyJ9faMXtLaY3PEMiUMsVYDUsjZklNVjT3snJvbP4uU3TuM8/RPXrt/ArTv0AoigyZmywD0Gzwv3HuLU5/ex973baDh6EQUj7yGt+3XEt77A6qMjnFjMIqlyBP5JlfeZBjiVV1oVwPf43/7Hm+APeJBv/4/2DA39a35T54q4/IYs+4jiD613ld13S+5gafSYJPgn79mPkp6DmHzuDbz4/se4epulfrxXRPAXasZc8H/InP99fHblOk69/ibGx/eisbwGWaER2Mnr6suSUFt5VRiInL8I/vRnaGhqY5MwbUpq/ZkmsjB46GZn9rm/p+PhqfHhTex/8J29zj/gkjx56l/UFZD/wT/K20hvpRGwnWWA90Twpx9AQgJEcyBVVgIIAqBFAqDNNMDmYFmmAlZCpAFEYyDLhDWwEl4AwkliCFwHbwZxH5oCPfNXwzVDhmkAaegH/AZbfH4NQ1/6AUJYIRBOT0CkLDziVsIneTX8UtcwH7eWtbrrEE5VIJJqQky5HBLoK0iiuTC1ZiPS6zYis34jshs3IrdFHnmt8ihoU0BxhwIquhRQ1auI6gFF1A0qomFECY2jSmgeV0LbhCLaic5JRXRPK6CH6J1RQN9j6Od2/7Q8BgS4PUgM7FfA0CPIc3sOw7Py+C0UMHyAz5MQBP4un/M4+vfJo5/H+vl3+oheyUiisV+R2yQI8+pDNwP+wr7kGAlK915FdE0pooPn3TqmgJZRxY+aR+RH2kbklj8xBf7pP0X8Mv8xZ17KUXlNJZ5x5Z+6s1NbbMMx5A6eRvtzF/H8hXs4T81/rlhLhP65H4mMyy90Ydy6cuM23vrwDCanZtBBt38xc+SxnB37srmPlZomdCjdGumbwMnVG8l5pSja04m0ggqE746Fh6sTZX9LONqYwNJI94GTrfmZ0IDtlS0tDQZfNdb9oVenMDNpSUp8dPHa1SuvyMuzW9xm1vybW2GL6AbIVIA2A4lQALRIALRIAEQd+SYaAfWoFhiyOsFmgwrTAKpwYxrA28AIUdu8kRq5CxVFhcgpKqFykQp3vxCSCguw++BlF0fb2eHhYZX/jgTwyv1w79DQrx3s7HYZGhi+rGNoeT84Pg8Jxc3Iqu5CUV0TuoZHceS5UxIl5dLlK7guKgKorizky8V4k3j3+gM8+9k99Lx0nc3DPkbu0DtI7nyVVQHPI7P1GDIa9yGqsAP+uzPvxqTnN+3fv1d7liTkD72GX32+eA0zMzM/K6jrdIgrauyw3FF0xyG2AZ5p3ayEYoe/6mmkN81Q9j+E2Zfeoex/nbL//KyfREYEfgEh/V8hKTjPaoBnX30TPR197PJXiMzgcISZ27DOXxvWQvZfz5w/R03m/DX43ujSsGluZsqZvzmcmSpytja4Hhbg0drT2Wryx94vX32tT/b/eq/Aj+Scliyn6S9T0XnpJ4qOSx9KygGFCsBqAGU2BlKjEVB921waQFf0BSAJMGBVgFnMWkkqQBgCBQmQVAWkr4UbqwI8CteyPHA13JkGcEhaDvPwxTAMfBqbPJ6CyXYpWAUtgwONha6CBMTIwiteFtuTViEoYw1Cs9diR946fijX0627HvFlckhmo6E0NhrKqJVDVr0cchvkkNe0AQVEcctGlHdsJAnYiKrujajrl0fDoDwahxTQPKKA9jF5dI7Lo3tSHr175dE3j/69GzHwCBu4TUzzGDEoMMNAv28jRvZv5Di/zf3R/RswRozOCvBxPiaeM/e8DRjaR8wIiL+xkftzGOBzBonfEgSSDioOAr0zJAXz6Bcjg3/vFMkK0TWpIDn/tmH5+y2D8hebB+Qrajs3rqyuftQuWOTwFvDXeyf+BZ+5kKarmnsV/BLLRjyT6s94Z3TfFzn/8pkP0fXCF3jx4n1cYnefOyLaz/+IzYUc7i3mc0WN/2vvvocxSrf1DIpFsXHY7eQCZwZUE86e9ThrMzezxg52v0vKK0dBbSuik9IlLn93Zwe42ZvDxlRPzPyvOdtbHE1PirerKCqS+SaH/x96KYUDvqm+ylxLTfkDFSXFu+oM7ObW9jC2sIa+idnvEABNHT0JAdBmblmXgWYLpWahAtjSB+DMagB3Ss5B9g6I8tuOgqxUlJVXIj23mA19UuHAEkYDE4sHBkbGX7i6Oo8IvwJJwDfOREWpXFlZ/oro6EjXLVsNzzh4B931352OrLp+5Ne0YU9nP0Zm9uH0e+/j04tf4DJbJ4uKAEk1AIOmUAGEe/7zuw/w1rX7mHr/DhqPXUTp1Flk9r/FVMDLSOs4hYy2Y1QZx+AVkYvw5ILjdfWNCaJPwR96DR9/vnhPSlr614emV1S6RJW8YLGz5LoLa/wDCobZC2UC8dVTVC9nmYJ8AcdOf4iLLAMV5EUS8Bn8hZJxl+d/m6Tx8s3bOP3BR3T7v4yOli6SxhQkbfNHGO8VEfxN2YdBuP21qcJocl+bKoweUzbm5mysRMMfZf+HrrYm1zKTdudUFuZu+lOWOz5+TZ5s/2VegR9qWi1+SslJOkbRZdm7Cs5LHggCsIGgKkACwLbAnvQCsCug1nYZ6DINIFQAfXoBjKNZFigqAmJpCoxfTQLA3gAkAC5Z6+BeIAjAGrjnroJz6nJYRkrBOGQRNnn+Cvrei2HutwT2oSvgTCXALZp9AmJl4ZO4EgGpq6kErEZY9hpE8G9Es91wHElAUvl6pLK8MJ0VBlm165Fbvx55DetR0CiHouYNKGvfgIrODagiCajtlUf9AAkASQBnzP8tAVgI/oMkAYMM/oN75Rj4Oc5jiGrAMAP4qAjuIsgzsI8K7JebIwCCBPCxUT4mSIEEM3J8HkECICB+f0SQCGJ4ngAMUhF4BP7uwD6hRswRABH8B4j+vVQLBAEgaemZIIEhiWnnayEBuNU0uHGmsUd+a0O34q/mb6mF4P/EzPM9fMaErM4Of7+Jz9nj4ZVQ8bJ3Wivb+45x3Qoh+3+Gqbev4f1rlGgZ7e8vRP+F4M9R5HK/vM7UwNmPcOzZ59HVwr7+iSlIY7veQDNzWDHfb0Qp3UhnK9w9/RGfwdldSR0yi2uwY1ckfLw94WrPmb8Vy7cs9L9k7v8ND2e78triYvnJycn//C5e8stTU//c3tSkarRF95S6qsoVRaYhBAEwYx8CI5IAHXoBdDijFAqAJmvJRTMZbTrLdUgANqlqwJTB34YkwJHNZiRpACtrhHt5IZstgcvLK6gClCE6NQcefmFct8AehiYWN62trV+JiYlxKC4uXv7fzUjHx7t/UZCToWlhYTlr5ex91SMoGumVXcit7UBNey/6xibw8ttv4+MLF/AFSwKFGVBcbxFIBQEQaZdLDKIf0Aswe+4eWp+9jIqZ81xr5F0kUQVI6XiB/UZOIr1hL3yiC0X3wdM816o/piSwe3r6pwV13csicmrdfGLL9jtElp+3iqiCd2YPwkrGEVU5JZn5N4wex/Tzb+GNjy7gOgmiSA9JDH/zBOA2x+skNB99cRkn2N9/YnKWJaLlyODMX7T49dWjB4Sqi5D9N4taf64LoSneD1ZqiBa/NpbmcCIBcLU1u7nNzeaV4txUz5aWPTLfxf3y5G/8DV2BZYbL/mmD01I3ecels4ouS+9ttBcEgD0BmApQdpWeXyRoKTR956oBNgXOpQGEGVAsEmQazXQA3f1WTAfYJtMQyFSAO6V893yOVAHcsmRgl8ieAFGL6QV4CjquJAGei2DpLw0HVga4hK+AW8QKeMbIYDtJQGDKKoRmrMKO3NWILFjNph1rEF+8Fonla5FasRYZ7DaYRSKQW7cOeXvWoahxvQSlretR2SmH2h451PfLkQDIoZloH5VjAJVD94Qceic3oH9SDgPE4NR6Qg5DHAWGxbh3DsMch6fXY4QYZVAf27ceY2KcWY9xbi9g7rh4jOBzJeDjo9x/BLFPUjDKUZCDYY7DkpHKAFWGofmUwyADv9iW7FOlGJyiWjC5EX0TG9A9tgFdI3LoGFqPFr621v51lW396xy6u3+w0LZzgQT8Dd2ZfxkvpW9sbHFSSYOVT0LpK27JLXdCy/cinaV+jcfnmvy8e40ztccC/8LmAxKCBdf26Q/OcFGfw+hspuzPGv9YFw8EGpvDkrP+zczdmhmYwdMnCOlFdcz3N0vK/AJZDujuZAcXOws4WRnDwkD3jp+Xy3hUeGhCR0fHr8UM+bu6QjznH2ZlZf10V0hA+ZZNuq+vWcOSX9GVz8kN1g4uEj+AIAA6nN1rExokAJosBRQOcx36FbayHFCYAR0oQbtx39vIGAH29ojfuQNFBQUoLK1EVnE1dsQkw9knGBYO7ti81fjedv+AwxFRUcEi589z+MaqhfLy8n+prq5wNzazfN3MxuVeVFYVP/u9qGjtR0vfII6+8CLe//gTKiyXaZ67hbvzM2kRTEUeXaQBLtx5gOcvPcTAqzdQf+QiCsfPILXnTaSQBKR3voic9sMITt+DwPj8y2Fxqc/O7p2V+1/MlH+YlNTwfyvbevXji+rjnCOL3rfYUXLPMa4Bvtn92Fk6gYSaKWRT9m8eP45n2dr3HGV90cJYkusXxGUekpk/jYDnLl7B8ZdeR1dbN6rzS2j4C0aoqTU8tfRgwxm/Pkv9JDN/Bn8t+kc2sxmTMQ1/1gz+LlSMnK2N73g6Wp0uKsgOoDH0G5WW7+oeevJ3/oqvgKLTEj15J6kKBdclt8XMXzQEkrNkUyChArjSC0AVQGM+DaATIMs1AqgC7FjJVADXCRBdAqNWwpLufmsa++zT1sKZKoBbDklAHpUAqgBOaStgl7AUZjuega7nLyUkQM/tN7AOXALH0GVw2bEcHruWY1vMCmyPl0FgkixC02URnr0SEbkrEV24CokkAkmla5BSvgYZlWuRzdUHc2vXoGDPGhQ2rEFJ8zqUtcqhunM99pAENPTOEwCSgM5hOUkA7SURGCARGJxkoCeGBeaD/8jUWjzC5FqMTq3DGB8bJxkY37sOE9NrMTkzj+l1mFyAODa9BhN7CT5nDmJbQPzeekyQPEgwLYdxYo5MiJHpBGJUKARCZRCKgQBTEENCkSBBGRiXQx9JTC8JQM8QX8uAHNp61n/e0r12qqltvVJJyRNT4Pfx0RNB8dJ77/00vqA+NTSzbtY1qfl+VO0h5vzfkNT5H/v0Llf0o+FP6PzzP2JTQMw8xYptYub/xntnaNqaQnNlDQpj4rHbzhkudPibM3e+mR3aHBxcERaVxFl/PXIrGxEenQi/gEC4OVnB2U6Y/bhim7HeVZbP7SnKzVVm4P9P/hPfudojZuGTQ33GVqZGnRvXr7knZvn27Crn4u0HS3sXVgYYUQXQlxAAsXKgBgmABhcQ0hQd5pgGMOTs35JNZ1xIBjyYJthmbIYdbGOclpSMfNapF1bVI7mgHKG7k+AdGA5zRw/2GWBlgK3dSwGhoeW1tc3SfG1fMzGK1/rmkSP/6uPjU+Du5fuso+9OZFZ3orS5D3XMh09ytcTT75/hSnhMA9zgKoGPVQNIui3yHblONvbu9YeSNEDH81e4NsOnyB58D6ndbyK16zU2G3sOu0t64BtT+NA1IPrz3v4hn6mpqf/6tveV8DIIlSi9tHGH4668F63C8i/bRFQ98E7vRmD+IMucR5FYM47K/sOs+HkJr579nOV8dySli/fv35OQFtHMSEj/IvhfvHYLb549j0PPvoi25nYUxCQi2ScQwYbmcFTShDmv81b6RbTl2eGP6RpJnT9lfwvm/B1szJkuYptfdvoL8nNti44K3l5SUvLEOPxt38y/x+cp2i9R5KJAsQou0tfl2Q5YdAWUEAD2BFBeaAokqgG2sxpAmAFJALbSDGhAEmDIqgDjCNk5FYBLBtulkgBkit4AcyqAB2fyzunsDJi8HFZUAfSoAmi7/RJajr+EsdczsCMJcCIJcNvJdQOilsMndgX8EmQRlCyLsAxZ7MySRSRJQGzhaiQUrUZSyWqkc9XB7KrVyK1ejbza1SQBq1FEElDatBZVHWuZH1yLhu61aO5bh/aBdegcXEfT0Dr0jq5lQF2HQWJ4ggFfgMF+Dms4/hZj3B4nKZiQYDUD/Gr2aF+NqWliflvs7+W+GCWPice/ChKBKZKEqZnfkoYJbo8LNUECkoJ5IrBACMaYkhglARgRqsT4WgyOrkPfCM9/aC26B9aio2ft7bbOtW81tq6KbmlZ+dRjfoC/x9v3O3/NIug0Nzf/c01rv4l/Ws2kT2rjuaDiUUmTn/rDH2OSS/q+z4DCtvOPZH9J8GfgF0FH5G8vXr1Og9onbO97Am11DShh175E7+3wESv4MWAaUfq3MrFm8E9EQnYpMij7i2V8/f392drXmcHfVOLctrMw+MDOymQoNS7aoqio6Jd07f9OJ73v6sXzNf/o5OGZFR4ONin6ulrvyysoPBCzfzfmm128/Nin35qzdhoCJWmABQJAFYBuc22mMIQKYMpZqQMVDTcNXXixgiDQ0QnxTGNkZuaisKKWJXz1bGPMhX6iU+DqE8L0ggN9BvYXrOxdng0J27UzKSNjVUNDw79/9TXx3H4cGxvr7B8UVm3j4ntH9AQo2MMGOB0DTN3N4KW33sUHn3yOL6/d5Gp5d3+bBuB7QR2AJO0hznIFxoMf30Pfa9dRd/gi8kY+RFrfW0jrOc11R55HQhWrAeJL4RQQc7mipj6rsqFB6qvn8dV9cZ9MHjr0VEZJs3ZoWmWIe3TpXttdpRftoqruuSe1MfgPMPiPMPhPSJz+o8dfx4k3z+BTNvG5NR/w75EAiOAvPAA3mQq4dP0W3jjzMQ6fOIW+nkFWieQgwdufHf7oA9HcxDp/zvxZ6qdDxUWT110YMsXKfqZswiRa/DrZUPbn6n5eThaHafrzSIoJ+8aSy6++lif7f8dXYKPt08sUbJ9xVXCUuihnK/WAvQFIAJ6BvJ1oCsQ0AL0Akq6AohzQfwV9ACwJDCUJIAxo5jPggkFmXDHQMpYEQNIXgEsGUwHwyBcqAKsBsmXhlL4CNrFSMAz6DbSpAqg6/AK6Tk/BkpUB9oHScA5bCvddy+BFErA9ejnbdMogJEUGO0gedjGNsDtfBrEFK6kErGI98CpkVa4iCViFXKKgbiUK61cxFbAala1rUNuxBvWda9BEEtDWz4DJoNk1uJaz6DUYIAkYHFuL4XEG+4mvgMdGx1djdGI1xokJYlKCVRxXYnJyJaYmV2EvxwVMi/29c5ieWoVH4LFpARKEaZKAaaoDe6kICAhCMCkUBaEiCGJAIvAIVAwmqTpMCAVich1bn67BkDhnce6Da9A7sAZdPWvQ3rX6WmPrykOtrStV2tqe+Y+/49v3O3/pYkaXW9otnVbRVumRVP+pV3onEttOoebARxh/4ypeYZtZpv0ZXH77s0AAhPHs+u07eO/cea7N/ip6O7pRmphK45YfgtisxYpGOUNldtHbbATfgHBkltYji6VtidnFXNDHH8zvw5Xd/RytDB8w5/+Fm71FX7Cft5eHh8fXmud81y+cr+afdocFO/q6O4+vXr3yrgkrAVw8feEbsgvWji40BJpzrQCRBtCjArAZ6jScqWtpS8xnujQy6rORkA3TAK4q7AlAlWO7hSV2kdCkJCShoLgChTQ2ZpZUIyGrEEG74mDv4Q9jKydsMbK87eq9/WTwzt0e8SmZYkU6YcL7HZVDtDSOjkv2tnL0+HxXavGDzOpWVHcNkthP4OSrp/EWr/fFKzfoA7gr6Z0v8QHwvRCajGipI0oCn73wAKNv3ULTcTYGmjiLjMF3kUZDYGbPq+w5Mo3g1Fq4BCbdSMkt7MsqKF3736VZRJ8FXyom0WVcB6Khf0tkdl2GT1zpcbPQgvv2u2vhltSKIM78I4tHkFw9jsLWGTYV48z/zGc4f/m6pBGUCPoiXbEAsczvZVaJvPfpRRw4dgrdVDcqswo48w9mkx8reOlsgQVn/sLwJzr8adDtP9fhjws0GbMMkG5/F3sLtvg1vuVibfThDn+PmMjgbU9/1/fIk7/3N3gFxMJA8kZSynKWUi/KWTxzk5AQAMnaAPQEiBUCVVkRoOGzAlpsDawbNKcCiIWCttAUKIiASAWY0hMgmgM5sO+/i6gGyCcKSAKoArhkraQXYClMw5/BFr+noOn2X1Cy+hk2u7AywHsRHEOk4Rq6hErAUqYDlsI3ehkX61iOYCoHYUwhRGTKcGEQkoA8WSQVyiKzTJYzClnmTGWRTxRUy6CoVhblDatQ27oK9W2r0NixGq3dq9HRuwpdA6sYPFdhYGQVZ9SrMEyMjM1hlOPo2EqMjspKMMZxYnylBJMcBfaOyc5hXBYzE7LYNy5DcBTbApPzmOI4j/3TKzG7dw77SA5mplZjH0nBvmluC3LAY3sFaZAoCSQIe+dB1WGKysQkCcoEz21MnOswz1ucfz9fR89KdHetRFu77J2mplV7GhpkDP4Gb8s/20uqbu5VzqxsSbINL7oZVDjKkrETqJo9h+kPRHtf1vKLuPLYj9gVsr/I+V/nF/mHn37OpVmPsGSrByXxyYhxdoMPZ8SWiips78tcOU1cgWG7kUc3ewYJQERcCrZt82HO35ozOGO29jV8YGdueCEtJT6hsqRA6U95IQ5TBSgpzPHauHbVlxqaWg9FF7/QyARsCwqHjbMHg7WJxAsgzIBzJECHC/4wFaCmCV2SG2MGKXsGKBcGKE82EfJ3cEQE+xykJKehqKqRJXxtyOOYmF3AdEAiywPDYObgCTVdtjO2dfvQzSd4tLa52WieBPzOS4+OTpKNjk9p8wjafT0muxJVnWNoog/g4HMv4BUuivPpl1dx7SaldZbTSUx18wRAqAAUbPD6FWD/mbvofPE6ypkGyB3+AJk0BGayQVBW21FE5HfAKzL7nl94wtupOcUGNIB+o8lSVC4U1zWvSS6sTXLaVfC2ZUj+NeOQIrgkNMIvuxchDP5RxYMsWx5H/cgxTJ56C+8zn3+NxFDM9O8yTSEBt8W+qPH/mN3/Tp85j6n9R1FfXov86ATEuXNRpC28HxRZIcJV/TZLVvWj7M9yS00SrC1s18yyStjbWEiqRBwsDODpaHEgLNBj55+CMP7Om/Nk56/4Ctj+4McrTH72m3Wmi9rWmi26uM58EQQJEK2BxQqB8g4sCXThAkEsCdQkCRBNgUQaYBODvzAF6hEiHWAcsZLrBKyGPVf/c87iksFs8OPJcj5REeAmKgI4m7eKYUVAGJsD+f4Kak4/h5rtz6Ft/18w9yIJCJaCS6g03LiKoEeENDt0LYF/zBKEkDiEpixHOIlAVKYs4nNlaZiSRXYpA38FUSmDQqKoShYldbKoapJFXYssGttWoqWDgbJbFp09sujpk0X/gCwGB2UxNMRgP/y7GOP+2LAMsQLjHCdGZDA5KoO9xPTocszMY9/oMuwfX4bZCYEVX8ckjwlMyZAAyODAXlnuy+IAIcYFPCINPLafqsL+qZUkDyQIVBVmiOkJEgQSk8kRguc2Ic5bnH8vX0e3DLrbZR62N6/4orlxRXV9vax2UtKT9QL+mE9hdzd+/MILLyhE5Tbke8dXngvIG3qQyiV9K/adwcR7N3CGVn+xsM9X4r8k+N9h8P+SOegPKUXvP3gUTcz5F9PtH+3kSumW/dlp+BOyv4uzJ53+xZz5NyCtsAYBITvg7ekOd0e29qXT39psyzUHW9OXSgrz/bOzs3/dnZT0tbz4H/Maf9/vimZHhZmZS3zcHXuUFDZ8oayiAk/fIJbxpcE3NAq2Ll7Q4yJFQgkQXgB1VgOo0X2uxly0uooWNrEiwJwytR1TAR7qOvQCmCLQyQ27gsKQkZWPwupmFO9pRz5JgFjgJ4LNjvx3xsDGzQebTGzvaRtYX9e3dH1rx+6krPSsQmOmBH5FfiVRA0SXw9LyWntn37CzO1Py7xc19aG+ewhTh06wL/4bOHvhsmTxHCGl3xWuekEACJGWuc137Qzdmic+u4+hN2+h9tAXKJg4hxySgKyBd5DXdQoJbA0clFT20NEv8mZablnI9PT0hoXrxXP4Mfd/2j40aRCaWlHhFlmw38g/67JFWMldh+i6h54prVznpAe7uMpgfPkgitqnMXz0NZx692Oco+R/Q+T86eq/I8FdkpQ5yf8yj3944Uv2NHiZi/pMs7sfzX7smbDL2hE+m/RhzetoIII/ZX9NidOf5Ze89qLBj8Tpb0uzny0X97Eyvh3i57ZnV+A286TgYGH4+x0FZeF1PBmfXIGvXwEuN7vM8Fe/YPAvXWOy6JO1pnMEQLQHljQGsucKgU5zjYFETwDhA9jENIBYKXATewNsJrYyFWC4iwQgVpQErmN7YBKAPDkSADmqAKIygCoAc/q28UthHrEY+oG/hpbbL6Bq93Oo2/0C+m6/hq3fYjgFS8OFBMB9hzR8IpcwHbCE7lwSgMRl2EESEJG2HDHZMkgtkKGzWIYEgMG/YgUJwAoSgBUorpFBZYMMappJAFpl0dwhi7ZOEgAGzJ4eGfT1yWBgQAZDgzIYGfotRrk9NrRiHsswPrQcE8PLGXxXYO/IckyPLMPMyFIJ9nHcP7YUByYEluHgAkgKxLY4dmBSYDkO7SWmCBKFAxMkA49hltv75zG3TRLAVMM+YoaqgwRCeRiRxZSEAMhglOc+3CuDQb6evrYVrA1efqe1cdl4fe1S3+qsJT8lCfhGN/XX3/QnRx6/AiLIDNFsVtMy5ByWVd/nmbzn+s7KfSgcewctJz7D8U/u0PQHMJX8tR8h+4ve7Z+w1v/Vt9/D8NAo2/vmIDMkHCFcwtees2ELztostxrDPzgKqYXVEtk/NjUX23w482d3P1ca/uyt9O9yYZ9X3Z1t2rvb2zcx+H3vsv/j10Bs88X9KC8v6efR4aHpKkryHyopKd4X1QA7Y1MQFBEP9+1B9ANY0cC3lSSAXgCmAdToQFejGVCdr1GbXgATEgDrjaqSVIDwAvixnDBs23YkJqUhr3yPRAUoqmvn57cSCRn52BmXCg//HTCyptnQxPaBrondVQb5oW3BETGB4TFb0srLF9Gk+JMBrr5YV9eq7u6/48Xw5LyrOTWdqO8ZxhjVlmNMt5z5/BK+vHlLslLeXS4ItEAABAkQaYCPSABOiTTAO3dQf5RpgKmPkTd6BtmCAPS+iGQuELQzrRp2vhH3UnPLY0dHJzVFGqCpf+ZnqdWdS6Py9mjszq2P9Yop3u8QXvCeSVAebCIr4Spm/hmdCGPwFyQiu2ECTWPHcfj1D/H2p5dwibX8wpw4F/wFEbhLrwIlfx4XfoBX3qVRdHIf2pqE4S+BpNEDAQYM6ryepgz+ekyr6LDkT1OdfgsqL1v1DWBmSmWAOX8G/4e8d256OFq+ERHiExoTEfAk5//Vm/rJ/u+/AjJmP//X1cbP+K42ffqdNaZPQ6gAbBEMOZYDbrSVBk2CUBYkgC2CtakCaFMFEH4AHbFaIMctIYVbo+UAAEAASURBVDISL4Bp1Cq2B14HBxIAV0EA2OPfk90BBQlwy1kNx1QZ2MSxIoDNgUQqQN35F1C2+xlUrP4Txu6/gS1bBjsHScE1ZDE8d0hh2y4pdumSQlCsNJcHlWZf8CWIYovh+OzlXBJ1OQpKGfhJAIrKSQJKuV++HOW1K1BdvwINTTJoapVBa7sM2jtl0NW1nCRgBXp7V2Cwj+hfgeGBFRgZWM7Augxj/QJLJRjnODGwFJM8PjWwBNPEzOASzA5JY3ZECgdGiTEpHBqXwmHiiATSODI2h8McD48TJAlH5nF4bBkex6FxEgPiII8fGFs+h3EShTGqB6MrsJ8Q4yxJyD6qEtODKzA5uBxjvcsw0r0MA+3L0Nu0FB17llxorZY+2FK9eGN3wdN/VBOT33+n/G0+Q5R9dfZNbgxMqZj1S2v+PCB/lPXip9H14heYPXMTjP+PDH8LDEDMLEWQuX3/IeXnK3jp9Fv8Ip9GNWe2Sd4B2GFuJwn+xnT725nawC84AtkVTWzvW4uYFNbFe3ox52/NL3GThw6WBnedrI3PxEbt3FlXWan+57zKr9ON/8Yrr6w10d88qaWhckFJVRW+wbskKkB4XCYcKE3r0+Wvyw6BQopWYzWAUAFUBQlQpQrAigBDpgFEe1o3HvdiBYGfrQPCg0ORxoCfV1qHsqZelNS3IZ9ydzp72u9OyYVPSBQc6AvQNbSC8iYLaJs6f2bhFngiOiUrJiWvXDG9sPop5t//PSYprXx3esHrcfnV2NM9zC6es9h/8hTe++QivqAR8Pq8D0C8N/xPApEGYLNGvPblQ8ycuY+WZ6+ibOZTFIx/hDyqAIWDrAZo3o+YgmbYeO9CbGZxdXVTu3t1y+RTFc09tnEFjXkBCRWHjPxS7xoFZMMsjJJ/PEv80tsRlN2J8PwuJJf3o7J3Fl37n8ezH3yCz9jgRyL7c9Z/WyxYxFG0LL5BMvAF8/0ffPYFTr3xLgaHJ1GVXYSc8GjsYgtoUeZnJ0yVlPx1mfOXdPejmqLD4G9gZAQrC1PJKpBO7PDnYm18w8vZ+pWcrNTAJ6V+f85PzV/5vy1ZF8B0keJqk6cPkQBcW2dGAmD+DDZSBZAnCVCgF0CBDYIUOQpToJYoCxS9AURlwPbl2ExCIPwARjtlJS2C7dnn34UEwKNoIwmAUAFESmANXOnqd+BM3jpOGiZhz2DTNvoBXP4LCiQAKvQEbHH6JazoCXANXAz3ECl4hknBJ5wkIEoKwdFSCKORcGeiNKJSpRGbIU0SsBT5RcuRV7SMDUeWIqdwKcnAUpRXL0N943I0Ni1Hc/NytLUsR2fbMnQxaHZ3LEVf51IMEINdSzDUvQQjPdIMqtIYJcZ6pDDWTXCc6JXCZJ8UpvulMDMghX2DUpgdZvAnDg0vxmGSgcMji3FkdDGOkhAcG19McBTbJAm/Az732Ig0jwkseYSj3D78CNI4MLKEf38p/x1iaB6DHElIZkhE9vYuwWTPEox18fxbl6C3UfphZ53UlaaqRfUNpb+WfaIC/GEfRgb0HxfWdq5MLNrT5J5YfyWkdPxhRu8raD7FhVe4st9Zrum70ORHCAALuE/ZX+SbL9DY9dxrp+nTGEddYRlSWbLlx9m+E2dwxgyCLiz9C9+djMzyRqQW1TP/vwveXp5wd7YSq7PBwcrgGuu2X68sKfFoaWl5avY7aEX7h12Brz9bzHxzM5K9vd2cm2VXLGMHP3P4sAlNHBsVhcWkSkoEjc2tOSPdAnU60dXYE0CVFQEqJAGarHLQlSgB9DuIFsGiKoDVD/40Ekbu2CVRAgoqG1HW0Iuy+i6U1DYhlybBpJxiRCZlwY1qgKGlA7QMrB6q6FneVzF0urnVdtuLNp4hPZFJ2QGJKTm5kcnZxyLTC+/XdAyhm9L55KHjdM+fx+c0Al6d9wHMEYC5FIB4z67wf+8wjXP4kwfoevkGqg5cRMneT6jyfIjCoTe5vsgRZFZ1wyuMpYph8W9u25V8zCe+cNLYL+XiVp+U21u3Z9yz2lnCpc1r4ZnUAP/0JoTntCG+pBs59SNomjqFg298hNfOX8IXdPPfuHULtwhJ8CcBEAZFcW6f8hxfee8s9h0+ic72HqaK0hBPUrXQ3c+ccv9W0d2PfgpNpo20qbJsouxvTKe/va0FHLkWhIOV8UMnG8PrsZGh5eWFOY4lwcFPSv2+fhs/OfKtrwB9AGu2Ll20ynhRF0nAmTUmQgUQZsC5NIACKwIEERDrBQhToFgqWEssFSwIAInAZioBeiQBoirAjM2BbFPYFChHDu6FjxGAHHoBsoUXQJaGwGUwj5TC1oBfQ9f7V6wK+DmUSQK06AnQd/4l7HwW0ZH7DEnAM/Bi/4DtTBsERC5GMNUAQQIiEqSwO1kKienSSM9ZiszcJcjKW4LsAmkUlCxFCUlATd1SNDYsRQtnyW3NnCkLtEijs1Ua3W3S6GuXRn+HNAY7pTHUKYVhYqRzMUa7CI5jHCeIyZ5FmOpZjKnexZjuW8xA/AwODj2Dw8SR4WdwdGTRIxwbXYTjAjw2h2c4CizGcRKGExxPkAicIBE4MSzNYwS3j0ogxZGEguTiIJUGCQY4DpIUcJwV6JfGDMnKNInKFM97jK9jqGkxeuufudNW9fSLzaW/sa0vfGbJt37fnzzxB539oyvTyppdtydVvRaQ3383oeUEO8Z9iMl3r7PL3wN8yZmjCCDiZyH4i5mlqPUXtedvs2xrau8sWqr3IH93HHaxZMuFQc9GVQs2+uYI3RknyfuncznbcMrd23y2SWR/F+ZuHW2Mr3m62BzdGeKX3d3QIJznfzEKTvOeUoUQ/22BWmpKZ1RU1e6xXA9hrOPfnVpAP0AEHD18aAo0hRZnpqIiQJWzfRVCjd0BNVkVsIV+AAsqAQ7cFiVs28wsEcpUQFR4FD+zxawKaEMpCUB5QydTd+yDUFqFtLwS7ExIg8u2YJjaeUDXyBYa+rbQNHG+qG3h/raene+EhbP/rHtA5AdhCZkPqtsH0TkyxTTAUbz2wTl8RjL2TQRAvHfXiQ9vPsRJpgF6X72J2sOX2M75MxSNn0Xp6Fso7j2O3D2DCI5KE2mAS+bekefNgzPOGAdm3jMNyoUlZ/3O0ZVcv2QPAtIbJEsJJ1f0o7B9houPPYeZV97HG598gY9oRhSLPt1k8JeAwf8GDYCXeK+cv3QVr75HQ+n+I/wu6kQZU0WJ2wIQZGwBT+H05zXbysCvS+KoxdSRaPCjxwY/hkaGbPAj2vuy1t/KiGqRycVQX4++tIRY69ry8pVPPsZPrsAffQVEV8DVRk9nM/gfFwSAngCss6QfwHquJFD0B5CoAQ5SUHNbBk2hApAACCVAmyqArv9ybGUqwCRyJdcHYDVAliAAG+ZQIMfSQNEemGWBrAhwoiFQqABGwhBIEqDt/kso2f4HKwP+A2rWP4Op+1Nw2D5HAjz4nG1UC3zDF8OPRCCU/QR2xC7GrvjF2J1EEpC2GMmZUkjNXozMPCmqAItZdiSFigppNNQvQUvjErQRrY3SaGuQ4vZiLsayGN0tDJytizHQRrQvxnD7MxKMdDyDUW6PcZzofAaTnU8TiySY6lqE/X2LcLB/EQ4PMvAPLMKxoaclOM5xASeGn2aAfxyLcJJk4YQgAcTJoccwOHfsBB8/ThwTygKPHRqYw8H+xfz3uE0cEASEZGQficl0B8kJz32s+RkM1i9Cd/XTd9vLf5PXVLzI/Ikh8Nt9HERdfU1bv3NicUu1U0wlYrhWfNH4O3SKf4GXvmAzH07974roMf+zQACo+kuauXx08Usce/4l3lc0t7FPezzNbN5shGPNRj/WWpvh7R3InH8NZ/51iEsvgpfPdniwwx9XZuOSvgb33BzN3wwP88uenh5XoYT7D9/urP80zzp//vxP2IBI0d3JfmTN6pXXmH9+6MKa9NisUkQkZiOA5j0LWydJfwBNlgaq0hAoCIAK5WpVkh9tXgMDLhRkyRy2I9sLe2zaCj87B4Rs80UMOyJms91xYW070wEseWskGaihP6CiBhlFlQhPyIBHwA5Y2Lthk7E1VLZYQ2GzDTZstoeCnvUNE0ffO34RSQ8rW/rQOjjONTcO4uV35mrs5wiAWBhofvYv2Bp/aAHAxzRxvPDFQxoBb2PPUbYG3n8BxZPn8P/Z+wr4qO5t6/Z+t0AIJCEkxJB6cdfiGiNK3D2BuLu7C0lIiHuIkODurkErtLSldqEtLd6i61v/E9LHfd+773ff+660NPNjc2YmM2cm50xmr//aa69dtP0TFHWcQn7tZrIQ6TCw88Uicx8sdoqHkX8uLEIKOcW0BK6x5fBJqUJQRi3iC1uxumUvmvaew+6LX+JDihC/u3uPQ5/uSyOKewDAPQIBSSD6/Y8SSNl54DhqyHrkceUf77oK3jrs339/PozIliwVBj8EAYJFkax92UmxnPV+YyZ/a9EeaqTz2MpY5wZnQxyrLCuybGxsVPrXfBp6X+UPcQTGLlc3H6OrUTxGdyi6WQACAIIAYQ8sgICIbptgzghw4qRAoQcgAJjn+ja3b1MQ+C40fd+TRgabxNMQiCJACQQQANikCR0AWQBqAewIAizi34Zx+BvdrYErKQokCJhproSpRoMw00gROjaqWOGkAQfPYXD0HgZnn2FwJRhYFTiMc9KHczUyHIGRwxEaO4JjR0cgLnkEktKGIy1jBDIyRyA373WUFI9AxVoCgfLXUbn2dVSXDUdt+XCaswxHU9VwtFQPZx19GDpqh6Gzbig2MDYyNtcP5ep6KLY1aGB7owj17mhSx07GnhYN7G/VwNEOJn3G8U4NHO9Q51YdJ7g9IbaMkxs0fo3TBAinCRpO/Rq8zeee4e3TBBLSz/mYU50EFO1Dcbh1KA72RAuvMw6JLUHIAQKSfU3DsKdhGHbx/W6vGYrOMg2sK1S/1lCg3lKbrz68FwT893+yIvmz1Wu0d2LxNo/E8u99C7Yhb9unaDn/I4TT348vGP2IBCIlfyYTIfoT8+Y/v8ESwaWPJBo3O7RbvOW6UJOOeFNhpqkPZ9azBeWfUlSLoKhkODhT8Ee1v7UpywMrWPM30fmiYk2Rw5YtW97979/pv++nhymMXN/SMn/Zornnp02bcm/KzFl08gtGVFohDYyKJGGgsWQXrCfpAbpBAIEAWwNnSiBgFpZNmcEe9umwoordkZMG3Sgi9KYpUkRUPBIzVtPLoxZFdPZbU92I4soaFJSWUdBbgYTs1fCLSoIxOw8oDsQ8TWPMWmaCifMNsdDAFtYegcivbEJ12ya079iHkx98QiHmXbIyD0m3c7gOz1EPYBPnjzIO3CCau3QH2HL1EWpO3MHaAzdRyCmBa7ZfRcmmLs4U2cnFRD6s3YNg6MjWR19qNSKL4RZTjFVxaxCQXI7Y1aT8q9jit70L2y5+jZNf/YBPaet78+5d3Ll3F/fu3ZOmE94jC3Cbq/7v7jzAB1+xNfTIGazv3IY1mXlIFEp/1vtdeTzEHAVNJv5F9PSfw9KJaKsUYr+lFPsZGOjBypSukKT+CRifutqafRUR6FO0vqVx0W+hVPTv+2T2vvI/5QiM1R721lgdDduxOurfjdHReCoJAg0FC0AAYNztDzDRkA6BZAFm2faAALYHioFBDKEHWEafAOEQqB8xhizABNhkTqIvwERYcliQbaooA5AJYCnAhr395mzxEyOD9QKEP4AqFtAk6H0rZYIARbxPTcBCdggYOaiyLjgUTl5D4eyrAXfGygANeAUOhV/IUASFDUVo1DBExg1DXOIwpKQOQ1raMGRmDkMu2YDV+SNQxCguHI61xUNRsUaDdK0GmkTCLNdAS6UG2qvU0VGlgc5qDWysUcemajVsrlXFtjpVbK9Xw44XYmejKnY3qWJvsyoOrFPF8fVqTNpqTOKMTtXn2+7rZ3m/iJ6fneVjuggQuggOxPacCF7v2Ur3i8dznyfb1HCkWQ2HnsfhJl6XQp1bdRwkKNlPgLK/Xh376tSxo0oNHUWqj9flq35Wm6UeX5wq32sQ9Df+SkSNO4MtZgl55avdEiu+XpXV+iR9A33Xz/+E41T8fcPl4otGPyKBcEHJOfNM/o+fkua9jYMnuthWugX58SkIs7SD2yItmFPwZ7pIGwGB0TS8KURyYQ08uVJ2FsnfguNbSfvT4Ocut2dyslLsG0tLlX7LX+T8tV+tqKgYmJuV4aKluXjb2LEjn4h6vyN9AQLIAsRklmIVuwMsaRikTYp/Plf5s4UwkI8ReoCZNAWaSyZgMU2CRC+7JVe2dvy5KAd4O7kjODAcMUmZtEGuQlH1OrbwMqpqsGYthYKMHDoIRiRnSroAAytnoQvApAW6mKdrhhUEWBnUEohWwFaq6I9c/JjDc27TglnU24W1rnAC/I/yDSs5uMn/rrAWsINCwIYzd8kC3GSb57co2fUZyreco434XuoRiiSQY+7sD2vfJHjHFtGMjC6GeU3IqNmJ8m1nse7IFez/5Dou3/gR1ziw53uOJBYTCe+SAbh7777kSvgXKvw//voGTlz+hN4je7CWzEYOPR+i7FwkjYg1V/0GZEfEqn8ehZNzxKqfLMqSZZrQ1aWnv6HBfwyCMtK6b7VC72xmcpxNZUnJaH5m/uUdIn/jT6n37pfpCEzSflt5nPZQ7bG6ahfHaA99xLZASIJAagGEN4AQBgoAIDQBMzknQNICsBQwh8lfxAIyAUIQqOk7kr4Ao2GWxJZAggBrdgVYJHJaoAAAaQQAZAJsKAi0THgHZtFvSq2B2p7qFAWqYq7tEExjGWC6oSJmEwRoWw+BpZsa7FdqwJlOgq4EAB6MVf4a8A3SgH+oBkLCNRARPRSx8cOQlEQQkDIM6elDkZ09HLnZI1BAIFCYPxQlq4eirEgDtSUEAGs10EwQ0EIQ0FZBAEAg0EkQsJFgYGOVKjZXq5JeJwiQQg3bawkECAh21qtiV4MKV98q2N+kgqOtKjjRLhK/Ks5IocJtd3Rx2/X8/pNtfAwf18Xkfm69Os4/jwsEAT1xXgIFBA3tBBUEAEcJMg6LIOCQguDjcKPar3GQAOAgAcB+vrc9fL+b1qhifaHq93VZKo1tGcrvtPi/8pupKf+W/k6EmUvu2paJQSlrtqxMbbwVULiNqvDPsfWTe7jI2b78J60emTN+vQgAIPr97zC5fMIv9m07D6CuqgFpAWHwk4a0LIYZXf7sjK04yjeT3vdrmSCL4erhDQdb2urSqY2z2Z9yROuHDjZmTdXV1bN/Dz7t+/bF/ZkDiBasMNRdPX3K+C8nTp761MTKCe5+kWQCuComEHAmIFhhYYvFmjr0B6AwkEleAgBMcu8zsc2nCZI2WQATJjohjnRcys4APt53pQ/CIuOQklOM/PJ6FFc3obSqHiXllVhTVoHV1FUk562GV2g0bGkapGlszQ4BfczTMYGhjSsNwcrZCdApAYBDFz7CVy8AgCcEAC8yAKzmSHqOT+9D6gRoPHtfKgOs2fMXrOW5r9x2joPE9oIDAeHuE8LBRQFsR05FYGqlJPRLLt/MMsExNDP5bzn/FU5/+QOusgT07U+3cPN2NwC4TRDw0+27kinRJ5z0d+rSp5Ao/yq2+FH/kbDSF74GphRGLoIxwaKY5reAI30F5T+HK/8FLKVo0dnPkEp/c/r6W7PPn2DxDlv9PrU3N6wqKyueyeTfS/v/lr5MXrb38u4SlTeZ/PPGaA29xS3G6lAQKPQAz2MCt8IjYJrlG5jlIGyCmfzF1uFNzHd6CwspCFxKFkBYBPdMCjShJsCUw4Isk0XiZzcAWQBRCrBJeQ9WiewKiH5Dag3U8h6KxTQJmmurjOkmilI5YJrhIJYDhsCMYkEHlgqcvNSpSFaDO8PTTx2+/urwD1ZHcJg6oggC4mKH0nlMA6nJGshIJQjIGIq8zKHIz9ZAQbY6inLUUbVaDQ1r1NBUoobmUjW0rlVDWxmTZ7kqOhidvN5ZNgQbyodgW5WKFNu53V6tgp01Q7C7jgCAsbduCFfiQ3B03RCcbhPJnrFehQme0T6ESb47xH3HGpUZQ3CSCf3CelVcJBi4JIUaLnPbExf5s/OMrnYVPpb7blTBEYKNo4wj9f8RR59fP0xQcrhWBYdqVLBrrQo2F6k8XZel/ENzhpJbZZziaH4+e01BXvgjZR54taFl85T8irYwm5D8eyGle9gLfgnrLtzCBfL+ot9fJAtx6UkgIpWQUWZb12N8TSHXQRq3VK+tQk5MIoLNbGE/ez6sKPyz0TZESFQKqf8KxGStgYunHwf7iJq/IezN9J5artD+KSYqLJqzBha98JZ+F1fDw/3nu7s6ZI8e+e6dKTNmPlvM2rVbYByiMksQQmGgZ2AkjOhyuFRrOT0CBBOwCDPZIjhDYgLmYR5r21oEAULlLsoBDku04bbCXCoHhEXEIpUgIJcr+tLqZoKAOoKAKjIBZSgmGMgqXIM4ugc6+4ZgiYEF5usYQ8vImgCrkNbf6zntcw8OnP8AX9Jx70e22Ik+e9Gl0XP+xLnk6cMtgoLPf36G/V8/IdvzANUnbqN033VU7vmCKn52fmw8IL2mt38wxxcHwDUiH0nlO5DffhwVuy6h4+yXOHj1Os589T0++/4mE/1PuEkA8BMZgB9v3+FUwtu4Rlag6yqFoYdOoal5A4qzi5DkG4hAE0usXLacnRGcBcHEv5gxj+UR4Z8ghi8tWiKU/rowY+K3Yr1feEMYL1/80NvN/lBEsG9OQUHGW781ncjv4oPb+yb/Z0dgzALlAWP0lOeM0Rx6iSDgPgMUB6JHFyCMgqQWQTNOC7R5A++zLXCmHWcGMCQQwO6ARR7vSCBAh10BehQFGoQLYSBdAuO7QYA1QYAAALZSKWAULGn5u4LqfoPg4dDxGdrNBNAueJalEqawHDCDIGCx+WAY2w+hGYkanFep8ctVDW5ealjpqwpvPzX4+ashOFQNUZFqiI1RQ0KcOlIT1ZGRrI7sNHXkpqshL00VeemqKMxWRXW+KhpWq6C5UAUtxSpoXaOCthICAEZj4RDer4S2NUrYTCCwVYQEBoaQalfG7hol7GXsq1XGPm4PMA7XKeN0kzK6WpVxoV2ZCb47LnF7ab0yjtYNxv4qReytUMRZgoEPWofgY4KEjwgcPiKL8CFDbD/i/SIuM7qalXG8TgnHapVw/P8J/qyGUU1gIQXBSCXBSaky1ucqPmlOUzrZlDbYc3OxVAroBQH8M2AOeJVuf8oRWaWBASklFz2z255kbvwANTT7OXr9MX5g5he1YnHpSR5iK1b/9x49xZeke09/dJV1/w5kUBEfYe8O5/lLpH5/R2NLBAREI6WwjiK2dJaqgmFtYca6v1S/fWait+THlNjo+Nzc1De5ivtNCf7+nm+IfTQmyk2NezMs0Lts8oRxN0aPHo2F1Dq4kAkISshBVEYRfEJjYW7nhOXGpliwVItjg5eyHLBIAgEzZs3FbNa4F7LmrcfkZ87SgA2ZAkd6Cqzic0JDIljCS0XemnJqAWpRUlHNZEwWYM0a5BevQW5hMVKy8lj2i4Id3QlNKbgMT8pCSe06dgLsxJ6zl/AFAcDN+1Tf02zn8VOaAT0/jz3n8y5P5Jec4njw+hO0XnqA2pO3sZYAoGrP56jfeR5Nmw+guroSQYGB9G2g90F6LdbuIDg8/jlX/ddwjP39H3x7A1e/+x7f3PwRNwgArhMAfMPEf4Xtf8cvX8XuY11obtuIQvb2pwSGIdzWmZQ/E78whCL4WcIxvvNoliT8/OdQNDl/8RJoc9Uv6v2WBIo2TP4Wxto0htK6FxMa0FKUn75wy5YWVSb/XpOvv+eD2vuY/88jMOWV197QURsxWmtoHeMTBgQTIEDAWF12B4gWQX1aBZMFEP4AM6wZVvQH4PZ9e8ECvI2FojWQXQFCEKgT+B5BAP0BokZLLIB5IkFAimABBAAQcwLYGkibX/PYNyWrYL2g4VjGcsACJxXMYTlgBoWB09gdMJuMwBKLwTClTsDeTQXOHqpwXakKDy9VrPImCCAQCAhQRVioKqIiVBEXo46UWHWkJRAEJKkhN1UVOVKoIC9VBWXZQ1CTNwSNBSLZD0Fr8RC0MdqLVFCTOxh1eYPRtHowNpYOwWbGFsbWMmXsqFTC7ioCgGoCgOexn9tDBAHH6pVwqlGJiVsJ51qVcJFxqY3RzgRep4j9lYpcpQ/C4arBOMfHXWaCv0LA8LEAAy3dcaVF3FYmIFDGOe7nhEj83PcJxsmawc+D1/maJ6oH4zj3dZzXj1eTLSAA2L9WGRtzFZ+1pCpeb0oeVNqQKL9kX69NsPRHIRJvdeumxYHpZWUeCWU/hFfuf7b2wJfY8MFtfMhG8ftM9CJp9CQMKfnzxiNe+Z615cuffY1dB0+gNJ9Dbdy84WdEF79ZC2CnpQ9vdz9EJuXTqrqUJSquIJ2dYWtBARf9/W1N9a45WhlvTE+OX1hQ8Puczc7D8CeWLOTSU+JMli2ev3XWzGmfTyJ9rWtiQ6FuCPxiMxAcn8UWwRBpjPByQ04QpAnQPLIB7ws2gBS3KAfMEZoAPk+fq18zagRsOFjI2YAzB1xXdrcIpmdL3QCC/i8sKaevRxFNvlYjO78AaTm5FPwmwycoVGJXwhLSUUwHvcaN27HrzCV8LgGAbgZAzAMQ56/nIq7f48n9mkLAw7QEbv/gAepO30b5/uuo3vcZGnefR8tWlnVqqxEWHMTvkyCE5taj+ejH2HbpKxy88hW6vvwLPqbd81UKQIXz4BfXv2ed/zrOX/0aB89clmr99fVtyE/lIB9PfwRb2GElXf0s358vTUtcRh3EfP7ec9gqKVr8ForkL8x9qPIXK39LTvOjN8QTW3O9z9wczTemJURbVNIJURhV/X9+q/c+vfcI/P1HQBgDjdXU8Bijqb59tJbGozFaGgQBGhhLIDCOIIBzA8gCiA6B4ZIeYBpHB0+3JAggCzCX5YB5Lm/RJfBtLPN+F9r+70E3aCQMw0ZjBVkAs3iKA5NYCniuB7ATQEDSA7wr6QGMw0dguT9FgVzlL3JVkTQB000VCQJoFsQOAS2KBM0JAuxcVODirgL3lSrw8FTBSi8V+PqqUFikgvAQVcSEqyI+RhXJcapIi1dBdooKchhim5WkjKI0ZVRkKqMulyCA0SSAAGNd/hCUZyigglGbrUBh3RDW1pWxuUQZW0uVsKNsMHaXD8aeisHYx+QrYj/jIOMQ4wiT9HECgbNM3hdamPxbBuNS62AmcEUcKB+EXSUK2M0QibuLq/srfNwnTPYi8V9hKeGTdeI27+fzLjYOxjGyBsf42JOM07wu4pQUvI+AQtx/koDkJJmJ45XKOFymhO15imhLG4R1KfInGpLlEqr8XlHAH7wUwO//V1v27RuQW9oY6ZtacdQlqZZuf5fQRur/0Ne0+mVi6En+ImmIhCFClAPuc5rc52zzOnL2MudKbEJ6RAL8V1jBjVP9RAvXSjsPhEWlIyGvCr6RybBzcOTq3wT25qRzV2g9cLUz3RoTGrzS+3du2MJD8eqPP/4o7+PhGLJCT6tz5Dvv3J8yc/YzLRr32BEEBCflwT8mlcLAKFjYOWO5kTGWiQFCSzUlwyCpTZCU92xqAZZOngE9igNNZtA2mEyB6wozeDo4E8BHISUjF1k0B8otKkF2wWpkZGcjLTMTKemZ7PRJR0RMHLuAwtmyl0IvgTrUsRVwx+mLuHrzDn6g2c7PLAH8LQDwDc/zke+eYD0BQAMBQAUBQM3+z9BMALB+60GyO7WIDg2Cf0AgYgvrsfXCZzhMSv/UF1/hMkc8X/nLDXxCEPAxlf1d7Ok/dPEKth05i4bWLSwvFiOTnQuRDpz+qGvEqYh09RNzIMh4LOLqfx7Zj9nvz5Uo/8XP+/uNKPYTK39B+3MQ1GOKRK97OFm2pCbEOQkBpjjmf/83d+8je4/AP+YIvDpFT11p7DL1IIKAD0drqT/tBgAEAboaBABDMYEx0YBBceAUk24gMIMgYJbdm5jj+BbmEwQseu4NoE09gF4wQUA4QUA0QUAcbYGfgwDbNLYFSqUAjg0WTEDc2zAKfx3LA4ZBy1uDIECVcwO6ywHTTAdjKsWBi2kfrG+tBAeXIXBzH0IQMAQeDE/PIfDzGYIg/yEIDxrCP+QhiIscguSYIciMG4KsxO5Ii1NCRtxgFCQNxto0JSZ6JYIAZTTlKqE+ZxBKUxWwJlWOP5NDc+4gdJIJ2FQ0GJuLFbGNsbOEK/lS0vllg7CPsZ+J/RCp/cNMyIcrB0sr/KNM0idrB+GUiCoFrs4VcKhcAQfWymPfGnnsKZLHgTUKOFM9CB8z0V9tHozPCQak7TpFbhVxsV4BuwoV+HgFnODrdFUNwtnKQTjDOMvXOvNilPM249RavofCQdiYroD2ZPmf1yXIf9wQJ7ukPu4VMSTkD3v56quvZHbsPT5lVWzeGZ+MhjsRlftQeew7+vw/wtV7nObHb1px6Un8UvLnf8Lq9/t7D3GCgq72DTtQkFGAUHs3uCxYBnsO+nFm8otNWS0p4oMScmFpa8+6vwlFf/T3N1z8iJT55oS4CKvPP//8pVFuk0lRCA8Onm1jbrpx5Ntv3R8zbjxm0vfAxH4VVoUlwY8lEO/wGJbrVsHMxg76K0yxjIOBpLLAoqWSadAsoXpn8l9MgaDBjPdhQSbATns5PGwcEBwQhKiYeCQw2SdnZCExNQ3xScmIio1FeGQ0gkIpvAwK4RyBeE4CrUQVKfftBACfsg3wJgGAGLbzmHS/AHTiPIqL2N7nHTzdOEZf4I4P7ksAoOrAddTvZ/vnni507NiH9nW1SIgMRGiwP1JKKrH/489wki6Dp2k0dOaLb3D842s4xM/CtuPnsW7TXpSzeyEvczUSKQYNsXKAj/4KOMxdCGMa+uhMYHsfY66g/Gdxih/vX0BXPzHCV0zyszA1gp0l50Vwkp+5gdYvjlYmVzKSk31LSgom/GH/UHt/8d/MEfjTKE31yaO1VYO4vTVaU+MZ2QCJCRhHEDBuuQYm6BMIsDNgMlsEp7BVUCoJUBz4PjsEhDBQeAMsESDA691ul8BQDgyKGIUVMaNhQRBglTKGkwMFAyBCtAaOkqYGSiAgjMLAoBHQpiZgqbsqFvaUBDhAaCq7BGayJKBlORhWjspwdFWGu7syPNyV4LVKCb5eSgjyU0ZogDKigpQRF6qMpEhlpEUrIz1GCWkxg5EapcjrisiJU0RJsiIq07qjNFkeqxMUsDpRDkVJcqhKk0cbQUEnV9Ub8gdha4ECtq1WwHYm5p3Fg7B3Dal9AoIDgtonEDjyayjgWAWDSf8Yk/6xtdyWccs4XCKHgwQBB4q7QcAJ/vw8k/pHBAufNw7CNSb/z5sUca5SHvWJ/dHA2JAxkMldHl3cZxfBRBdfp4v7/DVKeV0E2YVT3O9OMhidyXLPmuPk7zbHyDU3xsmOb4l75V86Xe4380nmG1lT1fF6cVV7mlN0yc3gNduerd7+KbZefYDPmfxviWX+84tIFD3xkMn/1oNHUh/3hm37sYY+9rF+YVipQ1HfwmVwofo/nAkvNqscfuHJsKdRjo2laPfTZejcc7QyOpaZGbdow4ZGFe72pVnJ8Xf5E4WMsskREeMdbcwr58+Z9eGo0SMxhUld09ACK8iIuAZEYWVQBNx8Aliy84D5cyCgY2CEJc+FgvMWLMS8ufOwYNZcaM9mWxxLBVbaunC1tIUXSwKBtA4WCT88MgqhERHwDwqGl68fOys84OjiSuEhxypznkAlZwJsP/sBPuFY3R9+7p62959FgN0A4BkBwLPnAOAeAcBPqD7wLRr3f4z1e05jy87dHLRVy+8HzgMI9UNiQQk2c787zl/B5hMX0L7nBOo62ApYvx75OSVICY9HtIcvgkj1uy/Tg2jtM6HOQZcr/oVc8c+lo9/7rPXPJd0vRH7LtERvP4Eh+/qtRFcIhX6cAMl2P8OP3Bys2vJzcrRqagoHc/jRa7+lv53e9/IHPQKjqAUYqaVmPEpL/TIBwC9/BQAEE0A9gAAAk1gKmEyTIGEVPMNyBD0C2CIoAIAzWQCWApasoh7AT5QC3oNB2ChJD2DGcoBFEkFAMnUAqc8BAA2ChD+AMAky4QAgI7r+LfcfJk0PXMxWwPmk/sUY4Wm0DJ5uQp8AMgJGtkqwJghwciEIcFXCKg8leBMEBPgoIcRPCeEEAdEEAfFhykghCEiNUmIMJiBQlEBABkHA6nhFrCUIEFHE5F8gIpFAgCCgPEUO6zIHYX22IkHAIGzOU8DWfAIAAoGdBAF7CAD2EQDsLyULUKZACl4BR0SSZ3I+yq2IY6UCAMjhuLgu7iuVk0DAoTVyBAFyOEowcJrJ/QIT+yc1ChIIuNpAdqBcHjWxMqiMlkFjQn/sL5CTHneOr3Ge+znH1zjH50nB1zjH6CqRxxkCgN2ZctiULIfWOLlfmqPljjdGyWo1Rsiq/BE/ytKY27UNExMLa9a5JVXdi64+gPJDX1MN/gjfUhUuVoY9l57kL+56QOHf93d+xpkr10j9b6aINA8R7r5wWaILJwrgVpo7ICYhD+GpxfSmiIKVDVf/5sZiSMsTO1O9bz1d7CqLi9Pfo+lQ/5ftuAsvBYKAIYFe7r46mks6p06Z/O34CZOezaYfwjIDc3CiH1x8gtkiGADHlV6wdXSBmbUNjMzNoStAABP9QpYGFixcjAVMkMsoiNNhH/wK3mdHEaGLnSM8V3KoUkAwAlnzD+CK39vXF268z97JCdZ29tRaBHIseAnK2Qq4vetDAoB7/wsA8DUBwEfo2HMKW3fu4myQGmTEcO5BsC9iyPa07DuBtv0n0bhlP6qaN1GXUIuc7GIkUgQaTqdHf8568NDWl+yfjaaKaYgzJIX/XHY9zJk5m+1989netxiaWtqSyn+FcTfdb0VPfyuT5U+sTHW/dbYzb/de6RyzYcOG93qT/8v2l/I7/32Gz5EfNHrZsJRRSzW+GKWp8USAgLHUA4zTYbyoB6BhkAAB06kHmGElfAJexxwhCnQVrYFvc1jQO2QBaBUs6QHYFRBNnwCyABYJ3SBAMABSpI4kC8BSAEGAaQzHB4eNgJ4/mQC2CIoJggscCAJI/09nV8Ak6gLmEAhokwkwt1OCi6MSPAQIcB8Mn5WD4e89GEGMUF8lRBEMxIUoEQgMRmL4YCSEKXKriOQIRaRFDkJ2jAJyYuWRF6uAfG4LuC2Ik0dxPJNwijyayAR0ZDCy5bGJsTVXHtsZu0jl72bC3c8Qq/rDTMJHmYQP8vZh3hbXTzH5n2DSP8GfiTgprpMFOE4AcIzPP8jEfnC1HA4VyuEMH/9hlTw+4Or/CG9Xx8igMKQf8gL6oYbX9+WQCSiSw0UCgIvcR0+c5/ULfO4FvuZ58V6y5LAteSDaYwegNWrA07bogdntcQP1/4hagAsXLryZWVJv4xaVeyO0ZNvTgm0fouPybXx8t1sY9gIB8Ovqn2V//EBXuasc6brj8BkUFlYgNiAcPibWcKRTm7edG/UmMez3r4A7k79IcBZc2dlzVedgof+du4P5jt3btk2j58BLPahFgJucjFStkADf1RPGjv5pzJhxTyZMmvZsLvURy01tYebgDjt6ITh5+RAIeMKBbICNvQOMLSxZGjCBjoEhWwd1pYE3iwgGtBj6BAemBAlWZhZw5NREF1eWXNxoo+zsAivxXHMLGPC5YjxxSm4xypo3YPuFT/DprQe4yVbNXx53WwH3gDqx/SsGgIKPjg/uoPHUDxQAXuMEv0vYuOcYtu/czsFgVciKJwMQ6Ak/mhxlF9dSgFiBlOQcxAXHINTFEwGWHNnLlk8HzjgwZ41fn6v9ZVT3z59AN79JM7nqnysp/EVf/xI6+unpLYeJMdX9/HzYWRjBkn4QZqT8zY20/pIYF1GwenXOVAIqxd95quh9+y/pEfg/7y4aqjFyqXr1yGXqH5EJwBgRBAGiM0CAgAkUBU4UokCCgCkm3UZBwi3wfYoC5zlREOjyNha5vw1NIQoUICCQHgFhI6kHGAXTWNoCEwTYsBxgm0oQwJBKAUnvdRsFsTvAMOx1iO4Abd/hZBM0WA4QugBaB1sq8/UIBoyVMIdlAQPrwXBwGAw358FY6aoIX3dF+BMIBK4ajBBvRUT4DiYQGIwYf0XGIMQFDkJ88CAkhg5CSpgCxV0KyI5SQK5I/ozVBAAUbaOEUREvh6ZkBbSlCiCggA2Z8tiSQxCQT7q9gHV9xgEm7MPSip4reyb03XkDsCd/AI7xvlNM9qeYpE9ye3rNQClOcSuS+cnVA3G8YCCO5A/EAcZBXt/P7fasAWjhyr+aDEBpaF/k+fVBdVg/tMf3x3Huu6t4IBP+QFziPi8zLvF1pOA+j2YNxM6kAeiIkUV7pCzawvt/2homW9+UJDOshcOfXtLP6n/5a1U3r7dLLqqtcI4ufpbReZ5e/9/jCJXgP3CZ//iFLNGz+heAQLT9Xb1xCyc++Bx1bVuRzFG4gUz6blT8uxmYIiI8hUN+CuEbnQEL0tvWpP6llj+DxYgJ9ispKyiwFKvk//INvWR3iv70oKCgIf5eq/wXz5tzfvrUyXdGjh7FksBcvM9SyUImS31TG2mAkB2pfScyAo7uHiyZuEpgwMTKGvrGxtDVN6ARjh60CAB0KB5crmcAQ2MTrCAQWGFuKYWhiQUZBPoALGf93MkVSTn0Ali3EbsuXePwpp/xIwWADzmoSUwDfPEibt2jLuAbtgEeufEQ6+kJ3HDye6kDoGXvOWzefQi7dmzmJFB2HiQF8bvCBY7mVvAngPG3doQXOz6caWBkPXuBJOwTzoaaE6ZINf55vP7+tNl4nwLHOc/r/FraOtAXiZ8iPysztveR8ueKHyuWL3lqbar3haezXW1aXJxNaGiovPic8O29NCWil+zj/Yf/dV5Vn6Lef9RSdZfRmupVBAD3hR5AAgA9RkGCCWA5QACASdQDTDUlE2DBUoD1CIkFECBgIV0Cl4pSAJkAAQL02RpoTD2ACUGAedxoigLZDpgikn83ALBJEUwAQUDcOzCNfovCwG5NgBYnBC5xJwhwVmOboAptiWkaxJLADDIBC9gtYGSlCCtbRbg6KcKTIMDHTRF+HooI8lREqJciwgQQYET6KCDaTwFx/gqID1JAcqgCUsPkkUUQkBvNxB9NABDDMgCZgcKYASjhSro2YSBaWBJoo0CwgwLBDRly2Jojhx15ctjD2JfPVTxX82LlLpL4NibwrYx9eQOfJ36R/LnKZ+I+U9Qdp/nY04X8OUHAMT7nEBP7Acb+nAGk8QdgQ3J/tMTJoCayL0oC+6I0qC9qwvtxdd8fR/mYUwQKXXxeF1/3IkHHJe5PbA+nD8CORFl0RPfH+oj+aA/vf6s9XOZoe5iM0aa4V146Svq/+isVX6offfTRwLjskpSwzLKD3llNKGHL19YrnMp26xnuMiv0sP89yV8kjkdMFD+xlnyBfd97TlykKU0zgWMYfCxp+avLCX+Oq9iOlss+9Hw4e3MyniUpb1MDGv7oPXK3N/8wMSbEsbm2fOx/9Z5e1vsIAvrERYZMtbIwidXX1Wp9f8aMbydMmvRkEkV+02mSNJ/JU1PPGHrG5jCl0M/G0Rl2BAD2rOVbOzjBlCDAmIle38iUrIARdPQNpdBjO6HBCjMYMPGL0Fthwf0YYSn9A8TzknKLUNa2Gbs/+hqf3/0FP1EA2A0AePZfuPQAgK85EOjQ9V+w/sJPaDz+F9TsuYK2XadY/9+H3ds2YkvzWuQlBiHM0wEWXL07sLZvT89+K4ocjafPJcXfbWi0iEl/Pun+uexokGx8587HQgocl7CEobucIj/W+s3Eqt+E6n5jPZgZ6jzjGN+7DpZGp13sLbP8VrlbZqWkjO7t739Z/yJest/rPa033ntXU8OWZYBPCQQeSyxATzlAEgWSCRAugUIUyFLAVLPhTM4jyAKwFODwBhYIPQBZgKWeLAX4vkuVP/UAIe8xsY8kCzC6GwQkinHBzwGAEASKSBpJweB7BAGiO+BNOga+zu4AThFcqUHPAQECVKk74PwAigMns0NAgABdC0XY2ivCzYEgwJkgwH0QfD0GIYgRzAhdqYBQTwVEeskjxleewi4FJAXKIyVIHukEArnh8sgnEyCSv4iCqIEoihqAyrgBrMUPxLqkgWhNGYiO1IHYJEAA6fYdXHHvZRwgRX+ICV8k8k1Mwh0psticJotjTNSnRdInADjLlfpZJn0RXSLE/T0ggM87zMR+KJvAgeBhR1p/bEyUQWssSwBM/GsC+2BNwGuoD+uLnQQBBzK5bz72ZDb3kct98bW7uD2QOgDb4mTRGdkfnWEEAYz20P7ftoUMyG/yekX9j8ACiL7/EyfOv+Ednd3hk7jm2+jK3fSA/w6Hv/0F1+j336P8F3miBwCIYT8/s4f829sPcOTSVXTsOorsrBIEulDhTjc3d0MzRITEIzJ5NUfXZsDc1oH9/itgY6L71MZE+1ZcZFBtThopLeB3Z/bzj/jK2rFj89jUpHhLE4PlOyZNHP/duPHjH06YOBkTmCinzaY18AIOumHyNjKz5LGzh7WTC1t63ajjcWLrIOl9gixD/kyPLoG6BAPaBAC6hqZYbmhOgyEL6BhZ8PmG9BiguQ4fn5S7BuXrd2DPpzdw7f4j3Hr0BI8kBkCc1f+4CKB3h8Duy1+e4uC3P6P93A9oPPI1anZ+wGFCx7B1xy7s2drOKaAlBACBCPGwgR67FIRz4XIq+bUZi8ZPJs0/BXM5uGfW1FmYNZMtjfQ3EE5+i5n4ddjTL636JbqfK3+CQmsTAQS0H5roLfuRAOBioN+q9OzU1Ek5OTm9lP8/4gPXu49/3RF4Y/EQldFL1dzZFfDNGE21J2O01FkKYFAPIEyCJkiiQLIAQg9AJmAaZwYIPcAs6gHmEgRIrYECBJAJ6AEB+lJ74EiJCTCTygHdIMBaYgK6GQHrJLoFJoykWRDHCEe+zZZCjhKmLkDTcygWuqhhHgcGvW+jIoGASSwHTDEajPkrFGFiqQhHsgErHQbBy0mB88gV4OeqgAA3eQS7KyBkpTzCVskjgmAgxkce8X4EAYEKyAqVJwigFiCSq38yAYVR8iiMHIjCCFlURsmijrR6M8FAa/xArE/kKp1U+5YUJlwm3d1pXL1niOQti00p/dFGCr+JQr4tBAIiqZ/lSr+LAOAcV+3nCArOcbV+TtzH22d5+xQBgKD3j+UOwBECgf0ZsthJELAlSQbrCQIaCAKqQsgG+PdBA8sCnSwP7GRJYHccI15Wir28vpXvcROT/wYm/s5QGXSE8PkhMo9bgvt/3R4kY9QUIDPsX/fJ+fe8UkvLvgEbt++09YjK/ciTk9wKtn+InV/cx4d3nuI2M4JI+i9eRJLo8fv/+PotbDpwFpVNmxHH3m4vc1t4Uu3t7+KF+Iy18Kb632mVPw1cWNdly5+TleFtDweL09u2bZz2Mor+/idnUOgeWurq3g4P9k9crrPsyOSJ434ZPWoUxo6fhLETp2IsE+jE6e+zdXAR3QR1pES/wsIGptb2kpOgCSn3FZb20jhgA1NrLOfkPF36Lmizw0BT35Rsgi7mcPCQKL2kUptRTYHewWu38NXPj3GHw5r+sweAOMds6Oi2An7wBPu/fIC2szfQcOgLVHO4z/ptB7Ft2xbs3dKMTQ2r2RnkC39nc8ybOBEzxzCY+GewrW8GFf7C0XCWlPSXYBEH92iS6pdG9hqKtj4q+82NpCE+ZkZaMNJdLOKhm6PNufiYsNCCgtwlfCu9VP//5MPU+9jf1BH4k8bigYPHLBsWRRBwlP4A6AYB3cLACWQChD/AJDIBAgRMpT/ADIoCZ0r+ADQJoihwHpmABe5vdZcDfLqNggQIkDQBkaMggQCWBKzZIWCTTMdAYRiUylHC3IpuAfM4agei3oVR2NtkEUZAy2s4FrMkMJ+6gNksCUyX2ABlliKUMIvDhDTJCJhaDIKbnQKNRhTg7UgQ4CxP5zEFBBIIhHgQBDAiV8ohepUc4lgaSCUrkEUgkEcgkEdtQEGYnBR5YQNQENKf9XhZrsZl0RRNEMDyQHssV9pcbW9JkMXWJFlsJxjYy1X/Jq7c20nf10dRxR/ZDx28vjNVBmeY4EXyPy8AAFfs58Xt5yv3s0z8pwW1zzhOwHCUAGA/AcAugoktpPQ7CQJao1gGCO6LCv++qAvqhzbqArYTCGyP6o9tTPqbSflvZOIXsSGUACCYACCIACCQ7yew/8+tfgPWtfjIGJW6vfLSthvxi/ZPpaV1asm5a6p8ksu/Cy3qROOZGzhz8ynrwN3z4UVi6LkIMCDo//tcPd649zOOXfkadRv20Jq2FmF0hfOytObnxQeRbPeLYN+/A50ALalqt7OkWM1oGVkm271Fq3N8Wc8dwF394b/khS7Az89PITI09P2ggAAfS1OjgzNnTL0zfsJYjBk/HuMmTMYYCudGExCMozveVCZWAQgWMLkvZZul5nJjJvsVpPtXYAlNdRbzvgXUX4gug+msw0+fPQ+2Ds7ILGtC/e5TOPKX+7j+yxPcJ3vzlCv9Fy/ilhB13iQ4+OTeY+z+4g7tfXl+Sf/XbDyO9Zt3Yvvm9di7oQ6dNTnIjPTk94QpZk5n0qdHwSya98zhXIP5HHQkpvVpaQthny4MSfObGHXT/N1GPjow0deEvtbCZ2zx+4uLg+XOAJ9VSVmpCdNSUlKUuervdfT7TaWz3jfzPz8CtAoeqzWUrYEa1dQCfDtmmfoz4RQoOgPGCwBAf4CJ9AcQAGBKDwtAQaCwCp5NADCXJkEL2BkgmQRRFCiYAF1RDghlOSCiWxhozpKAVSIBAM2CfgUAYogQQYBlArsHYgQT8A59At6gMHAEwcQwagw0JCZgppUKplkMwSSKA6cYKWEuQYCO6SDYWCnAXQIB8vBxIgAgCPB3kUegqzxC3eQQ7i6HSA85xJIRSCYbkOEvjxyWBXJDmPxDuyMvdADyAvujKEgWZQQBDWQEmimwayEr0EEQsIEgYDNX4dsIBHZzxb8pngmXyv36SEZEP7RE98PG+H44RNr+TI4szjHZnyNdf15sWTroIo1/jon/NBP/KcYJlgCOEwAcJADYSwCwneBiM/fZIdoCQ8kE+PdDLbsDmoL7YZPQBTD5SwAg/DkAYPKXAACTfw8AWB/Q/3Grb/+j7b79V21ye0VMFnspk5Vo/SupangnIjl3a2Bm3a3Yyh1ov/gTLnPp/z25/xfFfyJZiCQh6P+7D5/g61v3cZCissqWbXSkK0ewly+8uSoN9gpGdFwWgmKzKGBzZ+3fgsI/Azr+6d0J8HSor62t0utt4/rrr5TKysphBZmZS9wcbXMWzZ97cuaMaV9OnjL53viJk56NmTARo8ZNxOjxUzCeIGDSjNmYznbA2Qs0aSGsLYGBhct0sWCJDj3ztTGHgsIZXH1PEY8jYLB3cUdOdRuaDnTh2I2fcYP0/wMxA+BvAIAfKOy8cucRdl69jXVHr6F2N+dAbDiM9Zu2YvvGNuzpqOZY8CykRayEJwHArJlM/qztzyHFLwx8lizTkmh+kfyNDJfD1EjQ++zrX8HpfcYc5GOk89DUUOeOqaH2F8425jt8PJzT4yJCzerq6tR6Pxd//bnovfV7PgJUkY9aNnwpmYBilgLu0C3w2ViyAX8FAugSOImdAVOEHoCiQNEVMNNmBGbTKXCe8AigKFD4AyzzEu2B3ZoA/eD3qPgXK3wKAwkCLONFd8A42HOksH3680idIIED83i2EpIJMGA5QFeUA8gECBAw15HlAHYICCZgIkHARIKAyYYUCHKegJmlAhxs5OFpJwcfe3n4ORAEOMojyFkOoa5yCCMQiGDEsjSQ6C2HND85ZPvKITdQDnlBjJCBbMfrj1z//sj3649KJtgGAoFZ2xLwAABAAElEQVTmMIIAJt8OrvQ7Y/pjE4HAdgKBTlL/rUzWDREEAFyl1zJp17Clr5WAYH+yLE6wVHCeAOAik/0FCv7O8/Y56gjOMfGf5e1TvH0iXRZHUmVxgIBiHwHAjgQZbCWTIF5rHfdZR2Fgtd9raGSHQCdLA5t539YwGWwk5b+RiX8Do9Of4cfn+JIF8KUWwEfmlzaffnWt3n2XvawswM7Dh9XLGtp03MOSvo4q2fg4f9NZjoH9Gd9QBCY84UXCF9FzEdcfcfV48/4vuEL1/8ZjH6Coqg3JqfkIcF2FQPb/R4QlU/lfxP7zENhxxK8N6V57M53HIb5uRxKiA12uX78u+3v+s/5nvXce2ldP79oln5uSaBjo6xljpK99bPrUKbcnTZpAfcCEJ+MmTMCosRPx3pgJeHvkOGk7etxkjCM7MIFzAyYKcMCYyOvjSMvTbwAzZs7CSh9/FLUQ2J24gq6fHuMmE/wvBADPCORevIhbv/C+G6z/X/7xIbZ89BPqD1xBFen/6rZdWN/RgW0dDdjVvhYtpclICHaFh70JFiygP4GmJof1aHPFLwb2CFV/d9K3YG3fwlgPJgbaz4yWL32qv2wB2/p0v3CytTyUnpoYy57+qdSg9I7u/Wd9qHr3++89Am9rv91XGAWRCcghE/BNdzmATIDkD9DNBEwgCJgsMQGiHEA9gCgHWNMpULQHEgQsEHbBwi2QwkBNiQl4lyI/wQYQBLBDwJReARYJYuU/gdMDJ8I+c5IUtgQEAhhYEiSsiCJoCH1LKgdoeo/AQvehLDNokG1QIwhQwWRTZUxgOWAiQYCYKrjQSAFmZvK0HJVjL7ccQcBA+NnLIdBBDkGMEKeBiHQdiFj3gZzfLYdULzlkEARkEQzkBogYgCx/WWQSAOQxqVaQEagL6o9mlgaaCQhaSbt3cAXeSfV9Gyn5dQQGDaTkG5mU65n8a5ikK/z6opaJu5WA4ADr9+coFrxIp79L6WQDGOJ2F0sIZ5j4TzJOcPV/jIK//XzsHtb3d8aS5ifr0MnXaWGCb/QlCPB+DQ2+fbCO+95Iqn8zYxPZgY1kCTr9uqPDly2E3jJo82LZwKvf5TbP/sWbV74y6GX0BmhoaZm+uqIm2ikk9X56yyHUH7+Gs6T/xUjYRyJB/KckIer/99lC9tWP93Hq8+/pDX8K2UWViKPfvL+bJ6LDExETn4WI+Ew4UrhG8xY4WRs9czLXvV1ZvsZrx+bNfyjV///m20esgsUwpISE6DFRocHeTnbWtXq62hdmTJ38ZCLLAuPHjWNpYCJLBAQEZAbeGzsB744ah3dHExQwRjLeeXckxvFx8+bPQ2BkAiq2HsfmC9/iEpmdOwRwj/4LACDAwH2yAl89eIzTP9zHxvN/Qd2u86jqPIzKhg6sb2nA5nXl2NJQgNp8jjj2sYOrNVsSly6Cvr4ujDmpz8RQD6aGukz4WjDWW0aaf4EUpvpa3zlYmpxOiA3PLszLXl5eXj6W5Y9+va19/5tPSO9zfj9HIO6VPymL0cFawzSpA2gcra12UQIBOtQF6JINYAirYDEvYJLhUDIBwygK7O4MmMXpgRITIMoB9AhYLAYHCbtgagJ0yAbo0zHQKIw0P0sCwizIKnkCTYImwiFjMhwzp5ARmAjbFDIBBAdmsWwnjCQTQBCg6/c6uwyGs9tgKJkAdYoPVbtBgBnZADIBAgRMY6fAImN5mJorwNFSDp423QDAnyAgQIAAx4EIcxqAKJeBiGNZIJFlgVRPOaQTCGT5DUSu7wCyAgQBPrIMGRRxVV3GFXYDQUBTMJkAAgEBAtYzOa9jNDFEqaCJAKCBAKCOAKA6oC8quWKvYQ2/nSBgD1mDY6zvdyWTBaCQ8ALjPBN/F+M0E//JJPHz/jjE5L+PyX83wYWg+jdy3x2s77dwPw3efVDvRWGgV1+0MdFvIDjZJILvbwNvd3pTg8BoF8nfkyzEKpnvWlbK7G927T+NpYCXqi2Q3/d/yi8p10rJW1vuHp33y+otXei48B3Ff2L1/0wa8COSgriI1aEIIRK7/QvnAnx/F4evfIvaLYeRmVeKuNhkhPgEII7JP5rJPzgiHs6OdnC2MoabjfED/5X2XTUVRQvPHjyo/Pv54/33vVORGHNzcxUykuMme3g4rbC0NA020tdt0lq65NTC+fM/mzVzxv2JkyY9G09WYOy48Rg9ljFuQncIQPDeSEyaNAlLOUwnMiUXtXsvYPvHP+Bj0jr3CABEGafn0nNuxV13Wf///O5DHP/LPbSf/hJVW06ivHU3Kmtb0NFcg82NJdhYnYPKnEi2ANrA2VIf2ssIAHQ0YaC7DIa6S2G4fClWGGg9IMX/g42pwUVHa/NNXPEXuDlZ+3HS4+KmqqrXuepX+Pcd3d5X7j0C/+IjMGXKlNfoCWBHh8ASMTOAtsEcHEQAQCAwXo9MgAE1AQQAk42HSqLA6ewMmMlywCwbdgZQEzDf8U1JE7DEneUAqUXwHSZyggDRIshygAnHCFskiBU/AUD6ZDhkTYGDYALSJ1IUOIG2wUITwPkCkWQOgt+kJuB17mcE5xAQBDiocS4B2wQtVDCJTMB4goBxBoMJShQx30ABhibydG1jOcB2IHwFG8AIsB/IYS8DEE4gEOVMJsBtIJLJBqR6DETaKiZ/7+dBAJDmKYNsJtMCJtYqMgINgUz0gg1gUm4lBd8oSgQsDzSEDyAAEAyBDJoIAuop3KtkUi5jsi71eg0tZAO2USMgEnwXuwrOU0R4gdFFINDF5H+ayf8Ef3aM1P8BUv97WULYSVZhG/e5iYCjg6v9Fq7y6z3JLKzqg7pVBBY+7BBg8t8oAADfXycTfwff63pG20oCgZX9HnP7dZtHP9dGl1eERfBLowVgAugTl5FnF56Ss9c3pfxxBa1ed1y9JbX+/cxsIFb7PZeeJCGJxOj7f/nb29h14UtUdOxFalYhYmOSEMUZ9CnphQQAafSjD4G7oxWcmCA8bI2/T48Pr61Zs0aD+/tDmP78I79emCz7iTkJZSUlOr6eK5PtrcwJBBZdnjt72vczpk+5M3Xq5J+nTJ78ZNLkyaT/2UpIdmAkuwlmzOA4YUNDJK2uQvPxq9jz+V18QUvnn7n6f3EIcM+5JebDLWo7rvz0Cw5+eYv1/09R1nEQJQ1bUFFN4V9jGTbUrkZbWTpKUoPh78rphpznoL1MrPIXP9bTXvTLcu2F9wx0Fv3IGv9HNmbGh/y8VxbmZWbaVJSUTG1sbHxptTT/yPPdu6+X9wi8OnKB6uujl6mnkgW4KTQBojtAmhz4fGhQNwgQpQDBBLAcYCGMgsgEsEVwngOBgFQOeEtiA4RZkA7NgvQCOEGQ5QDT6LESCLBNYeLPmEoAMJWlADIBz0GAVdI4yUfAJJogIORtigrfJKMwAgsIAuY5aeB9ezIBBAFTCAImregGAaP1aSWsTythQ5YETOWxyopMANkAfykGINB2AELsZRHFEkE8gUCiywCkuMki1W0AMtxZAvDoj/SVMgQGMkhj5K7qh1IyAtVMuI1cedcxBDNQFiCDWjIDTUIrQEDQJIABaft6IeBjkq707IMSj9dQtuo1VBMQdJK2PxAug+PUDpyjmPA82wjPMc4QAJwgADhCAHCQAGAfV/87CCi2Emxs4v46CADW+fRDI/dRt7IPaj36oMmdbIAHkz/fWyfBSgeDiV+6r81dbPs+aHXrt6PN/bWpW71feSksa5mIXz1//vzQsPj0OJ/IFNb/O561dX2DYzR/+YEWfy+uEAUIEElCAAJh/vM1jWROXruJzpOfoKR5K5N+HhLiU5CUlIXU7CJOqIvjoCkPeDtZws1a/6m3k+nFPXt2Gp3etOmlYlD+HV9TPAWvivG3tRUVUxNjYlYG+HrmO9vbbtPVXnpt0dz3H86dNQ1TJ43HxAmjsWTJYgoAPZDXuAMbL37HiY4PKQAks/PC6p/7+5XdEZMBb9Ai+MJ397Dz4+9I/59DSeNmFFc2oXxtCdZXr0Z7eSYaCuORxxZAVyuq+5cveqa7bOEv7OW/5upow4TvVZMQF+eTn58/h8LGN3sNfP4dn5Le1/ztHgEKA99YLKvCjgB/sgC7RmmrP+gBAWJy4EQyAUITMMlIeAQQCAgQ8LxFUNIE2NMnwKmbDZBKAp5v0/+fPf8EAgahdAyMGkdDIFL/yUz8qQQAadMIAMR2ElsEu0sCFmwfNI1mSSBciArfpDDwdbYIDuNQoqGYJUCApSpfVwUTjakLMFTCWD0ljF5OIKA3CJrGCjAlEPC0IAiwGoAAKWQRaiuLCAKBaIcBiHckCHAiCHDuL0WKswySRbjIEBz0QyaTaj7BQDGBQdEqGRQwVjPplvnKopHsQDOBwDoBBggKmpiwm1i7b/RmwubKvYpJu9y9D9a6cuv2GqrcWdMnpb+Z9P5BAoKzpP67CAKOk/o/wtX/Pq7+91D9vzOQ6n+CiY3cn1TjJwho5mq/jom/1pWMgAuBgSuTPd9b+/No431tfM9tzjLPuL3V4iQb0OIsN/23++H6+98ZV5V/3rpz5/yguLQa99CkR1ktB7Dj05u4cOsx7jLTi1a/npVhT5IQ1r/3RYvYLa4QP72BliMUANZuQAZtZtMycpBFv/k0zqKPjQxlJ4ATvB1MEOxp/1mUv0fDxePHVQSt/fe/w95H/jdH4FUm1j7p6SED3dzclFatWjWMbYRz/H087T1XuoY621vXLV26+IaZlc0jn4hElO04j91c/Z//Sfg6dJ9XcU57Lj3g7gF/du3OLzh+7UdsOP0FKjcexGq2DxYUrsXaghy0rM1g8uf+MsKQEOiEUB+X00E+Hg3R0RF2uSkJszMSo95xc7NU8vb2lisoKOgrPmP/ze/Q+6PeI/AHPQJsERynPVSbJYG8Ucs0LtIt8GeKAp8JADCe8Ws5gCBgCj0CxOAgqRxAJmAOAYBgAhbQNniR21scI/wWqfy3oUNxoD4HCBmFjWFyF3X/SRIIsJNAAAFA+hTYEQQIoaBVwniWAygMjKSvQLAwG3qDmgAyAQQBcx3UKUBUZYsghYEm1AQIAKCvhFEEAGOWK2I2SwJaRvKk/qgLsBgAX0sBAmQRbC2LcBtZRNoNQBxBQKKjLFIcCQAYSY4y/xHO/ZDGRJvlJoM8ggABBKQtwcAab/oGUDgoQEALWwjXEQA0M2E3swzQTHq+kbR8DVfmlVyxl7qQEXD5sxRlLgQBHn2xhQn+sAAB1AqcIAA4ytX/frIJe1hKkAAA97WZsYHJfz2jxYsMAwFADQFAtXMfNDr3JQig6NCNjAC3bbzN5N8dTjKPWp1kclucZIziXnnlT7/3T64QmrVu3GhAANDmHpb8dHXncez/4hY+usMe8b8FAJgp7lJB/sHNB9j78V/QdPASAUAnMukyl55dgNzVpQQA6YiLCEYIAYCXgzGiAtxOJkf551y+fLm37/+f8KERK2wCqz719fVDU1ISZsTFhesH+nsnLtfX/cbW2f1RaFIeqvZdwYGv7uMDCgCFtkMk/Bcv4rYAd/dY3/nk1s84cvV7rD/+CcpY+88trkZubiHW5qWjuTgNNXmxKEwOojW4I2c5rNoYFxkcX1hYOGPTpk0aO3bs6O3u+Cec495dvqRHYJL28NHjNNVcR2urf8D2wPtjtdWfiumBkiZAv1sTMEF0B/zaIshyAFsE59iNYKJ+HfMFEBBeAXQNXMZWQW3f5+WAECZ3ggDL+EmwTpzCpE8WgEDALo0gIHUyhYETef94/nwsnQVZPiAI0PUnE8DugAWuwyVhoNAETDenJmBFtzBwAjUBo/QGY6SuIksWLAnoy7O9Rx7upmQCLGQRYNEfQZayCCEjEGUzALF2skiwZ/JnxNnKINqmnxTx9v2QYs+SgBNLAmQIMlz7I9utP3Lc2S3gIYs1XrKopm6g2Y+DedhK2MbyQCvLBK0sGzSTohfRJJI2V+kVXKGXOPVFtk0fJJn/GXl2r3FF3xeHmfRPUVB4kiZEh4IJAkj97yWY2MmywxYCCVHrF0K/NgKAZgKQBheyC04cIOTAkoBDX9Qzmh2pDxDhwJZAvt82btvtZE632cnklZq+Iv977wioqqrqV1ld6x8cn7nfIzKTSeJDnLp+H9cePMVDsfpnVhCJoSdZMG/Q/Y8mMawRn75+D9svfoOGPRckAJBXXIW8wjKsLilHdmo8x0n7IdrXkSYxRshIiiirqSyxeUn/hH9zv1ZxcfGg/MJCAzNru89XhcY9SqloR8vZ73GGpg5fPHje2fFi9hfnmOeWxA4HBD3Bheu3sZPajoZdZ1FQ3Y6MzHxkpaRibVaspPwvSQ9FZrQ3Z4TYPc1Ojgitryqb+Zs7CL1vqPcI/C6OAMsBijMU5cZrDtXi3IBt1AV8JYSB42gUJMyCJkpsQLdZkFQOYIugxAYIx0B2CMy1FyCA8wOc3sAi1zexlEBAk34BYoiQQfBoqv7Hc1TwRJoCTaFb4FQyAgyJERBAQJQJyAbEjeNjRkndBHqBYhLh61joNoyagKHUHahTE6BKJkAFE4yGYDy7A8aQCRilOxjvaQ/CRF0FLNKTY9vPQHib9EegaX8EizCnJoBgINa6P+IZcVYyCDPvhxDzvoi06It4275ItGNJgEk1zak/Mp3ZKeDSHTncFlE7ULGKDIAAAfQSaKNwsNWbwcTfwmhmNJExqKe+oJbgoYz7ybfpi3SL15BCILDW4TXsIGtwhIn/FMHAAe5jH/v69xBEbGfSFyBgoxD7cR8tLEmsIyvRxGTfQABQY08gYMfge6yzY+nBjj9ntBG4tNv2e9hu2/fSeut+rhv0Xxn4u/iM/Y03mZmZKRuVnFYQEJdxMTB9DVpPfYHLFH9dZ434MUViPYm/J1cIAPAL//uWNrJHvrqNDV1fonbnWZTUbURxVSPWVNRg7dpS5KdGIS3KC9H+Ds+CPazuFGYkrjywa9e4v/E2eu/+Bx4BnqtXoxITR0XEJjRYOHvdC0otRenms9j66X06+z2ltkOs/rvPrPi/J57wvP5MBPAttR2HP/kO649cQjn7/jPz1yI5LgFpMZFYkxyBtenhHAfuzdW/05Mof5frJXmp5rRzHv4P/BV6d9V7BP5gR2DBK38WPgFjlqmuGrNMrZRswLWx2mqPJRAgSgK0DBaaACEOFEyAaBGcbjGctsEcIGQrpggKceDrBAFvYrFUEhAggK6BfqT3Q8awzj+OLYAEAfFTaBvMIAiwSxX6gMmMSXQRHE/NwBhpxoBoKVzuT/thz9fJKozgfofSlEiAADX6BFATwO6AsQZKGCOYAJ3BGK0zCFMIAubpyrMHeABcjAbAc4UsAgkGws37I4oRTWYg0kIGwWYyCDLtR4DQl/cRBBAUJNpQE0CGIM2BQkGWCjIEGKB2IJeAoMiV5QCyAeuoC2gT0QMAuPJvYUgggACggcxBNRN4KZN0vlUfZBAE5Fj8GfUsEWykyv8IV/5HCCAOEgDsY2//TgKAbQIECLEfV//rWY5o5fPFir+RK/86Jv4aa5YEGFWMWka9NX9OBqPVut+zFqt+37da9mtqN39tcofhK7/LViaRKNiHrRgSGVcbGJ/5aXheFUVi3+CTOw/xA2ng/wwARKIQ7X8P+N+X9x+zVHAbHWwRq93RhbVNW7G2rg1l1Q0oLy1GUXoUMqI8Eetv/zjS3+Xq6uw4/ZMn96n+wf6q/y2/7nHqLBIzsnWcfYLOuYfEPYwvbUP1/k+w9+uH7O0X/f/iTHZfxLWeeMz773H1f/XmPey6eA2Nu06iqK4TyWwfTIyIQGp4EIoSgrGa0/+SQz0Q7mP3MCHU60JhdvLirq6u3+XfwL/lBPW+aO8R+FtHYIqe+vDxOmpkAtQ6WAr4jqWAhz0gYIIoB0g+Ad2aADFBcBpBgDRASLgGskNAMAGiVXARSwJCHChAgI7/SOgFkQkIn0DHwIlM9JMlNsAuRQCA7rATPgFJ/BnLAWbRo2DItkJdggBN7zdoFiRKDUMJNNS7WwTJBAgQMJ7lAMEEjNRWxHtaihitpYAZ2mwX1BsAWwNZ+Bgx4RMEhJINCDWVQahI/iYyCFzRD/5GfRFGEBBl1g9xBAaJ1gQBttQK2DFItadRSJjByKGOYI0rpwp6co4AtQHrCQCEUl+I9KjI7wYB7hQJMhp5u9qB7YJcuRda90HqCpYDyARU2P4ZuygcPMougiNc/R8gANjL5L+DsZXCw418bieT/3om/1Z70v4EAA1kEupE8rcU0QeVBCtVjFrebmSss+j7uMWs37ed5q+5tJj2Gf17nBYoxFn19e1DvQNDtwYlZH8bv6YJO6j6vnbvEW4zGTz5TwyASBQid9znf1f5mD20iG07dQ3VFJdVtOxEVXMnquqbUFVagJKMSGQRAMT5O/ycGhN4oCA9brqwG/5bn/ve+/9xR2D79u3TE9NzAs1dvO6FpJU+y205iHWnb+DUzSd0/3smlXae5/9fkz+Zf/zC1f+PbO0U9H/n8Q/Y2rkH2ZztEBcVj7hAfyQH+SA/1o/Uvy9i/J0Q6GHxICspYnNBNvuOe9s6/3EnsHdPf+wjMIXiwFGL1EawHJDFUsBZAgFImgBpdkA3CyBNEBTiQM4PmC4MgyyFa+DrnPJHgSBHCs8TJQFHlgTIBohpgpreYlU/mm2C4yn6mwjzmEmwip/MkgC1AQQCgg2wIxMg6QKSCBTIBojRw8JuWNtXmA8RXDgPp2PgUAIONbYIUhdgzHKAYAKkcgBBAIHAm5qDMEpTAVO05KGnOxBuBjLwM+KKnxFAQODPrb9hX/gZdEewcV9EPAcBCQQCIhItqQ2wISPAjoJ0RiZ1BMVkBKrIBrSTrpdW7Ez27ZI6n2DAldoAhlDvNzORNzCR1zKRl5IJyDb+MzKN/owC0z9jE3UC+wkejjHx72fi30Mh4U7e3sJ9bXBiKYDPa+fzWrj6byaAaOTz6yyoB2DUMKrM+6DCjFszsgOMepM+T9aZ9L3QaiIT1G7cX+33pgc4evSoTEvH5inuPoFngxJz72bWbMSBz2/iGzrA3ZUAQA9R3JMu2P7HQvFtGsh8SI/47Z/cQsuJLwkALqK6Yz9qWjahtqEJNaXCICYK2dEEAH72t8uLsoqqSwve+mP/Vf9rfnueqT/R0yEmMDZ1j41XJNJrd6L6wFXS/w9wlbX/Bzx/LxZ2elb/oiXwFlv/vvzpAQ5+/A3qthxBQUUzkpKzEOZDLYeXOxJ83ZAeznMa5M4x4dbwdTL5qba8ML6ltrSX/v/XnN7eV/kDHYH/M0lbVXmcprrBWC2NInYHfE8m4InUIihpAjhBkLMDuocIsU2Q8wOmmT+fIWDFsgCBwGwBBFga6LEQXurJaYIsCegFjiEQmADTKBoDkQ2wShCCwJ52QbGlaVAyywVxZANoLGRAEKDjR4GhJ5kFqSQwjJ4E3bqASSvIBhgqYxw7BMZKJQFFvKs1SIrRBAFzyAjo6Q6AvV5/+Bj0Q6AUfeGrTwCwnFu9vvDX74dw436IYWkgToABc4IARjLBQKoIS5YGrCgQJCgoZydBG1fsHUzaHQQA7Uzc7Uz6ItoY63hb0PhNTOSCwl9r2gdFxgQCBn/GaiN2CTCpb+fjDjPxHyD1v5f72s79bHWkHoDP6WDy76CYcB0f18SVfyNX/fVM/nVM/NXcV/UKggCj52HI28Z9HtYa9j1Yb9AvsqJbD/C7MQgqbWmRX712rbaTp89noal5j4pY7z3xzW189zOHxPwNACDq/8JD/jw94jd/SJOY419xSMxl1Gw6grrWTahvaEDD2ixU50UhJ5ajgAOdfmiuqfTa0tLSS///k7+8hKBz/aZtc+x9Ig46+MfeDsmsRMmOD9B58SZOfPcY7P77K1dHAet6AIBY/X9D5f/Fr+nrwNp/UV07ktMLEB4QCj9HB0S62SPGk4p/f1cErrLhiHDLhwFuVp+1N9XpdnR09NL//+Rz27v7P+ARMKU4kJMEx4/TUnPn4KB9BADXKQp8IE0RlGyDnwMAwQSIDgHRKvjcPvh9goDZ1t2dApJ7oPPbUpeAppdI5qPZKjiWK/wJbAOcRF1ANxMglQPoHmifJnQBE6U2QfNY8bhRLCEQPPgKNoGAwlmUG6gLsNIg6FBlOYDiQINuECB8At6lLuAdbW4JBCayLLBASw6GOgPgtFwG3nr94MekLxK/n25feIsgEAgmIxC1oi9iTAgAWC5IYLkgiZEsAQGWBaghyCQQKKJosEH05DNpdzCRr/8VAHS367Vylb/uOQCos+IcASbtUgKAXH2WAwxe4+3XKOLrg71U/O8jiNhL5mAn97ONpYPNFPhtIADo5Oq/lUl/HVf8TRQs1jP513M/dSbdAKCSib+CUc4Q16sN+nxcrd+npsbolXcLtH8/BkENDQ2Disr+L3vfARfluXytsaTbTSwovUkRpfel995BmgV774C6oKICgihV6b1XFezGaGKMKZqmiSaxxKix98p8Z96FRI25/5vcFO93d38Z391ld9l93g1znjNnzmzyjpg07fSChLRH2XDzO/zjdfrpXwAA7hH/CW0AHwEAtHx5Dc5yZwEAvsKO8X0AgGZCGxqVdwCANPH09uWY+VNTWRaGFjWp9e9f+DeMd/7V1Tt6p20qjAybueTzyLkrH4gz6ynvne+p9evr6P1/JPF14Kz/xIUBANP/tzEZ8NtLN+nDkz9irsMhWpdTSnFxq+HfMBOGXyG0aHwYRoBHYtTzOJoVFURzJobcWDAt4pPaimJDCAClxk5/4bmVvvT/+ArIibq8MspJxhJAoETLacgRbZchDwWfAAgDddyHQRcAAIA2QT0AAT3MEOgEAYJAECDAtEMkKIpkZb8S2U3GHIHpYAJma5EXmADfaN7t61AYmwahRTACXgGRAAJh3CbI5YBlWugkUIeYkHUBymTHuoAosAtjh2N+wFDSAwgYxR0Cnm/9bBgkaAPQJaAEbYCyfV/SsO9NFohAh9dovCPKAEj8s1x60gznnjTNCYHjfLACiz3BBIANWNYRYhwZDCz3RyshYhUEhRsgGiyE2K8OCbsBibsRx0bU7RvQr9+I5F8L1X4Vavhcqy9hut4XDoLYta/37EHr3HvQBhxrAA52Yte/F/39e/AabYhWvOYWPLcJu/96AIBaAIAqJP4KJP4y7PxLASSK8dxCRAHARIEHgACAS557z8d5rj0u5rl2n7PJqYuM+L/EH6C+vv6tvIKCCWFRU35atHoD5cPP/8hPN+gKqOB77BOPZP/shfvHfwQA+OCn+9Tw2XUqf/8cFe85QWXbDlNJbROVlBYDACRRYdoS2rBizr01MdO+rqkptdm/v+m/ulviRf8TdPjwudfW51ePmLUsacfY+QnXp8Vn0frGj6j26FX64Px9Ooupjpzon7wIyR/UP7s6Xoao8+PvLtC2D49RTmmL4Oa4aMZcmhkaRjP8vWluZBDNixpDMyeF0eQwL5o3NeybVeL5RdUQkeI1/2tYrxf9PErfn3QFnr8C6BLQtn9bXst+iCfaBN9FWeCeNrwChBZBsAGd5YDRAhsAIAALYQMeKyyYB8E3QBgohDo+DIS4U8BqAs8SUEOXgCbYAOgCYiEAXAYmYAXmB4ABiGQLYQABdg4cs5xLBWgTjEXpALoAt9kq0BSg22AyXm8sXjtsKHQBQyRsAHQBI1ES0AYjwM6B6mADWBug7NCPFO36kLZtHzKx7UU+Dq/TZIdXaCaS/yzEdMceNA0xw6kHgEBPikViXQqtgBiAgMFAvDdYAcRyHzADEBauBRjIBitQH8rU/SvUwgAAwUCgHkm8DvR/NZJ4JZJ4OXbwxbx7RwLfiB17hhvAgFsPYVffAJCwB8/fjdfZAZV/K4BBC2j/RjynAcm/Ds+rgmCxEs+rQMIvw7EEzy1GFOB1Cl2hCeBw7vkgz6nn8Tznnj45bq/+V9RE16xfL7Mmae3iMROmXIlNSkfP90H6EtPf2Af+/m8AgJtIFj9gTOz+i/epFgCg7OB5KtrzLQDAp1RSDQBQUkTlm1ACSI2hjIT5V9fGzX1/8+Z6TakA8Pn/W/9Z9+ZV1xsnZxcv958Sc2vO6gJaWYDa//4f6J0f7tO3t1H7fzLzd1xnQHAfpZ6b96D8v3SDth/6iso3v0OJa7Np4cz5mPkRQZM8vWiqrydNDQ2gqRFBNAVzHSYEe6ADYMK2svxNUez092d9BunrSFdAugL/YgU0ME1Q3XrIaEwULBjhIHMT5QFBHDjSFS2CQkmgwyvAC4OEYB+sz+2CAghAuyC6BYxRFjADGyAZKsQOgiqYAaAOXQAS+wJ4BQAEBInZORAlACR/CQCAOBBMQDCEvoFgAnxj8Nj5aigjQFg4TREdAvAhiBiODgGAgKAhpOuPkgCzAYJAcCCsgwECXAYABIANsO9Hanb9SMuuL5nZ9SIP+9co1OFVmuT4Ms1gAGDfXYhZuL4ASTUaZYJYaAaWIBgIxHFASBjvDSbAByAAQCAfGoEatOY1grpvQQ2/iev42P3XI7HXgr6vRiKvRJQjkRdDcFgAULERTEOGK8oBSOilYAaa8bhdePzO4FdoGwDAFgCAFnQoNKEkUY+dfw2SfhWeVwFQUo73VIrnlrgABIDBKOQAewEA8LjAqce1AqeeKwscX3YWY/rjvziVL8SPktPTZRNT1q0MmzDl6pLkDKrYfYiOXQYAYAbg4aNfMQC8Y+TugDN3H9O7Pz6gmqM3MDb4IlrMTlEJAEBhVQMVFRdQeW4KFQAAZK5acCE5fv6O5upiedDEPV6ID/3/2ZvAKel6+PCXg5ckZ0+aEZe2M3LemodLc5oprfFD7P6v0dErjwhYjR52JP3OA59LFv7dQe3/p1v36cipi1S3433aWNpAccswxGlsFE3x8aMoF2ea6ONBUaG4Hh5AE8L8aGqk343YeZNzm+urLbmT5P+zJZV+HOkKvLgroGg/ZJi6vXysmr3sFXX7YWi9g0cAmICRLAzkkgDKAdwqOJqdA7kkwEyAvyQMIRI0CmKBIGsDuGVQAgLspjATMEIoB/hDGMjlAMEfgEFAIrMAEAlCFMgggMsBXougCZgLEADbYYcpGFHcUQ4QOgSC0CGAkgD7BQhMANgADZ4hgHKAmiO0AQglexxt+pC+TW+yt32DguxeARvwMk217S7EFBxnO/akBSgTLGYQgFiGpL0MYkExugqWIeIQ8Z6YLuj1GhT6AAFoI9yCXXwLaPwmAALe2TeC/q/FLr4Gyb/SpwdVAACUYjdfiES+CYk7C2zDRuceVA46vxUJfycDAUQbYgvKBi0AAA0ACQ0AALX4/dWISugVKgAAygAASsBcFOE1igBYivB+CxEFjj125dn3FBfbd2E71BeaGk3NzFRYm5KShhLA9aUY3lO55xB9jR7waxjz+1sA4BoAALsEvvMDAMCRG1Ry8BIV7jlLhW2fUkF5PRUWMgBIpfzUJZS5ZvHptcsXNGRkJA6S+v//NX9T2P63omWHaGbcutyIeQnXZ6zY1J5cfZDy9n5H27+/h75/1Pef5f6R/BkAMPV/HYZOp3HO9x49iTbOzZSSlkuLZi2gKb5BNMHFjcY6OtA4AICxIX40dgwi2PPxgmmRJ1fGzok5duzYELzMC/0d/2tWXfqq0hX4h1ZAw1lukIar4jR1B7lLqnaypGoznNRsZUjDSUaYJqjDI4U72ABhoiAbB4ENYG2Avt8wlASwWwcTYMrzBMAGsI2w1TjMEpiC+j4zAfPBBKBNMDgOmoAESTmAdQF8PXg52gfF2hg0hBbBBerk3gEC7DGHwDoK/gMQB5pFoE0wBOJAAAGJaRBKAh5voUsAQABswAhnMAIAASoO/UneFmDAGvoAUW+ytnqDxti8TFE2KAfYMBDoRjPACMxBUl3sDOdAgIFYF7ABiKWIZS4AAhAVit3gGeAJXQAYgVoAgVbYDW8Flb8Zu/gmJPFG7OAbQP3XevcAjS/ZxZchkZcAVPDuPR9JPMce5QD8jgYAg+1I+rvwvG0AC1vx+BY8tglUfwMYiXpENXb7lUj6FUj65fw8O0mU4HqxPVgGux53iux6HCwRdRcVQLvxD31N/q1fu3btWpVViYkF4RMm3xSnZFLN3g/pBJLB9fsPQQ0/PSsef+iFpHEVAOB7AIA9Pzykqk9uUtH7lykPAKCg9VPsHusoN7+AyvLWU0FaHGUnLTmRmhBTnJIiltaJ/60z8vsexLvvll27hs4Qr60dvyjx1PjoVEoo2kl5+05RwxfX6Yvr3PYnEfnx+eMLJ34OnEaY/jymM1du0Ucnz1HVln2UnJJNSxfF0YzgMBpr50jhtrYU5mBHId4eFBbkR+FBPhTu53R/XaK4IC8z1en3vVvpo6UrIF2B/3gFNBxk+o10k/fXdJY/o+4o90jVXpaUreQQMqRiPRQ9+AAAHYwAgwGBDQAjoIuygD66BBgAGAcBBAQBBDATIAwVgi4AIMCBmYCZHSCABwkt53IARgrDLTAMxxAAgKA47hzgzgANiALBBMxWxRAhlAOmAkSgHCAah/bDCLQJhslgmiD7BUAg6MO6ALYQZl0AA4GBpO40AIzAAFK2G0BKDAREfWiUqBeZit4gL6tXKcyqJ02wAhCw6kZzkVwXgSFYDPFgNCIGEesEIIBY5iwBA8sBBlLAClSgg6AZdsOdu/hmJPJG7Pp5J1+LnXwN7+KR/CuQ/EuRzIuZvgfIyHXAdZQiqp1eplY8dgdiO6IVO/7NeGwzHtcAtqABgKEWj6/B4yuR/Cutu1O5NRgBRKkQPduLrXv+WGLVIzvLusvQF9kgCANk1JbGicsjxkfdEq9Np5o9H9AJKMH/FQC4jMzxLQDA7rMPqeKTW1Tw3hXatPscbdqCkbHF9bQxt5AKczMoLy2eclLjjmWmrty0fr2413/8xZe+wK9WID23TjY5p3hV6JyE81Pish4tzWqijG3HqeXYDfrgwgMC+/984R8AwD2cxx9v3KVPTv5AW/YdpvSsIloyN4bmRETROAdnCrUQUZC1Nfk7OZI/AEBogBdFBnk9mhTqcy4/OyNgT2ur3K/ekPQO6QpIV+CvXQEdT7k+2u5K7lqu8qc0nRUeqjnIk7K1HBLoMFICCFBlNgAg4GfjIEEgCAAAJoA1AUIZgFmAQJj6cIeAYBzEpkGcwGH6Mx0tgnM1yTuahX88LAjjg6EJYCDwJADwBgDwXDhCKAU4zUIpYBp8AsAEWE2QdAeYwTDIiJkAaAJG+w6ikR1+AZoQB2owCIAugAGAqoMEBMiLYCAkgAAJG+Bl9QoFiXpSpAjCQFsIA+3hHIiIBhCI6YhYJOxlSNhLGAg4wS8ArEAuNAI1aCXcAvp/K3bzm3kXj509A4B6iAtrkfxrkNQrkdQrkNTLEIVI6vlI6IXYwZfh2ISftWHXvx2xDczDVtxuweOasPNvRPLvBABVeF8MACoYAFgBAAgBYGHV81qJZc/WAtsuWhmiLm/8td+IP/7qDABixUsrw8dNuCVOXk81uw8KAOBGRxfAQ9SIn7zwLQYAJzsAQPnHAAAHJABgY8unlFlUT9m5RVSQm025acspZ138V1nrEzbm5a2RdgD88dP03GdWV7f1W51RbLYoKbs+cmHi7dlrimlV8W7K33eG9py6g3kOjzDxT7Lbf/YcSnb/aPv76TodOPo11WzeS2sTN9DCibNoun8oRVrZULC5BfkDAPg4OZG/jyeNCeAygNfd2ZPCjpQVZltA0zHguW9Meqd0BaQr8NetgKq76pujXFVsRnsqHNN2U7gHJoDU7ZkBkCVFy+GkYCFDSpZDSRVswAhmAzpmCIwCANADABA6A+AVwKJAgQUACDADCLBgTUCkMtlOwo5+Bpv/sOAPNX8MEQqJhzEQbIJ/AQDoGogGSMDIYY/56nAYVINHAEDADH4+dxjgtVAOMBdcA7k7AEyAP08UZAth1ga8LZQERrhAJMhMAECAig1cBFEOkOew6kvaVn3I2KoXOVi9TsGil2kykuxsmx4UbQtxoB2AAAcAQSximRBgBOxfoRVgB9JdMTIYib8N0YrYAgDQguTfCAq/Ecm8Acm8BpR/FY6ViHKAiBIkdgYABShBFFpD/Y/rLbhvBx6/DY/ZCpCw2aEHNYGNaMR7qMfjavB+qgBQKhEVligJmAMIWAjRXmbZ43KpSbcJJaZdVP+6b8N/9sqxsbHq0THR1WFjx95atgZz3nccoBM/XaOrdx9AHPaIfgsACAzAGTAAAAD5AADZu3+krKYjlFbYgLnxxZS7aRNlp60AAFjx1cb1qzfyvPr/7J1Kn/3kCiChd8str/VcmrIxJWDWiodzEwtpZdEuysLuv+n4LYxyhrAPqr+n4Vsn9d8utHhevHmXDn35PTW07qPMTOz+Zy+iaT6BNMHeicYYm5KPhSV5ogTg4eJCgf5eKAM40YQQr3MZKSvX5SQnS5P/kydEel26An/XCmj4DXxDz1vVVNdH4dgoD4W7I90VsNuXQ7KXhRZgOClbDiN5UxmS4zAfSsqioYSWQYgEIQzsKAMY+MmSIQebBgltgrAQRpugRRj6+1EKsJss0QN4LUDrH8yCmAlgTUAwgECgGCWAZawDYJYAAGChBtoIUQqYw6JAVTABAAGT4RgIYSC3CArlgDFsHww2gIcJdXYJeAAEQBug6foWaTgOJDUIA7lDQBWhglBCp4AKQh2dA6PQPmiD1kEPmzdoHJiB+UjQ0Ui+SxCxSMSx0A7E2gIAIJYgxAACq8EOFGD33sIJHIm/DbEFSbwZSb0B0Yif1yFqwSZUAUAwnV+OHX0pohAJvQiJvBTRgN/VaofX6Igt+J3N2Ok3IuqR9Gvw2Go8jqPKDGDADIyAaXcqM+3xoNy0e32VSTefPWjh/Lu+H7/n9wgMwNLY8pCw8FuxKxOponUPfXPhCvzg7wvGMM8CAN5JXhFKAO20+8wjKj18kza9e5kyd55Fz/kRSs5voLXZJZSRk09ZaYmUnbLyeHry8vzUVDE7xUnFYr/n5PzGY7d+883LH330kdHEJaltkQuTL0yPz6bVxe9Q9vavqfrINTpy+TE6NZ5W/TMQ4IDmT1D9X7p9jz47dZ4a2vC8rEJavlBMM/3C8P+WPYWaWJCPoTG5WorIzcGBvDw8aIy/B40L9rw1bVzg/nfe2WWydetWaevfb5wf6d3SFfhLVwDDgl7TD1DR1/dR/Hi0t9KNkZ6KEP3Jk2YHCFC1Hk6KAAEK5jIkbzaU5M2HoEQwBMl1iDBamH0COj0CBMMglAOEFsEgJGuIAy3CkbzHY5QwWAD3eRD7LeLhQNwZAE0AQAADgIBlbCPMDIEmeYIF8GQtAASBrrN5bgCYgKlsNoRyQBReLxKvGz6MjEIZBAwhPYAAXf/BmCOAsoDnINJiAOAETQBEgQIIYCDA1zuCBYNaCH24CpphxoATgECoLVoHkfTnIjnHQCsQi1iCWGqNcgDuZyAQD4YgBcm9FEm+Hjv8Nuz425D4t4Lib8HuvglJvwFJvQ5Rw8G7eQTT+cVI7IVI5kWICgvs9i2x+8frtzIYwM83I+m34DENSPr15t2ptiOqkfirjLpTJaLCuPujSuMen1UZ9VxQJ3r1hTQHSkhIUIlfHl8UHBJyMzpuBZW1bKevzl2mS2gL46lw7Pv/7EUiAmynPQAAZQwA9l2mjO0/UFrDEUrMbaLErDJKYwCwYS1lpCacXJ8YV5qbmyIVAf4JfxXYca+wskExJiV3+biY1K+jlqbfjd1QR2ktR6n8gx9p1/d30KJJdBenDez/zxc+ixx8PhncnQLLs+/wl2jZrKHk5Um0eOJ0muTsSaGmlhRgaEIexmbkaGNL7tj9+3l7UoiPM82MGnM0Zu7knP379w+RdnT8CSdT+hLSFfgjK6DkpPSyfpCShoG/8jt6vkqXRvsowotfHlS/nMAEqIMJYBCgJAIAQDlAzngIyZoOEYCAig1AADMBaBFkPQCXAzqDtQHMBnB3AFsH20MQ6DqbBYGa5LtYW0j6DAKeBgBwCFwMEAAtgMd81gOoC+OHHVEKsIdHgA3KAdwiyEyAeTjEhzAMMgIIMAhkv4DBeN+DSNt9EPQAb6MzgLsDJB0CI+AZwKHBwV0DLm+RGoKPowAGrAAEfNA+OM4aA4ZQHlgMrUAskvQSHJdaAgRYgREAGFgGMJBmCyYAYGAzwMB2UPhtoPC3YrffgvuZym/oiHok9lrs6iuR2JnOLzVBm58xgIARbuN6HcDAZtzfhuTfiuMWJP9m3NeIpN9g0p3qETVI/NWGCAOAAByrDHrcqjbqkVtn0t1C3OXFYwFSUlKUEhMTc/wDAm7MjxVTYf0W+vzMT3QJ8+AFAMBbxmcukjbAdtr7wyMq/0jCAGzY9gOtAwBYldtMqzLLMUGukDZsWE8bUlefWr9mWV1TefnbeJkX3hfhj/z/+Hc9h5NuWd0W2ZTsSo8Ji9d+GhWz/s7MVQWUVHGA8t79gVq/uUlH2e73meTPp4/PIkgByRjnyzfoyIkzVL91N61PXE/Lps+jmb4hFGlhRQH6JuSlZ0yOZpbkaG9Pnu5uFOTvScFe9o/E0bPLctKTo/6uzyv9PdIVkK7A81YA8wFGBQ4bYhCoUoX43iBAmXR9lVBbBxPgoYAELwtvAFlStxsOIABhIAMBlANkTYaSrBGAAFgB7hbgtkEeJMSdAYIugMGAoA2ATwDKAdYTwAJMZ5U/7/C1MBSIjYB+DQB8wAJ4CSzALyDAFQOHJOUAniIITcBEtAhOQMshlwTABhgzGwDToFG+g/GemQVgAAAWoAMEsEBQEy2DWhALcnAbobb720Jo4qjuhvIBwIAeHu9o34dCrV+jySJ0CGC3vgxAQIzgYyyDAcQKgISNAASbkfi3g+LfgeDd/GZES0c0IbELO3ok9RqEQOeboiwAAFCEhF6s351KkdTrkfBbcP8WRCuS/mb8vNkQzzXgABuAx9Xod+sIgAG97oeq9Lsvr5bp8urzTuc/eV9qaqrc6tUJa3x8vK7NWrCQcsprBFX4+Rt36Aa3AgIAPAsBbmJr+cM9ov0/PqJKtAHmggFY3/YDrW04Sis3bablGVWUkFlGKRuyaF3q2osbklfs2rlzs4LUCOiPn2nk7q77Pv54YGzyxumzVmYcDJ2b/Cg6rYZWl4LC33OaWk/epS+vgfrHuXn2fAnJH//cw88u3rpHH36FyYC736OMdTkUO2UOzfQJpvEiOwrSNSR3hCMYACuRDbm5uZGflxuN8XN7NCnC/+y6xBV+J06cGPbHP4X0mdIVkK7An7ECXbkTwCREpcAoWPlrw0Bl7NyVQOsrot9fAW1/cqTjIkeaTtAEMBtgK+kOULSUEQSCcsZDBVZAzmSIIBZkoaCWi4QVMOA2QQABo0Aka5QChOmBM9XIE9MDfaLBAiztBAA65LcUfgEIf4QvWABvlApYD+CJ8FggGSPMIMBxOsoBU5TQYcAlAWYD2DkQ9sGhMCcCEzDaZ4gAAkY4SVgAFgVy8tfmxA/vADYTYgAwEuJBFhB2BgsJtaEj0HYHEICY0AxsgQfcBceJXqWZFmAFzAAEkKTF5rATxu3lAAQZAANlYAm2INnvQmzD9Vbcv5Xvw7HFHNoA7PYbjZHIEbyjr0LSr0RSL9dDXR9RiusVSPRViEZEM6IF97XgZ02IRkSDLmIUwMLoblSt0+18+cjubVkqaAns0qXbn/EF+LNeIysra2hS0pqFnh6ulyfPmEnrNhbQ+0gQ567epBtsBgQvgGcTyi3cARNAev/iYxgB3aLcdy9RWttZWtv4JSXktdHyrDoSp1dQYkYh+srX3Upds/zo1uZmo23btrExkvTyO1cAyb/blj17Bi1Yk50YFb3uUOTCdfcWr6uipJpDlLPzJLUcv03fYNt/FaI/5PhfXR7ifLHb3yUk/6MnT1Nj83bKyy6kuJmLaLpnAI0V2VOggRG5j9InOyMzsjG3IgdHJwqA/W8wqP8xvk7X1iWtTCzMyVHk9/I737704dIVkK7An70CpugEMAlVywEI+Mo4RBkJWwkmPwAAPgpo95PHgCA51PvlsMsHE2APJsCGPQK4O4B1ASgLgA3g0oBcBxugbgcrYS4NeGCioDdAgC8o+zAAgEmYAIihQe4AAN4AAH4AAAGCBuAXABDAgkCwAD4AAawX8BQCbAB0AdwdIJQDoAmwnQw2AEyAaDy3CYIJCGMAMBQtggwABkPDMEhgAUZgV68JBqATAPCo4ZFeoP7RQfBkjISGQNtrEGmijDASZQRdaAmsoBPwBggIR+fANItXaBES+hLEUoQYgCAZQCAXLEEt6PttoPG34f42RCtiKwDAFjymBQCgCYm/HlGL5F/DyZ6TPhK7AAKQ3MsRfLtWSPbdqAmJXgjdbtSIaODQ6UZ1o7pR5chu14o1ux/aqNxFJ+UFYwFycnIGr1+/boaHu+ulqKlTKSk9h/YfPU5nL1+nq6gV30XieDapsLHMRQCAQz89htXsbcrdf/kJALCN4jGBbtmGKlqdWUJJKevvJa+O/7qxrs4WwjGpF8Dv/EOAhCtM+FuXW2YxXZzeGBWbdmri0iyK29RK6VsxgfH9H+mdM/fpHBgZdGY+9wKvH7qGro4z8Po/8MnnVFZSTelr0ihm3FSa5OAG0Z8l+Y02IGeEjYk52YisycXVhYL8uPff9S6c/07mZa2fUF9c/NbvfPvSh0tXQLoCf8UKGPvJvGoapppoGqbysWmoMjz+lQQQYBigCEpfAWp/eQwHkkNiBBCAOFCDSwIOAAJgA5RREpCwAQABDARQFmAwoACxoCpAgoYDrIRd4RjoL0tWEAOyTbCrYBPMw4AkWoAA7Po58bMegMsCnaJABgGsCWAg4MVMALcIohzgBE0A+wTYsmMggwC0CZqHy8InAK2J/kNplNcQsBDQAqAMoNEJAHj3D88AHRgI6QAAjIaZ0Gjft2As9HZHIOkLJkMdYkIAAQ2UE0aiRGAIFsEGpYFg0Zs03fJVWoDELwatvwyMwCrEelOI/nB7G2Inbu/AbQEI4LgVdf/NoPSbkdx5R9/QEXU41iAqsbMv0+lOJRwjAQaQ6Ku0Qfkj6kci6XcGbldqdqOiEd0e56p3O79J9aVZzAKIX6BJgTt31vcvKSkM8vRwPhc5LrJdvHoN7Tj0CX17/ip0APeFnSP3jOO/ny+wlRcMZj650g63uTtoAwQA2MYMwFeUULiD4rIbKXZdJa3IqqUVazPbVyyPP99SXxm2VToO+Hf/KUDZpHd6UbVxbGpuXcj8pNtTl+eSOKuZUps/R/nlEu387g6dhuiPd/lPXvgmB2MC9nQ49dMVOvzVN1RT00Lr4lZR3JRZNNXFk8IMzMhvlAG56eiRyNBMoP7tHWH84+tBgZ6O7Pt/YtGsSaVtbXWD8VLS3f/vPoPSJ0hX4C9YAVGE3CsWY5TnmYUq7zMLU8a4X7AAIUqoqyuiHAAQ4AcmAGwASgVCsC5Ay0UWyXU4gMAwtAsOI1UriT5A0RylATABrBEQWAEGAxANqtkMe2QapPjQJkrlocssHgWMXX4MKH8kfP9lsATu0AMIQ4IEVgA/W8JsALoD4BHgwy2C0Aa4AwS4oDvAcTqEgVwKmNRhG4zuAGOBBQDz4MPDjIaAsXgb+gV0BUD4p4X5AdruA/D+Ed4DnwIAegFvAzhwAAR0GA2N9kHyByMgCAu5uwDlgZEoI3BpwBHjiMMt36B5pnAQNOlJy5HkUxElqN83IHbj+i7EDlxvQ/JvRWzBLn/zaIAAJPxGXK/H9Xpcr0XCr+Gkj0RfgSjT6kalSPSlGt2o5IkoxPVClW6Up/QS5Sq99GCTctevsrVfdstwHjjoL/hK/KGXLC0t7ZWdnW3n4+n2TVh46P350THUsGM/HTt7gVgHcOuBxAvgyfzCYjLWARwD7bzl63tU/MFVSt92jpIbj6MXvue6wQAAQABJREFUfS/FbWyhaACAZQACS5M30bL4hKs1FSUr6+rKZP/Qm/wffBKWuCvRmVfXFdbOiF6bXx08J+nB3DUltDxvO61rOkolhy/ToQsP6bvbmOaHBz956Uz+fJ5ugcH59sJleu/jz6i+YSvGMydRTMREmuHuS+FGluQ1So+csPMX6ZmQCG1/Ts7O5OUJVgBtf2EBrjfnTI3Ia26WDvz5H/wKSj/yi7wC3AlgHqE0yzxceQ8Cg30AAsYokwlAgBGDgECAAH8F0vOTF9gALgmM7AQBTsPhGYD5ARgkpGojYQTYOEjRAi2DAAJypgIz0K5oIXMDr3HacpzKDy4z1do90A3gE63Vjpp/ux8SvQQASMyB2B+ALYL5Pv8lAABoEfQBEPAEEPBYCBZgDpsLcXsgGwUpwSNAEZ0GcgAAEB4GYWiRL1gHdxYmDgIAAAhAWyCXAbSgBRjpgQAI+JkBAAug598ZYAMweIiZAA52HBTaCwEEBH0AdAKjURowdB5Itg59yQ/GQmMtX6fp5hIgkIaEn49k3wSqf6cQYARwuw2CvlYk/a1I+pux029G4m/CsQE7/gYk/Vok/RpEFRI/7/LLOZDwS9URagACiGJcZwBQCABQoPDS43zZLldz9F5fk2bb3yMnR/eFmIzHbWUAAfqB/t6fhoQE3Zw6cwaVt2yjo9+dpbOsA4AQkL0AngUA7DB3EiNmt528R+WHr8EHgAHA17SqdD8tBz29OLWCYjKbKXotDGYSUm9u3JhVXFy8SR05SdoJ8H/8YeE1atq//82ckiaXGaBRJoszj02J20jijW2UUv8xfP5P045v79C3OAlXnqj7dyZ+PvKUv7uPHtGFG7fo8Odf0+atOyk/M5dWzphPMz38YLHtQAGjjchVx4Bs9YzI0ticrGzsyBPJ39/HHap/p4fTJ4bui50/YzrmDcjAL0J63v6P8yb9sXQF/rYVEABApMo08wiVXQjQ6Sq/AgFGgQpgAwACfAACwAQIJQEWCLpK9AFaKAuMYDbADkBAYARkJOUBbh00G/oI5YGzo7zk9lpEKL7vNFP1sce8EUzvI/lrtft2lAIC4QsQskJiEdwJAiRGQQABAALeDAIWoT0QRkGCIBAmQXZPAACTMJQBgjGyGNMKdTxhWMQAwAEAwAGlAOzcNV3hAeDWHyAA4Q0mwHcgwAKXAXBECECggw1gp0GhPIBRxKOhFxgNjYAOgICW52CUBqAxgE7AwOktsoaxkJd1bxpv8RotMnmFEoxepnwk/M2o9e/EcY8+mABEGwBAKxJ/K5L+ZkSLNoAAohGJvxEJvwEJv24ERH44VuFYgYRfoQpGQBkgAFGC68UAAMUAAEXyiKFdaJPu6x9kWfdbl5ihMcgP3Rx/2xfmN37RF1980bO2tlY5bIz/3uAgv0uRY8fSpspqOnzsW/ru4jWhdsydAEwld144wdzDP6fxz+7T9zEQ6DplwQkwuekbWl1+kFbk7RAYgEUZLbRwXQVFr8m5m5Kasg+CQ4NvYGLzG29FejdWAEvbtalp/5vZ1VtHJGRVbIxcvO782Oh0WpIBg6Xaj2nT3tNU9/kN+vxqO13DFh9SjJ8vTwKAuxBvXrlzj46fOUdtO96h4k1FtDYmnhYGhNN4SzsKRrufh44u2Yw2JBGEf5aWVuTo5EwBmPoX4uf+ONjb7uqKZTHL01OTjKUnRroC0hV4wVaAAYBFpPJEiwjl7Z0AoPNoFqoENkBJYANMwAYYAQQYgAnQR+j5yqNTAPoAaARGAgywUFATZQENMAIj7Ie1q3eAARWbYffAABzSdB2+zDRMMdFhhtoN19nq7R4LNNq9ozXbvRfzLp+HAsEdcDlPCRyF4OswDBLcAiUaAYAF8kIpwB2CQJdZXAZQQRlAGWJAJXQDyJNJKFgAAAD2IBgFl0JN58ECAFCzh0UwgwCUArglkEGANoMALgd4DUD7YH8a5QdWACCAQ9ePQUFnIPkzCAAbwGWBUd7wG0CwYFDDC68PMDACYGA0WAZrOA16WPeiSeavUyKAQKkekj92/e9ht78XyX8XjtuQ9NsAABgItGL3vxkJvxnJvgnR0BF12PHXIOHXIOFXIuFXKEqiDMdSBYQcYlhXKlLoRptGvXoqQawVKxbLsTveP3rhhAMvgH6TxkeWBfj7fOvn503JGVm096Oj9BXKAFfgGMdCwGdZAGw86RIS0EHQ0E1f3kIf+k+U3HyCVlcdFsoAS9dX0/y0Bpq/ro4WppQ9jktYfSmvsDDkyJEj8v/oB37Bf/mZM2deTS+q81qRUVbqP3vN/VmrCmlpZhOl1H0CrcUFavvmNn1+rZ24E+NJUMYoAJt+IR7geOH6TTp++gdq27mPctdnUeK8aFoUHEFjLWzJH0nfY6Qe2UL1b46dvwgtf/YOThD9eaHu70Chvi5X506P2pydnaYsBWwv+BdG+vb+N1dAw69LT1GYqq9pqEqjGXb/zABYgAmwEK5LSgI/AwEGASgJsDagMwygEWCxIGsEBKEglwech7cLYEDQCQy/pWI7tFLbaai11Vgld/tpqp85zxrxwG0+t/lB6b+A2wI1iUsBQUj+QQABkkApAEAgkMsB0AWwZTCXArg90BVWwY4zYBWMMoAdOgIsxyuAtWAAAEtiGBDpoQVRy2UwNApvg5HgIUHsC8CzAgAEMD1QA3oATYAAbU8AAa++Quh49yMdH4ABDl8AAsQosASS4K4BAAAkfR3ESCFQGmDzIYgFmRHQdAVDABMiPTADVgAD/hhLPMv0DdqojxkCAAB7IeTbp/YS7UTS345ow86/Vf0l2oL7Nqu+RC1I+o1CvEQNyi9RHRJ8LZJ+DaIKib8SO3+OCkQ5QEDF4C4ABN0f5Dj0O7Vile6UJeWmGv/0N3j27Nmvxi2NTQgK9Dvs7ORAsXFx1LJrL3107AQSyR26gzLAA24HfKIUwMkHEgD6DMlo+7f3qOTQFUrbeorW1H5GCWXvU1wWkn9KFc1d10Dz0ppojjj58Yas3HV11dVe//TnfRF/P5az27YDB95Kya2KnRafuSd0YcrNuRjus7JwD6U2fEqF712gfWfv00mIL2Dz/1RJBqdBSPxM+3Pb5sXrGO/7xXHasXsf5W/IplXT59J8vxDQ/vZC8neB4M8OdX8LJH9LDP1xdnYiXy93tPu5UkSAx9WJ4QHvNNRUiGA89ML5VryI5076nqQr8LevgK5ulx7mkUoOJmHK5QABD38GAJEMBgAAOMAEmHUwAdwl0NkpwC2D7Btg4K8Imhwtg0K3gCza7mTbAQKwCwcb4CR7Q81eZqOai6KuKErDzG6q2h7nmep33WANLPH+57bAJwDACgAADgEMMACASJDHBnOLIFgAtgt2hVXwLwBAGe2ASmg1lMwgkAAAFioCANi/hcFA/UkVLIAaQMAI7gxAn3+nOZAmWABtDwkAGOnVD6UBAAIAgE4goOMDEOADEIDQ4dZB7PyfDwDABLih9RDBQEAX4kNr237kZ9mbYgACCvRgFawDcSB2+btB8e9C7ES0Ifm3IrYCAGzGjr8Z0YTk34Cdf4MiygJI/gIIQNKvRlR1AIAKBgCDulD58G7t+Ua9biYtVs9csV7fbXabQz98gf4xn3zUd19JWrNqYXCA3357e2uau2gxVW9po/eOfEHnrt2km2ghu4/BQE8CAE46EJ/T8RtwBDx1nyo/ug4zoNOUWP85rao4SMs3NmPnX0nzAADmrGuhWXHrYQy0qayksDBKaiP79J8L1Ni7Z5aV9U3OLrNYvDavfLI445uxMaD90xsoqfZDytzxDdV/do2OXn5EP6Lsgo6/py58LlCloftI/nyuvvvxJ3rnwAfUUNdE6fFrKDZ8Ak1z8aIwEwz30dEnB6j+rVH3NzcTkS3c/tzdMewHLX9BXk4UFRbw+ezJY/M/OXhQmd/X0+9Ueku6AtIVeFFW4CXTMdqqSPBrzcKUroEFaGcQIAABHJkVMAvr0AWgQ8BEEAhKRIIsFDRhQBAEIADvAD32DoCB0Cj2D+CuAVgKQzB4ZYSj3GIlp6EyFuNl5a0nKic5zlS75jKb7X41QOerQ93PIEBLoPyDMSkwGFoACQAYRYEoAwTES1gA32WSMgDrAJy4DDCNywAqaAdUAmshjw4GOcF4SB/eA50AQBmTAVXtwAIwCGCHQOzQRzgj4P6nAWGgpltfSbj3hdofkwM9+mFnDzDwc3C5gIMnD6I7ALQ/Ow5Kgq+jJOCOQPLXQmgg1BBKAAKKYARGohXRF1MJZ5u9iVa/l2k3dv37kPD3InaqvERtOLZy4PoWJPzN2O23INE3AwQ04XoTkn2DrCTqcL0GUYWoHNKVKgd1pYohL1Fm2PCbSbEaFbENNp6zq415t/WPgAAk5J41NZV+wYF+jVYiUxo7YTzlFJdQ674DdOoiDwa6S3cePKRHnGWeuLDK/Ayy0YfnuQxwm3J2/UBJDcdoVdXHtDJ/J3QA5TQvtZZmprbQ1FXFtCwp/as1Ketyr1692kcqKpP8GcESdq3esmfQmuwKm3mJ2c0h89benhK/kZam16Pm/5Fg8Vv/2XU6ekXi8vdkzb/zVDzGzv8Bzs111PxPX7xM+w4epvL8EspKSCLx2Ek0xc6VxhhZCMnfHrt/C0NTMje1hOgPk/7c3SkQLX9h/u7tvq7Wd+JiF8VXl5fbvSh/5KTvQ7oC0hV4/gp0BQMw0DhEYalxiOKPJqHK7aa8649QFhgAcz6iM4CjEwhwp8CT17l1kIGAhBGQtA7qgRHQ9ZJ/CDBwSsdtmIeWy/C+aDnsYztZ3cV+2ogTjjPU7wMIYOyvKqb/jUCvvxaofuz4Qfsz9c/BQIBvCwAAXQF+4g4dAAsB4QngOI3LACqwCAYLEAmWIhQliiA5MBJy7dquQ9ohAmxXsupPStb9SRlMgLJtf0wFlJQEJGCAywI8K6AfqTv3AzPQF6CgDwABwh3h0acDFDA44FZCiYUwtwVKnANxZCvhJwOdAppcZoDeQB26AxWEMrwEeAiRM0SDsaa9KH/UK7RNtTvtl+9KexW70i6lrrQdO/82JPytSP5bkOA5NiNakPwbhyGGAwQI0ZXqcKyVQQxG9EcpQOs1yhgnd21FrvHHMVWWbrMaRP+IJoB35Nu3b9cJGxO4wcnB7ro3Zr/HJyZRcW0Dffb9abqIboCbd+9JWIDOrIMjwwG2nj2Of3affkDF8ANI3XySEus+o1XlByguo5YWplbRzORqmg4QMG3phgfzxMmfHP7ggEtLS8trz/9a/+/cy+sOd8Rh4rSiVbNX5uwOnrP2wfykUqHVb239p5R34DztOXUXgj+Jv//T8EtC+zMm4+R/+eZtOvb9GST/D6ksr4TWLoylZUj+k+1cKEDXmNyh9rdHWBiYkoW5iKyh+Hf3cKfQQNT9vZ3J393+xoqli3OTE8QjYA71QnSo/O98E6SfVLoCv38FuppNHt7XOEhxPqj9EyYhio9NWPwXhoTKiT+c6XVJCGxAR1lAwhIwEJCEYCLU0TpoIJgIgRHwVbiu7yN/WMd7mD5PHmTPAaupIzRsp6jutJuiegF6ALJHAnfuYAF8lyDZsw9AHO/8mQV4sgQwknyXAgAs7vQDUEcZAAACr2E7GQBgHN5HOAAAZg8wABjtKfONttuQDzXs396r6vDWJ2AAvlaxH3BW1XbgVVW7gXfBCjxQtWcw0A/lAYQjQADc/zScO8KljwAGGBAIAfGgwBggufPYYS03BOYOcPBtIcAqaKLEwG2HwuAhZ5QfADCUEWoAAbpoIfQBEJhp3YeSjd+A6h8GQtjp71LoSnsABrYj+W9D0m9F0t+KJL8Vxy2IFgCAZiT8JkTD0K7UgGMdB3b/dQO7UpVMd8pzeftBapzWBXGDKHdxs5Xlgia7Ib//q/CfPQN5vCu3eo2NGLPE28vlO2dnx8fzY2IoPa+APvjsKzjIXaGrt+7Q3fsPhDLAExiA0AlIp2AN+MEFzAX46Bqlt52i5IavAAA+oPgc+AGkVdPspAoAgM00MX5T+4y49FN5RSXx9fXb3sLr/M+2lhUXb3s9NbNMYe7KDdOnx2XsnSrOPjNteT4c/rZB8PcR5e45RVuP36SvkPyZ9mfR5ZMXbPpB+2PnD9r/GoSa35w6SweQ/BtqGihzxRok/4k029OfxmCn7w7K30Ho9TciC9y2sbUjJxckfez8g1D3Dwv0uDQhNOBg2uqVgenp6f3/s2+T9NnSFZCuwN+yAqZjVd80ClaabBys+KFRsOIjE9T7Tbnu/ysAwEkWwawAtww+EWa4zj8TjIQENkCRtQFn9PwUG0f6yQztImlV68osgFWUapp1lMpR64kSCt8JidyVWYBFGBSEnT4zAQFc+8dRMAuCbbA/QtIK2AEA5vwCAOxQBhDBadAcAMA4WJ4MAuQeGwTINxsEyqXo+sjOGekxNAX2wEUwB2pRdRx4CJ0Bx9TsBnwPEPCTil2/q4hrKrb9oFXoe1vNvs89dfveD9Qcez9Wd+jdru7UG2WDPtjN87E/AsmdxYRI5pJgs6EnQvi5hFUYAVAxAuCCxxOrohSgCHCgBS2BFdoKgwEgVpr0ogoNDBJSgjZAFkwAkv0OxHZEGxJ8G0BAK2IzAEDLUIAAJPymwV2pEfR/IwMBRB3KAPV9oQfQ7UWbxso9XlljeVHcYB0bWyeyFReIXsEX6G8tB7z33nuvTp4cNT40JPg9kcjiYdS0abRybQrtOPAenTx3AcIysAD37glJ58lExJT0xfvtUKY/pqYvblHO7nNgAU5AB/ARrSjYDiq7lhYkldC0lGYav6KMJi/Pv74yOX1nYXmtBnsQ/C3/o7xgv4SV9esLKxWXpmz0mhib+t64mA03p8RtInHOFtD+n9AmJP+6I9fpCGr+7O//rNEPr7+w80fyv3WPR/tepv0fHKZ6JP+Nyetp5eQZNMPVkyItbdDqxzt/fRj9oObPoj8o/l1cncnbG2Y/2P0HeNo9gNvfJ0sWzE7bsmXLILz0P96a+oKdLunbka7Ai7sCegGKTvoBCgX6gfL32QXQCHV9Y+zoGQgIYEAABGACkOSFsgBAgNAtALGgBQsGEWYIUwABCAqxE2cjIaUDmDIYLYedf+cnF4m6dLcIV7K3iFAqFY1TemALEOAwXZWcUA4Q5gTE8E4fdD+AgG+sjsQOWBgKxHbAnPy5FRDaAQAGp5kAAZgvYD9VlawwcRA+A2hZRKuivxwYDOVEqyh1F/zeriFiw1424zXfFk1Sk7ONUNOyCJe3MA1VcDYMkIsc7S2zQMtt8CoNl7cyNR0HVKk69H1X2a7PZ0rWvS4qWfe+rWzT6yECpYPeiD7QE/SF8RGAQIewkMWF6j8HaH8h4ffF8ZcAsIAGAcHPZRDgN5h0w4eT7QR5CvcdTHPt+lPOiFeEXf8e9Pi/O6QL7UaS344E3ybTlVoBBrYAAGwGANiM+5uR9JsYBCAERgAAoG4IrIUBAtanG9DKBqvz4q222xZXm1t2gIDO5f9bjqlJSbaxixdn6uuNvufr70cz586houpq+vT413T6wk909eYtCM0gBuQM9MSFTYHOQguw78wDKvvgMmXvPEurhW6AAxSfu5mWpJXTzNVlNCmxkSYkVNH4hUl3Ckqqojdv3qz7t3ywF+iXYNm6HTr0iX7M2tw142LWfR2xIPXxotRqeCdsp5TGz6no4CXB5OeL6+0Cu4KlfeoiCDGx8+e2zCu379D35y/SXgj+yvOLKCN+Ja2YOJWmOaGuD4tfDx1DskHN3xw9/1zzF1nZkrMrBH/+XhQS4Inkb/842Nf1q0mRITG7du2SleoyXqAvivStSFfg31kBOP0Z6PoqLtHzk72D3TOG68jDBRAGQMHYVYcgsY6RhCnq7BALdrAAAAORHB0gYKwqQIAqsYYAAsE78BDYZDFG0aQLkv6T78EwRKmXZahKlChc6T2wAQ/tMSPAcRqEfUjobBPshWFBPktGQvGvjaSvKQADN/yM6/4us+EGOHcEjhp4/AiUAdQFAMEjhy0FAMDvW+4xZhusspwwwslPrNHTabphL78pGm/4zZZ5ldsenaYrvSwSy72iHfr26wq2fXvrePbpo2bzZn8N59cHaTsOUNV2GzBaz32I3UjvgQEabv2naDj1WTLCqe8Gdcf+JUj+9WrWfd9Rsu53XNm67w9KVn2v4Hhb2ar/YwQGJSHR2wAocNhySBI/H1VsEDiy7oA7CiwBADzmqZEfIhTXZwNIrNF/k4pUXqatAAF73u5CexE70fLHQEACBrrSZrAAHC3MBgAkNAIQNPTrQvWDMWp4rAKtr7J8lLjd/vqKRqv3Y8osQxcXmak8uf5/9fX6+nqVxMSVYy3NTK84ONq3B4UEU0JSEu3Yf4A+P3GSfrx0mW7duUMPAQKYfu68MD3NLYFfXCfacuwOQMAVSm35hhLgCbCiaA/Fb2yihYlFNHVNFU1YVUMR4pJHM8UpX4gTMxZ99tlnw/5XEk99/c7+pY1bfScuSd8zITb97KSlOQ+WpjfSmvJDtKHlOJV/dJk+OP+ATqGuwqDqlxWWXOfbvO73Hz+myzdu0pEvj9Ged/ZTycY8Sl0UA7X/OJqM5O+rb0aO6PG3QZgBCFhgup+trT25uLhQMHr9g3xw9HV+EBHs/W1CXEx4XmamKkpAT/2//ld/16SvL10B6Qr8CSswyk9pxCgfucm63nLXdH1l2/X8UEuH8Q9bAaMsIAEBAAKmHFwiYG1AJxvwBAAwBwBAieCxaYjSaQgKV1hEqCvj7T1Vo9WN0u1hGabiZRWuUmU1TvV+JwBwnK4udAZ4oBTgFQ0AADDgNg+BbgFXBgAoFbjgyLv/XwDACAAANbIer4Kxw8wAcCeA/EOYDsVbjle3YwDgvsD0TREAACf9zlIE3hNT40/R4+yoJ5oiekMUpTvAbKyKgnGg7Cgd30Gika5veam7DByH4UKz1e37x6hY9UlRsu5bpmzTtxnH3Ujs7ytb9/9S2XrASdx3FrcvqVj3uYG4pwynQBWAgc5QxnU1iAG1oCUwwyhjF8w38I7RoKAFqmidGk4LoCNINOpFxao9qXk4vAKw898OMLCdGQFEG2ILAwAk/RZEcwcAaAIAaBgAB0GPIZRRZEprt9k9SGixPiOuESUtrTZ3iS63AZR4+vP+CV+b577Erl0tQ1OSVrvZ29qcsrW1eejp400x8ARoaNtGhz/7gk6fv0DXbt6EGJA7An7Zm3I3AE8IhDst7fruLtV8eo02tH5Lq2qO0IqS/WABtlJ0SjFNX1NOUasqKXx5RXtU7LoLC1ZmZFVX11vmHD78/73oLCmr+K1VGaX6cRnFK5D8T0xalnN71uoSWlG4i9Y3f0H5e0/T1m9u0jEIKn9CXeVZ2l9I/lhnSavfPTr143l6972D1NzQTBtXr6UVk6bRbG9/ChfZkruuEUx+4O+PY+fO39HJCR7/EP1h9492v0chPs6Xp4wbs7Ugc705pjQOfO4XQnqndAWkK/BirwDX5kGJG8Gy97iuj9x9PbTS6fnKkX4AgEAgkirU9UbBCgACiDEKAiPATEAnCLAAGOBSgFAWiFC+Cy1AqVGoklsX8dPJv3MVLEKV1SEqjLKKVL5qM1Gt3W4KdvJTua6PRI8WQde5mhgBrIEOAUnwFEHHacwUsAeAGuyANSS7fzzeHgBABADAGgAAgHbjIIWbACizzcdpGIjEou5OKAG4L1AVQIDfbONXGQgwC8DgwM/Pj2uVDFCeAgOd7/M5x5d4gqL5GNnBJuHDFI1DZLQMvYababm/FTLC+e0ZavZvJaHboExJ1GePokWv4/JWva8rinrfUbTsdV/RqvcjRXgD4LbAFOigm8ABUw19F6nThJTRFL4W/gdodfSDy2GU31CKN+1DG0a+RrVyMA9C0t+FFL4L/f/bwQhsRfL/GQTgZ80DulBTf7ABI16nwuRRlN0oopTd9pTQbHM9rta6OabSKmp6qVKvvwMEIL/0TExMVJwwNnKrhbn5NUuRiMZNmkSZubnUumcvfQEW4PzlS3QbWoAHYAGevDAcuIp/PoY94I5v71LBvouYDniMEioOU1zhXhKjI2De6kKatrKIxq6qo6DojTR9ec6x5Iz8vIqKpiGoNPz/WHvm7+ZLs1NSXl2Rnh8+f012Ttii1JuT4nLaF6fV0pridyhty3GIJy/T9pN36OQtCZD6BVr9svNnAMCCv6u3btO3587T3ncPUHleAWWvSqSVoP2nusDC18yK3OHyZ4WavznU/mYmHbQ/BH++3jD6Ae0/xgde/x6Ol8cEeL3TVF/viE4EqdnPc/5YSO+SrsB/xwogUcthutwoj2HZIz2HndfxGgZzHzn45cvCGhdHhAAGOssDDAZQFsBOG3V/lATACLA4EPQ/J/8jphHqdobj5d/+rQ9vD/rdAskT4sH9VhNUb9lMUoOaH/V8JHje0XOS55KACxI/ewa4MN2Pn9lNhup/kirBUAgdAAANuI81AKKx8AIAADANk3+MMsVFi7GKYQ5TNJQ4wSPRv8FhP0/7dSH5r5ckf2YiGCD4VXfpJsbnfzbw3v8VKOgqJFM8j0scGhpdeiopdXl5iG6X17RcevdVdestr+HdX3+EzYAQFYveqxVMe5XImvb6WN6k1w05szcfKVgwCOiNIUuD0cEgS/7RI2j6Bn2alWNI0xHhiWiDXDyCQjH5cFqgDMWJ+tJ6gIFiWcwaAAjYgR3/TtT++dj2VhdqHdiFtqAlsAldAaVwSMzLNqT0gy6Uut2W1rRY31veaHUqptxy6aIKkZxftQB6fuvU/Cn3r169undy4uoF5uYm3xkaGZKnry/Nj4mlTUXFtOe9A3Ti++/p0tUrKAXcfqoMwGCASwFn4A505PJjjAm+RRt3nAYI+JLiQXGLC3bQYvYFWFNAk+ILKGJ5NYXFFjyKXJR2MTUnLz4np3j4n/IBXqAXYWFldfM2+TU5ZfFhC9aeGLMg5f7shEJanruNkqoP04Zt38LX/zp9CrEfr9vzevx/2fk/ovNXrtGRr76mHTv3UFHWRkpZuJjE4yfSZAcX8jEwIadR8PXHzt/cyJwsLKzJytoOgj82+UHix3S/MX5I/p5292MWTE/NWJ/sLW33e4G+LNK3Il2BP7gCXVVNB7yp4yUbMtJz6PaR7sO+He2qcF3HXbZ9lLcsrHExac8PrACsdvXBCBgEKWBssAQEGEMXwNoAU07A4UoXTMNVcg3C1FS49e+33gsnXuMwmaFoN9xkOVb5gtUE7ufnxC4JTuws8GMQ4IQ2QWcAAAckfTs8xgaPtZ7YAQT4NoSEIoAQCAvBAig8MgtTPG0VruTvFqUxnAFAaJL266FI/m5Ruq/9vPv30+jJ7+HfAAAMAn4VBDr9yXjiMV24lMCfXclv0EAt+/5qSmZviBTN3vQCCJglb9E7R96sz35cvyhn3rtdEz4B+gABTtMUKTRem6ak6dLcPCOatdGIosAKjE/QpvGL1GgqNALz8LglEAyu1X2TNqm8QiVyPah+CGYKvN2VtoIBaAUg2Io9fkXQcCpYrUOZAAAbdjtQSptt++oWm9vxtaJ9S2tEExdXWxpPX+/0lw7T4R1hYWGui62t9SEzc9M7NnCKmzBlCq1OSaHazS306Zdf0tkff6QrV6/SA5QCOEF1Xvj6FRAD36GGvQfugKXvX6QMlAJWoxQgLnqHYjMb4QtQQTNX5tG45WUUtrSIxkRvvDt1Wdq7iRuKAmprW9R+63v333Q/lqHrvo8/Hrh8Q4FoTkL2vKlx6e9OEmfdmL4yn5ZkbRYMfnJ2nqSqjy/RwR/v0w932+kG1o3X78ngdRXsfbHOP12DGdCXx2nXzj1UWVRKG5bF05LICTTTy4+CzCzJGXQ/u/tZAAiYW8DhDzV/J9D+Pl5gBrDzh9ivPdjH+fbksUE7EmIXe5cVFHCJT3qRroB0Bf7rVwA7WZNgeVkt92GxsPKt1rJSOjHSXvYhwACm58lgIM5wgRFgfQCzAYZgAwyD5IXSgBGXBULRQhiq9KV5qHKEyG/gG//XehiG9OtlGqw4DYn7a4CAx1ZI5NwVAI8AYVfPPf5sFMRsgCOAgAPEgvxzbvnjvn/RBFb/q2IccAcAEHQJig/QjviVWaSaq2iK/iBO8G5i3dc4+UeIRQL1zzv/n3f/AAjP7vw7b+P9/yrxd97X+ZjOY+f9v/mZAQq0gof3xeREYwWLfstkjXq9P9zwzYeKYAJGoE3QZMwwcsFuP3y5Ns3JMqBlZWa0sNCEZuca0YR0fRqzBozAEg0KwWMmBMjQIjgcroRWIGfEq1TBQGBoN2p5C94Bb2JWAJwJ82M1KPN9F8ra60gZO+0ptdWWVjdZk7hetDW2RrQsJtdadjqYkL+qJMBisK+++krO29ur3s7O9gcjY2PyDQykeYsXU2ZeLu09eJC+PnmSzp0/T3cgCHxSDMgJi21qsaGlT+Fc14SpdQX7ztG65uMUX/YBLdm0naJhbzt/TT5NBgsQKS6moKUlFDgv9eGytfmbNhZUR1RX73kDL/GvGJzfPFUvwg/EYnopJ2dH79yqJotFSbkrJi1N/zB84bpH85LLaBl8EZJqPkSr5GmqPXKF3v3hntA9gTZ/IfHz+j0JAPj6XST/K7du0bFvv6Nt23aB9ofaf3kCxU+YTFNcQOtbWmPnb0BWoP7NOfmbgva3sSNXCP68UfMPQatfaIDQ738HPf8nk1cvn5mamjr4RVgr6XuQroB0Bf7EFeBds6amprq6ukqRmqHsTQ1bGQzAGYIYiol4MgiUBwAG0DGA8buygkbAAEDAMFjhvFGIYpP1OHVZ0TPK/+e9PZ5DYAQtAIBDG8oIl9nTXwQ1v3UUpvxNAhgA3c/0fmdZwBZlAmvs/gEW4PzHbX9M+0t0CHy0EAyLFO9gkNFm8zAVA/tQ7deFWj/q/saIzrr/kwCgM4E/e8T7/c3kzz/jx+PYqR34+bG/8TpPfXy4Iiqo2b4dPGT0mxeG6r75WNYIHgNwKDQNGUZ2ExXIe74qzck2oOVV5rSy1gJgwJQWFTArYEiTMvQpdC1MklZoC4Bg7GwVmgUx4VKfIZTk8BblWPSjjBnKlJ6qS+nvOFLuu4608R0HytpjT+vaUA5otqEVdVYXoystC6JzRZoL8kzffOrN/ck34sUxc8ZGhjVpaGiQraMThYRHAAREU0lNNR04dIi+PH6cfvrpIt1/8OBXIIBLAT/hn4OwCG7+4gbl7/uR1jZ8QeKSgxSbt5uiN9TRnISNNCV+E41dVkABsWACFm64Oyl2/ZH6xpZIBgF/8sf5215uU3nT21mltRMmLcv4aFz0+ivjBU//elpdth9tfkdxXs/TDgglv4RggoESJ/knL50AgHUAnPy/hwfDJ58fo8bGFspLXQ+1fzQtixxPE+ydycPQjOyR+C0QpqD9zZn2t3OAt78baH8vGhPoTeGBnuTrbkeRIT67lyyeN2P69Ol/KYP0ty209BdJV0C6Ar9egdEao5V0tHRy1DVUbqgbyJE6QIA2FOYoD8DnX0YSAAKjAARG+0AjACCg7y9XDyHhrH8n+Xf+RgYBhv4Ki41C5FtNIxSQ3BUx3U8RQABgAEDAaiICVr/WoPr5Ntf6LTvofjMc2f3PHDoEtgHmwPWrlpFqCaIINTlW/PPun5M/mICfd/8S2h/agD+4+8d7/znhP3u9Axg89+edP+P1kTV/bbCCeb8UGb03fhiq+wYNN4T1MBK4UcBQgBw5cpupTFOQxBflG9OqekuKBxhYVm5KMcXGNC/PkGbnGNAsgIQ5AAUL841oMcoGS3IN0SpnSImV5rQOu/1s7P7z33Wi/P0AAvscKBMgIG2bHa3dYvs4ocH62tIq880xFeaTFuWbKXS8t87T8qcdtzY1jZo1Y8Z0Y2PD64bGJu32zs4UBBAgTkig6oYGiNDepa9PfE1Xrlyhu3fv/sohkEHAWdS1P8K44C3HblPeHswJqPuclpcdophNO2lRWg3NgShwelw2mIB8Clic3+6/aOO9yMXrTi5JzlmUnLFRHy/B5+OFv3RYKQ9Zk106ad7q7Fz4+V+IWpp+f25i2eNlOVtpDdohs3edovLDl+jAuft0DjQJt/k9KfZjEMA9/kKbHwSWNzB/4ZtTp2nX7r1UV1lDORD7JUydTnP9gynS1onc9E3Jis199I3JlHf9qPc7AKh5IvkHoeYfxoI/1Px93O3vR4UF5U2LivBEu2WvF34xpW9QugLSFfjjKzB69Gil0aNGZ2tqjrihoadMI8xlSdNpKLzvEe5DBSAwkoEAQICOz/DHYAMuAQQkGQTK/u4xrcaBCsFQ7mebhsvfM0cvPwR8ZDmOgQB6+8EIMCsgigLNz0I/eP6z2p8Ff6j1/xymLEgco/gQQ41+EI1TmyaK0BjUBbt0Fv4Z+wEARLw4AIDPCustVKwGRA3Te/MIQMDtYfoQBcJHYLTnYBgtyULroABNgBZNS9MjcbkZraixoOXV5iSuMKOYImNagIQ/H+WB+SgTLC43pyVVFiSutaRVDZZI8Na0Hol+488AwElgArL2OtCGHXYCE5DYbPMorsbyC3GV5foFJRbuc8t1B4jET/s1/PFvzy/PhEvf8AUL5vo62Nuc0NU3eGhhbUte/oE0B5MCc4uLqLltK3169FM69+M5uonWwEfP6Qq4BFXbsWuP6J1T96j8g59oPRTvq+F0t7RgHy3KbKb5a2EQlLCJJoo3UUhMHgUu2tQesnDDzRniDWWLVmZEJK7PUWRNwosMBNjSd21+xbC4DcUOC9ZszJgen7kvfPGGR1zvj85opFUl7wqfu+zDi4K175dYD/z3fMEfAAB3V3DyPwd3v8NHjlIj3P2KMiH4w85/8Zhwmgja3w99/Xbw97eAwY+ZkRmZowxgZ+9IbhD8+aLmL6j9kfyDfJzv+Xs4HZsSGT571pQJOr+cXek16QpIV+D/yxUwNjZWMjY0zDHSN7wxevQo0h6lTurGsqRhN6Rd02XwYy2PoQ+0PGTua3vI3AMQuKzjJVOj4ytrYhas1ff3LohhyFAZ/QAZb8NA2W9MQmUfAgigo0ABBkNI+Jz0OXi3D3BgFqqARK8gHHnHL4gPOflDkAgAcBGtiXsdItVH60ZBgMgMAAv/4ETIwSWAn2v/UML/FQwAPvtzd/98P++yO3ba/JiXeAaDvGnfdFnjPp/I6PdqH2YAx0EMLhrthc6ASFmyGSdPLtOUaALq/wwCEuokCT6+2oKWQiMQW2xK0YXGYAbMaXW9iNJA8efsY9rfCdPfsPNHFOxHHJDEJvxM0ARAGJi23Z6SWmzYNfCnpdWi9xaXmvuK603eEu8Rdf+95+//ejx2jErRC+bnaI0ceV3X0IhsHJ0pIDSMlsTHUXpONm3buYM++/wzOvvDWbp56+av6GxmAa7gnxO32mnX93chCjxP2du/w7RACQhYnLmF5mNk8Kz4bIpalkURS3LIb2Euec5eR+Oi0z+JS8lfB0pdu6mp6U3WJvxf7/fv/Dnv+uclFb+elFNhuCazdNa0uKwPwxesuzU2OoMWrquEDfJuSgbYSYfSv+bTK8LExJNwS4JVwq/W6Ul3v6sw+DmBAUzvHzpM1eWVlJ2wmpLnLaCFQaEUChDmZoSdP1P+eibY+VuQBSd/R0dM9fOgAF9P1PsR/p7k52F/38/T4djUCRPmREX59f4710b6u6QrIF2Bf2gFrKysVK2tLMusRKKbFmZmZGxgRDo62qQ+SvmmqoHcSXX7IRVazoPLNF2HpAEMzIbHvYKcqMsf9Z5/aaSrzNDRvsNnGQTLnTMMkX1kFCZHJgACpjzml48I4xAWHCKgN2DPf0nSFxI/GxW1Awy0Wo1TGiuDPn3u8WfFv0D//w4AgOX+zQT+zM+ePTP/1vM6QUAnENBxHKavZD5g1lC9N6/JGPR6PBx6AAXzvmTgJ0NWAAC2UQpkPVaOgmI1acZ6PYqrNKNE7PJX1jEjAH0Akn9skQktzAUrkGNE4lIzythhT3lI/IWHXKjwoDPlv4cACODIgS4gaw80AfAI2ABxIHcIrGqyvi+utvw2ptx8AdgEy2c/2H96ez8Sb3lxsaW1yPIzAyPD26PxXbLHDjQsaiLNgSgwOz+Xtu3YQZ98+jGdPvM93RZaA58mtrHZFSxtv0WP+97v71HD0euUs/N7WoPOgLji9yh6406as66GZq7IpWniLBofm05Bi3LId17mI+85aTcmL92wf3VWyeSi6nrj//Tz/FnPh3FOr7KmNqvFazduGB+97lDwnMTbUbGZjxamVNCy7BZKKDtIaa0nqPjQBWo9cYu+vkl0A8vy3DY/FP3ZVOketBQXL1+hw0c/pzYYL5XlF9AGcTwtHTuBZnn7U4AllP3Y9ZvrGZMJ9/hD6W+Der8jSjPenh6Crz8nf6j9ycfDlsaHBZTNmBgxKSIi4o/+v/1nLZf0daQrIF2Bv2MF0Pbzsp2dnR7U29sc7ezu2FpZk6W5BRnq6dNIHc1jmqNU6tStB3tpOQ3x1PIYYqvpPExvoET1z6K4P3TRtn/79dHeQ40MAoYX6QcNP2o4RvaGcagsugpk2zlwHYlfFs6EHOhAwHXBmAh+BPD/b4dB0TWTMco5orEaZlxj7wQAXPsXieRe8UPbH8e/YgDwxvn9/zuJ/Hmf8d95Hj/mZ78B/l2G7vJvq1r3tx5u0mezjGHv28MMe5OcSR90BgzA5xpGVkj+PDPACUxAQMwImgiTn1g4/a1ESYC1AQmg/eNQ848BCJgH/4AZ63RpabEJKHJLqP/tUPuHDoBZgPck8TMAYBCA2IDHpLbatK9qtL4ZVy1qi60QrYZroDav3/M+5B+5D2WAHg0FBXJjgoOKLCzMv9YaqUMWNvbkHRBEkRMnUXzCKiqpKKPtu3bQp0c+oQsXz9Pde3efKgcgvwn+AJfBBHwO1du7p+9RFYxvMradwNhgtAcWH6CFWVtpztpKzAuAXbA4hyJjsyhkYQb5z0t/FLIw/cfIRRu2TlqSnhaXlu9RVFmvUr1jx9+6o8VHAAsk7lndsmP4qo1ltrFphZHTl2dtnBib/tGEJekX4epHc5MrSZy3E0OQDtKGtq+p6vBl2g3U89nlB3QFmf8+FqITGvGadAYn/5voprhw+TId/eoYtW5tEwx+MleupvjJMPjx8KFQG0dyguDPAvV+MxzNTEVkBaW/Cwx+vDwkNX/u84fFb3ugl9PtyFC/vZOjQsJnzZLS/n/key99jnQF/itXwM3NbYCzA6RADvafuzg5PXBycCA7a2uMADUjg9H6bbrauovxwf5wsv+tRWFBoJ6/rI9uwLAM/aBhn+oHyp6Dre9do0C5R2AF0G0wHIN+hqNvHkf4ERhyBMq1gxW4izbEo8bhivMconS5NakrJzCm/AXlf0fy/zcAwL+bxJ/3Ef7d5wr+AZ0MAL8QpgoOUnEYOHWYUZ/TAAAPhoEFkDXpTaPcB5Fp8DCynwJxJJcEAARcofD/f+2dB3xUdbbH1fWt+7YollWfolLSe+/J1JRJr4QQCKFLDSH0GjqhJBC60qt0ERABhXVFRV0b9oZdRKV3QnLe79wQN2AEV/A93f3Nx7/3zp1bvzPhnP+phhIAIT8GFoAJsAZM2GBGbECk9J8XIoWIG+g0wRfWgkAZs8qEIjF2mYPgv3kaCIgxC+b/GZj5z4QFYA4UgDmIC5iFpWYIjHvUemr0Ossbw1abewxa4P9XLZDU0IP+nG2ViBqfMmlCp0RH/OOeXl5nQ6KixZaYJGktcqVrUW+ZWFEuy6AEPLnzSXnvvXfl8OGDcuaMGrovfuns9wDq275/rEZ2wh2gMQFzYB6ftG6vDFv0jPSHElAydT1iAhZK19JZsATMkoJBsyWjeIZkFlWczyspP9Bv4sOry6YvbTd+5sLgktLJdyxZsuRPpaW7btTUu5/zbFc4Rlsk36jXGDRu8e0DK1Y2KZu5PHPE1KUzSybMe7Jw4LSjbQfOqOkxeqFoVb/Ri3bKpA178b19JCuh4Dz75Vn5ENN+dPP9ockfLFQBOI//nTx9Vj7ff0DefPd92frEDlkye67MGDkGAX9F0iszx/D3OzDjj0Gefxgi/aOiIfwR8JeA7yArA01/NOAvL0NaZiXWtMxMOAEl4P3hg0tKSkv7/5+3lb4CT35MAiTwSxKwWq1xcXb7mMSE+KpUzA6SExMkPi5WzDExCBaKmBUZHJb7S17fXwvoJN0f6BPlXBRo8ng7KNb9TGhmc6MYUUCWpiHei6JE96Eo0X1VwS3vPxKe3+QFpBJ2xvDCfV2vvv3OyPWvm/XXXxoWADOq/zWQAaDHNjDqHrX+Z3Xb6i/rf/6T1i8oAXqO67UpkYv1tslNIm957T7k96srAOviZr8d8QBNJLm3s1E22NT2AQRB3i8ZJa5GzYCBCAYcswaxAYgP0JTBfg+FyIOT/KXjeD8s/aQvKgKqRWAsAgjHYz9d16GWgxkICNRAQXUXqGVgOlwH5Y/bq8dstHwzcp0pY8jKmPvqP+DVrENOXY+6ALd3aNu2ODU56U03T6/zYdEmscYjDS07V7r06CkjxoyRuSgXvGPHNnn3nbdl/1dfQQnQigAXv9QdoD0DYARANPw5eezN47Jo99cybeO7RnbAsAV/l5IZW6T3xBXSY8x86TpipnQcUglrwHS4BColuUe5ZPcuP95x6PRXhlXMX7hi7WN52sAIXQX/5fiVKzGB8P/D1p27Xec9srFl6bRFZb1Gz9rWqmTy0ZYlk6rbDJwqvcYulKEI8hu5YKeMe+QlmPz3ySOvHJRtH56Ud9DJD/9dZPJXgf/9uBDsdxzd/D749FNE+j8t61avQyvfcpnUp58MKiiUzokpkhyK9r2I9I/EzD88HP5+1Pm3I9gvKSVZcrJg9s+DdQB5/ijtq9H+p7p2aP3YjMqK9qtXl14zK9CVOPFzEiCBHxK4PjU19S+YkQcnJycnYr09RuuM1NSE9MREv/T09EYqyH542M/bEhgY+F8o3eaeGB+7MCkh/k0V/mn4RyIFy8T4OLgBoiUoMGixr5dv+593hZ92lFbS8/T8659DQ0OjzNHReyyWmDPWhEgJj/OtCbK5iq+liXiZmpz1tj6wHoWKhkbnNfUJ7HzrLYGdrzOawWiaX12uf91St9Vt16WWw63vj683I/8x4X2lm/+x4y67ve4ecPIbAtPva97MevvAJjGNXr0/8pbzD4TfIk3RD8AN1f9MKBfs6OWEzoioi4BaASYoBSa4BxK6NZes/m6SjyJBHVA1sHh2sAxCWuCQheEyCAGCutSsAY0TGI4xBPUEBuPzoYvCUFoXwYNQHCo2W7VYUNWcnbGHZ+2076/cbt87brO57bj117aLIGTXDSsWL/YpHTasl5+v9yHfgKCaoPAosSIoMD0nT9rDHdBvyBCZOWe2bNm6Rfa88Lx88cVncvLkyYvcAaoOqBBUa8A3UALewfR49+dnZM2rh4y4gIrH3pFRy16QQQ/tlJLpm6Vo8mr0DkDpYMQGdB42QwohePP6TK3J6jXlXFqPySeye0/6pmDAtOcfHDlz/fjZy8ZMX7aq9eJVm+1bn/y7z4svvnj3xt27/7IQglwD9i79EWgZ3IULF/6hYuHCRtqRcPmGLX4VC5bbx89e3H7YlAVlJePnLukwaOpLrfpM/rp13/KjhYMqT3cf/XBNv8krZdD0R2XE/F0yfvVrMPd/JIufPyBP7oPgR3j/V6jqdwYPqc9Z9/pe8GODpvkdA5fPvtovr8Lf/9jGTbJ4xiyZNXqsjO7aQ7qnZ0meNR4mf8z2IfzDMeuPgMlf0/wcKO6TjuI+ucasP1tyMxH1nxZflZ0a93Vp6ZCRFZPGm2fOnPmbraFw6XfE9yTwmyOgwhgC8OZECPqkpIQOkP9DIfynQxkoxxiC0SHeZotGa04v7OOSkJDQJDM+/n/MZvMddrv9Fhz/RxRf+T3e34iHVyH0oy/dLyoq6lb4/pvH2Wy5iQkJO5MSE/enJycb+cCpKUmS5EgwLADBQUGP+fj49Lvrrrv+hBPWP+/1uOYtwcHBd4eEhLjguk38/PwaXbLPj97DpR+YmzT5Q3R0tMluNr8Ya7OejYu3SJQ1pCbY5C2+EUhLDG56zjO06RKvsCZdbQVut+P47823Ktx11An8Or9/3Xtd/goVgOu1bbGL7a+5zc23PtIkstHR+yNuqX4ACkBzcyN0OGxspAam9XE13ADWjk0Ny4C1QxNxdHOStCIXaTHA3XAPDHgYAh7CftiySBmOMQJDgwNHInOgVNeXRhhjtGYWIJZgEhoHTdtsOz/tcdvBaVttH1Y+Yd2INMHkCZuirnld/V27Hm88dcrE5JjoiL2+AQGn/RBXovEAjtRMZAYUyoO9esvYsgmyfMUKVKx7Qt555y05+N13Ro2A6uo673etSFSBeBTmgM9PVcNHXiXbESi3cs8BmYdc+Ukb3kBw4B4Z/PBO6TtDlYCVUAIWoGjQQ9Jp2CxpM2Ca5JZUwC0wRbKKptS06lvxVbvBlW8UT3j40X7j55UPmrhw4LCKBR0HVyxN6jnx4eieZfNCBkyZ79u7bKZ776Ez3bthlExe4NFv4kN+JZMfCu4xerp55LRlGQMnLuhYMmbuwN5j58woGj1nS/fSWS+2G1J5oKB/RXXh4BnSGbEJJZNWGKV8Ry14ysjtnwVz/9Ln98vmt4/Ky99UGcJfn+vip61VBlTwV4HDKVhGvvrmG3nznXdk19+elhWLlsjMMeNkIiL9+7cukAIt8BNlFitS/CJQ2S8Swh9/TcbMH/+OSE4mAv3Q0U9T/eDvP5ubnvBt6xYZT02dOjF36dJ5Tpf+PfI9CZDAL0hAZ/Iq9LH8bwjPP0Mg3w9TfAz87wtSkpI+TE1JOZaGP9wUCGUI59OOhIRv4uPinouPj1+LsTAuLm4i/PZFWG8FBQC6gS04MjLSFee8XwUzxh+R2vffOnB+BMbVDgjzP9mjoprFWa0p8bGxoyD830pLSTqVngrhj6jg7Ix0Izo4FZaAOLsVM4nQLwIDAjb5+vqGODk53azKA5Y3qbIS5OcXGxoY2C08LGwRMgcmmEwmhz7Lz8GGe/8Lnqcj7ufdZIejOgX1yG0WC7IRQsXH20dcmztXOzdxXoHxIM6vSs51Wpu/bkatPHHti2b9KvjrRkMKgB6L01w6Y9dTX83r0vNd7v11SH38q39GYxPKBe9pGt3oOBSAGigD0sx0mwRm3mNUCmyB9sEZaB+cUuyMxkhQBGAJiCq4H6mR90ti9+bSEWmDWklQgwM1dbAMcQKTNpqlAvUBIOSlEqNik1UmQ/CXaWohlIBxq2KqETOwH+PpUavNhQOXR916gcfVPHuDxyIQrtGUSWWD8Jv8yM3d83xQOJrO2OMlLjkdNQJaSYfuPWTk2DEyY/ZM2fL4Fnnzjb3y1VdfyAlNEYQAvPSllgCEBMjHSBN8Hj7zbe+fQKrgAZmBCPrJ696QMSgfPHgeFAFYA4or1kkvDRKEItB1xCzpPHS6FKoy0KccisBkSek2QdJ6lElW78lnWvWrOFwwqHJfx6GVL3UrnfF0yfj5m4rGzFjbo7RydfcRlatKyuZugKB/otvIWX/DLP/VdoMqPmvTv/xwXt/JZ3N7T5JWJVOkoP801CeYK30mLpOBlWtlGAr6lC5+RsrW7kUHv/dl8bNfy/YPThiFjj45icI+eJaGBL8x+8eza8XEYyjp+/EXX8jfdz8n69aul3mY+VcMHSbDO3aW4hZ50tJiF1socvsh/MNCoiRC/f2xcRKfiAI/6emSh/S+1hdK+2amxlW3zEr6tENBi82rVi2P13oJDX5p3EgCJPCLELgewvtPGRkZ4dnZ2S3z8vLKcnNzF+IP9THM7l+AL/50SqKjGn7TmlQIfwhpsaK9ajRS8yLCw6ssJtPZWJvtLB+x1XAAADYgSURBVGboZzBOJycmHk5JcnyJ/d6yWixPW2JiNptiohajLev0mJiYyZbo6HFI8Rtut1qHItJ/VEJc3BwoE085HAkfJiY6TqelplSnp6Wh53eaZOEfixbZGfATZhiFQVQhgDugGsGBh82mmJ2R4eGDIPi7QanoERUZPs9iMeGa5u+wPIvrnoQAXoNrtVAl4V8hh38D4fqw3QUFYDGu940+tw5VACKRRx7g4yMerm7i5uT8tZuz8xOBob5RqoTUXaNOCahb1gl9Y+bfgO+/br8LAq++gK475bVa1j93w+tQYu6Ku+5Pgen3xMESsKup6dbvmkQ3QjwALAFQAjwS7jQsAbnaFwABf7mo+Z/ez01SURJYewnYO6N2QE8ntBh2k57TApAmGGXEBpRB2KvQn45gvxnbY2UWov9n69hhl5nYNg3KwZTHLNVlG8zHR66KeXnYclPnYSsiPa/Vg9c/D77fG5599tk7C/LyZjpiY19t5uQsIQgwjUJEusWRJKlIVyvo0Fl6FJfIhMmTZfXaNfLMM3+X999/x6gYeO7cWbnUGoBzGi4BLRr0KWIHX/72vGxF3txqVM2b/7fPpWLjOzJ25UsQvs/KwIeegmtgk6EMFGE23mPcIuk+ci4UgtnSBS6C9oOnQSmokDZ9yyWveFJ1y+JJ51sUT6zKLppQlVM08VyLoknnIOCNJT6rgnn/PAQ9OhJW1nRB0GGPkQ9LbygZ/cpXyYDKDTJ07jYZsehZ+PhfAeN35OFdX8j6vUdkB1r3voFSvt/gntH36AeCX59JX6r0aJS/mvz3ffYZTP575bHHNsvC2bNlxpixUlbSV/q2biP5cQ5JRXEfkwp+RPlHRJokymwTG6wBmEAYDX101t8Wwj83I0EyEi3nWrdIf3f8qNIHN65dG7TrV1Yjof5vhusk8G9HQGe5MOU3zc/Pb1VcXDytX7++a0tK+rzQrl27t1q0aLEPproDdpu1xoFOakko0gHhbgjBqIhICYHpFMJXbFZLDQRyjfrpIfh1nE9OdJyBUD+SEB//JQT8x0jlewvrr8Ca8GJiXNzzONffEdj39+SkhGehXLwOxeGLZEfC8STMEDD7RzGQZIwUrOvAOkZ6WjJShVKhGKSqW+BsUmLCFzjvrni7/YlYu32bIy52L+7jSEJc7DkoF2I2mWtgAXgDYxYUD+f6AvpyX6TO2h0Oc+OkJHt8fKx1D+7zRBoqk+k92CwmiUBr2QB/P/Hy8BB3N/dTHm7u7/l6eo4KCXFz8TR71lkbVLjqbN5IuTOi2QXvG57h1wliY38cU/del5d71f+8/vrljtHP6p+/ofXrrkMaY2DOPfe72G8f6GS9fU2zmFsPPRB1a3XTmFsF7yUo615JRqlgbSFcACUgb4SXqFUgc4CbpEERSO7tImkliAso9ZaiGUEyBP7+MQgC1Bl/xRYbAs1qlYDZyAaY81SczNaBgEBVDqY+bquagCDAsessG0tXmfv2X2gOu5YpgXVwINduKu7VvWWL7PRKPz/fQ77+gdUhEbAEwB0QmwwFtGW+5KNLXXG//jJ52lRZ/shK2bnrKXkfvQMOffetnDp5osG4gNOYPh9FquAXiBLc++05efazU/L420dkxR4UD9rxkUzd/I6MW/2KoQgMnbdLBs5+QkqmPSq9p6wWVQZ6Tlgi3ccuQqvh+Sgq9JB0HK41BWZJhyGzpN2QmdIeyw5IL+wwbI4xOmGfLiPnSdcxi6TX+GVSjDS+flPXiRYnGj5/p4xaslsmrnlFpj/+rsx/+lNZ9dIB2f4+TP37z8h7h9GdDzEMmuuggY360pl+3asG76pQ0e8kzP0HjxyRDz/+WJ7Z/axs2bRFFs19SKaNHCWjkUHRt6CtFCSlSFKMRaywpkQYwt9sBPtZY1HZD3/LOZnayEfb+UKpT3dIiwzH4fyc5Dc6FhaMLS8vC3oFXQfrvhsuSYAEfnkCN6jPHTP9rMK2hZsH9O//9fChQ8+OGDZUOnXoIHm5uYYQxgxa4AMXCFqBMBctyqPC3x+51GEhIdgWW4PSnTV1wXq1igA0fkNo1grOdBXiyPNNxzCWKtyNgZn1Bf8+TO0CpQHuBR0Ow+cPgQ6zv03iYnFtrKsbIBNKQBaGnisVCgmUDYHy8L3SoNdNwP4WFBwxm0wnTDExb8GXn6YxBpcgNYRfrcB33JSDcr0OR+jNsErc43DEQZ+wjYNy8x2Uk2q9R3V/WM0x6oKQQFQm9IMVwMfLS8dJH0/vfwQEeLQICnJ1DQ9vXGfCNM5fN7vHtQ3zvsPhdJOWBg5MQYVA1Aeo245lw8L4kpuu91b3r3vVX6/b9mPLhq5Tf9v3x4VmNfXxTLi7bXPz7S82Mzc6AgWgqokqAebbJao1zP2Y8ReO8ZW2432lAEsV+C1hGchEUKAGCyZDGWhd6oVywgEIBAxD7QCTTIQrYAosAdO2YvaPaoBznoqXuUgFfBipgHMxVBlAXQBBcaAzI9aYn+m/NGpEyYyIB7So0gUF6vv7u9qVbdu23Vfcq1darM38kqeHx2mfgMCaUGQGmAwlIFWSkL7Wsm076dW3n4ydMEHmL1yASPed8sH778nXKB18SgsGYWZ86UuFqOYOaM2ATzG1fhO9hZ+GWWDjG4dkFYrqzNv5qUzb9J5MWr9Xxj7yD8zOdxsugoFzt0s/xAuUVD6KokJoNFS+BgJ9pRRDMShGRoGx1PVJ2AZB37dijfSftk4GIJhv0MzNmOlvl+ELdqEmwW7jvJMffQvulvdl4dOfy7rXD8LUf1xeQAH/D+GvUEuF1vGvL/D1Oeq/P1993sjt/xq+/vc++EB2Pv20PLJ0mcyfMVPKh5fKyG7dpXdevrSB1SQ+ArN9CP5wHfD3myyxYo93SGIyhD8i/fNza/39rVDaNyPJdjI/J+W1Hp0KH5o9bZJXeXl53d/M1X6lPJ4ESOAnELgegu8OzPx7Yrb/YvduXc93aN9eCtq0kdwWLSQRAhWzakEVPgTvRBhLnVVDIEpocDBmwP6CWv1iNZkMAayz9tTkWqGvyxQMVQh0xq7VvbSXdybM+drWMx3bdH/kYxupfajOJqYYdACLRFWwCPgNI1AkBK1bI8OQLxwaAmUjUIIwEPyH2XeYsa8FgtiKe7NZzIaC4EhA57ALCodmDhgKAD6HAiCwAJyAArASbgK3+ly02BBcHLfm5KQ0zUSWQ1ZaUjwsDr2SHHErEWvwujUm+mQ4rp8QZzeUFH0WzUIIh9ITjGcPhBUgEByCMLBeDYXorUB/38qgGL9Es9loRXyRUFbzvyM/9GZ7SmSYPT4izZoQnmHPiIqKz/G8TYME69/bhfU6odzAR8ami87/YztdYXvdNRpaGod6osBSaO69Ya5xty9vbm30flMT3AFwCTRH3wCvpLuM1MACdAbsUOaP4QeFwE9aX7AKZA50l8QiF0nvW2sN6ItGQVo9EGZ+mKJVCYD5Hz0D1ArwEIT/w1AEdKm1Aoz2wegcWLrWfLx4QeSiTlODg3MGBF7zwjnPPPPMrauWLk0PDw16x9vL65Sbh7eEQwmItsaJGabr+JQMSUVcQOsOnaRHn74ypaJCHt34qOyGS2DfRx/I4UOoF4AmQg0pAipQdWatygB0APkEVoG3j1TLc1+ekyfeOyEbXjsMy8A3Mm/XZ0a8wNRN76Ko0F7DVD96xUsyctkeWAqeQ32B3TJs4TNGnQFdDl+8G9ufR0DlizJm5cuIn3gNQYdvGj792U9+jK6FX8qqVw/CBXFCnkau4t5D1QhUrG1vrLP9+kIeby96aYiD9kM4jVm/UdTnzbdg+fibrF61SuZMnSpThg2TscV9pKSgQPIh+JNRwjcGQj8sNFJCoQREaCc/xFMk4+9R/96N/H5084PAh9nfIRkO67le3bs8OnxI/7ZQwO7Exa/F7/gKP3N+TAIk8D0BBD/9V1ZWVkr79u1XduzY4Qx87/DpRx4PDQk5EhIcfDQkOKhGBW4QhH0EBLL6vu0Y2AdCO05atsiRLp06SvvCQsnOyjSad2hsgM7GawUxZvYQxPpeZ/OqUMTH2sRus0CZgFCOjkT8AAQ8hGlQYGCtQgFB6q/Dz692ifUAX1+U//UzZtqYoYkOf2xTAayC2BQdZQj7dCgUGYgbUEUjCwqHWglUyVBrQnx8XBUqCn6amBA3LjUpqTP2a4cAw0H4vBwz+6UpifE7YUF4BWmG78fZLYcs5ugTERFhZ5VBSGCAqGUiA8oLUh+N66lSoEqJjtDg2hGM/aAEnAv09TsY6OP/dnBg4MPh4UFdwk0hGdbU4BhLamCSzRZVZDHFzLXFmF+xmi2fgOdncVbb27CwLLNYogebYkMybDn+HuEoI/z9F1W7Ul84X/LRNXlb//yXrusFrm+CEsvBLe+5zyv5zgyPpLsnO1tve6uJ6dZTTZEd4Bp3BxokPYCgQDcpnOAnHSf6SbtxftIWFoHWI33gJnCXDI0R6OMmWQM9pCtaCWutgHHrzFK+yQyTPxSBJ2y1MQFqAbgwpmvXwM02GbfBUjN8lfl4yaLIx3vNDR3VZmhIU3NpbdDltXh6BATesGzZspvHjBzZNtHh2ODr53vS3dNbgsPxGzWjAqU9QexJaeLIyJb03HyUD+4qgzH7nTx1mqzbsF5eeOEFo3DQ1/u/lJMIEqw6X4UUuR9aBXRLFYSrptZpE539SLPbd7xa3oZm8I+vz8rfPzklTyGLYDPcBetfOyirX/5WVr5wQJYgOn/x7i9k8TNfyCKMJc9+iYj9r2TZC18jvuBb2YCZ/aY3D8Osf1x2w8rw0v6zqFRYJR/j3N+cq0EBnxpRtwSMEYaP/8eEf10Z3yNHjspHyOl/7Y03UdBnuyxdvETmTEP73lEw9xf3luL8NtIRKX6pCPQzqcAPi0FhHxX8+Nu2w2KHTn5p+PvTWX+rFpmo6Z8Jkz8mBIm26szU+M+Li7pNHjVqmGdFRWmjhtIar8V3ynOQAAlchoBG4iPQr0vr1q23tmnT+pTVavk4JCT4OQjgXYiufyYwMODTwKDAY4FQAiKhACDQz5hxq/DOysw0BD+sBlKIWYDO6HUGbsOMWwV9MgS/KgFavEeFJ3z/MOHbagW/zvSjIgwzenBwkEARMQS6n69vDUaVr4/PaYxjWD+CcQjKwDd4/423t/dRH2/vM2p5wL3jHNG1VgkoJRDsiAmoVQAy1dJwQQlIT4eLAEoAlJBquA8Owb2wHv/Az0YWwzSY9Vfi3rbh3l6Mj7Pvs9ut38K6cRwC2rBAhIYEw8wfAAEfhOMTjWBEjUeIgQJUa5UI+qcCoBYKVQCgqGBACfA/EhIQ+ExIUMCckJCAMWGmgOIYc8gIkylqPiwXf7PGWL6xm61nYi22s1AAjtitthdjY60r4x32Manpsa1Tsxz+aWlx96mLAF9hQwL5Mt/sz/ro0mvUf//9CQtR0jgA9Q580u4ucLLfsaSZ5daXm5hv3edku/W7oBb3nI7r2ux87lAPaQd3gI7CcXALjPaVlsM9ERDojpgAV2NozEDX8gA0EkK5YJQSnrLZgiqANgQG2hEUqC6AWiVAiwSpFaCs1gogA5dEv9VnXuTq9lPDUgtLg+82XALf393VrUAJuHHZokWRubktyiKjIt9y9/Kq8guCpQcxAVFoXGNBsSCNC1AlIDu/rXRFquDAocNl5ty5smnTJnnu+eegBLwt3xw4YGQKnD17Rqoxi770pcJXFQEUEjTSB7+DgNZ8+31Hz8tb31XJaygx+MLnp+WZj0/Irg+Py/b3jslWKARbIOC3vHlINmM8/tZh2frOYVgQjshO7LMboft7Pjstr0Dwvw3B/9Gx80b8gbofkJRgWB9+eCf/vDMN8DuHyP6TKOOrfv5P0Lr3pZdfkZ1o37ty+QqZVTFNILFldL9+0h+uwfYZWdIiIUnssJKEh0P4R2Ag3U9N/nGop5CEYNlMZO7ozL8VfP6tsqAMpMefy0qJ/yQvM3nH4MH9ChbPmHE77uAHNQ2u7lvk0SRAAj+FwO8iIiLuRJDfQwgAfB4+770Q/AOCgoLMyKH3CwsLw8Q2cCTeP4P356Jgmke0vSCK30gBLCrqJT179pAO+McA6YBigRleLQNIvZM4xApowCCi5424ATXTqxneaOaDz6FkGMISgr3az9enytfb+ywE+ymYXg9jfIr117FtF/zrj0MB2ABlZCnGKgQb7sZM+dPMzMyq/FatpC0Uj8K2BZINZUTTBdXtYAQKwu2g8QYaH5AJi4ARJ6CWACgojniUHYU5X1MJ1XVghjISA2UkIjxUQkNqBXpQAKwPEOS4Nyx9UXo4wjBj5sDKgaqEcFNAeYEFQBWDWitAgAQHwmphWCr0mFq3QKCfWi+w7ut/Psg/8HhESFhVdERkjdkExQU89B7iEdsQC5eKIz4B96/3m3E+MzXzs4ys9NVpOSnD01vF+jWujSdQgayvumXtu2v///qCv6H12iuiSFJse9d7/LKapHul3lviEvfXR5pbbnvdM+nOr0JbNT6RM8jjXLuxPtUdJvjWFEIRaAsloPVIxAZAEUjv5ypJRSgm1MdF2o7ylUHzEReA4EC1BKjff/o2KALICpiFMsGz4BaYjhiBcsQKjHvUIsNRVnjQspgTRfPDXyycHNomd3SA+7UODly+cKHf2NGji6H8fu7m4VXl7uUrIVFQCmEJ0DRBc0KyxKakSVJWrmS2aiMduvWUUlQPnP3QQ7J+w6Oy58U98v4H76N40BdyFMK0SrMFoAiokL3cSwW0KgVqnoeHwOg8qJH5iNOTL09rQKHWGqgdX+A93PgCo4FAZzBK9B7FMXosDjEUDCyu+FL//rmqc1BYTsh+KC7vf/ihoGeCbNy0WeY/PE8qyytk3FCk9hUVSd8OHaVrbkvJQvU+O1L6oiH0Q8JMEop1jfLXmb8DSn8GSvrmZGl+P1r5ItgPJv/qjETbmbyMxE8G9+09Yua08oRr/7PlGUmABH4yATX/w//fGL7xQfCNF0PgpyJNTqPXb8RQrfxG7HMHhH8hCupsgkvAUAI0JiCvZUsjj1cDA9U6YJjs1VSP2bIKd0Tbi1lN/Cr0ISzVZ2+Y+fG5CkeMKgj245jVvwkhvxHLeRD4Q1ELoACm/kQI+xAMF4x7cf37MIJjYqLGFxa23YUgxe9GjBhR3bVLF2nbpjZWQd0ONiM2wapBhUYwImb8NYkoGxwHd4MN96KCPhqxBRpTgPbCAtM+7lddDb6Ca4uXJ1wL7u7igaFLfe/n4439Ag3XRk52puFa0AwAVYTC8Jwq/DUGoFZZ8IWLAueBe8Lb01OgyBjrXnoubNNr4JkNxUeP1XgHjaVQdwi+B8Myomw1ABKpUjVZGVnnsjOyv8vOyHkqOzvZnJERd+dP/nKvfseGBH/9bXVXuF6rHjYpvO4PTdIbNfLOu8fNP+see0CLxp1C8xovTerl/CEUgaPtoQC0R0ngdrAGqEugFYIEM+EGSEWGAHokGBUEO5T5Sr95YQiIM9XWCEAmgPYPUAuAjulIGSxHpcCx+HzEIzHSf3F0Va/54Z90nRkyL39MQEZOefh/X4fUxbobu5qlmqRnYHY6Y8a0zkhzfQ0K6QlnpHsGIqddywZHQ9iZ7A6xOlLErhYBmMKzWhWgoVBX6TNwoEyBqXzNmrWyfft2ef2112Tfvo/k66/3y9Gjh1FI6BTiBK6sDKjkVnXhp44rSvoLO6gSor79s/DtH4Fy8tX+/fLRvn3yD8z2tzy+VVasWClzZs2SiVBoSvv3k8G9ekpRu0Jpl5klmTDrx5qQAhtpQrokBmb8kVCK1NcfjziAFAT0qvutFYR+PkbLTNQKiY2R7FTH/k7tWu+aM2dO5ooVK+7SqoVX8/3wWBIggasn8DuNiMcwY2YdBmHfHKfUCPXvX5o3D9nrFxYc3AlxAZsRif8VfPmnUStAhXs1jjsLoX9KBaAKfzXlw2JgCEgN5FPBr7Nq9e/DlH4WpvsvIeBfhNDf4u/tPR+R84P8fXzy/Ly9E/28vCKgSED+uj8AReDOC8V9bsP5vKCgDMKsf2fbtm0/fvDBB0+p1SErIxNm+SSB5ULwDIZlAvUGJC0psQYuiBr0DKjRWXZ0FNqNImJfzfmGid4Q2HA1+Pmc9fb22g+3wjsQ2Hu8vDx24OKPQ/g/DoG9w9/H++XwsJDP7VbL6ezMdMQ4pEO5SMLMXTMA1P8fIAFQHjQLwBD2EPpIBURKoJsxPFxdxb1u6DZ3N8E1xMfHy1A6wLQ22BGWFdRRQIwFAh/1OWKicd+WY7H22OMJcQlHUxwpnyXGJ5YlxSfZc3J+XjGj77/Qn7ZSX9Bfdl0LHtWN62ARCO3pdLNP/r2NA3Mae/vn3Jea0M2lNKPE/eE2I712whXwDiwBX7cd53tKgwU1ZTAH6YOpqCiYinTBFoPcETjoLSVzQ2T0I1FnytabTk/dYjtbCbdAJSwCGh+gBYS0jsBY9A8Yujxa+i6KPNF7fsTeHrPCF+dN8g/Prwy9+ac94pX30m55EFY+OVlZ4xH7stXL0/uYp49fjV8wfkuwBtQqAQliQYCgERuQni0ZiA1o1a6j9ET9+9FlZVIJQbpm7VrZtWuXvPzyP4wYgS9RSOggOuUdPXrUyB5QN8F5zMB/ioXgpwp53U8FvQYkqrCvqqqSs2fP4nqnDKH/LaL5P0ce/1tvvy3PPve8bN/xpKxatVrmzp4j5RMnylgE+A2Gn78If2fwD0qrtHRJRhqf3WTD35NJwhDdr77+KMuFWT8sgJqZk6XBftlpaOSTjPQ+tPVNiTufn5P6VoeC3CW9u3fuvnbtcme0Hv6+TsaVvwXuQQIk8IsRyEExGo0DUGvAj10E+/wePoG7MYN/EEV5/pGZmXEE5X5rIKwPQph/gmPfQ6DgSQj5ahX0QWoFgBJgBA/qjN/fmO0fhVBX0/4WHDMWM/t2gb6+Fp3hX644j87+IRjTrFbrP5CpcLZVXp4Re4DqgobA1PoDsE4YVogwCFFtEoRZfw06BkKIxtSo4A9S07w/Zvm+3qjc53XO28vjBGb3hyCQP/Z0d9sOgb8I9zABSkB/zNKLAzDwDIORgbAY6Y4v4R+1o61yc4w2pRpnEIPARZ35q/D39fYyrAUq9N0g7F1dXGrcXFzOYXkG4xSKAx13dXY+inUdx11dXc5jvxrdH1YPI43QUErASRWogIBAKFSBh4ICQl4PDQ7bGxEe9b7dZv82wZbwvMPu6J2cbL0X39M1meX+2Pd94fyXFfx1+9SlNuqyofPFtfFp6njQMzKtr2uv1mN8Hi4Y57Oj3Xi/t9uO9/sGSsDh/FLPY9kD3E+gYNBJRw/nE0m9XY61HuFzuGhW8IeIDXh30qOmfRWPWw5iHCt/3Hoay/OTjSJBpupRq2NqBi+Pqh6wJKqqz8LIrwom+nVsWeZ/zTvGLV68OLx3r149ofS94ebhcdLD26faX2tfRF9wCaCmvTkW1oB4WAMQJBiXisC4nFbSpmMXdBfsI6Wjx8rshx+WR9askW2wCLz0jxflnXffNqwCB77+CtkDh+TE8aPIIDgJQX0OygCCByG0VXirEP9XR53QV3/+aWQlaP8CVTZU6fjyyy9RxOgDee211wUFkGTjY5tkwcJFMh3pfGNGj5HB/fpLv569pKhzZ3mwTWvJhw8/C0q2HRYPLeEbjlm/Cv9wRPyb8Ny22HhJRM0PbeGbk1kr/POysZ6WcD4zOfZMZrJ9f9+e3eaMKx2a/cQTT/wP9JJf+rfb0M+Q20iABK6GgApplPX1hjKwC/UCjmFGfhoz8zIoAXlwHTjURYB4gUOaDqdmbp0VQ+BD4HpXYXa8D8J1iq+XV5tAT0+t6f6Tg36gXLSCm2Fuixy0Ec3OEhtiC3BNNbnXqLWhbqjwVIVDZ9Vq3g/FuioiKmTV/F473M9hhv+ep5vbSg83t3G4v1R1M+A5/DEcuP++MO+PS4i3TUGBoVmoOvh0y9ycT/Pzcs9qGeIEBDCaY6IMK4Ka+D0wo4dAh9B3vjCczrs7Ox2GoH/X1clpt5uT00YI/wVYTtGB7UtRNvhj52bOJ5yaOYmLs7NhIcC9GOfy9vCC68D7FdxXRUisV1BErJ9fuMXfFBIR2DM4KHRlSEjYkPDocJMZxXmu5rv8CcdeUfjXL3VcXwnQdW2gpOPS62iwXvIQl3tT+3sFZQz0yG8x1HsYRnnuUK/Fmf081qb0dlsR383lIXOnZgPiO7tacgZ6B/aeHWIdtiii/7g10Q9N2mTeUf6Y5VMsv5n0mOXgxMcsh0etMR0euiL685KFEc/mjw5ITikNvOPS616L9zt27LhlxdKlCahzsQsK7IH7mzYVLx8/ZAggFsSIDUDVO00XhCJgQWCc1ZEqtqR0QxlIgTKQ376zdO1dLIOGj5DyykpZsmyZrFu/HrUEnhI0+ZG9qKj3HgoLffrJxyg1/KUcOPA1Kg3CSnD4sJw4dszIKtBaAzqD16FuhNN1SygOWpr42LEjmN0fNgS9uhs+wwz/w48+EjQGkuf3vIA6/X+XDWjUswjR/JUzZsm48WUyeNBgKYZvv2fXrtKlsJ20g2svD9a9TDTpSUA1xBhU89PGPaE6oq0SoRYARP1bIfgdiSj2hbiaLATZ5uqsH4JfZ/1JcTGSkRz7XevczD0zK6d0gbn/Fgr+a/Er5DlI4P+JAATtH2HyRyuApL2Y/R8ICw1dCqXACePPOqAQeECI9obQnY6UvW0Q/E9irIF5vcLbwyPNy8vrPgg2bdrzA8HwY4+Ea/4XrlmG8sTPQ/Gowqz/eVgrVuA6E2EZ6AulYwTGRLxf7OPj/TcvT8/PDN+94XOHH9/DMMfXYHnIw8P9aQ8Pj0m4j1i9F/wj3qhJkyaNgoMD2lmtpqUJCfEf4tkOwnVwBBkDR/PzWhyD8D8DJeC8ViO02/APICwN6uqAEiFubsZs/1sI9b2uLk4bIOgnYvRzdXVt4dq8eaST0/0ecGE0drv33tvvv//+W3U0vfPOu5ydnZNdXFyGu7i5rMfnH7o4OR9zbu500qWZ034XJ5cNbp4unYOjvJtptUJVunCPf3AKdbo53Bp+b2SkPwoT+WuVtF96FnVVCkB9haCuEZLWPtD7VouTZ47n7+P6ou/DgGa3xBc3vi21qOld1mKXexO7ed4d3wG1EHKa3dIEMQWepdf9vmel002ly0JvHrfa/6/TVkfdP3lzXGD5o6boKRuibRPXm5PHrzYnoFVwRJfKUI+U0nv+qNf+sd/T1WxXAQZB9sdRw4YFduhQOCAjI/0puKqqXN0RN+KDuI6wCMMiEAn/uAlmcRMEpAXFb1QZsDnUKpAhjswc1BHIk9y2hdJBu+QV95XBpSNlwpRymT5njixYvFjWrF8nW7ZsMSwFf0Oxnef27JGXXnpJXn71FXn1tVflNSgKr2OowvD63tfl1ddflVfw2QsvvSi7MaPXY7Zu24H6BBtlJUz6CyDsp8+aI+MnTTKCFPsPGCRFRcXS7cGu0rF9BymEeT9PlWsI/TR1p2kJZMz2Y2DeD4d/PwzBfToiNObBEmcI/njEqGiGTyb+LrIzIPwR3Z+RhBoZDgsKcllPdyho9cyQ/iUPThgzJqqsrOwv+r1fDXseSwIk8P9MQN0EEPLo7xO/Iy429gXMsgdCQN2G29I/7hs0lgDm+DgI4w6IhB8P3/5ECPzBMKm3C4LTO/CeezSV7V95Xa/XhAIwDT7+PehNsA/rc2Ft6I/Zfmu1OuBa2RhtMHp7e3tWwJy/DT73T+B7P+jh7nrYw831oLuLy2dY7vbwcKvEP9gFONZJhSpu5He4vztNpuhxEPzPoRbCCe1M5kBRouRkB4IcUfmtRdb3Zn/NbgiA8IeSUe3u5nrcxcXpExcX56exXAzBPxQz/nwPFxcHmMAA4nJvYGCzW1SAX/LAN2Cbh7Obc6aru+tQKANrnJo7PevczOkFWAaecG7uPMzV09UaiiJBOO6ifzQdPR03IVMDFQN/HTEAl7MAXE4BuPBcFykYhsWg1PP3DVkN6viJlN6werXn7+fuSrmjbJ258fgN5iZlGy2uUACciheH39t5glEY6CJmdcdeq6UqAVtWr767f58+qQWtW0/B7+5dDy/v43AJVPkFwPUVhsBQpKVGIqAzRnPjbcgWQO0AjRGwwSJgR4MhVQSSkTmQnV8grQo7SuceRVI8cJAMQSndsWUTZSpM8XPnz5cFS5bIitVrZP2jG41o/M1bt0Kwb5cnduyQbRjbMZ6AO2Hrtm1oV7xVHn3sMVm9Zp0sX7nKUCRmIS2xfNp0GTdxsgyDktG3/0DphaI9Xbp0k3bt2kubfAh+VPjMyciUDKS1psCHH4eqh2YE9EVj1h+pwh8jHIpAhBb4wfNoE584ZKqgcJaRaZOJktwomoWsFQcsBjD3p8QeyEl37O3WpcNUCH7LunXrHrhW7HkeEiCB/0cCOhvXjn7wx2vDnS4Q9o1xOw3N5n+nfQWw/y06i72KW74B57jDarVOxcx/LRoRlSKzoKkqBQ2c83q4Bf4KYW93cXIaCB/7GvjhN2O51t3VZYKbm1scBO9F7WRDMauOiAiNQ7T9x+3btasq6tXLKPGrqYqazph1IXUwASmD0Sgy5I90QAh++PadDuG8z+E6g/W8GsOA+/k5gudGnxCfpp6erpHe3m4mrwAvnwuKyc85VwNIrnrTRUL6wjP+YFt9Yd/Qugp1dVmoBUCrHNYfuk0tBFd9p//HJ4AicCNy/u+YOGFC11i7TWtlfNXcybnKE+4mv0DUjYAiEApFIAK/pSizWgSgDCBK3oTUOTPy4y1IIbQlQiFAvEBsKlxLadmSnN0SPQdai5YbbtupKywEPaU7XAa9+w+SkkFDZcDQETJ4RCkUhdEydNQYGTpyjAwpHQWXQqkMGDJc+gwYLD1hUejWq1g6dushbdGNrzVM+nlox5uTi7iZbMSwIIo/Fb/rpMQUZJqgsqFaKax21Om3ShQsF+HGbF+XGBD6kSr4MfM34/6tRnZKPBSFBKTXoh6GIfhRdjvJXuOwx5zOzUp6r1uXwoUVk8vabNiwoREY/SKWmP/jr5qXIwESqEfgBhXqFwT7lQTVlT6vd9oGV38HJeMuWB2SIPgTtV4B9rqcsNCSxjc2btz4v3F/f7333nsbP/DAA/9zT63l4UYce9H9QGG4B1aLko4dOx7sjICngjYFAreCRuPXWC3mGtQNqNF/7CxI1dN6/7AsnMGMf5Ora/NRHh5O/q6ud6hpU897Nf/Q6bH6THUDq7+a1w+EPe6swW0NCX7dZszsL8QD6Hr9/X41T3kVN9KzZ8+bpk6dGtyvX7/2WRnpT3qjeJUrskCcMdBQSAJCwmEVQFncyJhaZUAD59SUjuA5C6wDlgvWAWs83ASGqwCKAZQCQzFQa0FaJpSDTBQdypJEFB5KymohKbAepGbXjhS8T87KwcBn6ahPkZ4hiYjWT0R9ggQ05Il3oG02zm2H4mFDfr4V5n1TncCH0Fd3hQr5cJTs1aFR/TqM7aq44DMLgm3t6KeRhODXtBQV/hD6yXGSHGeGyd96Ojcz6ZMBfYsemjFjauy8efMeUCZXgZSHkgAJkIBB4HooADdr9z5YAZr/K9YEtVYYvvPLWCCgUDwAl8LYwsLCw2h7DLN/shFEqK2NtdeBdjNE+p9RqRDxBWfdnZ1fhu++O8z2MZj53447vBrB/1v4iusrTA0KfjxE3XZlUdvhEIL/AptLl3X71i1/CwyueI/r16+/c9SoUd6t83I7IjZmBZTKl/D7O4C4gBovFIDyMRQBFL5COeHQSNTJRwpdZExta1wNpjNBKJthHbDobByC2oI2ulbEDliRb2+FUmCHEDdGIpaYucclpdYbKRKr25F/b9d9Mau3oVKhDefRzntWCH2zDigcasKPQWxCNIL4tJiRCv4IKABarz8MM37184ejvkEERqTWOUADLQv2h7sPBaog8BNiJcVhQ1lve3VGctzpnIyk99rkZa3uUNhywtBB/RIXLFhwH+r5a4wPXyRAAiRw9QR0Rq9DA8eu/mwXnwGuBCecew4aHh1DFcOayIiI6hDUCdA0QhX8sajQp8V+UOTnPKL0v4PJfwYEv8svcS8X39mv5p0K6rpXndC+/FKF/z8VgEv3rTvXv91SYwNQOOjP6GSX0r6wYDyqTO709fP51t3T67TGB/j4IRsFaYMBqB8QGBpuKANhsApokF0kBG0MhLEK5xgrrAM6S4cv3qSCG0qBBhM2tNRtxsB+uq/JjuN04PgYneUbAt+OWgV2o0JfFK6hQv+fgh/KLWb7RqCf+vuN9L6YWuEPBQV/G4gJsKHqJfp6OCD8E6w1yQ7rKSgB36WnJnzQqUObhSNHDs9CYKT3v90XygciARL4tyZwPSwL3jabZSvy/E+hr8GJiLCQb1EzoCbMKAUcYKQyeiGLAP7+A5j573Rp1iz4gjvh3xrMJQ93qRBv6H39Q/Tz/+jXxo3z/zJvXrnTyJFDe2Zmpj2BapgfIPtEnFBF0MUDqaNIHfQNDBVfKAN+wWFwE4RJEKoLqoUgLALtc5FSaFgIoBho/EC0BUF5qhyotQCC/fthmPPVpP/DEYNtal2IUuGPGb82MtIZfiisD6Eo3RsMt4ReMzBEB9wUF64fhboGcH8Zym9CnA1pr1ACLGiyZYs+j/r9Bzt3KtxcUlw0eOzYkZbKykqa+v+jf+l8eBL4jRLQWTwsAG4w1860ms1T4QroFR0Rmh0ZHlYeGOC3HmH82728PDWt8BEvN7cSjAg8qgYf/qcJuCsJ/N/oL+CXu23tKKgNhUpLe95cVFTk2rt3b2u3Bx8ckZWevgMttfcFBAae0dRBN3QZdPf2FU9YB3wCQ2qVAlUMLgy/oDDxDw6XAFgM1GqgaYbB4VFQFKKNERoRbQjzEK3Fb4xo4/MgKBKBEPD+OMYPx/viPL4BoXBFhHw/fINgiYDiEYpgxSgEK5pQ2dKMYTVFic0ULrHmSHHYTFW5mckfde/Wac2gQSVlEyaMSRtQVHR/78LCRng+zaLhiwRIgAR+ewRUAYCJswkCDPtBCegMa0BcVEiIb0RocDsUMhoFBaActQJmIpVxCJbJ8OlqBsG/u8+/oS+SCkBDVH7iNm0tPH369KajS0szC/Lzx6Pr5DpkyLyC3hmf+gcEHPZDCW1v/4AaLygBXn6BF0aQePsHG8MnQBWDEGQWhIp/nUKgSoEOzNwDgiOM4Y+lP6wJfkEq8GuFvo8K/QtDz+fjH2QMP5zTPxjdDUPRmwMurhhkuFjRJyPWaqpOsJtOJsdbD6Q6bB9npMS91qZFxuoBJUWDJ4wd1Xrt2rWecHNcmtb6E0lwNxIgARL49RC4HkL9jxD+zWAJuK0uqwEFh/6kwh7FhVy0sBHSD+/S/X49t807+a0S+OCDD25avXSp05yZMxP69+07Kicne3NCQuwraCl9yNvH+5Snl9dZ1BSowqj2QGEhdRV4+gaIh68/1muHu7e/uHldGN+v+4mr1z+HG9bd8JmnD5QK30Dx9QsyUhODQ1AdE305IiIw648MqzZFR5y3xERU2cwRZ5LiLMcR2f91Xk76SyW9e80fO3pkv3lzZqZoYJ/2Q/itMud9kwAJkMDlCDQ0q68fvf6fZvK/HCt+dpUE1D2AlNP/Ki0t/MPYsYP/B9kDnuPHj8waOnhwadeunRfktWyxHZUoP0TcwOHIyIjTWnXS08sTA10ltVulN0pro8y2D7b7aWAhig/5oxx2AMpeo22xBKJrZRA6XKJAETJa0I8D78MwwkP8xRQdhuDWqOoUh/1ETnryZ/mtsl7u1KntJhQ1qhg1alhnmPhT0P3QBWl8N6uJX7v1yX+ey+sqv2EeTgIkQAIkQAJXIKAd8WBSvwWCtvmYMaVRfYqKktu3bVvQqlXLwVlZmdPT01MXoTz1RlSl3JXoiN+DQliv223Wd6Ec7EO3yE/hSvgyPDJ8P5b7I6Mi96NS5f4YU9QXZnPMZ/E268fJjvh3U5Mce9NTHC+3zM74W4vMtM15WRmrC1vnzulY0HpU545te/Xo0aHV8MGDbZMmjfVRVwXu6WbNaLjCrfNjEiABEiABEvj1EcCs9UYdv747u/wdqXVAfexoG3z38uXL/R6aNcs0fszI3PLJk4uGDx08olePbuVdOhXOa5mb+UhGeso6R7x9k91u22q3W7ahQdb2WLvlCbgUNqemJD5a0DLnkW5dOs3r06N75aABJeOnVUzpM2nChNZl48alorNhyFNPPfUArtNIZ/mXvyt+SgIkQAIkQAK/EQIQ/o0xLir7/Bu59SveJoT2jXAh/LFbt25/RgGrRjpatWp1a05O/G261PcXTPhoilR6I2fzV0TKHUiABEiABP5dCED436Tj3+V56j+HCnS1FFzIYjGKZGmhrPpDP9N9cBxN+fXhcZ0ESIAESIAESIAESIAESIAESIAESIAESIAESIAESIAESIAESIAESIAESIAESIAESIAESIAESIAESIAESIAESIAESIAESIAESIAESIAESIAESIAESIAESIAESIAESIAESIAESIAESIAESIAESIAESIAESIAESIAESIAESIAESIAESIAESIAESIAESIAESIAESIAESIAESIAESIAESIAESIAESIAESIAESIAESIAESIAESIAESIAESIAESIAESIAESIAESIAESIAESIAESIAESIAESIAESIAESIAESIAESIAESIAESIAESIAESIAESIAESIAESIAESIAESIAESIAESIAESIAESIAESIAESIAESIAESIAESIAESIAESIAESIAESIAESIAESIAESIAESIAESIAESIAESIAESIAESIAESIAESIAESIAESIAESIAESIAESIAESIAESIAESIAESIAESIAESIAESIAESIAESIAESIAESIAESIAESIAESIAESIAESIAESIAESIAESIAESIAESIAESIAESIAESIAESIAESIAESIAESIAESIAESIAESIAESIAESIAESIAESIAESIAESIAESIAESIAESIAESIAESIAESIAESIAESIAESIAESIAESIAESIAESIAESIAESIAESIAESIAESIAESIAESIAESIAESIAESIAESIAESIAESIAESIAESIAESIAESIAESIAESIAESIAESIAESIAESIAESIAESIAESIAESIAESIAESIAESIAESIAESIAESIAESIAESIAESIAESIAESIAESIAESIAESIAESIAESIAESIAESIAESIAESIAESIAESIAESIAESIAESIAESIAESIAESIAESIAESIAESIAESIAESIAESIAESIAESIAESIAESIAESIAESIAESIAESIAESIAESIAESIAESIAESIAESIAESIAESIAESIAESIAESIAESIAESIAESIAESIAESIAESIAESIAESIAESIAESIAESIAESIAESIAESIAESIAESIAESIAESIAESIAESIAESIAESIAESIAESIAESIAESIAESIAESIAESIAESIAESIAESIAESIAESIAESIAESIAESIAESIAESIAESIAESIAESIAESIAESIAESIAESIAESIAESIAESIAESIAESIAESIAESIAESIAESIAESIAESIAESIAESIAESIAESIAESIAESIAESIAESIAESIAESIAESIAESIAESIAESIAESIAESIAESIAESIAESIAESIAESIAESIAESIAESIAESIAESIAESIAESIAESIAESIAESIAESIAESIAESIAESIAESIAESIAESIAESIAESIAESIAESIAESIAESIAESIAESIAESIAESIAESIAESIAESIAESIAESIAESIAESIAESIAESIAESIAESIAESIAESIAESIAESIAESIAESIAESIAESIAESIAESIAESIAESIAESIAESIAESIAESIAESIAESIAESIAESIAESIAESIAESIAESIAESIAESIAESIAESIAESIAESIAESIAESIAESIAESIAESIAESIAESIAESIAESIAESIAESIAESIAESIAESIAESIAESIAESIAESIAESIAESIAESIAESIAESIAESIAESIAESIAESIAESIAESIAESIAESIAESIAESIAESIAESIAESIAESIAESIAESIAESIAESIAESIAESIAESIAESIAESIAESIAESIAESIAESIAESIAESIAESIAESIAESIAESIAESIAESIAESIAESIAESIAESIAESIAESIAESIAESIAESIAESIAESIAESIAESIAESIAESIAESIAESIAESIAESIAESIAESIAESIAESIAESIAESIAESIAESIAESIAESIAESIAESIAESIAESIAESIAESIAESIAESIAESIAESIAESIAESIAESIAESIAESIAESIAESIAESIAESIAESIAESIAESIAESIAESIAESIAESIAESIAESIAESIAESIAESIAESIAESIAESIAESIAESIAESIAESIAESIAESIAESIAESIAESIAESIAESIAESIAESIAESIAESIAEroLA/wIYVD/sEgJWfQAAAABJRU5ErkJggg==;" vertex="1" parent="1">
                    <mxGeometry x="130" y="70" width="142" height="142" as="geometry"/>
                </mxCell>
                <mxCell id="4" value="" style="shape=cross;whiteSpace=wrap;html=1;" vertex="1" parent="1">
                    <mxGeometry x="300" y="116" width="50" height="50" as="geometry"/>
                </mxCell>
                <mxCell id="5" value="" style="shape=image;verticalLabelPosition=bottom;labelBackgroundColor=default;verticalAlign=top;aspect=fixed;imageAspect=0;image=data:image/png,iVBORw0KGgoAAAANSUhEUgAAAqgAAAIECAMAAADiuCz7AAAAGXRFWHRTb2Z0d2FyZQBBZG9iZSBJbWFnZVJlYWR5ccllPAAAAYBQTFRFYX3+09r6e5L9xsjWy9T5cov+6uvthJr9aoT+mqz8Tmz+5OXpXHn/3OH5rLv8UG7+Wnb+09XdkaT8VXL/29zhtLjL9fX2wcz8vMDSw8nonKrs4eLmipO9y9Ly9fb4zNDotML8w8v1h5jnjKH97/DxZoH+eo3puMX8sL788fH0vcj7q7XqpbX94eTy1933srzs2d3sVnb/7e3v6ez6laj94OX6oLH95un6oa/07vD3k6Pxu8LlUnD/pqrBiJ39fpP0WnLirbHEboj+5ej2k5zJrLjz3t/o+Pj5t7zVz9Tux9D77e71na/90tXi8PL5i5zx6uz3usTy1NjsdYrwqbPf1drzeI/96erxgJX+19ngn6bL6+zypLL7zc/b5+jrUm3yVG7sd5D+8/T49/f4oKzoqK/SXnfxqrf1bYLpaIDzp7b86Ov3tcD22N/7wsXRmKfxprT5orP90df0pLHw8/P0yM/xo7L8fpf+cYj4z9b7U3T/gpTv0Nj7qLj8TWv++vr6SzJ0IwAAAIB0Uk5T/////////////////////////////////////////////////////////////////////////////////////////////////////////////////////////////////////////////////////////////////////////wA4BUtnAAAoxklEQVR42uyd+1sT19bHh5CQZJKQIUGCpaVoiLkcQKIBL82Jr6FADVSxnkaogEJaL1iwVC1FYfa//iaAF+4ze/Z9r+9PVfs8WTPzmXXbe68xEAgkgQy4BSAAFQQCUEFnaXt7+waAChJb99O22ZSRBVBBAmvdMu09mfX7ACpIVN2w7E8yqwAqSFRV7S8yFwFUkJhaNO2vSb0BoIIED/x7SgCoIBGVOMypbd4HUEHiKWYeAdXOAagg8eQ7yqltAKgg4bRzzKHaZgxABYnvUG07DKCCxHeotl0FUEGf1NZW+Ouvv3xf1PxTWxtzM4IncKpGKxVA9abVttxfvn/Np/F43Dyq5l+98v3FktYbJzlU284CqDrreuGvO8/Le4Tap6lF69NgoZ+RSYmTrQgCqNpG+n1GTyf0EK3xcuI6C6vuWycbYAGomkL61Cmjn1kth1fpW5Y77ed3AFTNFMu5h/QA1QD9dmbmtB8PA6g6qZZ4VcaCdJ/UKG2funOqbVUAVRf1F4JPz6qanIj2PqbE6S/JDQBVE0o9uNIvuFA20zr9p3MAKlDqXHQNLZzxywEAVXVKHyTLZCilTkvlLGd+A0BVuXq6TY5S2y7TXaO6f6alOQBVVY3dfl6O2+QwrVyfpvtWnfnzGQBVSc39+YokpXZ59vo7bjX/XuxvA1CVU6Nwh2TIb6pEHdMza/6WKgCqciHfIEupHWqjj+kJZ6UOK34dQFXJmf75Khm3yao0OM3A8rVzzQBQlZH/AeGQ38pOC++Y2O47z5B4DEBVQjM3yTvTZrXd1sPG/PNfsHkAlbVGRkb8L1p6cOcE7f2Lv/n/uIm4l+4k46ZNntPr02xuSZuDFdxLACoDTY+M/Pni5p07r54+fZpsqtzS8eMfTe39S+t/ST59+qjF7aWRkfPqp+dlCpQ2S21mFcyaA2uicwAqTffpf3G7iecemy0w3e0D2eO2hWyT2D9HZk6ilErI3+c0z+wu+ZzYUwdQ6SD65807z5uElr3ur9tHdg/YR3eaDvaLm/bffkUl5O8fVRpkd68sR/fgNoBKOs6/eNB0omXyDDV5beL66kEzifXffJSkR2krP2V3w244u4z4CwCVmMb+bHo5GowePm6XpApp60Qdyw1LNafNsksAKhlIHzynzCgrlZkurq85NSt5CUD1qFuXHjwvqgHp3r66aZY3z+fYruQkgOqlbrr5qJhUBtJWgd3D9P5lXLj6NwAqpvxvnifLCkHaooHxFhA3d6/8aBpABUr3tcb2JsbclZLGiAxo+icnJ/2CgKompc2KP8/2Pra5tK94U3in6n/ZWnxMPp+c5g7qrZsvlaSUwwmlNdepSVVwp3ozaR7MQsr4uYI6femRpSilth19x/huLrrvJBcf3BKY0zflox01PqDeepNJqkppU8y/lhfEMDJuTU7LwOkBqTxAvfTRKtsqi/mpjzqWmcnMpAycNg0d4wHqw5e0NiuJIh/ze1rFtFRMVN8cc2NB9qBOKh3z+ZRSCOG/+QKiepxTO/4rW1BvvbGStvoaY/5svVibtN6IVFZNPzgpLSyxBPX+G8VT009PfloqUG27bD0Qplk17TuRkSg7UHXBlMfkvJhXk8vWR0F2VSVOTgzNGCtQ3+qCKY+ZJDvejY4XX4qA6pvTsu0aG1CbJZStjcaZP95tEmabxY/cE4A3p3qzIRagXgpohKlt/yMnqK0lgI/3BeXU/oc+qCNXiqYNoEoAahPV6KSYnDIA9Y0Vt/XSkLyg2nYyMCIip9RBfZgp27qpIjOotmm9FZBTyqBOXCna+sknNahNpzo/IRyndEF9G41ryKkdlxxU24yy71R9PCfyjtMDNaZXrc9zCXWb9BVYjA8ATsyflyH6qYH61jI15dTOSg+qXb7C0v6/M+eysm2AOyWuuvyg2nGG01TfOhicNUYH1KtRU19O7fic/KDaZohRSfX6ihOf1qAB6sQVjd1pSzkFQLXtDBNSrzqruGnsnnqfievNqW30swV1nc5lZOgvqP7tMEUMUAD1G8vWXoxdag+ly6Cdp8YuO62468RBnZhPAqe20WBLKqXLMKmS+v5y1PGy5SxpUN9nTMC0qQElQLXNb2hZvHr1pZsdyuOEQX0LYf9gGZLtKiS1KJZ8TyXkX70SdXfGs0YW1MsQ9j+J7YJ/gNp1WITfuNj7q5f/L+r6wPw6SVAn6mUA9HMv9SpLUOv0LgQrTV2NPbz6zeXLL//viy7v/dGIRos4k5x6CIL6dwjS069UZPlFx4o4b9zq+7eXmzxaxeThz4DtfxUM04gowQEU76MAJ+su5GeN03zjJlxAevulgecyz2ujEgP1G+CUdReSEahON4K/vnrFiFIa0JggBuptKKOOB80gM1BrVK/DQeW/+vCKUaS3ILlLCtQglFEndSFLci/2f1L13FL+tkH3ZJyfEKhBKKNOVJnVJx3zdF+4h2dXJy8N2n7qHRFQX1eB09NIrf4tecf/XJf6/iX9A0fNop8AqK9DAOQZ9/jyqtwd/z2X+p4npvurJwZwStupPpS7kXqGS41dYXN8M0wAVOD0XFkMnOos5bLwxKkUtw1GG49r3kEFTsVwqjXKlzB7/CcfVpm1eq57BhU4dZqpUgb1OuULSB49s7B6md0Kj4W8ggqcOneqv9IllbZ3qx0poqoMO+dBr6ACpy5k/E4V1Cpl89OHs1OmC+ZrHkEFTt1FTx/NU9RhhrH/tY/tgnmbN1DnqgCfu9LZoLhHtcCi8v4U9tku8JR7PIG6CpxiNKqkrabsz/sW/sN6n9z+4BlsUIPAHYZzCAzTIjVD2fTQp/SU+bG4fzyBGowDdlg1Fa3wT9txHMwpCrLfzxnzAmoCOBUs/OdoG55q1SUV9s/d6vcA6u+w/1S08B+jbXepVT9z8E8HByWwQL1aBN68hP+LFEDtN6gDw6fPk8UH9T2MmfCmKI3mf5qy0UlO/cjr2KDOGYCaRxUr5Of9Ue+k8uH005dl3YMKDVQSNTT5RHVQzbqhExtUaKCSSVS/I01qXcn7dB0X1CFoTBEilXSi2qnkXUKYoF6EA/zEElXCHdUbKt6kNUxQh2EgCsE6mnBJFVDwHl3HAxUKKcIl1RzEfkc1v1tQKwAX4QdBsqS6oV75kMMD9T9QSAld/PuUCzkdWKB+BytSYhf/KdVuzldzu12AugpHT6gU/+RIzavmSfxYoEKCSkcEN/4lFIs2PTigQoJKrU2VJgXqmFo3ZhdhgAodVIo1QxrKqRNkduCAGgCeKJJan4Ny6pgOvb5OQZ0FmqiKUOs/n1HonqxjgApL/NRJnSFC6oA6d6Te7x5U6EwxIPUWCVCvqeNR2pB7UEvAEX2F7pEgdUgZh9pwD+pFOHTKQgYJUjtUcamHHaojUCHwy0SqIi71iEN1BCoEfplIVcSlHnGoTkCFwC8XqTkVbsRRh+oEVAj8cpE6qEAv1TzqUB2A+g/Qw1IZ76QW5L8L6YZrUIeh1S8bqXn5D06PIdegzgM60pEak/0WbCLXoBbgO6cSkhqW/AZ0uAa1Hzb3yUjqstxb/WvINajQQpWTVKm3+6V7XIM6DC1UOUntqch77eUIcg0qVFKykjomb/AfQK5B/QEqKWlJlTb4p/PuQYU1KXlJ7UnLedlWBLkGdQBo4UrqhCdSI3IG/xRyDeoqDEbhq7q3Pf9+Ga95vMc9qOOACmeteCN1V74rDnQg16DCIr/spA5KN8XeiiH3oCaAE9lJnZLt+zUp5B5UcKgKkNom1xim3R4MUGHxVAz5PJ33l2praukacg8qOFRR5GkuVY9EBZVvGWGACg5VFMVLngZSSDOLyehGGKCCQ1WF1A5JBvwl2xAOqOBQlSF1QQpSkzsIB1RwqCqRKkGTyjqP01NABYeqEqlt4rudFMICFRyqcKT+zwupO6I/z2wPHqgwtVc4RRUmNZlqICxQYdsUkCpSHXUqqJ2ABZAqGKcngmoAFQqSuiLmVQWccXoSqCk4KSUoqVc9damEJHWlC2GDCh/qEVXGL55I3RLvihILCBvU7+ELfcIq5InUbuEm/WxGED6oaeBBVVI7NsUqo7LXED6oq9DsV5fUayIdLF7ZbiAPoEJvSmVSG35hZjWEu1xZfhTUaehNKU0qWhKjpDIGlpEnUHegN6U4qd0iJKpb7Q3kDdQggCC8qt5IvTbAPWrudru2+gioqzBnUn1SG+18w/9WLY+8ggrjpnQgFXVznIJjYLjT46DCqpQepF6r8foYVaU9j7yD+gusSmlCKmrnMgmnWpjCtPcwqJtAgDakRtiHf2N3Cdvcw6BmAAB9SL3GeOm/GN7IIzKgfg9NVJ1IXWbapqpsLHsx9hCoYXj6WpE6xBDT1JQ3W78GdRrOSulFKquZ1MWSV0wPg7oDj14vUtuYGJkp9S4jRBJUGDuhGak1Bhau5NoJYHoYVIj8EpL6g4eHT31+Q7SU6mogRBjUX+CxS6iMh7OpVbqZaTq7sYxIyeBSA4LIyfgD99lPUNyBFE139vYhgjKg2y+7orOYz57WVyiL1VJ2o6+BEB1QH0O3X1LFS/exnj2NY5zFTHDowtIyIi4DdvgpoOBjjEdPum1ejK6kO++2d+cRDX0B1QfPW16tfI8x5IccosXMVmno7kYX6Xh/Eqi34Ji01G0q98U/ibZ5sRoMDnXe7W1fWM4jqjJYL6eBKBX/P7p+9N79+EDvUnd3voEY6DOo8IleyZVMP3H15Ec9F8+lLsROn0ENwaOWXb6LTLdOhZYRB1AnoDklv0Juev+e2+ZriAeoKXjMCiiacBz+Rz3/WI0LqLBzSrPwv+b5p25wAZXI+mmxpcy+9v4bwGEf/n9cZRP5bcQDVC8paovNYLC0udl5t6kLG/u60PrDwOZmKbiViQKx7PSh8j2TyG8P8wAVbwttMRMIbm622OzujuRP6qfl85Huro3eu7nNtC8DuLJR9Tcmx6XaeIDqvosa9YVzdzeWuvPOViTyfV0bF7KAKxNZ6XMzVQIjcbZ5gOrS7mg619vV4f7XWrje3U0Arbwz1SdlOUHtd2V3ZtPTnthGZI/WQBR4opipbp15RoXEVjkeoX/MjYHpDQL7DxqRpd7s+Ba4VmrKJEapRn47xwFUNy9Y5xSxH893b9wFWKkp8Ntp7f8nJIbhjXMAteLcvNl+sgbsweqDNIBKUTX/E73Ib//DAVTnO75CHRSMyHf1ZhMBcKzkZQRPTFWJbJLnsNY/47zd76dlSGTp7i44Vhqp6vFWVZ7IJvkKe1Bjzh3qNEVbGl29uQqwSrxVVTqKKplN8nX2oDpPWWZp2zPVO5CArbGUUfXJCqrzc7MpBiZF2oFV8qh+VVYNx2UFte7YOEZbuyLtkAOQLqsqf3xqVhH6eA8HUJ0f8J5mZtjUT51b0Acgiur8jz80WR0ltfWYPagTzo1jatvChVn4nBBJlTPz6XTdlhbUbee9DrabZVF+KZuAFEBQsQc159i2ecRckZ/WwK0CqHugpoX1qPvt1aZbhWwVQEVo3rFtJuKjiFLZqiKnyYLMQXWRBSJeyi91rijwcKMrldnZ/zY1NFvaCsmdfodZg9pvSwBqU13ZityOKJQYuNA1tX92p5HvWGi/MFBakRdW5tv8YpKAitDU3bS8z3VroD1y7Io6ui50yrq0McAaVDcnUIf5ktpKVg05Mc0unPr6XZBzaYP5pJScC+PaEG/le2VEtbRw9tLG3ZJ8F8V8Uoqbrw1tIyQCqrK1AHbP3W7eId/7N80a1KBUHnW/BbAr1VMd73f0/oWluijGPXXD3e7EASSIZHqq6UGnoSIoEagV5qC6KTrHRQFVIge0FXHe1hiQZyNumDmobqxbQ0gkVGUolqMLbi5qIy0LqAOsQZ1xY10CiaTBuxI8VpfvdmSoLAeoO6xBXXdjnQ+JpUh2S/DnGXc76b6/IEdP4wlrUHdkBhWhhQGxn2vI/SW1y1BTJRFrUAuuEi4knto3Ra6qcF7tKQkymhBzUN2NdBUQVNToTYj7QLF2bUbE/yR9gjmoi67smxGRVPRY3FTVwrqgfuFJzTEHNezKvnUkpn5eEzX+4w1B6s8KXvzXmIM6z+C2M1mrEjT+B1bxrqcgNqnLzEGtC+3xXcV/Mc8AJFQklXXR7xrUISSwlsJC7kFO/IxJqsA7qgOig1oRGVQ0eEHIomrlx1Gsy7lQFRbUEntQLVcG1pHY+lnIbZ0ffN/+hHM4ol1YUgfYg+rOQENwUFHjJyHXdT5kgolvW/rjj/alGflJ3REdVBsJr+5dQXO7Dy1Fo9VApfRbe7/cpD4RHtQp8UlFF3y24CpW0w7zVjFJZR9YXYPqlwDUZqYq/hHkD1vOUBWS1KD4oOZkABU17kqwV+7D1h+OSM2IZ/ose1CnRO9L4PZUS+KTakfDTuoqv3id/xR7ULeFd/q4PdVcRgJUK05y/oJwZkfEBzWDpJEUhzq3nJC6q/sCKgaoZkMeUrtny2qQ2iNYHhOQAFR7TB5QUSNblYBUBz3JZbGWhhMygJpCMqm9Ij6pTh57t1BvXFYGUHNSgYr6ZsUn1cm73y5SFnNDBlDTcoGKGgPCV/+Gk/XUrEC11LQMoBpINvUKsqJaNAzj5NkuBSeXMa5zLYUBqkxl/6cVVRGOH1fH/3vhwoXfTpyZ7ejl7xEm3Q5LAapUZf+BHo9zz/BK7Qem3D2pgHd0ZrJPlBwmJQeoBflART1Zzg959svoye4T1iGcTUmsJXVdl2qC6nd/z5GM6uV68i/R87VnNHAXpsVYobJ4PD9jzLWdPilBRT9zXFCNLp+zdu9wVNI7IWb9cNnuYUzL8ULJ3VHdPGzJ9PFxvQ6vYUqEfba7XEBFcqQoRBLV3bggSV0OF1SUEgDUNllATSFZxan3fyyw+7FBRfy3p5h5WUCdlRZU1MtlRv6xM+bL+KDOcJ/yH0KygOqTF1S0waOkqp4Latz5FWybnEFNcALVfd5mNSQmdYoDqcf2GR/7qqeb7ei8d9kUOIGKEUrGkMykcsjy1s9btnfT8XnCufKPcAIVY8dGVmZQUYO9Szp6ItLwlPbzrfw5Tcd3OySNY5YicZvqyLemBjw2UrhOgk3zAhXjAHwISa4B1qRufb3jdMPyGE6XLY6gDvACFWNVznwiPamsv/n31XfQL4TOr7bOM58jqDFeoK5hGFuTHVT0B+t25NZve6dNZzZO+thQ1a35/PYtWNO8QMXZOD4rPahogzWpH4Lhb7/9NhEiss1jgdv+2nnEC9ROEkstsEjlRMXih5P/wf2W+TVeoHZyA7WG08HOA6kkteja+He8ttfGuIG6jWNuGwJSCQrjEx5LfFZSeaWobr8uje8ChCRVlO/94KxKhrlYyitFbYI6SGQ/kJxaEmRSDk6AesLlqxoD/EBFOPYmn6hB6pQYpG7j2F7jYekyR1Cx3swaAlI5g8qjmRpFHEHFmiMSRkAqOeF9GOFn9vVUgieo8zgWh5AypAowJw8z82NfT9V4gop1ueayMqS28+9S/YNn+RPmm1Oe8AQVb5EjqwyoAvRTcb/gMcTYziriCSrepwzmEZBKTLjdvsdRKTw/IVB38JYo3gGp/Nd7GA9NXecK6hSe0W1IJVI5jx/DPYU2zXRQQRJxBRXhdTnGVQKV/Z7/w8KeN8/UpQY5g4r3VmaUAhXluE5QxR6VMMiy8E9xBhVzcnifWqRyHelYHsQ1m2HhX37CGdQE43AlqLhOdcJ2Vo/Z5SwBxBnUnIR2U1APz1PI+NvRKsxs3OUNKuZAA3NQMVKf8Fz2x54+E2Nm4hRvUMdYhytRNRXgB2oF22pWPWC+321q/XqDdakqrJY4Nv6x+9KsDvmHuYOKMBfikoPKkdrLr50aWMW0eYbRYsU6f1CDEPs/qZOfS8U+iMymnOL86QbDS2NGvdjP68zcXoDyY5rM5kxKQgBQcbMcBWM/elfhRmqmHbNbwcQ6vwCgYnc4FIz9aJjfGepqN57JLJLU5DsBQJ2xIfZ/0c8GN1KDS3gPUej2GUFQcct+O/lYRVJT/Er/FZzoP11WP/IfgIp98DarIqj8JpA1oz8GqWMaRP4DULFL3YCSoCKOnxytuh/v848Gkf8A1AKu/eaUkqA+4TiUqpztd2fsclSDyH8AKn7wGFLTpf7Mc0r+kKuuXz+L7YnRd2KA2sBucGTUBBVleW74D7v49kSDyc5p/oNxDrbE4E8LWVeU1HGOoNppxyXVz2zsHBEFVPw9w2lFQc1znUlVzToK/5G7bKyMIlFAxd8qZuUVJXU0w5NUO7xxroULd9OMvkK0KQyoHlpxBUVBRT/xPUEd2m0/6+PIg+25LWYfy5oSBtQGfpVbVRVU5pOdjjWpNy9ETnWmYYanEUR4xJ/OF/iwr8IcU5bUIGdS7Wg6tzF11K8OLt3d3WL65cGCQKB62IZZUhbU4YzNXaHg5n97uxby+1ro6v1veIXx9zGFmIP/CVQPn9ZWtpxCqFa2BVDRWNkK72trxSgy//0gEgjUx5JHBkqatUH2jkigIg9rhgF1Qc1vAacGEgrUCv6VKFxOoVFLe1B3xQLVy/zChLqgogFTc07jo2KBOuzlWp4oTGpCc1AF+UjjlwTES4wbUBjUx1W9Qa2JBqqHJNXONBQm9WJcZ04NJBqonoZsbysMKt8df7zVKRyowwokMpSkcY/KHBYOVE9Jqh1TGVSNe1TCfE7sK1C9JKnK7p8+6FFpC+q6gKAWvFxQuU9pUiuacirOt5m/AvWxp9b2rNKgPjb0BLUgIqjI06Y265rSpKa05NRYFRJUb6NBc0qDqucCVScSEtRtTxcVVdul5kP6cWoNiwlq3tuczQG1XerFsnaginR249AK2byny8pMq01qWDdOzV9EBbXg7cL8aoOqXfAPIlFBfewtuoUUd6m67U75RVhQUQBc6lnS6wSVWAMbDoPqceSC6i4VregEak1gUEdtcKln6fskOFQhQPX6Adiq6i51CByqGKCugUs9U9Mr4FCFANVr7FfepWoT/Gtig+r54++qu1Rdgr9wMxqPguo19lffKQ6qJsG/JjqoXmO/yoOoNAr+4g29PXYa1uukRcU3UWkS/Gvig+r584oDqoOqQfAXcIr4MVA9x36jA4K/7NumahKA6rnuV/Vjfl9pU3FQt5AMoHo+GhyPqA5qQ+0Nf0LtQz0d1CeeA1tYeZeq9oa/IJICVI/7/FuKKU9qSWFOk6OSgOr3fKnzqi+kolsKB38xA+JJUwW9T1qqKe9S1Q3+0WFpQPW+kT0zqDypygZ/QecznATqqHdv0ak8qLcyanIaWpUHVFT3fLnxPuVJVTP4mykkEagEBi0llAdVzeAfRDKBep/A4Nod5UFVMfiL2Zo6FVQS54IzeeVJvajeJ6jGkVygEiinNKin1BvvazQkA5VAOWXHp5QHdUKx8b6mwP3vU0D1E4hqlR7lSS2oFfyDSDpQEYlCQflTKYoFf2tUQlBzJDIe9ZupE1GFQF1DEoLaT2IXe0l9l6pQ8A/0ywgqmXa2+ptT1An+ye+RlKAOk5gEbii/2V+d4C/4dneDrquA4C+LMjOygnrPhODvSEEVOI3/gGQFFfmIrHVo0PZXIfgLv4noDFDbiNwBHdr+cQj8PEGdJnMuSIO2fwICP09QCX3/01L/TOpMBgI/T1ARGZdaV35sGvpB7uAfmJEcVEKfVFZ/xo/cwb/8PZIcVEIuVYMeldTBfxxJDyohl5rsVp5UiSf81ZH8oJJyqVvqp6nSftI3OqoCqIRcqtg7yIioPyAnp/EsUgFUUi5VgzT1npzBX5Zz7eeBmiK05cJaUJ7UNRk5laEz5QhUMiv+Ta0oPzGd2K1iKOseUgXUe6R2sYUbqoMq36HUeA4pAyqBub4HyirvUq/KtkCVRgqBOkqsSFB/yk8aElR+oJIbBpZcVx3UmapUHdR7SClQhy1ibzCf89Pv+vr6Oth8o/WiRD2q+P+QWqCiTnI5EfvSf3Ap1ZlOp2c7a+3dDOZgS/T9SbkmgzoBdZXclxXGWZf+3UOfS/Gib6jWRf1NqcvCab2hHKgkD1oyLv3Xj/Q2A7MblA9xydKjykwg9UAl2cr2s7y6juML8MVgqotqvirHJmrrIlIRVILr2FYbw6s7+aOloVw7zQxAhh5VXLrptc5AJTmvnuEZqvxp71dxliKqDQn2UaWRoqDOWeRuUoDZNurt042gieqo8GnqSkNVUNEAwcE1PlYTqc6MA8XZJVq5quhLqZlbSFlQiW4NYtVOPcdmI9dFadKi2GmqVCtSrkEdLRO8VbNsSD23pxnK0klDhN7uX/4fUhlUst//YkOqg+a7b5tKHjIq7jyqeBipDWp/VTpSHa0SpamkqlfLooKaRoqDSvjjn5v9goBqF3M0jsmIeiq13q88qISngBf6BQHVtgO1ZfI/LmaamplB6oM6Z0hGqvPDCSXyy6rDInZTjXtIA1BJL2NTJ3XXxRMcIL5X9qIlHKfRH5AWoJL+BAhtUgfcGBNsI71dtVO0vn/8f0gTUAkHf9qkjroyxtwlXVRVBOM0jXQBlfgetgLdLpXLHlFgh6xTnROroJKZU7egEncS41THp7nebr9LdqXqV5H6/oF+nUCdi8pEqvsTTISd6g/iFFTVGaQTqOiHskSk7mDYQ9ap7opSUMnbmMIEleya/x6p9E4xYX16mKxTFWQjlSU5pxigrhIfsrBF77g/3mz9ToJOVYyNVMnfkXagol+JD1nYorbn349Zd7SR+4zbjAArVPFdpCGoaJf4Z2oDtIb9NDBfqjjBhap73Et/qRuoHkAlN+DvSwrVRql3gp1RV9aJWfQf3nN+KkhTUOfIR7N4ig6pf2NX3Ra5xYhZvqV/4LWuoFKZBVag06byUPqFiaXOXEv/0BzSFlQ0a5K/oZtUDoVkvTxiYvtUOJb+xndIY1CpzKuv0GhTTXty/p2EXp45boNTi/eQ1qDOhSjc1C0axb+3QZCkaqpfOTWp5G+gegQVfUejlLX85Euq+94MtVJkaqrvuKz6x2eR7qCiNSqlbOqaYC6VWE31nyI0priASmlb8GafYC7VtlfaiByo+p19OzWAAFQai/6UElXv48qzRE6pMm+nVucA1JaG6awNWv484YvMeLYpQST8V9iSGv0VAaj7fX9KaVcn4WP2V713fUNEwn+FJafSDZWmByr6nZKLSBDeTkXiCxBEwj/Lxn8FAahfXIRJKbsaIToQYjgpyNvDsvEfT3UAqER9FcX65ZPCorw9TJeown0A6ie9DtG6y0TD//2MKG8PU1JXRjoA1APRWxs0/ASb/xfLorw9bGdShRciDQB1T+/prbgMEQxdhHbaVdc9H1J5z3THf7GSWljOA6h0V1xW1omdXZogtdae7ZCL1Barua5IHkBFQ/T62GVyNVWWVIMi0Scbqbb9YSu3sNzQHVSqKy6VGKH7O22Q8/MN6UjdywG6r2kOKgrSXAgk1Q6cJefnU4MSkmrbmdmRSI/WoK5S7bmUuok41QmCixNDESlJte2trKRulQyolLuDmRSRTJUkG1sxSUm1o0232tAWVDSXoXp30yTKf6LjCKLbeUlJbb5lqe5BXUGlfd/LBe/H7BJkTcp5zJ3fc5z1k1lb6NAUVOoeYmvdqxcgfbq+5LFPNRfiR6r9obQtVWFFDlT6sWzNIxjE8+hqzNtZxNc8SW2++oW+QR1BpbmYegDGtpd4NUghIakNeiTV5Ipqda27Q0NQGUwDK8Xwyeik4uW99SNe1zlPpLZK68v6gYq+oU5qEtsHdNA5WO91CnGQ++z09PZyj26gMiB1zwdg9AEHS5TsyXhcUL3CeyjlXrL6TjNQWZDavLG1PrfLK4Nr9MzxmKh+w59Uu5oTvbNKGlRGtz0zu+5q49ryLk1rdr2led+I8DWq6O5Uh1agMnMQK7uOWc3HgnRtCY7Jukj1Naql2DWdQGUYypqs9l07N0N817dL3aLojqd65O+QLYRKO8sagYq+YTgOrDpbm1o+C9ZrUwNMjtN5G5j9umqKgWpwR9D91TRARVeZhrJocLzWHekYPO7T3nX07YyzsmXcmzOaL9uCoFoTcmmVCqjsk64P1fRuobs7Eum4dqDlSHdsIJ1haMPKmKcHfLsoCKl2tSAgqnRA5VMefPhQraZLB1qpfmD9+0lv31F5K86nqKuFa5qAKkghy3yRx5NTfW+IcyWlQU1ARe8zOpKaLHjJVHnvUTmUck9rAiqa0JJUe6XNQ9S8P58U5kLWdQEVTQjkH5hGTQ87vNA3liiXEWjoAmrTP+hJqj3eh3+e6qEwyf2YNqAK1BxkvRrZOYadAMRCcTEuYkgjUNHtpK2pSrEOzNh5/4oYN82nE6hMl1MFU7AWwUxWxUhUo1qBih5a2pJqZ8ZjeBMf32dECP96gYouZWyN5esc68DYPT8hQvjXDFRt21RfWG2LXHO9YvXWAlAZg6pv8f8lB0ik+pYH3XnWWIjzXYvrByp6kLR114dAeGAs0jH4znkv4IHFNRTNawgqmrRsULOQ9oUH/H2R5cHBnvNzgR7kN3iSOq4jqM2SygRO91XOBMLhVGqsCezy8rXBlnoOtPeHwY7m3/f19aVSnSWOkcj8TktQ0UQgDoweBrYcCAQS4ZZSB9rc+5Ov+fflMu+8Xqw2KjtQEfoIiapMymkLKnpbhMcvjYx+fUGFRNVDxsi6N/UQaQwqmvCVgTkcJV9aTO+cKdw31NmCiqbfQKKKoeJDNPHGYnfrTN+05qC2NqlA+He9sHVpb/vf20yRTeckLh6n7EFFE1UI/+6wyUx8TvIfWWX673nyo3iccgAVTcOCqqt266NDr/nbl5RZjVuTCAGo+47BgOa/Y/f25lhIarKajFOCtVz8eAsBqJ/v9SMI/47LqJPu38OPz4rEYTXLSevNCEIA6le6WYSaygE6xuncjEy2YC2bZO6jGS8Xnz24hIQVL1DRSBXC//np6TlheOLPN49atMY94Gqa5XLRevlgcgSJLG6gQk2FkZ6eTOulyY+PnlktXl0Baza9aDlZfPbojeCMcgYVIX8GnOpZYd9VIL418ufkx4/PnhWbwO4Ra57KpxnfJ/TZxzeT/gkkh3iCCk71rLC/gjepZGzk0mST2FfPniWbKh9W82+afL76+HFy0j+CpJLB9+f90Kg6Lex7Hv00MtJi9pCafzWG5BRnUMGpkgj7OsjgboHfgJ6q22ofQOXiVG8noaf6tTtNvgAuRQS1mU29Aqf6Za09NAJYCgoqQi/AqX6qom42gEpxQUW37gCqLXdq+IFJoUFtFlUh7eO/mXwA7lR4UFH/C82bqpCdygEqQnMPNI7/ZvJmP/AoB6jN+v9OWVNUy4/AnUoEKkKFkI7x34xC71QyUHVMVc3ygzlAUTZQEWq8SGqFavxVG4AoI6jNquq2PqjGDYj60oKqD6pm8jbU+jKDqgeqZvkOJKeyg6o+qk1MITlVAVS1UTXLUEMpAypC1xNRJVE1468KQJ9CoCLU/9fzuAmYAqgSqPBKqYVVs/wvYKokqAi13SnHlcEUSih1QW0mq+GoChmAWU4ApkqD2kxWC/9KjqoZj4avA3Oqg9pULCGxWzXj/xZgFUoPUPfcKqlJi4wphZivFah72eor2dxqy5muAmyagdpqAiQseVg141Y4BqRpCWpTNTlYbVKaqAFmGoMqA6tAKYD6NatCwmoCpQDq4ZZV+F/hWG1S+i/kpQDqUd0oBMVxrC1XGizcALQA1JMd62LdNHnDugdpDlwpgHq2djjC2vphgBRAdQ5rLmgxprX1c2Y9XINwD6C6zFlr+67VZIKoVV/MgiMFUL3QalDC1dyXUQ/ndu4DRACqd21nm7jaxHDdB9Su1sOL2+tAD4BKWOvbi4v1+gFnuP7Ttuv19OLi9jb4UACVOrDZxcVgvW59ps88wu7Rv67W68HFxcUU4Amgckpht5ta3Fe4/knBg7/Jtv4V0ARQQSAAFaSg/l+AAQArpGF2rD3hlwAAAABJRU5ErkJggg==;" vertex="1" parent="1">
                    <mxGeometry x="380" y="93" width="126.51" height="96" as="geometry"/>
                </mxCell>
            </root>
        </mxGraphModel>
    </diagram>
</mxfile>